<svg width="24" height="24" viewBox="0 0 24 24" fill="none" xmlns="http://www.w3.org/2000/svg">
<path d="M12.722 16.281V12.75H16.254C16.4529 12.75 16.6437 12.671 16.7843 12.5303C16.925 12.3897 17.004 12.1989 17.004 12C17.004 11.8011 16.925 11.6103 16.7843 11.4697C16.6437 11.329 16.4529 11.25 16.254 11.25H12.722V7.71701C12.722 7.51809 12.643 7.32733 12.5023 7.18668C12.3617 7.04602 12.1709 6.96701 11.972 6.96701C11.7731 6.96701 11.5823 7.04602 11.4417 7.18668C11.301 7.32733 11.222 7.51809 11.222 7.71701V11.249H7.69001C7.49109 11.249 7.30033 11.328 7.15968 11.4687C7.01902 11.6093 6.94001 11.8001 6.94001 11.999C6.94001 12.1979 7.01902 12.3887 7.15968 12.5293C7.30033 12.67 7.49109 12.749 7.69001 12.749H11.222V16.281C11.222 16.4799 11.301 16.6707 11.4417 16.8113C11.5823 16.952 11.7731 17.031 11.972 17.031C12.1709 17.031 12.3617 16.952 12.5023 16.8113C12.643 16.6707 12.722 16.4799 12.722 16.281ZM20.296 20.314C20.2273 20.3877 20.1445 20.4468 20.0525 20.4878C19.9605 20.5288 19.8612 20.5508 19.7605 20.5526C19.6598 20.5544 19.5598 20.5359 19.4664 20.4981C19.373 20.4604 19.2882 20.4043 19.217 20.333C19.1457 20.2618 19.0896 20.177 19.0519 20.0836C19.0142 19.9902 18.9956 19.8902 18.9974 19.7895C18.9992 19.6888 19.0212 19.5895 19.0622 19.4975C19.1032 19.4055 19.1623 19.3227 19.236 19.254C23.24 15.248 23.24 8.73201 19.236 4.72701C17.309 2.80101 14.73 1.74001 11.972 1.74001C9.21501 1.74001 6.63501 2.80101 4.70901 4.72701C0.704005 8.73201 0.704005 15.248 4.70901 19.253C6.20489 20.7439 8.12308 21.7388 10.2035 22.1026C12.2839 22.4665 14.4259 22.1817 16.339 21.287C16.4282 21.2451 16.5247 21.2212 16.6231 21.2166C16.7215 21.212 16.8199 21.2269 16.9126 21.2603C17.0052 21.2937 17.0904 21.3451 17.1632 21.4114C17.2361 21.4778 17.2951 21.5578 17.337 21.647C17.3789 21.7362 17.4028 21.8327 17.4074 21.9311C17.412 22.0295 17.3971 22.1279 17.3637 22.2206C17.3303 22.3132 17.2789 22.3984 17.2126 22.4712C17.1462 22.5441 17.0662 22.6031 16.977 22.645C15.4159 23.3777 13.7125 23.7571 11.988 23.756C8.92401 23.756 5.90101 22.566 3.64801 20.314C-0.941995 15.724 -0.941995 8.25601 3.64801 3.66601C5.85801 1.45701 8.81401 0.240005 11.972 0.240005C15.132 0.240005 18.087 1.45701 20.296 3.66601C24.886 8.25601 24.886 15.724 20.296 20.314Z" fill="#292830"/>
</svg>
