<svg width="24" height="24" viewBox="0 0 24 24" fill="none" xmlns="http://www.w3.org/2000/svg">
<path d="M17.365 12.892C17.365 13.656 16.743 14.277 15.98 14.277C15.6127 14.2767 15.2604 14.1308 15.0006 13.8711C14.7408 13.6115 14.5945 13.2593 14.594 12.892C14.594 12.128 15.216 11.507 15.98 11.507C16.743 11.507 17.365 12.128 17.365 12.892ZM18.865 12.892C18.8642 12.1271 18.56 11.3937 18.0191 10.8529C17.4783 10.312 16.7449 10.0078 15.98 10.007C15.215 10.0078 14.4816 10.312 13.9405 10.8528C13.3995 11.3936 13.0951 12.127 13.094 12.892C13.0951 13.657 13.3995 14.3903 13.9405 14.9312C14.4816 15.472 15.215 15.7762 15.98 15.777C16.7449 15.7762 17.4783 15.472 18.0191 14.9311C18.56 14.3902 18.8642 13.6569 18.865 12.892ZM17.098 22.67C17.7955 21.8298 18.4672 20.9683 19.112 20.087C19.2159 19.9258 19.2542 19.731 19.219 19.5425C19.1839 19.354 19.0779 19.1861 18.923 19.0732C18.768 18.9603 18.5757 18.9109 18.3855 18.9353C18.1953 18.9596 18.0216 19.0557 17.9 19.204C17.142 20.244 16.418 21.141 16.016 21.712C13.558 18.753 10.933 14.917 10.933 13.022C10.9346 11.6839 11.4668 10.4011 12.413 9.45498C13.3591 8.50883 14.6419 7.97658 15.98 7.97499C17.3181 7.97658 18.6009 8.50883 19.547 9.45498C20.4932 10.4011 21.0254 11.6839 21.027 13.022C21.027 13.638 20.732 14.845 19.33 17.096C19.2779 17.1796 19.2429 17.2727 19.2268 17.3699C19.2107 17.4672 19.2139 17.5666 19.2362 17.6626C19.2585 17.7585 19.2996 17.8492 19.3569 17.9293C19.4143 18.0094 19.4869 18.0774 19.5705 18.1295C19.6542 18.1816 19.7472 18.2166 19.8445 18.2327C19.9417 18.2488 20.0411 18.2456 20.1371 18.2233C20.233 18.201 20.3237 18.1599 20.4038 18.1026C20.4839 18.0452 20.5519 17.9726 20.604 17.889C21.898 15.811 22.527 14.219 22.527 13.022C22.5252 11.2862 21.8348 9.62201 20.6074 8.39461C19.38 7.16721 17.7158 6.47685 15.98 6.47499C14.2442 6.47685 12.58 7.16721 11.3526 8.39461C10.1252 9.62201 9.43486 11.2862 9.43301 13.022C9.43301 15.73 12.834 20.229 14.863 22.67C14.999 22.8349 15.1697 22.9676 15.363 23.0588C15.5563 23.1499 15.7673 23.1972 15.981 23.1972C16.1947 23.1972 16.4058 23.1499 16.599 23.0588C16.7923 22.9676 16.9631 22.8349 17.099 22.67H17.098ZM8.47701 14.925C8.47701 14.7261 8.39799 14.5353 8.25734 14.3947C8.11668 14.254 7.92592 14.175 7.72701 14.175H5.60201C5.40309 14.175 5.21233 14.254 5.07168 14.3947C4.93102 14.5353 4.85201 14.7261 4.85201 14.925C4.85201 15.1239 4.93102 15.3147 5.07168 15.4553C5.21233 15.596 5.40309 15.675 5.60201 15.675H7.72701C7.92592 15.675 8.11668 15.596 8.25734 15.4553C8.39799 15.3147 8.47701 15.1239 8.47701 14.925ZM8.47701 10.69C8.47701 10.4911 8.39799 10.3003 8.25734 10.1597C8.11668 10.019 7.92592 9.93999 7.72701 9.93999H5.60201C5.40309 9.93999 5.21233 10.019 5.07168 10.1597C4.93102 10.3003 4.85201 10.4911 4.85201 10.69C4.85201 10.8889 4.93102 11.0797 5.07168 11.2203C5.21233 11.361 5.40309 11.44 5.60201 11.44H7.72701C7.92592 11.44 8.11668 11.361 8.25734 11.2203C8.39799 11.0797 8.47701 10.8889 8.47701 10.69ZM11.259 6.45499C11.259 6.25608 11.18 6.06531 11.0393 5.92466C10.8987 5.78401 10.7079 5.70499 10.509 5.70499H5.60201C5.40309 5.70499 5.21233 5.78401 5.07168 5.92466C4.93102 6.06531 4.85201 6.25608 4.85201 6.45499C4.85201 6.6539 4.93102 6.84467 5.07168 6.98532C5.21233 7.12598 5.40309 7.20499 5.60201 7.20499H10.509C10.7079 7.20499 10.8987 7.12598 11.0393 6.98532C11.18 6.84467 11.259 6.6539 11.259 6.45499ZM12.194 23.195H4.77801C4.03822 23.1945 3.32888 22.9003 2.80576 22.3772C2.28265 21.8541 1.98854 21.1448 1.98801 20.405V3.59499C1.9888 2.85528 2.283 2.1461 2.80606 1.62304C3.32911 1.09999 4.0383 0.805787 4.77801 0.804993H17.416C18.1556 0.806051 18.8647 1.10034 19.3877 1.62333C19.9107 2.14633 20.2049 2.85536 20.206 3.59499V5.11199C20.206 5.3109 20.127 5.50167 19.9863 5.64232C19.8457 5.78298 19.6549 5.86199 19.456 5.86199C19.2571 5.86199 19.0663 5.78298 18.9257 5.64232C18.785 5.50167 18.706 5.3109 18.706 5.11199V3.59399C18.706 2.88399 18.127 2.30399 17.416 2.30399H4.77801C4.06601 2.30399 3.48801 2.88399 3.48801 3.59399V20.405C3.48801 21.117 4.06601 21.695 4.77801 21.695H12.194C12.3929 21.695 12.5837 21.774 12.7243 21.9147C12.865 22.0553 12.944 22.2461 12.944 22.445C12.944 22.6439 12.865 22.8347 12.7243 22.9753C12.5837 23.116 12.3929 23.195 12.194 23.195Z" fill="#292830"/>
</svg>
