<svg width="24" height="24" viewBox="0 0 24 24" fill="none" xmlns="http://www.w3.org/2000/svg">
<path d="M8.84199 17.921V5.98399H7.35799L6.06099 8.41099H7.35799V17.921H8.84199ZM11.732 14.079C11.732 15.458 12.854 16.579 14.232 16.579C15.61 16.579 16.732 15.458 16.732 14.079C16.732 12.701 15.611 11.579 14.232 11.579C12.854 11.579 11.732 12.701 11.732 14.079ZM13.065 8.41099C13.065 9.05399 13.589 9.57799 14.232 9.57799C14.875 9.57799 15.399 9.05399 15.399 8.41099C15.399 7.76799 14.875 7.24399 14.232 7.24399C13.589 7.24399 13.065 7.76799 13.065 8.41099ZM12.548 10.463C11.953 9.97399 11.565 9.24099 11.565 8.41099C11.565 6.93799 12.759 5.74399 14.232 5.74399C15.705 5.74399 16.899 6.93799 16.899 8.41099C16.899 9.24099 16.511 9.97399 15.916 10.463C17.281 11.1 18.232 12.474 18.232 14.079C18.232 16.288 16.441 18.079 14.232 18.079C12.023 18.079 10.232 16.288 10.232 14.079C10.232 12.474 11.183 11.1 12.548 10.463ZM23.473 11.744C23.473 14.897 22.259 17.847 20.053 20.053C19.76 20.346 19.285 20.346 18.992 20.053C18.699 19.76 18.699 19.285 18.992 18.992C20.914 17.07 21.973 14.496 21.973 11.744C21.973 8.99199 20.914 6.41899 18.992 4.49699C14.995 0.500994 8.49299 0.500994 4.49599 4.49699C0.499994 8.49299 0.499994 14.996 4.49599 18.992C7.54099 22.037 12.206 22.852 16.102 21.022C16.476 20.846 16.924 21.006 17.1 21.382C17.276 21.758 17.115 22.204 16.74 22.379C15.151 23.126 13.449 23.489 11.76 23.489C8.70199 23.489 5.68399 22.301 3.43599 20.053C-1.14501 15.471 -1.14501 8.01699 3.43599 3.43599C8.01699 -1.14501 15.472 -1.14501 20.053 3.43599C22.259 5.64099 23.473 8.592 23.473 11.744Z" fill="#292830"/>
</svg>
