<svg width="24" height="24" viewBox="0 0 24 24" fill="none" xmlns="http://www.w3.org/2000/svg">
<path d="M7.77599 8.76299C7.08599 8.76299 6.52599 8.20199 6.52599 7.51299C6.52599 6.82299 7.08599 6.26299 7.77599 6.26299C8.46399 6.26299 9.02599 6.82299 9.02599 7.51299C9.02599 8.20199 8.46399 8.76299 7.77599 8.76299ZM7.77599 4.76299C7.04681 4.76352 6.34764 5.05342 5.83203 5.56903C5.31642 6.08464 5.02652 6.78381 5.02599 7.51299C5.02652 8.24218 5.31642 8.94134 5.83203 9.45695C6.34764 9.97256 7.04681 10.2625 7.77599 10.263C8.50517 10.2625 9.20434 9.97256 9.71995 9.45695C10.2356 8.94134 10.5255 8.24218 10.526 7.51299C10.5255 6.78381 10.2356 6.08464 9.71995 5.56903C9.20434 5.05342 8.50517 4.76352 7.77599 4.76299ZM17.755 8.46599C17.425 8.10499 16.951 7.91099 16.398 7.92399C15.873 7.93999 15.4 8.16299 15.102 8.53399L10.462 14.331C10.45 14.345 10.383 14.381 10.277 14.381H10.275C10.177 14.381 10.107 14.347 10.091 14.329L8.18999 12.123C7.56299 11.395 6.17399 11.395 5.54599 12.123L2.52899 15.623V3.88699C2.52899 3.17499 3.10899 2.59599 3.81899 2.59599H20.179C20.891 2.59599 21.469 3.17499 21.469 3.88599V12.556L17.754 8.46599H17.755ZM20.179 1.09599H3.81899C3.07928 1.09679 2.3701 1.39099 1.84704 1.91404C1.32399 2.4371 1.02979 3.14628 1.02899 3.88599V20.115C1.02979 20.8546 1.32402 21.5637 1.8471 22.0866C2.37018 22.6095 3.07937 22.9035 3.81899 22.904H15.211C15.4099 22.904 15.6007 22.825 15.7413 22.6843C15.882 22.5437 15.961 22.3529 15.961 22.154C15.961 21.9551 15.882 21.7643 15.7413 21.6237C15.6007 21.483 15.4099 21.404 15.211 21.404H3.81899C3.10899 21.404 2.52899 20.826 2.52899 20.114V17.922L6.68099 13.102C6.71299 13.066 7.02399 13.066 7.05299 13.102L8.95399 15.308C9.27599 15.682 9.77599 15.891 10.312 15.881C10.848 15.871 11.329 15.648 11.632 15.268L16.272 9.47299C16.285 9.45999 16.35 9.42299 16.456 9.42299C16.563 9.43699 16.628 9.45799 16.644 9.47499L21.469 14.788V20.115C21.4687 20.4569 21.3327 20.7848 21.0908 21.0265C20.8489 21.2682 20.5209 21.404 20.179 21.404H19.036C18.8371 21.404 18.6463 21.483 18.5057 21.6237C18.365 21.7643 18.286 21.9551 18.286 22.154C18.286 22.3529 18.365 22.5437 18.5057 22.6843C18.6463 22.825 18.8371 22.904 19.036 22.904H20.178C20.9178 22.9035 21.6271 22.6093 22.1502 22.0862C22.6733 21.5631 22.9675 20.8538 22.968 20.114V3.88799C22.9675 3.14811 22.6734 2.43867 22.1503 1.9154C21.6272 1.39213 20.9179 1.09779 20.178 1.09699L20.179 1.09599Z" fill="#292830"/>
</svg>
