<svg width="24" height="24" viewBox="0 0 24 24" fill="none" xmlns="http://www.w3.org/2000/svg">
<path d="M5.21501 8.246C5.3872 8.07383 5.6163 7.97039 5.85933 7.95511C6.10235 7.93983 6.34261 8.01375 6.53501 8.163L6.62901 8.246L12 13.617L17.37 8.247C17.5421 8.07468 17.7711 7.97106 18.0141 7.9556C18.2572 7.94013 18.4975 8.01388 18.69 8.163L18.785 8.246C18.9572 8.41819 19.0606 8.64729 19.0759 8.89032C19.0912 9.13335 19.0173 9.3736 18.868 9.566L18.785 9.661L12.707 15.738C12.5348 15.9102 12.3057 16.0136 12.0627 16.0289C11.8197 16.0442 11.5794 15.9703 11.387 15.821L11.293 15.738L5.21501 9.661C5.12203 9.56813 5.04827 9.45784 4.99795 9.33644C4.94762 9.21504 4.92172 9.08492 4.92172 8.9535C4.92172 8.82209 4.94762 8.69196 4.99795 8.57056C5.04827 8.44916 5.12203 8.33887 5.21501 8.246Z" fill="#292830"/>
</svg>
