<svg width="24" height="24" viewBox="0 0 24 24" fill="none" xmlns="http://www.w3.org/2000/svg">
<path d="M8.2403 18.7693C8.06847 18.5968 7.96549 18.3675 7.9507 18.1244C7.9359 17.8814 8.01029 17.6413 8.15993 17.4492L8.24312 17.3553L13.6248 11.995L8.26549 6.61435C8.09351 6.44194 7.99035 6.2127 7.97537 5.96964C7.96038 5.72658 8.03461 5.48641 8.18412 5.29418L8.26731 5.19935C8.43984 5.02752 8.66915 4.92454 8.9122 4.90974C9.15526 4.89495 9.39536 4.96934 9.58747 5.11898L9.6823 5.20217L15.7472 11.2922C15.919 11.4648 16.022 11.6941 16.0368 11.9371C16.0516 12.1802 15.9772 12.4203 15.8276 12.6124L15.7444 12.7062L9.6553 18.7721C9.56224 18.8649 9.45181 18.9385 9.33031 18.9886C9.20881 19.0386 9.07863 19.0643 8.94722 19.064C8.8158 19.0638 8.68573 19.0376 8.56443 18.987C8.44313 18.9365 8.33299 18.8625 8.2403 18.7693V18.7693Z" fill="#292830"/>
</svg>
