<svg width="24" height="24" viewBox="0 0 24 24" fill="none" xmlns="http://www.w3.org/2000/svg">
<path d="M12 0C5.37258 0 0 5.37258 0 12C0 18.6274 5.37258 24 12 24C18.6274 24 24 18.6274 24 12C24 5.37258 18.6274 0 12 0ZM9.86733 6.24019C10.1706 5.95195 10.6319 5.92313 10.9667 6.1537L11.0732 6.24019L16.5678 11.4603C16.8465 11.7257 16.8743 12.1494 16.6514 12.4457L16.5678 12.5393L11.0732 17.7606C10.9044 17.9198 10.6875 18 10.47 18C10.253 18 10.0361 17.9198 9.86733 17.7606C9.54328 17.4519 9.5138 16.9573 9.77897 16.6153L9.86733 16.5176L14.4692 12.1449C14.536 12.0817 14.5493 11.9853 14.5093 11.9088L14.4692 11.856L9.86733 7.48331C9.51084 7.14375 9.51084 6.57923 9.86733 6.24028V6.24019Z" fill="#292830"/>
</svg>
