<svg width="24" height="24" viewBox="0 0 24 24" fill="none" xmlns="http://www.w3.org/2000/svg">
<path d="M16.207 2.793C16.3792 2.96519 16.4826 3.19429 16.4979 3.43732C16.5132 3.68034 16.4393 3.9206 16.29 4.113L16.207 4.207L8.415 12L16.207 19.793C16.3863 19.973 16.4905 20.2144 16.4982 20.4684C16.506 20.7223 16.4168 20.9697 16.2488 21.1603C16.0807 21.3508 15.8464 21.4703 15.5935 21.4944C15.3406 21.5185 15.088 21.4454 14.887 21.29L14.793 21.207L6.293 12.707C6.10553 12.5195 6.00021 12.2652 6.00021 12C6.00021 11.7348 6.10553 11.4805 6.293 11.293L14.793 2.793C14.9805 2.60553 15.2348 2.50021 15.5 2.50021C15.7652 2.50021 16.0195 2.60553 16.207 2.793Z" fill="#292830"/>
</svg>
