<svg width="24" height="24" viewBox="0 0 24 24" fill="none" xmlns="http://www.w3.org/2000/svg">
<path d="M24 12C24 18.627 18.627 24 12 24C5.373 24 0 18.627 0 12C0 5.373 5.373 0 12 0C18.627 0 24 5.373 24 12ZM13.033 6.154L12.927 6.24L7.432 11.46C7.29949 11.5855 7.2178 11.7553 7.20249 11.9372C7.18718 12.119 7.23933 12.3001 7.349 12.446L7.432 12.539L12.927 17.761C13.0899 17.9152 13.3057 18.0012 13.53 18.0012C13.7543 18.0012 13.9701 17.9152 14.133 17.761C14.2872 17.6149 14.3817 17.4168 14.3979 17.205C14.4142 16.9932 14.3511 16.7829 14.221 16.615L14.133 16.518L9.531 12.145C9.49949 12.1154 9.47852 12.0763 9.4713 12.0337C9.46408 11.9911 9.471 11.9473 9.491 11.909L9.531 11.856L14.133 7.483C14.2175 7.40301 14.2847 7.30664 14.3307 7.19979C14.3767 7.09293 14.4004 6.97783 14.4004 6.8615C14.4004 6.74517 14.3767 6.63007 14.3307 6.52321C14.2847 6.41636 14.2175 6.31999 14.133 6.24C13.9872 6.10189 13.7984 6.01799 13.5982 6.00234C13.398 5.98669 13.1985 6.04022 13.033 6.154Z" fill="#292830"/>
</svg>
