<svg width="24" height="24" viewBox="0 0 24 24" fill="none" xmlns="http://www.w3.org/2000/svg">
<path d="M8.227 1.64301C10.3317 0.785502 12.6883 0.785502 14.793 1.64301L22.554 4.83301C22.6914 4.88929 22.8089 4.98512 22.8917 5.10833C22.9745 5.23153 23.0188 5.37656 23.019 5.52501V8.56001C23.019 8.75892 22.94 8.94968 22.7993 9.09034C22.6587 9.23099 22.4679 9.31001 22.269 9.31001H21.108V18.767H22.269C22.4679 18.767 22.6587 18.846 22.7993 18.9867C22.94 19.1273 23.019 19.3181 23.019 19.517V22.165C23.019 22.3639 22.94 22.5547 22.7993 22.6953C22.6587 22.836 22.4679 22.915 22.269 22.915H20.296C20.0971 22.915 19.9063 22.836 19.7657 22.6953C19.625 22.5547 19.546 22.3639 19.546 22.165C19.546 21.9661 19.625 21.7753 19.7657 21.6347C19.9063 21.494 20.0971 21.415 20.296 21.415H21.519V20.267H1.5V21.415H16.51C16.7089 21.415 16.8997 21.494 17.0403 21.6347C17.181 21.7753 17.26 21.9661 17.26 22.165C17.26 22.3639 17.181 22.5547 17.0403 22.6953C16.8997 22.836 16.7089 22.915 16.51 22.915H0.75C0.551088 22.915 0.360322 22.836 0.21967 22.6953C0.0790176 22.5547 0 22.3639 0 22.165L0 19.517C0 19.3181 0.0790176 19.1273 0.21967 18.9867C0.360322 18.846 0.551088 18.767 0.75 18.767H1.912V9.31001H0.75C0.551088 9.31001 0.360322 9.23099 0.21967 9.09034C0.0790176 8.94968 0 8.75892 0 8.56001L0 5.52501C0 5.22101 0.184 4.94701 0.465 4.83201L8.227 1.64301ZM4.912 9.31001H3.412V18.768H4.912V9.31001ZM19.608 9.31001H18.108V18.767H19.608V9.31001ZM16.608 9.31001H6.412V18.767H16.608V9.31001ZM11.542 10.238C11.872 10.238 12.139 10.505 12.139 10.835V10.925C12.986 11.165 13.604 11.9 13.604 12.768C13.604 12.9265 13.541 13.0784 13.429 13.1905C13.3169 13.3026 13.165 13.3655 13.0065 13.3655C12.848 13.3655 12.6961 13.3026 12.584 13.1905C12.472 13.0784 12.409 12.9265 12.409 12.768C12.409 12.364 12.02 12.036 11.542 12.036C11.064 12.036 10.675 12.364 10.675 12.768C10.675 13.171 11.064 13.499 11.542 13.499C12.679 13.499 13.604 14.363 13.604 15.425C13.604 16.293 12.986 17.029 12.139 17.269V17.307C12.139 17.4653 12.0761 17.6172 11.9641 17.7291C11.8522 17.8411 11.7003 17.904 11.542 17.904C11.3837 17.904 11.2318 17.8411 11.1199 17.7291C11.0079 17.6172 10.945 17.4653 10.945 17.307V17.269C10.099 17.029 9.481 16.293 9.481 15.425C9.481 15.2667 9.5439 15.1148 9.65586 15.0029C9.76782 14.8909 9.91967 14.828 10.078 14.828C10.2363 14.828 10.3882 14.8909 10.5001 15.0029C10.6121 15.1148 10.675 15.2667 10.675 15.425C10.675 15.829 11.064 16.157 11.542 16.157C12.02 16.157 12.409 15.829 12.409 15.425C12.409 15.022 12.02 14.693 11.542 14.693C10.406 14.693 9.481 13.83 9.481 12.768C9.481 11.9 10.099 11.164 10.945 10.924V10.835C10.945 10.505 11.212 10.238 11.542 10.238ZM14.223 3.03101C12.4838 2.32203 10.5362 2.32203 8.797 3.03101L1.5 6.02801V7.81001H21.519V6.02801L19.806 5.32501L14.223 3.03101ZM11.51 3.15501C12.664 3.15501 13.604 4.09501 13.604 5.24901C13.604 6.40301 12.664 7.34201 11.51 7.34201C10.9551 7.34148 10.4231 7.12096 10.0306 6.72881C9.63808 6.33666 9.41706 5.80486 9.416 5.25001C9.416 4.09501 10.355 3.15601 11.51 3.15601V3.15501ZM11.51 4.65501C11.3599 4.66568 11.2194 4.73285 11.1168 4.84298C11.0143 4.95311 10.9572 5.09801 10.9572 5.24851C10.9572 5.399 11.0143 5.5439 11.1168 5.65403C11.2194 5.76416 11.3599 5.83133 11.51 5.84201C11.6601 5.83133 11.8006 5.76416 11.9032 5.65403C12.0057 5.5439 12.0628 5.399 12.0628 5.24851C12.0628 5.09801 12.0057 4.95311 11.9032 4.84298C11.8006 4.73285 11.6601 4.66568 11.51 4.65501Z" fill="#292830"/>
</svg>
