<svg width="24" height="24" viewBox="0 0 24 24" fill="none" xmlns="http://www.w3.org/2000/svg">
<path d="M13.664 4.907V2.852C13.664 2.73889 13.6896 2.62724 13.7388 2.52541C13.7881 2.42359 13.8598 2.33422 13.9484 2.264C14.0371 2.19379 14.1405 2.14454 14.2509 2.11995C14.3614 2.09536 14.4759 2.09606 14.586 2.122C18.962 3.154 22.169 7.012 22.384 11.504C22.3888 11.6024 22.3742 11.7008 22.341 11.7935C22.3078 11.8862 22.2566 11.9715 22.1903 12.0444C22.1241 12.1173 22.0442 12.1765 21.955 12.2184C21.8659 12.2604 21.7694 12.2844 21.671 12.289H21.635C21.4425 12.289 21.2574 12.2149 21.118 12.0822C20.9785 11.9495 20.8955 11.7683 20.886 11.576C20.718 8.072 18.414 5.02 15.164 3.855V4.907C15.164 5.10591 15.085 5.29668 14.9443 5.43733C14.8037 5.57798 14.6129 5.657 14.414 5.657C14.2151 5.657 14.0243 5.57798 13.8837 5.43733C13.743 5.29668 13.664 5.10591 13.664 4.907ZM11.214 19.171V21.226C11.2132 21.4247 11.1339 21.615 10.9935 21.7555C10.853 21.8959 10.6627 21.9752 10.464 21.976C10.4167 21.9758 10.3695 21.9711 10.323 21.962C8.23733 21.5628 6.33005 20.5177 4.87116 18.9747C3.41227 17.4316 2.47569 15.4688 2.194 13.364C2.18077 13.2664 2.18692 13.1672 2.21209 13.072C2.23726 12.9768 2.28095 12.8875 2.34068 12.8092C2.4004 12.7309 2.47498 12.6651 2.56015 12.6157C2.64531 12.5662 2.73939 12.534 2.837 12.521C2.93464 12.5074 3.03402 12.5132 3.12939 12.5382C3.22475 12.5632 3.31422 12.6069 3.39261 12.6667C3.471 12.7265 3.53676 12.8012 3.58609 12.8866C3.63542 12.9719 3.66734 13.0662 3.68 13.164C3.89961 14.8017 4.58504 16.3419 5.65475 17.6013C6.72445 18.8607 8.1334 19.7863 9.714 20.268V19.17C9.714 18.9711 9.79302 18.7803 9.93367 18.6397C10.0743 18.499 10.2651 18.42 10.464 18.42C10.6629 18.42 10.8537 18.499 10.9943 18.6397C11.135 18.7803 11.214 18.9711 11.214 19.17V19.171ZM4.847 1.09C5.35652 0.86548 5.90721 0.749527 6.464 0.749527C7.02079 0.749527 7.57148 0.86548 8.081 1.09C8.25352 1.17643 8.38615 1.32594 8.45139 1.50753C8.51663 1.68912 8.50947 1.88885 8.43141 2.0653C8.35334 2.24176 8.21035 2.3814 8.03209 2.45526C7.85384 2.52912 7.65399 2.53153 7.474 2.462C7.15581 2.32154 6.81182 2.24899 6.464 2.24899C6.11618 2.24899 5.77219 2.32154 5.454 2.462L2.5 3.769V4.582H10.427V3.769L9.92 3.545C9.74064 3.46298 9.60081 3.31361 9.53078 3.12923C9.46076 2.94486 9.46617 2.74032 9.54586 2.55991C9.62554 2.37951 9.77308 2.23774 9.95653 2.16533C10.14 2.09291 10.3446 2.09567 10.526 2.173L11.48 2.593C11.752 2.715 11.927 2.983 11.927 3.281V5.331C11.927 5.52991 11.848 5.72068 11.7073 5.86133C11.5667 6.00198 11.3759 6.081 11.177 6.081H10.214V9.643H11.177C11.3759 9.643 11.5667 9.72202 11.7073 9.86267C11.848 10.0033 11.927 10.1941 11.927 10.393C11.927 10.5919 11.848 10.7827 11.7073 10.9233C11.5667 11.064 11.3759 11.143 11.177 11.143H1.75C1.55109 11.143 1.36032 11.064 1.21967 10.9233C1.07902 10.7827 1 10.5919 1 10.393C1 10.1941 1.07902 10.0033 1.21967 9.86267C1.36032 9.72202 1.55109 9.643 1.75 9.643H2.714V6.082H1.75C1.55109 6.082 1.36032 6.00298 1.21967 5.86233C1.07902 5.72168 1 5.53091 1 5.332V3.28C1 2.983 1.176 2.714 1.447 2.593L4.847 1.09ZM8.714 6.08H7.214V9.642H8.714V6.082V6.08ZM5.714 6.08H4.214V9.642H5.714V6.082V6.08ZM16.42 13.197C16.9295 12.9722 17.4802 12.8562 18.037 12.8562C18.5938 12.8562 19.1445 12.9722 19.654 13.197C19.8359 13.2775 19.9784 13.427 20.0502 13.6125C20.1219 13.7981 20.117 14.0046 20.0365 14.1865C19.956 14.3684 19.8065 14.511 19.621 14.5827C19.4354 14.6544 19.2289 14.6495 19.047 14.569C18.7289 14.4283 18.3849 14.3556 18.037 14.3556C17.6891 14.3556 17.3451 14.4283 17.027 14.569L14.074 15.874V16.688H22V15.874L21.493 15.65C21.3111 15.5695 21.1686 15.42 21.0968 15.2345C21.0613 15.1426 21.0442 15.0446 21.0466 14.9461C21.0489 14.8476 21.0706 14.7506 21.1105 14.6605C21.1504 14.5704 21.2076 14.4891 21.2789 14.4211C21.3502 14.3531 21.4341 14.2998 21.526 14.2643C21.7116 14.1926 21.9181 14.1975 22.1 14.278L23.054 14.7C23.1868 14.7589 23.2996 14.855 23.3788 14.9768C23.458 15.0986 23.5001 15.2407 23.5 15.386V17.438C23.5 17.6369 23.421 17.8277 23.2803 17.9683C23.1397 18.109 22.9489 18.188 22.75 18.188H21.787V21.748H22.75C22.9489 21.748 23.1397 21.827 23.2803 21.9677C23.421 22.1083 23.5 22.2991 23.5 22.498C23.5 22.6969 23.421 22.8877 23.2803 23.0283C23.1397 23.169 22.9489 23.248 22.75 23.248H13.324C13.1251 23.248 12.9343 23.169 12.7937 23.0283C12.653 22.8877 12.574 22.6969 12.574 22.498C12.574 22.2991 12.653 22.1083 12.7937 21.9677C12.9343 21.827 13.1251 21.748 13.324 21.748H14.287V18.188H13.324C13.1251 18.188 12.9343 18.109 12.7937 17.9683C12.653 17.8277 12.574 17.6369 12.574 17.438V15.386C12.5739 15.2407 12.616 15.0986 12.6952 14.9768C12.7744 14.855 12.8872 14.7589 13.02 14.7L16.42 13.197ZM20.287 18.187H18.787V21.749H20.287V18.188V18.187ZM17.287 18.187H15.787V21.749H17.287V18.188V18.187Z" fill="#292830"/>
</svg>
