<svg width="24" height="24" viewBox="0 0 24 24" fill="none" xmlns="http://www.w3.org/2000/svg">
<path d="M12 22.07C10.991 22.07 10.148 21.371 9.91501 20.434H14.085C13.851 21.371 13.009 22.07 12 22.07ZM23.57 18.251C20.68 14.999 20.68 12.656 20.68 9.11102C20.68 7.18402 20.061 5.36102 18.892 3.83502C18.64 3.50602 18.168 3.44302 17.842 3.69502C17.512 3.94702 17.45 4.41802 17.702 4.74702C18.668 6.00802 19.179 7.51702 19.179 9.11002C19.179 12.752 19.179 15.413 22.176 18.934H1.82301C4.81701 15.408 4.81901 12.605 4.82101 9.37402C4.82301 5.57902 7.53601 2.40102 11.132 1.98102C12.657 1.80102 14.163 2.09502 15.483 2.83102C15.845 3.03102 16.301 2.90202 16.503 2.53902C16.705 2.17702 16.574 1.72002 16.213 1.51902C14.615 0.631024 12.8 0.280024 10.957 0.490024C6.60601 1.00002 3.32301 4.81802 3.32101 9.37302C3.31901 12.641 3.31801 15.003 0.431013 18.25C0.0810124 18.643 -0.00298753 19.185 0.212013 19.664C0.425013 20.139 0.882013 20.434 1.40201 20.434H8.39701C8.65101 22.202 10.162 23.57 12 23.57C13.838 23.57 15.348 22.202 15.603 20.434H22.6C23.12 20.434 23.575 20.139 23.79 19.664C24.003 19.185 23.919 18.644 23.57 18.251Z" fill="#292830"/>
</svg>
