<svg width="24" height="24" viewBox="0 0 24 24" fill="none" xmlns="http://www.w3.org/2000/svg">
<path d="M16.768 18.514V14.244C16.768 13.097 16.038 11.389 14.023 11.389H9.977C8.873 11.389 7.231 12.15 7.231 14.244V18.514C7.231 18.7129 7.31002 18.9037 7.45067 19.0443C7.59132 19.185 7.78209 19.264 7.981 19.264C8.17991 19.264 8.37068 19.185 8.51133 19.0443C8.65198 18.9037 8.731 18.7129 8.731 18.514V14.244C8.731 13.011 9.69 12.895 9.976 12.889H14.023C15.159 12.889 15.263 13.931 15.268 14.244V18.514C15.268 18.7129 15.347 18.9037 15.4877 19.0443C15.6283 19.185 15.8191 19.264 16.018 19.264C16.2169 19.264 16.4077 19.185 16.5483 19.0443C16.689 18.9037 16.768 18.7129 16.768 18.514ZM12.994 6.66401C13.27 6.94001 13.422 7.30701 13.422 7.69701C13.422 8.08701 13.27 8.45401 12.994 8.73001C12.443 9.28201 11.48 9.28201 10.928 8.73001C10.6548 8.45564 10.5014 8.08421 10.5014 7.69701C10.5014 7.30981 10.6548 6.93838 10.928 6.66401C11.0633 6.5281 11.2241 6.42031 11.4012 6.34685C11.5783 6.2734 11.7682 6.23572 11.96 6.23601C12.351 6.23601 12.718 6.38801 12.994 6.66401ZM14.054 9.79001C14.614 9.23101 14.922 8.48801 14.922 7.69701C14.9232 7.30797 14.8472 6.92256 14.6984 6.56311C14.5496 6.20366 14.3309 5.87732 14.055 5.60301C12.937 4.48501 10.986 4.48401 9.867 5.60301C9.45383 6.01743 9.17262 6.54491 9.05885 7.11894C8.94507 7.69296 9.00382 8.28783 9.22769 8.82851C9.45155 9.36919 9.83051 9.83148 10.3168 10.1571C10.803 10.4827 11.3748 10.657 11.96 10.658C12.3493 10.6592 12.7349 10.5831 13.0946 10.4341C13.4542 10.2851 13.7807 10.0662 14.055 9.79001H14.054ZM20.18 22.904H19.037C18.8381 22.904 18.6473 22.825 18.5067 22.6843C18.366 22.5437 18.287 22.3529 18.287 22.154C18.287 21.9551 18.366 21.7643 18.5067 21.6237C18.6473 21.483 18.8381 21.404 19.037 21.404H20.18C20.892 21.404 21.47 20.825 21.47 20.114V3.88601C21.47 3.17601 20.892 2.59601 20.18 2.59601H3.82C3.108 2.59601 2.53 3.17601 2.53 3.88601V20.114C2.53 20.825 3.109 21.404 3.82 21.404H15.21C15.4089 21.404 15.5997 21.483 15.7403 21.6237C15.881 21.7643 15.96 21.9551 15.96 22.154C15.96 22.3529 15.881 22.5437 15.7403 22.6843C15.5997 22.825 15.4089 22.904 15.21 22.904H3.82C3.08029 22.9032 2.3711 22.609 1.84805 22.086C1.32499 21.5629 1.03079 20.8537 1.03 20.114V3.88601C1.03053 3.14622 1.32464 2.43688 1.84776 1.91377C2.37087 1.39065 3.08021 1.09654 3.82 1.09601H20.18C20.9198 1.09654 21.6291 1.39065 22.1522 1.91377C22.6754 2.43688 22.9695 3.14622 22.97 3.88601V20.114C22.9692 20.8537 22.675 21.5629 22.1519 22.086C21.6289 22.609 20.9197 22.9032 20.18 22.904Z" fill="#292830"/>
</svg>
