<svg width="24" height="24" viewBox="0 0 24 24" fill="none" xmlns="http://www.w3.org/2000/svg">
<g clip-path="url(#clip0)">
<path d="M22.504 7.823C22.504 7.133 21.943 6.573 21.254 6.573H2.75C2.061 6.573 1.5 7.133 1.5 7.823V9.767C1.5 10.332 1.881 10.827 2.426 10.974L9.348 12.834C9.5236 12.2797 9.87069 11.7954 10.3392 11.4511C10.8078 11.1067 11.3735 10.9201 11.955 10.918H12.049C13.262 10.918 14.282 11.712 14.647 12.804L21.574 10.97C21.8405 10.8994 22.0763 10.7427 22.2445 10.5242C22.4127 10.3057 22.5039 10.0377 22.504 9.762V7.822V7.823ZM13.299 13.668C13.299 12.978 12.738 12.418 12.049 12.418H11.955C11.266 12.418 10.705 12.978 10.705 13.668V13.918C10.705 14.607 11.266 15.168 11.955 15.168C12.738 15.168 13.299 14.607 13.299 13.918V13.668ZM8.082 5.073H15.922V3.55C15.922 3.50243 15.9032 3.4568 15.8696 3.42307C15.8361 3.38934 15.7906 3.37026 15.743 3.36999H8.261C8.21343 3.37026 8.16791 3.38934 8.13437 3.42307C8.10083 3.4568 8.082 3.50243 8.082 3.55V5.072V5.073ZM24.004 7.823V9.762C24.0035 10.3685 23.8028 10.958 23.433 11.4388C23.0633 11.9196 22.5451 12.2648 21.959 12.421L14.757 14.327C14.6601 14.9765 14.3336 15.5697 13.8368 15.999C13.3399 16.4283 12.7056 16.6653 12.049 16.667C10.6 16.667 9.464 15.666 9.25 14.36L2.037 12.423C1.45279 12.2656 0.936693 11.9202 0.568492 11.4401C0.200291 10.96 0.000497015 10.372 0 9.767L0 7.823C0.00105809 7.09397 0.291129 6.39512 0.806625 5.87962C1.32212 5.36412 2.02098 5.07405 2.75 5.073H6.582V3.55C6.582 2.624 7.336 1.87 8.261 1.87H15.743C16.1884 1.87026 16.6154 2.04738 16.9303 2.36241C17.2451 2.67744 17.422 3.1046 17.422 3.55V5.072H21.254C21.983 5.07305 22.6819 5.36312 23.1974 5.87862C23.7129 6.39412 24.0029 7.09297 24.004 7.822V7.823ZM23.004 14.199V19.199C23.0035 19.9388 22.7094 20.6481 22.1862 21.1712C21.6631 21.6943 20.9538 21.9885 20.214 21.989H3.79C3.05029 21.9882 2.3411 21.694 1.81805 21.1709C1.29499 20.6479 1.00079 19.9387 1 19.199V14.199C1 14.0001 1.07902 13.8093 1.21967 13.6687C1.36032 13.528 1.55109 13.449 1.75 13.449C1.94891 13.449 2.13968 13.528 2.28033 13.6687C2.42098 13.8093 2.5 14.0001 2.5 14.199V19.199C2.5 19.909 3.079 20.489 3.79 20.489H20.214C20.925 20.489 21.504 19.909 21.504 19.199V14.199C21.504 14.0001 21.583 13.8093 21.7237 13.6687C21.8643 13.528 22.0551 13.449 22.254 13.449C22.4529 13.449 22.6437 13.528 22.7843 13.6687C22.925 13.8093 23.004 14.0001 23.004 14.199Z" fill="#292830"/>
</g>
<defs>
<clipPath id="clip0">
<rect width="24" height="24" fill="white"/>
</clipPath>
</defs>
</svg>
