<svg width="24" height="24" viewBox="0 0 24 24" fill="none" xmlns="http://www.w3.org/2000/svg">
<path d="M1.21969 17.1133C1.51269 16.8203 1.98769 16.8203 2.28069 17.1133L6.83069 21.6633C7.12369 21.9563 7.12369 22.4313 6.83069 22.7243C6.68469 22.8703 6.49369 22.9443 6.30069 22.9443C6.10869 22.9443 5.91669 22.8703 5.77069 22.7243L1.21969 18.1733C0.926689 17.8803 0.926689 17.4063 1.21969 17.1133ZM3.30769 14.3743L9.56969 20.6363C9.86269 20.9293 9.86269 21.4043 9.56969 21.6973C9.42269 21.8433 9.23169 21.9163 9.03869 21.9163C8.84669 21.9163 8.65569 21.8433 8.50869 21.6973L2.24669 15.4353C1.95369 15.1423 1.95369 14.6673 2.24669 14.3743C2.53969 14.0813 3.01469 14.0813 3.30769 14.3743ZM13.9347 1.00028C14.7317 0.994281 15.5127 1.08428 16.2767 1.28228C17.8097 1.67728 19.2137 2.48128 20.3387 3.60528C23.8067 7.07328 23.8067 12.7163 20.3387 16.1843C18.3307 18.1913 15.5027 19.1123 12.7127 18.6873L11.5557 19.8443C11.4097 19.9903 11.2177 20.0643 11.0257 20.0643C10.8327 20.0643 10.6417 19.9903 10.4947 19.8443L4.09969 13.4483C3.80669 13.1563 3.80669 12.6813 4.09969 12.3883L5.25669 11.2313C5.10569 10.2393 5.12269 9.23628 5.30969 8.24328C5.38569 7.83628 5.77469 7.56728 6.18569 7.64528C6.59269 7.72128 6.86069 8.11428 6.78469 8.52128C6.60869 9.45728 6.61369 10.4063 6.79769 11.3393C6.84669 11.5853 6.76969 11.8393 6.59269 12.0163L5.69069 12.9183L11.0257 18.2533L11.9277 17.3513C12.1047 17.1743 12.3627 17.0973 12.6037 17.1463C15.0417 17.6293 17.5307 16.8713 19.2787 15.1233C22.1607 12.2403 22.1607 7.54928 19.2787 4.66528C18.3427 3.73128 17.1747 3.06328 15.9027 2.73528C15.2677 2.57128 14.6277 2.49728 13.9527 2.50028C13.0437 2.51228 12.1547 2.68828 11.3117 3.02428C10.3757 3.39628 9.53769 3.94828 8.82069 4.66528C8.57669 4.90928 8.34669 5.17328 8.13969 5.44828C7.88969 5.77728 7.42069 5.84228 7.08869 5.59428C6.75869 5.34428 6.69369 4.87328 6.94269 4.54328C7.19269 4.21328 7.46669 3.89828 7.75969 3.60528C8.62169 2.74228 9.63069 2.07728 10.7567 1.62928C11.7707 1.22628 12.8397 1.01428 13.9347 1.00028ZM13.975 4.81219C14.4035 4.81219 14.7502 5.15894 14.7502 5.58656V5.70271C15.8481 6.01418 16.65 6.96751 16.65 8.09378C16.65 8.52226 16.3032 8.86901 15.8748 8.86901C15.4471 8.86901 15.1004 8.52226 15.1004 8.09378C15.1004 7.57065 14.5953 7.14475 13.975 7.14475C13.3546 7.14475 12.8496 7.57065 12.8496 8.09378C12.8496 8.61777 13.3546 9.04367 13.975 9.04367C15.4497 9.04367 16.65 10.1648 16.65 11.5431C16.65 12.6694 15.8481 13.6236 14.7502 13.9351V13.9841C14.7502 14.4126 14.4035 14.7593 13.975 14.7593C13.5474 14.7593 13.2006 14.4126 13.2006 13.9841V13.9351C12.1019 13.6236 11.3 12.6694 11.3 11.5431C11.3 11.1147 11.6467 10.7679 12.0752 10.7679C12.5037 10.7679 12.8496 11.1147 12.8496 11.5431C12.8496 12.0663 13.3546 12.4922 13.975 12.4922C14.5953 12.4922 15.1004 12.0663 15.1004 11.5431C15.1004 11.0192 14.5953 10.5933 13.975 10.5933C12.5003 10.5933 11.3 9.47215 11.3 8.09378C11.3 6.96751 12.1019 6.01418 13.2006 5.70271V5.58656C13.2006 5.15894 13.5474 4.81219 13.975 4.81219Z" fill="#292830"/>
</svg>
