<svg width="24" height="24" viewBox="0 0 24 24" fill="none" xmlns="http://www.w3.org/2000/svg">
<path d="M10.834 3.28201L10.497 2.35901C10.4308 2.17707 10.2951 2.02887 10.1197 1.94701C9.94423 1.86515 9.74345 1.85633 9.56151 1.92251C9.37958 1.98868 9.23138 2.12441 9.14952 2.29985C9.06766 2.47529 9.05884 2.67607 9.12502 2.85801L9.46102 3.78201C9.52046 3.94698 9.63745 4.08496 9.79049 4.17057C9.94353 4.25618 10.1223 4.28368 10.294 4.24801L10.398 4.21801C10.4881 4.18519 10.5709 4.13495 10.6415 4.07014C10.7122 4.00534 10.7694 3.92725 10.8099 3.84033C10.8504 3.75341 10.8734 3.65936 10.8775 3.56356C10.8816 3.46777 10.8669 3.37209 10.834 3.28201ZM15.167 3.63201L15.349 2.66601C15.3725 2.48098 15.3245 2.29396 15.2148 2.14314C15.105 1.99232 14.9419 1.88907 14.7586 1.85448C14.5753 1.81989 14.3857 1.85657 14.2286 1.95703C14.0714 2.05748 13.9586 2.21414 13.913 2.39501L13.731 3.36201C13.6991 3.53316 13.7293 3.71009 13.8162 3.86097C13.903 4.01184 14.0409 4.12675 14.205 4.18501L14.314 4.21401C14.4082 4.23182 14.5051 4.2309 14.5989 4.2113C14.6928 4.19169 14.7819 4.15378 14.8611 4.09973C14.9403 4.04568 15.0081 3.97656 15.0606 3.8963C15.1131 3.81605 15.1492 3.72624 15.167 3.63201ZM7.19002 5.23001L6.49502 4.53401C6.42719 4.46618 6.34666 4.41237 6.25804 4.37567C6.16942 4.33896 6.07444 4.32006 5.97852 4.32006C5.78479 4.32006 5.599 4.39702 5.46201 4.53401C5.39419 4.60183 5.34038 4.68236 5.30368 4.77098C5.26697 4.8596 5.24807 4.95458 5.24807 5.05051C5.24807 5.24423 5.32503 5.43002 5.46201 5.56701L6.15702 6.26201C6.28081 6.38575 6.44494 6.46089 6.61951 6.47374C6.79407 6.48659 6.96744 6.43629 7.10802 6.33201L7.19002 6.26201C7.3268 6.12512 7.40364 5.93952 7.40364 5.74601C7.40364 5.55249 7.3268 5.36689 7.19002 5.23001ZM21.443 15.175C21.5331 15.2078 21.6288 15.2226 21.7246 15.2185C21.8204 15.2143 21.9144 15.1913 22.0013 15.1509C22.0882 15.1104 22.1663 15.0532 22.2311 14.9825C22.2959 14.9118 22.3462 14.8291 22.379 14.739C22.4118 14.6489 22.4266 14.5532 22.4225 14.4575C22.4183 14.3617 22.3954 14.2676 22.3549 14.1807C22.3144 14.0938 22.2572 14.0157 22.1865 13.9509C22.1158 13.8861 22.0331 13.8358 21.943 13.803L21.019 13.466C20.8453 13.4 20.6529 13.4028 20.4811 13.4737C20.3093 13.5447 20.1711 13.6785 20.0946 13.8479C20.018 14.0172 20.009 14.2094 20.0693 14.3852C20.1296 14.561 20.2547 14.7072 20.419 14.794L20.519 14.838L21.443 15.175ZM21.905 10.387C22.0856 10.3413 22.2419 10.2284 22.3421 10.0715C22.4424 9.91449 22.4791 9.72521 22.4446 9.54216C22.4102 9.35912 22.3073 9.19607 22.1569 9.08624C22.0065 8.97641 21.8198 8.92805 21.635 8.95101L20.668 9.13301C20.4846 9.16503 20.3203 9.26593 20.2089 9.41506C20.0974 9.5642 20.0471 9.75029 20.0683 9.93527C20.0895 10.1203 20.1806 10.2901 20.323 10.4102C20.4653 10.5302 20.6481 10.5913 20.834 10.581L20.939 10.569L21.905 10.387ZM19.766 17.806L19.071 17.11C18.934 16.973 18.7482 16.8961 18.5545 16.8961C18.3608 16.8961 18.175 16.973 18.038 17.11C17.901 17.247 17.8241 17.4328 17.8241 17.6265C17.8241 17.8202 17.901 18.006 18.038 18.143L18.734 18.838C18.8577 18.9615 19.0217 19.0365 19.196 19.0493C19.3704 19.0622 19.5435 19.012 19.684 18.908L19.766 18.838C19.9028 18.7011 19.9796 18.5155 19.9796 18.322C19.9796 18.1285 19.9028 17.9429 19.766 17.806ZM19.694 5.63801C19.8309 5.50102 19.9077 5.31528 19.9076 5.12165C19.9075 4.92802 19.8305 4.74236 19.6935 4.60551C19.5565 4.46865 19.3708 4.39182 19.1772 4.39192C18.9835 4.39201 18.7979 4.46902 18.661 4.60601L17.966 5.30101C17.8362 5.43136 17.7605 5.60589 17.7538 5.78971C17.7472 5.97352 17.8102 6.15307 17.9302 6.29243C18.0503 6.4318 18.2185 6.52072 18.4013 6.54141C18.584 6.56209 18.7679 6.51302 18.916 6.40401L18.999 6.33401L19.694 5.63801ZM6.15702 21.554L2.74702 18.144C2.61016 18.007 2.4245 17.93 2.23087 17.9299C2.03724 17.9298 1.8515 18.0067 1.71452 18.1435C1.57753 18.2804 1.50052 18.466 1.50043 18.6597C1.50033 18.8533 1.57716 19.039 1.71402 19.176L5.12402 22.586C5.24775 22.7095 5.41169 22.7845 5.58602 22.7973C5.76036 22.8102 5.93352 22.76 6.07402 22.656L6.15702 22.586C6.2938 22.4491 6.37064 22.2635 6.37064 22.07C6.37064 21.8765 6.2938 21.6909 6.15702 21.554ZM8.53201 20.434L3.86702 15.768C3.79925 15.7002 3.71879 15.6464 3.63023 15.6096C3.54167 15.5729 3.44675 15.554 3.35087 15.5539C3.25499 15.5539 3.16005 15.5727 3.07145 15.6094C2.98285 15.646 2.90234 15.6997 2.83452 15.7675C2.76669 15.8353 2.71287 15.9157 2.67614 16.0043C2.6394 16.0928 2.62047 16.1878 2.62043 16.2837C2.62038 16.3795 2.63922 16.4745 2.67587 16.5631C2.71251 16.6517 2.76625 16.7322 2.83402 16.8L7.50002 21.466C7.62375 21.5895 7.78769 21.6645 7.96202 21.6773C8.13636 21.6902 8.30952 21.64 8.45002 21.536L8.53201 21.466C8.5999 21.3982 8.65375 21.3177 8.69049 21.2291C8.72723 21.1404 8.74614 21.0454 8.74614 20.9495C8.74614 20.8536 8.72723 20.7586 8.69049 20.6699C8.65375 20.5813 8.5999 20.5008 8.53201 20.433V20.434ZM9.71902 18.214L10.934 16.999C11.0206 16.9123 11.1277 16.8488 11.2453 16.8144C11.3629 16.78 11.4873 16.7757 11.607 16.802C12.493 17 13.4147 16.9708 14.2864 16.7171C15.1581 16.4634 15.9516 15.9935 16.593 15.351C17.6055 14.3367 18.1741 12.9621 18.1741 11.529C18.1741 10.0959 17.6055 8.7213 16.593 7.70701C15.5786 6.69479 14.2041 6.12631 12.771 6.12631C11.338 6.12631 9.96344 6.69479 8.94902 7.70701C8.30646 8.34839 7.83649 9.14183 7.58281 10.0136C7.32912 10.8853 7.29996 11.807 7.49802 12.693C7.52412 12.8127 7.51977 12.937 7.48535 13.0546C7.45093 13.1722 7.38755 13.2793 7.30102 13.366L6.08602 14.581L9.71902 18.214ZM4.53702 15.097C4.40023 14.9601 4.32339 14.7745 4.32339 14.581C4.32339 14.3875 4.40023 14.2019 4.53702 14.065L5.99502 12.606C5.82179 11.5359 5.90566 10.4399 6.23968 9.40865C6.57371 8.37737 7.14831 7.44035 7.91602 6.67501C9.20468 5.38933 10.9507 4.6673 12.771 4.6673C14.5913 4.6673 16.3374 5.38933 17.626 6.67501C18.9113 7.96346 19.6331 9.70908 19.6331 11.529C19.6331 13.3489 18.9113 15.0946 17.626 16.383C16.8606 17.1509 15.9234 17.7257 14.892 18.0599C13.8605 18.3941 12.7644 18.4781 11.694 18.305L10.236 19.763C10.1122 19.8867 9.94809 19.9619 9.77352 19.9747C9.59896 19.9876 9.42559 19.9373 9.28502 19.833L9.20302 19.763L4.53702 15.097Z" fill="#292830"/>
</svg>
