<svg width="24" height="24" viewBox="0 0 24 24" fill="none" xmlns="http://www.w3.org/2000/svg">
<path d="M4.967 6.64999C5.00866 6.5607 5.03232 6.46407 5.03663 6.36563C5.04093 6.26719 5.0258 6.16887 4.99209 6.07628C4.95837 5.98369 4.90675 5.89865 4.84016 5.82602C4.77357 5.75339 4.69332 5.69459 4.604 5.65299L3.689 5.22799C3.59977 5.18636 3.50321 5.16272 3.40484 5.15841C3.30646 5.15409 3.20821 5.1692 3.11567 5.20286C3.02314 5.23652 2.93814 5.28808 2.86553 5.35459C2.79293 5.4211 2.73413 5.50126 2.6925 5.59049C2.65087 5.67973 2.62722 5.77628 2.62291 5.87466C2.6186 5.97303 2.63371 6.07129 2.66737 6.16382C2.70103 6.25635 2.75259 6.34135 2.8191 6.41396C2.88561 6.48657 2.96577 6.54536 3.055 6.58699L3.97 7.01299C4.05919 7.05496 4.15579 7.07889 4.25426 7.0834C4.35272 7.0879 4.45111 7.07291 4.54376 7.03927C4.63641 7.00563 4.7215 6.95401 4.79413 6.88737C4.86677 6.82074 4.92551 6.74041 4.967 6.65099V6.64999ZM7.807 3.80299C7.97143 3.69107 8.08467 3.51841 8.1218 3.323C8.15893 3.12759 8.11692 2.92543 8.005 2.76099L7.435 1.92699C7.31979 1.77005 7.14814 1.66398 6.95623 1.63116C6.76433 1.59833 6.56718 1.64131 6.40636 1.75104C6.24553 1.86076 6.1336 2.02865 6.09417 2.21931C6.05474 2.40996 6.09089 2.60848 6.195 2.77299L6.765 3.60799C6.87742 3.77217 7.0504 3.88502 7.24595 3.92177C7.4415 3.95852 7.64365 3.91616 7.808 3.80399L7.807 3.80299ZM4.122 10.465C4.122 10.2661 4.04298 10.0753 3.90233 9.93466C3.76168 9.79401 3.57091 9.71499 3.372 9.71499H2.362C2.16309 9.71499 1.97232 9.79401 1.83167 9.93466C1.69102 10.0753 1.612 10.2661 1.612 10.465C1.612 10.6639 1.69102 10.8547 1.83167 10.9953C1.97232 11.136 2.16309 11.215 2.362 11.215H3.372C3.57091 11.215 3.76168 11.136 3.90233 10.9953C4.04298 10.8547 4.122 10.6639 4.122 10.465ZM20.03 7.01199L20.946 6.58599C21.1263 6.50192 21.2659 6.34965 21.334 6.16267C21.4021 5.9757 21.3931 5.76934 21.309 5.58899C21.2249 5.40865 21.0727 5.26908 20.8857 5.20101C20.6987 5.13293 20.4923 5.14192 20.312 5.22599L19.397 5.65199C19.2167 5.73593 19.077 5.88808 19.0089 6.07496C18.9407 6.26184 18.9496 6.46815 19.0335 6.64849C19.1174 6.82884 19.2696 6.96846 19.4565 7.03662C19.6433 7.10479 19.8497 7.09593 20.03 7.01199ZM17.235 3.60699L17.804 2.77199C17.9161 2.60752 17.9583 2.40529 17.9213 2.20973C17.8844 2.01416 17.7713 1.84126 17.607 1.72899C17.4424 1.6176 17.2404 1.5759 17.0451 1.613C16.8499 1.6501 16.6773 1.76299 16.565 1.92699L15.995 2.75999C15.8828 2.92443 15.8405 3.12669 15.8775 3.32229C15.9144 3.51789 16.0276 3.69081 16.192 3.80299C16.3564 3.91518 16.5587 3.95745 16.7543 3.92051C16.9499 3.88356 17.1228 3.77043 17.235 3.60599V3.60699ZM22.389 10.463C22.389 10.2641 22.31 10.0733 22.1693 9.93266C22.0287 9.79201 21.8379 9.71299 21.639 9.71299H20.629C20.4301 9.71299 20.2393 9.79201 20.0987 9.93266C19.958 10.0733 19.879 10.2641 19.879 10.463C19.879 10.6619 19.958 10.8527 20.0987 10.9933C20.2393 11.134 20.4301 11.213 20.629 11.213H21.639C21.8379 11.213 22.0287 11.134 22.1693 10.9933C22.31 10.8527 22.389 10.6619 22.389 10.463ZM12.749 1.93899V0.929993C12.749 0.73108 12.67 0.540315 12.5293 0.399663C12.3887 0.25901 12.1979 0.179993 11.999 0.179993C11.8001 0.179993 11.6093 0.25901 11.4687 0.399663C11.328 0.540315 11.249 0.73108 11.249 0.929993V1.93999C11.249 2.13891 11.328 2.32967 11.4687 2.47032C11.6093 2.61097 11.8001 2.68999 11.999 2.68999C12.1979 2.68999 12.3887 2.61097 12.5293 2.47032C12.67 2.32967 12.749 2.13891 12.749 1.93999V1.93899ZM15.227 23.069C15.227 22.8701 15.148 22.6793 15.0073 22.5387C14.8667 22.398 14.6759 22.319 14.477 22.319H9.524C9.32509 22.319 9.13432 22.398 8.99367 22.5387C8.85302 22.6793 8.774 22.8701 8.774 23.069C8.774 23.2679 8.85302 23.4587 8.99367 23.5993C9.13432 23.74 9.32509 23.819 9.524 23.819H14.477C14.6759 23.819 14.8667 23.74 15.0073 23.5993C15.148 23.4587 15.227 23.2679 15.227 23.069ZM16.139 20.531C16.139 20.3321 16.06 20.1413 15.9193 20.0007C15.7787 19.86 15.5879 19.781 15.389 19.781H8.612C8.41309 19.781 8.22232 19.86 8.08167 20.0007C7.94102 20.1413 7.862 20.3321 7.862 20.531C7.862 20.7299 7.94102 20.9207 8.08167 21.0613C8.22232 21.202 8.41309 21.281 8.612 21.281H15.389C15.5879 21.281 15.7787 21.202 15.9193 21.0613C16.06 20.9207 16.139 20.7299 16.139 20.531ZM9.362 17.307H14.639V15.543C14.6388 15.4169 14.6704 15.2928 14.7309 15.1822C14.7914 15.0715 14.8788 14.9779 14.985 14.91C15.772 14.4101 16.4199 13.7194 16.8685 12.9021C17.3171 12.0848 17.5519 11.1673 17.551 10.235C17.5489 8.76361 16.9633 7.35313 15.9227 6.31289C14.8821 5.27265 13.4714 4.68758 12 4.68599C10.5285 4.68784 9.11783 5.27314 8.07725 6.31353C7.03666 7.35393 6.45112 8.76452 6.449 10.236C6.449 12.136 7.409 13.882 9.016 14.911C9.1221 14.979 9.2094 15.0727 9.26986 15.1833C9.33032 15.2939 9.362 15.4179 9.362 15.544V17.308V17.307ZM15.389 18.807H8.612C8.41309 18.807 8.22232 18.728 8.08167 18.5873C7.94102 18.4467 7.862 18.2559 7.862 18.057V15.94C6.95869 15.2886 6.22339 14.4315 5.71686 13.4397C5.21034 12.4478 4.94713 11.3497 4.949 10.236C4.949 6.34799 8.113 3.18599 11.999 3.18599C13.8684 3.18784 15.6607 3.93114 16.9828 5.25281C18.3048 6.57449 19.0486 8.3666 19.051 10.236C19.0528 11.3496 18.7897 12.4476 18.2834 13.4394C17.777 14.4312 17.042 15.2883 16.139 15.94V18.058C16.139 18.2569 16.06 18.4477 15.9193 18.5883C15.7787 18.729 15.5879 18.808 15.389 18.808V18.807Z" fill="#292830"/>
</svg>
