<svg width="24" height="24" viewBox="0 0 24 24" fill="none" xmlns="http://www.w3.org/2000/svg">
<path d="M21.539 18.61C21.5382 17.7106 21.1806 16.8483 20.5446 16.2124C19.9087 15.5764 19.0464 15.2188 18.147 15.218C17.2476 15.2188 16.3853 15.5764 15.7494 16.2124C15.1134 16.8483 14.7558 17.7106 14.755 18.61C14.7558 19.5094 15.1134 20.3717 15.7494 21.0076C16.3853 21.6436 17.2476 22.0012 18.147 22.002C19.0464 22.0012 19.9087 21.6436 20.5446 21.0076C21.1806 20.3717 21.5382 19.5094 21.539 18.61ZM23.039 18.61C23.0377 19.907 22.5218 21.1506 21.6047 22.0677C20.6876 22.9849 19.444 23.5007 18.147 23.502C16.85 23.5007 15.6064 22.9849 14.6893 22.0677C13.7722 21.1506 13.2563 19.907 13.255 18.61C13.2563 17.313 13.7722 16.0694 14.6893 15.1523C15.6064 14.2352 16.85 13.7193 18.147 13.718C19.444 13.7193 20.6876 14.2352 21.6047 15.1523C22.5218 16.0694 23.0377 17.313 23.039 18.61ZM17.75 7.16601C17.75 6.96709 17.671 6.77633 17.5303 6.63568C17.3897 6.49502 17.1989 6.41601 17 6.41601C16.8011 6.41601 16.6103 6.49502 16.4697 6.63568C16.329 6.77633 16.25 6.96709 16.25 7.16601C16.25 7.36492 16.329 7.55568 16.4697 7.69634C16.6103 7.83699 16.8011 7.91601 17 7.91601C17.1989 7.91601 17.3897 7.83699 17.5303 7.69634C17.671 7.55568 17.75 7.36492 17.75 7.16601ZM16.25 5.05501V1.24001C16.25 1.04109 16.329 0.850328 16.4697 0.709675C16.6103 0.569023 16.8011 0.490005 17 0.490005C17.1989 0.490005 17.3897 0.569023 17.5303 0.709675C17.671 0.850328 17.75 1.04109 17.75 1.24001V5.05401C18.1875 5.20807 18.5666 5.4938 18.8352 5.87196C19.1037 6.25013 19.2487 6.70217 19.25 7.16601C19.2495 7.76258 19.0122 8.33457 18.5904 8.75641C18.1686 9.17825 17.5966 9.41548 17 9.41601C16.4035 9.41521 15.8317 9.17791 15.4099 8.75612C14.9881 8.33433 14.7508 7.7625 14.75 7.16601C14.75 6.19001 15.38 5.36501 16.25 5.05501ZM7.754 7.16501C7.754 6.96609 7.67498 6.77533 7.53433 6.63468C7.39368 6.49402 7.20291 6.41501 7.004 6.41501C6.80509 6.41501 6.61432 6.49402 6.47367 6.63468C6.33302 6.77533 6.254 6.96609 6.254 7.16501C6.254 7.36392 6.33302 7.55468 6.47367 7.69534C6.61432 7.83599 6.80509 7.91501 7.004 7.91501C7.20291 7.91501 7.39368 7.83599 7.53433 7.69534C7.67498 7.55468 7.754 7.36392 7.754 7.16501ZM6.25 5.05601V1.24001C6.25 1.04109 6.32902 0.850328 6.46967 0.709675C6.61032 0.569023 6.80109 0.490005 7 0.490005C7.19891 0.490005 7.38968 0.569023 7.53033 0.709675C7.67098 0.850328 7.75 1.04109 7.75 1.24001V5.05301C8.18841 5.20645 8.56846 5.49206 8.83782 5.87047C9.10717 6.24889 9.25257 6.70152 9.254 7.16601C9.25347 7.76258 9.01625 8.33457 8.5944 8.75641C8.17256 9.17825 7.60057 9.41548 7.004 9.41601C6.40751 9.41521 5.83567 9.17791 5.41389 8.75612C4.9921 8.33433 4.75479 7.7625 4.754 7.16601C4.754 6.19101 5.381 5.36601 6.25 5.05601ZM12.177 22.009H3.82C3.108 22.009 2.53 21.429 2.53 20.719V12.223H21.47V12.883C21.47 13.0819 21.549 13.2727 21.6897 13.4133C21.8303 13.554 22.0211 13.633 22.22 13.633C22.4189 13.633 22.6097 13.554 22.7503 13.4133C22.891 13.2727 22.97 13.0819 22.97 12.883V4.77801C22.9695 4.03812 22.6754 3.32868 22.1523 2.80541C21.6292 2.28214 20.9199 1.9878 20.18 1.98701H19.51C19.3111 1.98701 19.1203 2.06602 18.9797 2.20668C18.839 2.34733 18.76 2.53809 18.76 2.73701C18.76 2.93592 18.839 3.12668 18.9797 3.26734C19.1203 3.40799 19.3111 3.48701 19.51 3.48701H20.18C20.892 3.48701 21.47 4.06601 21.47 4.77701V10.724H2.53V4.77701C2.53 4.06501 3.109 3.48601 3.82 3.48601H4.5C4.59849 3.48601 4.69602 3.46661 4.78701 3.42892C4.87801 3.39122 4.96068 3.33598 5.03033 3.26634C5.09997 3.19669 5.15522 3.11401 5.19291 3.02302C5.2306 2.93202 5.25 2.8345 5.25 2.73601C5.25 2.63751 5.2306 2.53999 5.19291 2.44899C5.15522 2.358 5.09997 2.27532 5.03033 2.20568C4.96068 2.13603 4.87801 2.08079 4.78701 2.0431C4.69602 2.0054 4.59849 1.98601 4.5 1.98601H3.82C3.08029 1.9868 2.3711 2.281 1.84805 2.80405C1.32499 3.32711 1.03079 4.0363 1.03 4.77601V20.72C1.03079 21.4597 1.32499 22.1689 1.84805 22.692C2.3711 23.215 3.08029 23.5092 3.82 23.51H12.177C12.3759 23.51 12.5667 23.431 12.7073 23.2903C12.848 23.1497 12.927 22.9589 12.927 22.76C12.927 22.5611 12.848 22.3703 12.7073 22.2297C12.5667 22.089 12.3759 22.01 12.177 22.01V22.009ZM9.5 3.48601H14.49C14.5885 3.48601 14.686 3.46661 14.777 3.42892C14.868 3.39122 14.9507 3.33598 15.0203 3.26634C15.09 3.19669 15.1452 3.11401 15.1829 3.02302C15.2206 2.93202 15.24 2.8345 15.24 2.73601C15.24 2.63751 15.2206 2.53999 15.1829 2.44899C15.1452 2.358 15.09 2.27532 15.0203 2.20568C14.9507 2.13603 14.868 2.08079 14.777 2.0431C14.686 2.0054 14.5885 1.98601 14.49 1.98601H9.5C9.30109 1.98601 9.11032 2.06502 8.96967 2.20568C8.82902 2.34633 8.75 2.53709 8.75 2.73601C8.75 2.93492 8.82902 3.12568 8.96967 3.26634C9.11032 3.40699 9.30109 3.48601 9.5 3.48601ZM20.16 18.664C20.16 18.7966 20.1073 18.9238 20.0136 19.0176C19.9198 19.1113 19.7926 19.164 19.66 19.164H18.044C17.9114 19.164 17.7842 19.1113 17.6904 19.0176C17.5967 18.9238 17.544 18.7966 17.544 18.664V16.184C17.544 16.0514 17.5967 15.9242 17.6904 15.8305C17.7842 15.7367 17.9114 15.684 18.044 15.684C18.1766 15.684 18.3038 15.7367 18.3976 15.8305C18.4913 15.9242 18.544 16.0514 18.544 16.184V18.164H19.661C19.7936 18.164 19.9208 18.2167 20.0146 18.3105C20.1083 18.4042 20.161 18.5314 20.161 18.664" fill="#292830"/>
</svg>
