<svg width="24" height="24" viewBox="0 0 24 24" fill="none" xmlns="http://www.w3.org/2000/svg">
<path d="M17.75 7.16701C17.75 6.96809 17.671 6.77733 17.5303 6.63668C17.3897 6.49602 17.1989 6.41701 17 6.41701C16.8011 6.41701 16.6103 6.49602 16.4697 6.63668C16.329 6.77733 16.25 6.96809 16.25 7.16701C16.25 7.36592 16.329 7.55668 16.4697 7.69734C16.6103 7.83799 16.8011 7.91701 17 7.91701C17.1989 7.91701 17.3897 7.83799 17.5303 7.69734C17.671 7.55668 17.75 7.36592 17.75 7.16701ZM16.25 5.05501V1.24001C16.25 1.04109 16.329 0.850328 16.4697 0.709675C16.6103 0.569023 16.8011 0.490005 17 0.490005C17.1989 0.490005 17.3897 0.569023 17.5303 0.709675C17.671 0.850328 17.75 1.04109 17.75 1.24001V5.05401C18.1874 5.20819 18.5664 5.49396 18.835 5.87209C19.1035 6.25023 19.2485 6.70221 19.25 7.16601C19.2497 7.76275 19.0126 8.335 18.5908 8.75706C18.1689 9.17912 17.5968 9.41648 17 9.41701C16.4034 9.41648 15.8314 9.17925 15.4096 8.75741C14.9878 8.33557 14.7505 7.76358 14.75 7.16701C14.75 6.19001 15.378 5.366 16.25 5.05501ZM7.75301 7.16701C7.75301 6.96809 7.67399 6.77733 7.53334 6.63668C7.39268 6.49602 7.20192 6.41701 7.00301 6.41701C6.80409 6.41701 6.61333 6.49602 6.47268 6.63668C6.33203 6.77733 6.25301 6.96809 6.25301 7.16701C6.25301 7.36592 6.33203 7.55668 6.47268 7.69734C6.61333 7.83799 6.80409 7.91701 7.00301 7.91701C7.20192 7.91701 7.39268 7.83799 7.53334 7.69734C7.67399 7.55668 7.75301 7.36592 7.75301 7.16701ZM6.25001 5.05701V1.24001C6.25001 1.04109 6.32902 0.850328 6.46968 0.709675C6.61033 0.569023 6.80109 0.490005 7.00001 0.490005C7.19892 0.490005 7.38969 0.569023 7.53034 0.709675C7.67099 0.850328 7.75001 1.04109 7.75001 1.24001V5.05301C8.18831 5.2065 8.56823 5.49214 8.83742 5.87057C9.1066 6.249 9.2518 6.7016 9.25301 7.16601C9.25248 7.76258 9.01525 8.33457 8.59341 8.75641C8.17157 9.17825 7.59958 9.41548 7.00301 9.41601C6.40651 9.41521 5.83468 9.17791 5.41289 8.75612C4.99111 8.33433 4.7538 7.7625 4.75301 7.16601C4.75301 6.19101 5.38001 5.36601 6.25001 5.05601V5.05701ZM21.469 20.72V12.224H2.52901V20.72C2.52901 21.43 3.10801 22.01 3.81901 22.01H20.179C20.891 22.01 21.469 21.43 21.469 20.72ZM22.969 4.77801V20.72C22.9682 21.4597 22.674 22.1689 22.151 22.692C21.6279 23.215 20.9187 23.5092 20.179 23.51H3.81901C3.0793 23.5092 2.37011 23.215 1.84706 22.692C1.324 22.1689 1.0298 21.4597 1.02901 20.72V4.77801C1.02954 4.03821 1.32365 3.32887 1.84676 2.80576C2.36988 2.28265 3.07922 1.98854 3.81901 1.98801H4.49901C4.69792 1.98801 4.88868 2.06702 5.02934 2.20768C5.16999 2.34833 5.24901 2.53909 5.24901 2.73801C5.24901 2.93692 5.16999 3.12768 5.02934 3.26834C4.88868 3.40899 4.69792 3.48801 4.49901 3.48801H3.81901C3.47688 3.48801 3.14876 3.62392 2.90684 3.86584C2.66492 4.10776 2.52901 4.43588 2.52901 4.77801V10.724H21.469V4.77801C21.469 4.43588 21.3331 4.10776 21.0912 3.86584C20.8493 3.62392 20.5211 3.48801 20.179 3.48801H19.509C19.3101 3.48801 19.1193 3.40899 18.9787 3.26834C18.838 3.12768 18.759 2.93692 18.759 2.73801C18.759 2.53909 18.838 2.34833 18.9787 2.20768C19.1193 2.06702 19.3101 1.98801 19.509 1.98801H20.179C20.9188 1.98854 21.6281 2.28265 22.1513 2.80576C22.6744 3.32887 22.9685 4.03821 22.969 4.77801ZM8.74901 2.73801C8.74901 2.53909 8.82802 2.34833 8.96868 2.20768C9.10933 2.06702 9.30009 1.98801 9.49901 1.98801H14.489C14.6879 1.98801 14.8787 2.06702 15.0193 2.20768C15.16 2.34833 15.239 2.53909 15.239 2.73801C15.239 2.93692 15.16 3.12768 15.0193 3.26834C14.8787 3.40899 14.6879 3.48801 14.489 3.48801H9.50001C9.30109 3.48801 9.11033 3.40899 8.96968 3.26834C8.82902 3.12768 8.75001 2.93692 8.75001 2.73801" fill="#292830"/>
</svg>
