<svg width="24" height="24" viewBox="0 0 24 24" fill="none" xmlns="http://www.w3.org/2000/svg">
<path d="M21.02 8.951C21.02 8.85006 21.0001 8.75011 20.9614 8.65686C20.9228 8.56362 20.8661 8.47891 20.7947 8.40758C20.7233 8.33626 20.6385 8.27971 20.5452 8.24117C20.4519 8.20263 20.3519 8.18286 20.251 8.183H19.313C19.1093 8.183 18.914 8.26391 18.7699 8.40794C18.6259 8.55197 18.545 8.74731 18.545 8.951C18.545 9.15468 18.6259 9.35003 18.7699 9.49405C18.914 9.63808 19.1093 9.719 19.313 9.719H20.251C20.3519 9.719 20.4517 9.69913 20.5449 9.66054C20.6381 9.62194 20.7227 9.56537 20.7941 9.49405C20.8654 9.42274 20.9219 9.33808 20.9605 9.2449C20.9991 9.15172 21.019 9.05185 21.019 8.951H21.02ZM16.051 13.413C16.0499 14.4871 15.6228 15.5168 14.8633 16.2763C14.1038 17.0358 13.0741 17.4629 12 17.464C10.9264 17.4624 9.89715 17.0352 9.13797 16.276C8.37879 15.5168 7.95159 14.4876 7.95 13.414C7.95106 12.3399 8.378 11.3101 9.1372 10.5503C9.89641 9.79055 10.9259 9.36285 12 9.361C13.0743 9.36206 14.1044 9.7893 14.864 10.549C15.6237 11.3086 16.0509 12.3387 16.052 13.413H16.051ZM17.552 13.413C17.5501 11.9411 16.9646 10.53 15.9238 9.48919C14.883 8.44839 13.4719 7.86285 12 7.861C10.5284 7.86311 9.11761 8.4488 8.07719 9.4896C7.03676 10.5304 6.45159 11.9413 6.45 13.413C6.45159 14.8846 7.0368 16.2954 8.07725 17.336C9.1177 18.3767 10.5284 18.9621 12 18.964C13.4716 18.9624 14.8826 18.3772 15.9234 17.3368C16.9642 16.2964 17.5499 14.8856 17.552 13.414V13.413ZM21.182 22.966H20.037C19.8381 22.966 19.6473 22.887 19.5067 22.7463C19.366 22.6057 19.287 22.4149 19.287 22.216C19.287 22.0171 19.366 21.8263 19.5067 21.6857C19.6473 21.545 19.8381 21.466 20.037 21.466H21.181C21.5231 21.466 21.8512 21.3301 22.0932 21.0882C22.3351 20.8462 22.471 20.5181 22.471 20.176V7.232C22.471 6.88987 22.3351 6.56175 22.0932 6.31983C21.8512 6.07791 21.5231 5.942 21.181 5.942H18.396C18.0537 5.94229 17.7189 5.8421 17.4331 5.65385C17.1472 5.46559 16.9229 5.19756 16.788 4.883L16.104 3.29C16.0077 3.06544 15.8475 2.87409 15.6435 2.7397C15.4394 2.60531 15.2003 2.53379 14.956 2.534H9.046C8.546 2.534 8.096 2.83 7.897 3.29L7.213 4.883C7.07813 5.19767 6.85388 5.46584 6.56804 5.65426C6.28221 5.84269 5.94735 5.94308 5.605 5.943H2.82C2.47787 5.943 2.14975 6.07891 1.90783 6.32083C1.66591 6.56275 1.53 6.89087 1.53 7.233V20.176C1.53 20.888 2.108 21.466 2.82 21.466H16.21C16.4089 21.466 16.5997 21.545 16.7403 21.6857C16.881 21.8263 16.96 22.0171 16.96 22.216C16.96 22.4149 16.881 22.6057 16.7403 22.7463C16.5997 22.887 16.4089 22.966 16.21 22.966H2.82C2.08021 22.9655 1.37087 22.6714 0.847756 22.1482C0.324644 21.6251 0.0305285 20.9158 0.0299988 20.176V7.232C0.0305285 6.49221 0.324644 5.78287 0.847756 5.25975C1.37087 4.73664 2.08021 4.44253 2.82 4.442H5.604C5.65279 4.44217 5.70057 4.42806 5.74144 4.4014C5.78231 4.37475 5.81448 4.33672 5.834 4.292L6.518 2.698C6.73026 2.20386 7.08281 1.78283 7.53197 1.48706C7.98114 1.19129 8.5072 1.03377 9.045 1.034H14.955C16.055 1.034 17.047 1.687 17.481 2.698L18.165 4.291C18.1844 4.3359 18.2165 4.37414 18.2574 4.40098C18.2982 4.42782 18.3461 4.44208 18.395 4.442H21.18C21.9198 4.44253 22.6291 4.73664 23.1522 5.25975C23.6754 5.78287 23.9695 6.49221 23.97 7.232V20.176C23.9695 20.9158 23.6754 21.6251 23.1522 22.1482C22.6291 22.6714 21.9198 22.9655 21.18 22.966" fill="#292830"/>
</svg>
