<svg width="24" height="24" viewBox="0 0 24 24" fill="none" xmlns="http://www.w3.org/2000/svg">
<g clip-path="url(#clip0)">
<path d="M21.214 2C21.9536 2.00106 22.6627 2.29534 23.1857 2.81834C23.7087 3.34134 24.0029 4.05037 24.004 4.79V19.189C24.0032 19.9287 23.709 20.6379 23.186 21.161C22.6629 21.684 21.9537 21.9782 21.214 21.979H20.071C19.8721 21.979 19.6813 21.9 19.5407 21.7593C19.4 21.6187 19.321 21.4279 19.321 21.229C19.321 21.0301 19.4 20.8393 19.5407 20.6987C19.6813 20.558 19.8721 20.479 20.071 20.479H21.214C21.925 20.479 22.504 19.9 22.504 19.189V11.205H1.5V19.189C1.5 19.856 2.009 20.406 2.658 20.472L2.79 20.479H16.18C16.3789 20.479 16.5697 20.558 16.7103 20.6987C16.851 20.8393 16.93 21.0301 16.93 21.229C16.93 21.4279 16.851 21.6187 16.7103 21.7593C16.5697 21.9 16.3789 21.979 16.18 21.979H2.79C2.05021 21.9785 1.34087 21.6844 0.817757 21.1612C0.294645 20.6381 0.000529747 19.9288 0 19.189L0 4.79C0.000794107 4.05029 0.294995 3.3411 0.818049 2.81805C1.3411 2.29499 2.05029 2.00079 2.79 2H21.214ZM18.5 14C18.8961 14 19.2866 14.0941 19.6392 14.2746C19.9918 14.4552 20.2965 14.7169 20.5281 15.0382C20.7597 15.3596 20.9117 15.7314 20.9714 16.123C21.0311 16.5146 20.997 16.9148 20.8717 17.2906C20.7464 17.6664 20.5337 18.007 20.2509 18.2845C19.9682 18.5619 19.6235 18.7682 19.2454 18.8863C18.8673 19.0044 18.4665 19.031 18.0761 18.9638C17.6858 18.8966 17.3169 18.7377 17 18.5C16.6286 18.7786 16.1869 18.9482 15.7245 18.9899C15.2621 19.0316 14.7972 18.9437 14.382 18.7361C13.9667 18.5284 13.6175 18.2093 13.3734 17.8143C13.1293 17.4194 13 16.9643 13 16.5C13 16.0357 13.1293 15.5806 13.3734 15.1857C13.6175 14.7907 13.9667 14.4716 14.382 14.2639C14.7972 14.0563 15.2621 13.9684 15.7245 14.0101C16.1869 14.0518 16.6286 14.2214 17 14.5C17.4321 14.1741 17.9588 13.9985 18.5 14ZM8.51 16.705C8.70891 16.705 8.89968 16.784 9.04033 16.9247C9.18098 17.0653 9.26 17.2561 9.26 17.455C9.26 17.6539 9.18098 17.8447 9.04033 17.9853C8.89968 18.126 8.70891 18.205 8.51 18.205H3.601C3.40209 18.205 3.21132 18.126 3.07067 17.9853C2.93002 17.8447 2.851 17.6539 2.851 17.455C2.851 17.2561 2.93002 17.0653 3.07067 16.9247C3.21132 16.784 3.40209 16.705 3.601 16.705H8.51ZM18.5 14.96C18.184 14.96 17.89 15.055 17.646 15.218C17.871 15.594 18 16.032 18 16.5C18 16.968 17.871 17.406 17.647 17.78C17.847 17.9138 18.0756 17.9989 18.3144 18.0284C18.5533 18.0579 18.7957 18.031 19.0223 17.9499C19.2488 17.8688 19.4532 17.7357 19.6191 17.5614C19.785 17.387 19.9076 17.1762 19.9773 16.9459C20.047 16.7155 20.0617 16.4721 20.0203 16.235C19.9789 15.998 19.8825 15.7739 19.7389 15.5808C19.5952 15.3877 19.4083 15.231 19.1932 15.1232C18.9781 15.0154 18.7406 14.9595 18.5 14.96ZM22.504 7.51H1.5V9.705H22.504V7.511V7.51ZM21.214 3.5H2.79C2.079 3.5 1.5 4.079 1.5 4.79V6.016H22.504V4.79C22.504 4.079 21.925 3.5 21.214 3.5Z" fill="#292830"/>
</g>
<defs>
<clipPath id="clip0">
<rect width="24" height="24" fill="white"/>
</clipPath>
</defs>
</svg>
