<svg width="24" height="24" viewBox="0 0 24 24" fill="none" xmlns="http://www.w3.org/2000/svg">
<path fill-rule="evenodd" clip-rule="evenodd" d="M17.3856 19.8108C17.3856 20.1864 17.082 20.4936 16.7052 20.4948C16.3296 20.4948 16.0236 20.1912 16.0212 19.8144C16.0212 19.4388 16.3236 19.1328 16.7016 19.1304C17.0772 19.1304 17.3844 19.434 17.3856 19.8108ZM16.6968 18.7764C16.284 18.7764 15.948 18.4428 15.9468 18.03C15.9444 17.0688 16.4004 16.17 17.1984 15.564C17.412 15.402 17.6064 15.084 17.5104 14.6748C17.4432 14.3796 17.1888 14.1276 16.8936 14.0616C16.5288 13.98 16.2768 14.1276 16.1568 14.2248C15.9528 14.388 15.8376 14.6304 15.8376 14.8908C15.8388 15.3048 15.504 15.642 15.09 15.6432H15.0876C14.6748 15.6432 14.3388 15.3084 14.3376 14.8944C14.3364 14.1756 14.6556 13.506 15.2184 13.0548C15.7788 12.6048 16.5096 12.438 17.2224 12.5988C18.0864 12.7908 18.7728 13.4748 18.972 14.3352C19.188 15.264 18.8544 16.1916 18.1056 16.7592C17.6856 17.0772 17.4456 17.5392 17.4468 18.0252C17.448 18.4392 17.1144 18.7752 16.6992 18.7764H16.6968ZM16.6848 23.6568C14.88 23.6568 13.11 22.9536 11.772 21.624C9.03962 18.912 9.02522 14.4804 11.7396 11.7492C14.4516 9.01684 18.882 9.00244 21.6144 11.7168C24.2052 14.2908 24.3636 18.4728 21.9744 21.2364C21.7056 21.5508 21.2316 21.5844 20.9184 21.3132C20.604 21.042 20.5704 20.5692 20.8416 20.256C22.716 18.084 22.5912 14.802 20.556 12.78C18.4128 10.6512 14.9328 10.6632 12.804 12.8064C11.7792 13.8384 11.2176 15.216 11.2224 16.6884C11.2272 18.162 11.7984 19.536 12.828 20.5608C14.4108 22.1304 16.7604 22.5888 18.816 21.726C19.1976 21.5652 19.6356 21.7464 19.7964 22.128C19.9572 22.5096 19.7772 22.9488 19.3956 23.1084C18.5172 23.478 17.5956 23.6568 16.6848 23.6568ZM1.83362 4.33204V2.85604C1.83362 2.29804 2.28722 1.84444 2.84522 1.84444H19.6452C20.2032 1.84444 20.6568 2.29804 20.6568 2.85604V4.33204H1.83362ZM19.644 0.342041H2.84402C1.46042 0.342041 0.333618 1.47004 0.333618 2.85604V15.2964C0.333618 16.6812 1.46042 17.8092 2.84522 17.8092H7.93322C8.34842 17.8092 8.68442 17.4732 8.68442 17.0592C8.68442 16.6452 8.34842 16.3092 7.93442 16.3092H2.84402C2.28602 16.3092 1.83242 15.8544 1.83242 15.2964V7.97404H20.6556V9.22204C20.6556 9.63604 20.9916 9.97204 21.4056 9.97204C21.8208 9.97204 22.1556 9.63604 22.1556 9.22204V2.85484C22.1556 1.47004 21.03 0.342041 19.644 0.342041Z" fill="#292830"/>
</svg>
