<svg width="24" height="24" viewBox="0 0 24 24" fill="none" xmlns="http://www.w3.org/2000/svg">
<path d="M5.61491 1.44934C6.01466 1.44934 6.34499 1.74639 6.39726 2.13179L6.40448 2.2389V5.92361C6.40448 8.44183 8.31374 10.1424 11.8722 11.3857L12.1812 11.4914C16.4007 12.8979 18.907 14.982 19.0327 18.293L19.0377 18.557V22.2416C19.0377 22.6777 18.6842 23.0312 18.2481 23.0312C17.8484 23.0312 17.5181 22.7342 17.4658 22.3488L17.4586 22.2416V18.557C17.4586 15.9668 15.4386 14.2417 11.6819 12.9894C7.46235 11.5827 4.95608 9.49862 4.83032 6.18756L4.82535 5.92361V2.23895C4.82535 1.80287 5.17883 1.44939 5.61491 1.44939V1.44934ZM9.45158 13.4156C9.67471 13.7903 9.5518 14.2749 9.17708 14.498C7.4361 15.5347 6.4964 16.7018 6.41085 17.8455L6.40443 18.0169V22.2417C6.40443 22.6778 6.0509 23.0313 5.61487 23.0313C5.21512 23.0313 4.88479 22.7342 4.83248 22.3489L4.82526 22.2417V18.0169C4.82526 16.1631 6.11108 14.4857 8.36919 13.1412C8.74387 12.9181 9.22846 13.041 9.45154 13.4157L9.45158 13.4156ZM18.2481 1.44934C18.6478 1.44934 18.9781 1.74639 19.0304 2.13179L19.0376 2.2389V6.46375C19.0376 8.31756 17.7518 9.99493 15.4937 11.3395C15.1191 11.5626 14.6345 11.4397 14.4113 11.065C14.1882 10.6903 14.3111 10.2057 14.6858 9.98265C16.4268 8.94606 17.3665 7.77892 17.4521 6.63517L17.4585 6.46379V2.239C17.4585 1.80292 17.812 1.44943 18.2481 1.44943V1.44934Z" fill="#292830"/>
<path d="M1.93007 3.02871H21.9326C22.3687 3.02871 22.7222 2.67523 22.7222 2.23916C22.7222 1.80308 22.3687 1.44958 21.9326 1.44958H1.93007C1.49399 1.44958 1.1405 1.80308 1.1405 2.23916C1.1405 2.67523 1.49399 3.02871 1.93007 3.02871Z" fill="#292830"/>
<path d="M1.93007 23.5574H21.9326C22.3687 23.5574 22.7222 23.2039 22.7222 22.7678C22.7222 22.3318 22.3687 21.9783 21.9326 21.9783H1.93007C1.49399 21.9783 1.1405 22.3318 1.1405 22.7678C1.1405 23.2039 1.49399 23.5574 1.93007 23.5574Z" fill="#292830"/>
<path d="M9.56256 16.9777V22.2415C9.56256 22.6776 9.91609 23.0311 10.3521 23.0311C10.7882 23.0311 11.1417 22.6776 11.1417 22.2415V16.9777C11.1417 16.5416 10.7882 16.1881 10.3521 16.1881C9.91609 16.1881 9.56256 16.5416 9.56256 16.9777Z" fill="#292830"/>
<path d="M12.7209 19.0833V22.2416C12.7209 22.6776 13.0744 23.0311 13.5105 23.0311C13.9466 23.0311 14.3001 22.6776 14.3001 22.2416V19.0833C14.3001 18.6472 13.9466 18.2937 13.5105 18.2937C13.0744 18.2937 12.7209 18.6472 12.7209 19.0833Z" fill="#292830"/>
</svg>
