<svg width="24" height="24" viewBox="0 0 24 24" fill="none" xmlns="http://www.w3.org/2000/svg">
<path d="M20.64 2.24999C22.664 2.24999 23.902 3.54699 23.983 5.41999L23.987 5.61699V19.209C23.987 20.607 22.469 22.22 20.818 22.329L20.641 22.336H8.565C8.37498 22.3359 8.19206 22.2637 8.05321 22.134C7.91436 22.0043 7.82993 21.8267 7.81697 21.6371C7.80402 21.4475 7.86351 21.2601 7.98343 21.1127C8.10335 20.9653 8.27475 20.8689 8.463 20.843L8.565 20.836H20.641C21.475 20.836 22.391 19.936 22.48 19.306L22.487 19.209V5.61699C22.487 4.48999 21.927 3.81699 20.812 3.75499L20.641 3.74999H3.835C2.794 3.74999 2.066 4.28299 1.993 5.19599L1.987 5.35099V18.688C1.987 20.164 2.836 20.836 4.735 20.836C4.93391 20.836 5.12468 20.915 5.26533 21.0557C5.40598 21.1963 5.485 21.3871 5.485 21.586C5.485 21.7849 5.40598 21.9757 5.26533 22.1163C5.12468 22.257 4.93391 22.336 4.735 22.336C2.157 22.336 0.587 21.156 0.491 18.909L0.487 18.689V5.34999C0.487 3.49399 1.873 2.33099 3.644 2.25299L3.834 2.24899H20.641L20.64 2.24999ZM6.097 6.99999C7.241 6.99999 8.173 7.91699 8.173 9.04399C8.173 9.65799 7.903 10.177 7.372 10.59L8.442 11.32L13.227 8.52799C13.3945 8.43989 13.5901 8.4219 13.7709 8.47797C13.9516 8.53403 14.1028 8.65957 14.191 8.82699C14.2334 8.90891 14.2588 8.9985 14.2659 9.09045C14.2729 9.18239 14.2614 9.27481 14.232 9.36222C14.2026 9.44963 14.156 9.53024 14.0948 9.59926C14.0336 9.66828 13.9592 9.7243 13.876 9.76399L9.725 12.161L13.899 14.953C13.9784 14.9934 14.0489 15.0493 14.1064 15.1173C14.1639 15.1853 14.2073 15.264 14.234 15.349C14.2625 15.4354 14.2734 15.5268 14.2658 15.6175C14.2582 15.7082 14.2325 15.7965 14.19 15.877C14.1297 15.9922 14.0388 16.0885 13.9273 16.1553C13.8158 16.2222 13.688 16.257 13.558 16.256C13.4462 16.2565 13.3358 16.2305 13.236 16.18L8.436 13.031L7.429 13.703C7.954 14.133 8.173 14.642 8.173 15.397C8.173 16.427 7.222 17.299 6.097 17.299C4.92 17.3 4 16.464 4 15.397C4 14.477 4.418 13.799 5.314 13.267L6.996 12.147L5.304 10.992C4.522 10.608 4 9.83799 4 9.04299C4 7.78099 5.088 6.99999 6.096 6.99999H6.097ZM6.087 14.6C5.97007 14.5987 5.85441 14.6244 5.749 14.675C5.62934 14.7299 5.5278 14.8177 5.45625 14.9282C5.38471 15.0387 5.34612 15.1673 5.345 15.299C5.345 15.685 5.678 15.999 6.087 15.999C6.496 15.999 6.829 15.685 6.829 15.299C6.829 14.914 6.496 14.599 6.087 14.599V14.6ZM19.969 12.1C20.0913 12.1 20.2085 12.1486 20.295 12.235C20.3814 12.3215 20.43 12.4387 20.43 12.561C20.43 12.6833 20.3814 12.8005 20.295 12.887C20.2085 12.9734 20.0913 13.022 19.969 13.022H19.005C18.8827 13.022 18.7655 12.9734 18.679 12.887C18.5926 12.8005 18.544 12.6833 18.544 12.561C18.544 12.4387 18.5926 12.3215 18.679 12.235C18.7655 12.1486 18.8827 12.1 19.005 12.1H19.969ZM13.797 12.1C13.9193 12.1 14.0365 12.1486 14.123 12.235C14.2094 12.3215 14.258 12.4387 14.258 12.561C14.258 12.6833 14.2094 12.8005 14.123 12.887C14.0365 12.9734 13.9193 13.022 13.797 13.022H12.833C12.7107 13.022 12.5935 12.9734 12.507 12.887C12.4206 12.8005 12.372 12.6833 12.372 12.561C12.372 12.4387 12.4206 12.3215 12.507 12.235C12.5935 12.1486 12.7107 12.1 12.833 12.1H13.797ZM16.883 12.1C17.0053 12.1 17.1225 12.1486 17.209 12.235C17.2954 12.3215 17.344 12.4387 17.344 12.561C17.344 12.6833 17.2954 12.8005 17.209 12.887C17.1225 12.9734 17.0053 13.022 16.883 13.022H15.919C15.7967 13.022 15.6795 12.9734 15.593 12.887C15.5066 12.8005 15.458 12.6833 15.458 12.561C15.458 12.4387 15.5066 12.3215 15.593 12.235C15.6795 12.1486 15.7967 12.1 15.919 12.1H16.883ZM6.086 8.29999C5.676 8.29999 5.344 8.61299 5.344 8.99999C5.344 9.26399 5.498 9.50199 5.747 9.62299C5.85279 9.67354 5.96876 9.6992 6.086 9.69799C6.495 9.69799 6.828 9.38499 6.828 8.99899C6.828 8.61299 6.495 8.29899 6.086 8.29899V8.29999Z" fill="#292830"/>
</svg>
