<svg width="24" height="24" viewBox="0 0 24 24" fill="none" xmlns="http://www.w3.org/2000/svg">
<path fill-rule="evenodd" clip-rule="evenodd" d="M12 0C18.6274 0 24 5.37258 24 12C24 18.6274 18.6274 24 12 24C5.37258 24 0 18.6274 0 12C0 5.37258 5.37258 0 12 0ZM16.4277 7.32361C16.1776 7.37173 15.9552 7.51351 15.806 7.72001L10.236 15.393L8.09205 13.249L7.99805 13.166C7.79706 13.0106 7.54444 12.9375 7.29152 12.9616C7.0386 12.9857 6.80433 13.1052 6.6363 13.2957C6.46826 13.4863 6.37906 13.7337 6.38682 13.9876C6.39457 14.2416 6.4987 14.4831 6.67805 14.663L9.65105 17.636L9.74105 17.716C9.84687 17.7989 9.96831 17.8596 10.0981 17.8945C10.2279 17.9294 10.3634 17.9377 10.4965 17.919C10.6297 17.9004 10.7576 17.8551 10.8728 17.7858C10.988 17.7166 11.0881 17.6248 11.167 17.516L17.425 8.89501L17.492 8.78901C17.6152 8.56601 17.6486 8.30442 17.5854 8.05763C17.5222 7.81084 17.3673 7.59747 17.1521 7.46106C16.937 7.32465 16.6779 7.27549 16.4277 7.32361Z" fill="#292830"/>
</svg>
