<svg width="24" height="24" viewBox="0 0 24 24" fill="none" xmlns="http://www.w3.org/2000/svg">
<path d="M18.554 6.359C18.619 6.294 18.706 6.261 18.815 6.261C18.924 6.261 19.022 6.294 19.108 6.359L20.021 7.305C20.108 7.37 20.151 7.457 20.151 7.566C20.151 7.675 20.108 7.773 20.021 7.859L10.238 17.642C10.173 17.707 10.086 17.74 9.977 17.74C9.868 17.74 9.77 17.707 9.684 17.642L5.347 13.272C5.26 13.207 5.217 13.12 5.217 13.011C5.217 12.902 5.26 12.804 5.347 12.718L6.26 11.805C6.347 11.718 6.445 11.675 6.553 11.675C6.661 11.675 6.749 11.718 6.814 11.805L9.977 14.968L18.553 6.359H18.554Z" fill="#292830"/>
</svg>
