<svg width="24" height="24" viewBox="0 0 24 24" fill="none" xmlns="http://www.w3.org/2000/svg">
<path d="M16.952 12.134C16.952 11.9351 16.873 11.7443 16.7323 11.6037C16.5917 11.463 16.4009 11.384 16.202 11.384H12.66V5.551C12.66 5.35208 12.581 5.16132 12.4403 5.02067C12.2997 4.88001 12.1089 4.801 11.91 4.801C11.7111 4.801 11.5203 4.88001 11.3797 5.02067C11.239 5.16132 11.16 5.35208 11.16 5.551V12.134C11.16 12.548 11.496 12.884 11.91 12.884H16.202C16.4009 12.884 16.5917 12.805 16.7323 12.6643C16.873 12.5237 16.952 12.3329 16.952 12.134ZM12.015 23.757C8.88851 23.7602 5.8887 22.5218 3.675 20.314C-0.915002 15.724 -0.915002 8.256 3.675 3.666C8.265 -0.924005 15.733 -0.924005 20.323 3.666C24.913 8.256 24.913 15.724 20.323 20.314C20.2534 20.3836 20.1708 20.4388 20.0798 20.4765C19.9889 20.5141 19.8914 20.5335 19.793 20.5335C19.6946 20.5335 19.5971 20.5141 19.5062 20.4765C19.4152 20.4388 19.3326 20.3836 19.263 20.314C19.1934 20.2444 19.1382 20.1618 19.1005 20.0708C19.0629 19.9799 19.0435 19.8824 19.0435 19.784C19.0435 19.6856 19.0629 19.5881 19.1005 19.4972C19.1382 19.4062 19.1934 19.3236 19.263 19.254C23.267 15.248 23.267 8.732 19.263 4.727C15.258 0.721996 8.74 0.721996 4.736 4.727C0.729998 8.732 0.729998 15.248 4.736 19.253C6.23188 20.7439 8.15008 21.7387 10.2305 22.1026C12.3109 22.4664 14.4529 22.1817 16.366 21.287C16.4552 21.2451 16.5517 21.2212 16.6501 21.2166C16.7485 21.212 16.8469 21.2269 16.9396 21.2603C17.0322 21.2937 17.1174 21.3451 17.1902 21.4114C17.2631 21.4778 17.3221 21.5578 17.364 21.647C17.4059 21.7362 17.4298 21.8327 17.4344 21.9311C17.439 22.0295 17.4241 22.1279 17.3907 22.2206C17.3573 22.3132 17.3059 22.3984 17.2396 22.4712C17.1732 22.5441 17.0932 22.6031 17.004 22.645C15.4427 23.378 13.7389 23.7577 12.014 23.757" fill="#292830"/>
</svg>
