<svg width="24" height="24" viewBox="0 0 24 24" fill="none" xmlns="http://www.w3.org/2000/svg">
<path d="M11.972 0.240005C15.132 0.240005 18.087 1.45701 20.296 3.66601C24.886 8.25601 24.886 15.724 20.296 20.314C20.2273 20.3877 20.1445 20.4468 20.0525 20.4878C19.9605 20.5288 19.8612 20.5508 19.7605 20.5526C19.6598 20.5544 19.5598 20.5359 19.4664 20.4981C19.373 20.4604 19.2882 20.4043 19.217 20.333C19.1457 20.2618 19.0896 20.177 19.0519 20.0836C19.0142 19.9902 18.9956 19.8902 18.9974 19.7895C18.9992 19.6888 19.0212 19.5895 19.0622 19.4975C19.1032 19.4055 19.1623 19.3227 19.236 19.254C23.24 15.248 23.24 8.73201 19.236 4.72701C17.309 2.80101 14.73 1.74001 11.972 1.74001C9.21501 1.74001 6.63501 2.80101 4.70901 4.72701C0.704005 8.73201 0.704005 15.248 4.70901 19.253C6.20489 20.7439 8.12308 21.7388 10.2035 22.1026C12.2839 22.4665 14.4259 22.1817 16.339 21.287C16.4282 21.2451 16.5247 21.2212 16.6231 21.2166C16.7215 21.212 16.8199 21.2269 16.9126 21.2603C17.0052 21.2937 17.0904 21.3451 17.1632 21.4114C17.2361 21.4778 17.2951 21.5578 17.337 21.647C17.3789 21.7362 17.4028 21.8327 17.4074 21.9311C17.412 22.0295 17.3971 22.1279 17.3637 22.2206C17.3303 22.3132 17.2789 22.3984 17.2126 22.4712C17.1462 22.5441 17.0662 22.6031 16.977 22.645C15.4159 23.3777 13.7125 23.7571 11.988 23.756C8.92401 23.756 5.90101 22.566 3.64801 20.314C-0.941995 15.724 -0.941995 8.25601 3.64801 3.66601C5.85801 1.45701 8.81401 0.240005 11.972 0.240005ZM8.80301 7.84301L11.985 11.024L15.167 7.84301C15.3092 7.71053 15.4972 7.6384 15.6915 7.64183C15.8858 7.64526 16.0712 7.72397 16.2086 7.86138C16.346 7.9988 16.4248 8.18418 16.4282 8.37848C16.4316 8.57278 16.3595 8.76083 16.227 8.90301L13.045 12.085L16.228 15.267C16.3605 15.4092 16.4326 15.5972 16.4292 15.7915C16.4258 15.9858 16.347 16.1712 16.2096 16.3086C16.0722 16.446 15.8868 16.5248 15.6925 16.5282C15.4982 16.5316 15.3102 16.4595 15.168 16.327L11.985 13.145L8.80301 16.328C8.66083 16.4605 8.47278 16.5326 8.27848 16.5292C8.08418 16.5258 7.8988 16.447 7.76138 16.3096C7.62397 16.1722 7.54526 15.9868 7.54183 15.7925C7.5384 15.5982 7.61053 15.4102 7.74301 15.268L10.924 12.085L7.74301 8.90301C7.66932 8.83434 7.61022 8.75154 7.56922 8.65954C7.52823 8.56754 7.50619 8.46823 7.50441 8.36753C7.50264 8.26682 7.52116 8.1668 7.55888 8.07341C7.5966 7.98002 7.65275 7.89519 7.72397 7.82397C7.79519 7.75275 7.88002 7.6966 7.97341 7.65888C8.0668 7.62116 8.16683 7.60264 8.26753 7.60441C8.36823 7.60619 8.46754 7.62823 8.55954 7.66922C8.65154 7.71022 8.73434 7.76932 8.80301 7.84301Z" fill="#292830"/>
</svg>
