<svg width="24" height="24" viewBox="0 0 24 24" fill="none" xmlns="http://www.w3.org/2000/svg">
<path d="M2.79301 2.793C2.98054 2.60553 3.23485 2.50021 3.50001 2.50021C3.76518 2.50021 4.01949 2.60553 4.20701 2.793L12 10.585L19.793 2.793C19.973 2.61365 20.2144 2.50953 20.4684 2.50177C20.7223 2.49402 20.9697 2.58322 21.1603 2.75125C21.3509 2.91928 21.4703 3.15355 21.4944 3.40647C21.5185 3.6594 21.4454 3.91201 21.29 4.113L21.207 4.207L13.415 12L21.207 19.793L21.29 19.887C21.4454 20.088 21.5185 20.3406 21.4944 20.5935C21.4703 20.8464 21.3509 21.0807 21.1603 21.2488C20.9697 21.4168 20.7223 21.506 20.4684 21.4982C20.2144 21.4905 19.973 21.3863 19.793 21.207L12 13.415L4.20701 21.207C4.02706 21.3863 3.78558 21.4905 3.53163 21.4982C3.27768 21.506 3.0303 21.4168 2.83974 21.2488C2.64917 21.0807 2.52971 20.8464 2.50562 20.5935C2.48152 20.3406 2.5546 20.088 2.71001 19.887L2.79301 19.793L10.585 12L2.79301 4.207L2.71001 4.113C2.56076 3.9206 2.48684 3.68034 2.50212 3.43732C2.51741 3.19429 2.62084 2.96519 2.79301 2.793Z" fill="#292830"/>
</svg>
