<svg width="24" height="24" viewBox="0 0 24 24" fill="none" xmlns="http://www.w3.org/2000/svg">
<g clip-path="url(#clip0)">
<path d="M23.927 5.409C23.8665 5.24453 23.7735 5.0939 23.6536 4.96609C23.5337 4.83828 23.3893 4.73588 23.229 4.665L18.95 2.772C17.9884 2.45451 17.0061 2.20358 16.01 2.021C15.9297 2.00714 15.8484 2.00012 15.767 2C15.4941 1.99797 15.2275 2.08186 15.0049 2.23981C14.7824 2.39775 14.6152 2.62173 14.527 2.88L14.492 3C14.227 4.115 13.202 4.895 11.999 4.895C10.873 4.895 9.864 4.175 9.549 3.145L9.509 2.994C9.44053 2.70819 9.27695 2.45413 9.0451 2.27351C8.81324 2.0929 8.52688 1.99645 8.233 2C8.14985 2.00011 8.06687 2.00747 7.985 2.022C7.01048 2.20013 6.049 2.44334 5.107 2.75L0.772997 4.665C0.611828 4.73502 0.46673 4.83734 0.346674 4.96566C0.226618 5.09397 0.134154 5.24554 0.0749975 5.411C-0.0470025 5.747 -0.0190025 6.121 0.150997 6.435L2 9.935C2.223 10.362 2.669 10.629 3.166 10.629L3.286 10.624C3.369 10.615 3.451 10.601 3.532 10.578L4.562 10.285V20.987C4.56569 21.3311 4.70566 21.6597 4.95122 21.9007C5.19678 22.1418 5.5279 22.2757 5.872 22.273H18.13L18.26 22.267C18.5803 22.2384 18.8784 22.0914 19.0961 21.8546C19.3137 21.6179 19.4353 21.3086 19.437 20.987V17.465C19.4377 17.3635 19.4183 17.2628 19.3801 17.1688C19.3418 17.0748 19.2854 16.9892 19.2141 16.9169C19.1428 16.8447 19.058 16.7872 18.9644 16.7478C18.8709 16.7083 18.7705 16.6877 18.669 16.687H18.595C18.4935 16.6877 18.3931 16.7083 18.2996 16.7478C18.206 16.7872 18.1212 16.8447 18.0499 16.9169C17.9785 16.9892 17.9222 17.0748 17.8839 17.1688C17.8457 17.2628 17.8263 17.3635 17.827 17.465V20.671H6.172V9.223L6.166 9.12C6.1505 9.00545 6.11055 8.89557 6.04885 8.79782C5.98714 8.70006 5.90514 8.61673 5.80839 8.55346C5.71164 8.49019 5.60242 8.44848 5.48813 8.43115C5.37384 8.41381 5.25715 8.42127 5.146 8.453L3.312 8.973L1.736 5.992L5.683 4.244L6.177 4.092C6.679 3.948 7.207 3.816 7.741 3.703L8.02 3.648L8.045 3.731C8.613 5.385 10.202 6.495 12 6.495C13.8 6.495 15.389 5.385 15.956 3.73L15.981 3.648L16.258 3.703C16.978 3.854 17.693 4.045 18.374 4.265L22.265 5.992L20.689 8.972L18.855 8.453L18.758 8.433C18.758 8.433 18.672 8.423 18.632 8.423C18.4194 8.423 18.2154 8.50733 18.0649 8.65749C17.9144 8.80765 17.8295 9.01138 17.829 9.224V13.632C17.829 14.061 18.172 14.409 18.597 14.409H18.669C18.8738 14.4077 19.0698 14.3251 19.2138 14.1794C19.3578 14.0337 19.4381 13.8368 19.437 13.632V10.285L20.472 10.579C20.59 10.613 20.713 10.629 20.837 10.629C21.327 10.629 21.774 10.365 22.001 9.935L23.855 6.429C24.02 6.117 24.047 5.745 23.928 5.409" fill="#292830"/>
</g>
<defs>
<clipPath id="clip0">
<rect width="24" height="24" fill="white"/>
</clipPath>
</defs>
</svg>
