<svg width="24" height="24" viewBox="0 0 24 24" fill="none" xmlns="http://www.w3.org/2000/svg">
<path d="M8.85799 13.867V17.44C8.85799 17.6389 8.93701 17.8297 9.07766 17.9703C9.21831 18.111 9.40908 18.19 9.60799 18.19C9.8069 18.19 9.99767 18.111 10.1383 17.9703C10.279 17.8297 10.358 17.6389 10.358 17.44V13.867C10.358 13.007 10.94 12.865 11.278 12.856H14.664C15.477 12.856 15.578 13.568 15.584 13.866V17.44C15.584 17.6389 15.663 17.8297 15.8037 17.9703C15.9443 18.111 16.1351 18.19 16.334 18.19C16.5329 18.19 16.7237 18.111 16.8643 17.9703C17.005 17.8297 17.084 17.6389 17.084 17.44V13.867C17.084 12.857 16.439 11.356 14.664 11.356H11.278C10.305 11.356 8.85799 12.025 8.85799 13.866V13.867ZM12.161 9.167C12.2632 9.2691 12.3846 9.35007 12.5181 9.40528C12.6516 9.46049 12.7947 9.48885 12.9392 9.48876C13.0837 9.48867 13.2267 9.46012 13.3602 9.40474C13.4936 9.34936 13.6149 9.26824 13.717 9.166C13.8191 9.06377 13.9001 8.94242 13.9553 8.8089C14.0105 8.67537 14.0388 8.53228 14.0387 8.38779C14.0387 8.24331 14.0101 8.10025 13.9547 7.9668C13.8993 7.83334 13.8182 7.7121 13.716 7.61C13.5095 7.4038 13.2296 7.28806 12.9378 7.28824C12.646 7.28843 12.3662 7.40453 12.16 7.611C11.9538 7.81747 11.838 8.0974 11.8382 8.38921C11.8384 8.68102 11.9545 8.9608 12.161 9.167ZM12.938 10.987C12.5967 10.9875 12.2587 10.9206 11.9433 10.7902C11.6279 10.6597 11.3413 10.4684 11.1 10.227C10.6137 9.73893 10.3406 9.07801 10.3406 8.389C10.3406 7.7 10.6137 7.03908 11.1 6.551C12.082 5.568 13.794 5.569 14.777 6.551C15.267 7.041 15.539 7.695 15.539 8.389C15.539 9.084 15.268 9.737 14.777 10.228C14.5358 10.4695 14.2493 10.661 13.9339 10.7915C13.6184 10.9219 13.2803 10.9887 12.939 10.988L12.938 10.987ZM3.70499 17.887C3.85232 17.8871 3.99643 17.8438 4.11932 17.7626C4.24221 17.6813 4.33843 17.5656 4.39599 17.43C4.40399 17.41 4.40199 17.385 4.40999 17.363C4.4367 17.2912 4.45189 17.2156 4.45499 17.139L4.45799 14.424C4.45812 14.3255 4.43885 14.228 4.40128 14.1369C4.36371 14.0459 4.30858 13.9631 4.23903 13.8934C4.16948 13.8236 4.08687 13.7683 3.99593 13.7305C3.90498 13.6927 3.80748 13.6731 3.70899 13.673C3.28899 13.635 2.95899 14.008 2.95899 14.422L2.95699 16.388H1.77999C1.58108 16.388 1.39031 16.467 1.24966 16.6077C1.10901 16.7483 1.02999 16.9391 1.02999 17.138C1.02999 17.3369 1.10901 17.5277 1.24966 17.6683C1.39031 17.809 1.58108 17.888 1.77999 17.888H3.70399L3.70499 17.887ZM1.77999 12.527H3.71199C3.81203 12.5267 3.911 12.5063 4.00299 12.467C4.01599 12.463 4.02499 12.451 4.03799 12.444C4.11328 12.4103 4.18227 12.3639 4.24199 12.307C4.24999 12.3 4.25199 12.289 4.25999 12.281C4.31949 12.2191 4.36786 12.1474 4.40299 12.069C4.41299 12.043 4.41199 12.011 4.42099 11.983C4.43899 11.916 4.46099 11.851 4.46099 11.778L4.46499 9.104C4.46526 8.90509 4.38649 8.71422 4.24603 8.57338C4.10556 8.43254 3.9149 8.35327 3.71599 8.353C3.51708 8.35274 3.32621 8.4315 3.18537 8.57196C3.04453 8.71243 2.96526 8.90309 2.96499 9.102L2.96299 11.027H1.77999C1.58108 11.027 1.39031 11.106 1.24966 11.2467C1.10901 11.3873 1.02999 11.5781 1.02999 11.777C1.02999 11.9759 1.10901 12.1667 1.24966 12.3073C1.39031 12.448 1.58108 12.527 1.77999 12.527ZM22.989 3.846L22.969 20.136C22.9679 20.8649 22.6778 21.5637 22.1623 22.079C21.6468 22.5944 20.9479 22.8842 20.219 22.885H5.70099C4.97189 22.8842 4.27288 22.5942 3.75733 22.0787C3.24177 21.5631 2.95179 20.8641 2.95099 20.135L2.95299 19.757C2.95299 19.5581 3.03201 19.3673 3.17266 19.2267C3.31331 19.086 3.50408 19.007 3.70299 19.007C4.11599 19.025 4.45299 19.345 4.45299 19.759L4.45099 20.136C4.45126 20.4673 4.58307 20.785 4.81746 21.0192C5.05185 21.2534 5.36964 21.385 5.70099 21.385H20.217C20.907 21.385 21.467 20.825 21.467 20.135L21.487 3.845C21.487 3.51348 21.3553 3.19554 21.1209 2.96112C20.8865 2.7267 20.5685 2.595 20.237 2.595H5.72299C5.03299 2.595 4.47299 3.157 4.47299 3.845L4.46799 6.54C4.46799 6.613 4.44699 6.679 4.42799 6.745C4.41999 6.773 4.42199 6.805 4.40999 6.831C4.37492 6.90964 4.32617 6.98142 4.26599 7.043C4.25999 7.051 4.25599 7.062 4.24999 7.07C4.19006 7.12641 4.12111 7.17238 4.04599 7.206C4.03299 7.213 4.02399 7.225 4.01099 7.23C3.91864 7.26918 3.81931 7.28925 3.71899 7.289H1.77899C1.58008 7.289 1.38931 7.20998 1.24866 7.06933C1.10801 6.92868 1.02899 6.73791 1.02899 6.539C1.02899 6.34009 1.10801 6.14932 1.24866 6.00867C1.38931 5.86802 1.58008 5.789 1.77899 5.789H2.96899L2.97299 3.844C2.97379 3.1149 3.26377 2.41589 3.77933 1.90034C4.29488 1.38478 4.99389 1.0948 5.72299 1.094H20.238C20.9671 1.0948 21.6661 1.38478 22.1817 1.90034C22.6972 2.41589 22.9872 3.1149 22.988 3.844L22.989 3.846Z" fill="#292830"/>
</svg>
