<svg width="24" height="24" viewBox="0 0 24 24" fill="none" xmlns="http://www.w3.org/2000/svg">
<path d="M18.696 11.188H21.037L18.697 8.698V11.188H18.696ZM10.446 7.556L10.414 22L21.444 22.032L21.472 12.688H17.946C17.7471 12.688 17.5563 12.609 17.4157 12.4683C17.275 12.3277 17.196 12.1369 17.196 11.938V7.565L10.446 7.556ZM21.443 23.532H10.446C10.0399 23.5315 9.65049 23.3699 9.3633 23.0827C9.07611 22.7955 8.91453 22.4062 8.914 22V7.588C8.914 6.744 9.602 6.056 10.446 6.056H13.583V2L2.554 1.968L2.522 16.412L7.243 16.444C7.44192 16.444 7.63268 16.523 7.77333 16.6637C7.91399 16.8043 7.993 16.9951 7.993 17.194C7.993 17.3929 7.91399 17.5837 7.77333 17.7243C7.63268 17.865 7.44192 17.944 7.243 17.944H2.554C2.14777 17.9437 1.75826 17.7822 1.47101 17.495C1.18376 17.2077 1.02227 16.8182 1.022 16.412V2C1.022 1.156 1.709 0.468002 2.554 0.468002H13.551C14.396 0.468002 15.083 1.156 15.083 2V6.056H17.608C18.028 6.056 18.435 6.231 18.723 6.538L22.56 10.618C22.828 10.905 22.976 11.278 22.976 11.668V22C22.976 22.845 22.288 23.532 21.443 23.532Z" fill="#292830"/>
</svg>
