<svg width="24" height="24" viewBox="0 0 24 24" fill="none" xmlns="http://www.w3.org/2000/svg">
<path d="M6.24102 15.112C7.06402 15.112 7.84802 14.802 8.44802 14.239C8.55274 14.131 8.61184 13.9869 8.61305 13.8365C8.61426 13.686 8.5575 13.5409 8.45454 13.4313C8.35158 13.3216 8.21034 13.2559 8.06015 13.2476C7.90996 13.2394 7.76237 13.2893 7.64802 13.387C7.35502 13.6601 6.98871 13.8419 6.59397 13.91C6.19923 13.9781 5.7932 13.9295 5.42563 13.7703C5.05806 13.6111 4.74491 13.3481 4.52456 13.0136C4.3042 12.6791 4.1862 12.2876 4.18502 11.887C4.18622 11.4842 4.30553 11.0906 4.52818 10.755C4.75083 10.4193 5.06705 10.1563 5.43766 9.99859C5.80828 9.84085 6.21702 9.79528 6.61328 9.86752C7.00954 9.93975 7.37591 10.1266 7.66702 10.405C7.72237 10.4582 7.78766 10.5 7.85915 10.5279C7.93064 10.5559 8.00694 10.5695 8.08369 10.5679C8.16044 10.5664 8.23613 10.5498 8.30645 10.519C8.37677 10.4882 8.44034 10.4439 8.49352 10.3885C8.54671 10.3331 8.58847 10.2679 8.61642 10.1964C8.64438 10.1249 8.65798 10.0486 8.65644 9.97184C8.65491 9.89509 8.63828 9.81939 8.60749 9.74907C8.57671 9.67876 8.53237 9.61519 8.47702 9.562C7.87689 8.98294 7.07497 8.66016 6.24102 8.662C5.38602 8.66306 4.56635 9.00318 3.96177 9.60775C3.3572 10.2123 3.01708 11.032 3.01602 11.887C3.01708 12.742 3.3572 13.5617 3.96177 14.1663C4.56635 14.7708 5.38602 15.1109 6.24102 15.112ZM14.054 14.945L14.074 14.953L14.099 14.963L14.114 14.968C14.1253 14.9717 14.1366 14.975 14.148 14.978L14.164 14.982L14.199 14.99L14.212 14.992C14.2273 14.9946 14.2426 14.9966 14.258 14.998H14.268L14.286 14.999H14.32C14.33 14.999 14.34 14.999 14.35 14.997L14.366 14.996C14.3778 14.9944 14.3894 14.9924 14.401 14.99H14.404L14.41 14.989L14.43 14.984L14.452 14.978C14.456 14.978 14.46 14.976 14.464 14.974C14.488 14.9668 14.5114 14.9578 14.534 14.947L14.548 14.941C14.5589 14.9357 14.5695 14.93 14.58 14.924L14.582 14.922L14.592 14.916C14.6136 14.9027 14.6343 14.888 14.654 14.872L14.669 14.86L14.687 14.844L14.701 14.831C14.7093 14.8226 14.7173 14.8139 14.725 14.805L14.741 14.787C14.745 14.781 14.75 14.777 14.754 14.77L14.767 14.752C14.7755 14.7407 14.7835 14.729 14.791 14.717L14.801 14.702C14.8097 14.6864 14.8177 14.6703 14.825 14.654L14.828 14.648L14.838 14.624L14.844 14.609C14.8472 14.6011 14.8502 14.5931 14.853 14.585L14.857 14.57C14.8599 14.5614 14.8625 14.5527 14.865 14.544L14.867 14.534C14.8713 14.5155 14.8746 14.4968 14.877 14.478L14.878 14.468C14.8793 14.459 14.8803 14.45 14.881 14.441V14.434L14.882 14.412V14.385L14.88 14.357V9.327C14.88 9.17198 14.8184 9.02331 14.7088 8.9137C14.5992 8.80408 14.4505 8.7425 14.2955 8.7425C14.1405 8.7425 13.9918 8.80408 13.8822 8.9137C13.7726 9.02331 13.711 9.17198 13.711 9.327V12.819L10.433 8.955C10.3549 8.85959 10.2487 8.79134 10.1294 8.76003C10.0102 8.72871 9.88407 8.73594 9.76918 8.78067C9.6543 8.82541 9.55651 8.90535 9.48984 9.00906C9.42317 9.11277 9.39103 9.23491 9.39802 9.358V14.412C9.39802 14.567 9.4596 14.7157 9.56922 14.8253C9.67883 14.9349 9.8275 14.9965 9.98252 14.9965C10.1375 14.9965 10.2862 14.9349 10.3958 14.8253C10.5054 14.7157 10.567 14.567 10.567 14.412V10.92L13.847 14.787L13.841 14.779L13.861 14.803C13.863 14.803 13.864 14.805 13.865 14.806L13.884 14.826L13.886 14.828C13.906 14.848 13.926 14.864 13.944 14.878L13.95 14.883L13.97 14.897L13.971 14.898C13.9776 14.9028 13.9843 14.9074 13.991 14.912L14.008 14.922L14.022 14.93C14.0263 14.9324 14.0307 14.9347 14.035 14.937H14.036L14.041 14.94L14.046 14.943L14.054 14.946H14.059H14.057L14.054 14.945ZM18.378 15C18.4549 15.0001 18.531 14.9851 18.602 14.9557C18.6731 14.9264 18.7376 14.8833 18.792 14.829C18.8463 14.7746 18.8894 14.7101 18.9188 14.639C18.9481 14.568 18.9632 14.4919 18.963 14.415V12.765L21.209 9.675C21.3003 9.54969 21.338 9.39326 21.3139 9.24014C21.2898 9.08702 21.2058 8.94974 21.0805 8.8585C20.9552 8.76727 20.7988 8.72955 20.6457 8.75365C20.4925 8.77775 20.3553 8.86169 20.264 8.987L18.378 11.581L16.493 8.987C16.4019 8.86156 16.2647 8.77744 16.1116 8.75315C15.9585 8.72886 15.802 8.7664 15.6765 8.8575C15.5511 8.9486 15.467 9.08581 15.4427 9.23893C15.4184 9.39206 15.4559 9.54856 15.547 9.674L17.794 12.764V14.415C17.794 14.738 18.056 15 18.378 15ZM12.016 23.757C8.95102 23.757 5.92802 22.567 3.67602 20.315C-0.91398 15.725 -0.91398 8.258 3.67602 3.667C8.26602 -0.922997 15.733 -0.922997 20.324 3.667C24.914 8.257 24.914 15.724 20.324 20.315C20.2544 20.3846 20.1718 20.4398 20.0809 20.4775C19.9899 20.5151 19.8924 20.5345 19.794 20.5345C19.6956 20.5345 19.5981 20.5151 19.5072 20.4775C19.4162 20.4398 19.3336 20.3846 19.264 20.315C19.1944 20.2454 19.1392 20.1628 19.1015 20.0718C19.0639 19.9809 19.0445 19.8834 19.0445 19.785C19.0445 19.6866 19.0639 19.5891 19.1015 19.4982C19.1392 19.4072 19.1944 19.3246 19.264 19.255C23.269 15.249 23.269 8.732 19.264 4.728C15.257 0.722003 8.74002 0.722003 4.73602 4.728C0.730022 8.733 0.730022 15.249 4.73602 19.254C6.23221 20.7444 8.15038 21.7389 10.2307 22.1027C12.3109 22.4666 14.4528 22.1821 16.366 21.288C16.5442 21.2154 16.7435 21.214 16.9227 21.2841C17.102 21.3542 17.2474 21.4904 17.3292 21.6646C17.4109 21.8388 17.4226 22.0378 17.3619 22.2204C17.3012 22.403 17.1728 22.5554 17.003 22.646C15.442 23.3788 13.7385 23.7581 12.014 23.757H12.016Z" fill="#292830"/>
</svg>
