<svg width="24" height="24" viewBox="0 0 24 24" fill="none" xmlns="http://www.w3.org/2000/svg">
<path d="M6.111 15.119C7.586 15.119 8.831 13.982 8.831 12.635V9.353C8.831 9.19812 8.76947 9.04957 8.65995 8.94005C8.55043 8.83053 8.40188 8.769 8.247 8.769C8.09211 8.769 7.94357 8.83053 7.83405 8.94005C7.72453 9.04957 7.663 9.19812 7.663 9.353V12.635C7.663 13.356 6.898 13.95 6.111 13.95C5.288 13.95 4.566 13.336 4.566 12.635V9.353C4.566 9.19812 4.50447 9.04957 4.39495 8.94005C4.28543 8.83053 4.13688 8.769 3.982 8.769C3.82711 8.769 3.67857 8.83053 3.56905 8.94005C3.45953 9.04957 3.398 9.19812 3.398 9.353V12.635C3.398 13.982 4.64 15.119 6.111 15.119ZM12.055 15.203C12.959 15.203 13.489 14.875 13.777 14.595C14.127 14.254 14.32 13.791 14.32 13.292C14.32 12.888 14.182 12.314 13.528 11.874C13.152 11.621 12.647 11.434 11.938 11.285H11.936C10.789 11.035 10.789 10.61 10.829 10.303C10.872 9.966 11.162 9.77 11.921 9.81C11.951 9.814 11.981 9.816 12.013 9.816H12.017C12.323 9.841 12.712 9.975 13.174 10.214C13.2422 10.2493 13.3166 10.2708 13.393 10.2772C13.4695 10.2837 13.5465 10.2751 13.6196 10.2519C13.6928 10.2286 13.7606 10.1912 13.8192 10.1417C13.8779 10.0922 13.9262 10.0317 13.9615 9.9635C13.9968 9.89535 14.0182 9.82091 14.0247 9.74445C14.0312 9.66799 14.0226 9.591 13.9993 9.51787C13.9761 9.44475 13.9386 9.37692 13.8892 9.31826C13.8397 9.2596 13.7792 9.21126 13.711 9.176C13.091 8.856 12.56 8.683 12.087 8.649H12.085C11.9842 8.64176 11.8831 8.63809 11.782 8.638C10.527 8.638 9.663 9.238 9.632 10.533C9.622 10.943 9.752 11.522 10.431 11.957C10.749 12.161 11.149 12.31 11.689 12.427H11.69L11.692 12.428H11.695C13.151 12.733 13.151 13.139 13.151 13.292C13.1526 13.3785 13.1366 13.4644 13.104 13.5446C13.0713 13.6247 13.0227 13.6973 12.961 13.758C12.775 13.939 12.463 14.034 12.055 14.034H12.021L11.983 14.033C11.274 14.013 10.772 13.746 10.333 13.459C10.2036 13.3848 10.0507 13.3628 9.90567 13.3975C9.7606 13.4322 9.63427 13.5211 9.55253 13.6459C9.47079 13.7707 9.43981 13.9219 9.46592 14.0688C9.49203 14.2157 9.57326 14.347 9.693 14.436C10.248 14.8 10.951 15.176 11.956 15.201H11.96L12.055 15.203ZM17.961 15H17.977C19.642 14.98 20.892 13.643 20.892 11.873C20.892 10.104 19.642 8.767 17.979 8.746H15.659C15.5822 8.746 15.5062 8.76114 15.4353 8.79055C15.3644 8.81996 15.2999 8.86307 15.2457 8.91741C15.1915 8.97174 15.1485 9.03624 15.1192 9.10721C15.0899 9.17818 15.0749 9.25423 15.075 9.331V14.415C15.075 14.738 15.337 15 15.66 15H17.961ZM17.941 13.83H16.244V9.915H17.941C18.974 9.915 19.723 10.739 19.723 11.873C19.723 13.007 18.973 13.831 17.941 13.831V13.83ZM12.015 23.757C8.951 23.757 5.928 22.567 3.677 20.315C-0.913004 15.725 -0.913004 8.258 3.677 3.667C8.267 -0.922997 15.733 -0.922997 20.324 3.667C24.914 8.257 24.914 15.724 20.324 20.315C20.1834 20.4556 19.9928 20.5345 19.794 20.5345C19.5952 20.5345 19.4046 20.4556 19.264 20.315C19.1234 20.1744 19.0445 19.9838 19.0445 19.785C19.0445 19.5862 19.1234 19.3956 19.264 19.255C23.269 15.249 23.269 8.732 19.264 4.728C15.257 0.722003 8.74 0.722003 4.736 4.728C0.729996 8.733 0.729996 15.249 4.736 19.254C6.23219 20.7444 8.15036 21.7389 10.2306 22.1027C12.3109 22.4666 14.4528 22.1821 16.366 21.288C16.5442 21.2154 16.7435 21.214 16.9227 21.2841C17.1019 21.3542 17.2474 21.4904 17.3291 21.6646C17.4109 21.8388 17.4226 22.0378 17.3619 22.2204C17.3012 22.403 17.1727 22.5554 17.003 22.646C15.442 23.3788 13.7385 23.7581 12.014 23.757H12.015Z" fill="#292830"/>
</svg>
