<svg width="24" height="24" viewBox="0 0 24 24" fill="none" xmlns="http://www.w3.org/2000/svg">
<path d="M3.17404 15C3.28195 14.9999 3.38773 14.97 3.47968 14.9135C3.57163 14.857 3.64616 14.7762 3.69504 14.68L4.10504 13.873H7.40804L7.81804 14.68C7.88929 14.8166 8.01156 14.9196 8.1583 14.9666C8.30504 15.0136 8.46441 15.0008 8.60178 14.931C8.73914 14.8612 8.84343 14.7401 8.89197 14.5938C8.94052 14.4476 8.9294 14.2881 8.86104 14.15L6.28004 9.07299L6.29004 9.09299C6.24957 9.00314 6.18695 8.92503 6.10804 8.86599L6.08904 8.85299L6.06104 8.83399C6.04961 8.82693 6.03794 8.82026 6.02604 8.81399L6.02004 8.81099L6.01804 8.80999L5.96804 8.78799C5.91456 8.76698 5.8583 8.75385 5.80104 8.74899H5.79604L5.77604 8.74799H5.73304C5.58464 8.75285 5.44385 8.81483 5.34004 8.92099L5.33304 8.92799C5.32188 8.93989 5.3112 8.95223 5.30104 8.96499L5.29504 8.97199C5.28598 8.9837 5.27731 8.99571 5.26904 9.00799L5.26204 9.01999C5.25308 9.0343 5.24474 9.04898 5.23704 9.06399L5.23504 9.06699L2.65204 14.152C2.45404 14.542 2.74004 15.001 3.17204 15.001L3.17404 15ZM6.81404 12.704H4.70004L5.75804 10.621L6.81604 12.704H6.81404ZM11.852 15.119C13.327 15.119 14.572 13.982 14.572 12.636V9.35299C14.572 9.19811 14.5105 9.04956 14.401 8.94004C14.2915 8.83052 14.1429 8.76899 13.988 8.76899C13.8332 8.76899 13.6846 8.83052 13.5751 8.94004C13.4656 9.04956 13.404 9.19811 13.404 9.35299V12.636C13.404 13.356 12.639 13.95 11.852 13.95C11.029 13.95 10.307 13.336 10.307 12.636V9.35299C10.307 9.19797 10.2455 9.04931 10.1358 8.93969C10.0262 8.83008 9.87756 8.76849 9.72254 8.76849C9.56752 8.76849 9.41886 8.83008 9.30924 8.93969C9.19963 9.04931 9.13804 9.19797 9.13804 9.35299V12.636C9.13804 13.982 10.381 15.119 11.852 15.119ZM18.37 15H18.386C20.05 14.98 21.301 13.643 21.301 11.873C21.301 10.104 20.051 8.76699 18.388 8.74699H16.068C15.9132 8.74699 15.7646 8.80852 15.6551 8.91804C15.5456 9.02757 15.484 9.17611 15.484 9.33099V14.416C15.484 14.738 15.745 15 16.068 15H18.37ZM18.35 13.831H16.653V9.91499H18.349C19.382 9.91499 20.132 10.739 20.132 11.873C20.132 13.008 19.382 13.831 18.349 13.831H18.35ZM12.015 23.758C8.95004 23.758 5.92704 22.568 3.67504 20.315C-0.914955 15.725 -0.914955 8.25799 3.67504 3.66799C8.26504 -0.922005 15.732 -0.922005 20.322 3.66799C24.912 8.25799 24.912 15.725 20.322 20.315C20.2524 20.3846 20.1698 20.4398 20.0789 20.4775C19.9879 20.5151 19.8905 20.5345 19.792 20.5345C19.6936 20.5345 19.5961 20.5151 19.5052 20.4775C19.4143 20.4398 19.3316 20.3846 19.262 20.315C19.1924 20.2454 19.1372 20.1628 19.0996 20.0718C19.0619 19.9809 19.0425 19.8834 19.0425 19.785C19.0425 19.6866 19.0619 19.5891 19.0996 19.4982C19.1372 19.4072 19.1924 19.3246 19.262 19.255C23.267 15.25 23.267 8.733 19.262 4.72799C15.259 0.722997 8.74204 0.722997 4.73704 4.72799C0.732045 8.733 0.732045 15.25 4.73604 19.255C6.23251 20.7457 8.15109 21.7402 10.2318 22.1039C12.3125 22.4675 14.4547 22.1827 16.368 21.288C16.5463 21.2154 16.7455 21.214 16.9248 21.2841C17.104 21.3542 17.2495 21.4904 17.3312 21.6646C17.4129 21.8388 17.4246 22.0378 17.3639 22.2204C17.3033 22.403 17.1748 22.5553 17.005 22.646C15.4438 23.3793 13.7399 23.7589 12.015 23.758Z" fill="#292830"/>
</svg>
