<svg width="24" height="24" viewBox="0 0 24 24" fill="none" xmlns="http://www.w3.org/2000/svg">
<path d="M8.93402 14.052C8.94602 14.024 8.95602 14.004 8.96402 13.978L8.97202 13.931L8.97302 13.926V13.931L8.97702 13.907V13.9L8.97902 13.892C8.98275 13.8672 8.98476 13.8421 8.98502 13.817V11.939C8.98515 11.8621 8.97011 11.786 8.94076 11.715C8.91141 11.6439 8.86832 11.5794 8.81397 11.5251C8.75962 11.4707 8.69508 11.4276 8.62405 11.3983C8.55301 11.3689 8.47688 11.3539 8.40002 11.354H6.32002C6.16487 11.354 6.01607 11.4156 5.90636 11.5253C5.79665 11.6351 5.73502 11.7839 5.73502 11.939C5.73502 12.0942 5.79665 12.243 5.90636 12.3527C6.01607 12.4624 6.16487 12.524 6.32002 12.524H7.81602V13.538C7.44109 13.8013 6.99416 13.9427 6.53602 13.943C5.99081 13.9425 5.46806 13.7257 5.08244 13.3403C4.69682 12.9549 4.47981 12.4322 4.47902 11.887C4.48022 11.4842 4.59953 11.0906 4.82218 10.755C5.04483 10.4193 5.36105 10.1563 5.73166 9.99859C6.10228 9.84085 6.51102 9.79528 6.90728 9.86752C7.30354 9.93975 7.66991 10.1266 7.96102 10.405C8.01623 10.4583 8.08143 10.5002 8.15287 10.5283C8.22432 10.5564 8.3006 10.5701 8.37734 10.5686C8.45409 10.5671 8.52979 10.5504 8.60009 10.5196C8.67039 10.4888 8.73392 10.4444 8.78702 10.389C8.84044 10.3338 8.88244 10.2685 8.91061 10.1971C8.93877 10.1256 8.95255 10.0492 8.95116 9.97239C8.94977 9.89556 8.93323 9.81977 8.90249 9.74934C8.87175 9.67892 8.82741 9.61526 8.77202 9.562C8.17164 8.9827 7.36931 8.6599 6.53502 8.662C5.68002 8.66306 4.86035 9.00318 4.25577 9.60775C3.65119 10.2123 3.31108 11.032 3.31002 11.887C3.31108 12.742 3.65119 13.5617 4.25577 14.1663C4.86035 14.7708 5.68002 15.1109 6.53502 15.112C7.35902 15.112 8.19202 14.795 8.77402 14.263L8.77802 14.259L8.78802 14.251L8.80202 14.238L8.82102 14.219C8.82685 14.2125 8.83252 14.2058 8.83802 14.199L8.85302 14.182L8.85502 14.18L8.86002 14.173L8.86202 14.17L8.87102 14.159L8.87702 14.149L8.87902 14.147L8.88302 14.142L8.88702 14.135L8.89002 14.13C8.89484 14.1228 8.89951 14.1154 8.90402 14.108V14.107L8.90502 14.105L8.90902 14.099L8.91902 14.081L8.92802 14.062L8.93002 14.058L8.93102 14.055L8.93602 14.044L8.93402 14.052ZM13.278 15C13.7887 14.9995 14.2782 14.7964 14.6393 14.4353C15.0004 14.0742 15.2035 13.5846 15.204 13.074C15.204 12.454 14.91 11.902 14.454 11.55C14.64 11.2818 14.7492 10.9677 14.7696 10.6419C14.79 10.3161 14.7209 9.99097 14.5698 9.7016C14.4188 9.41223 14.1914 9.16967 13.9125 9.00019C13.6335 8.8307 13.3135 8.74072 12.987 8.74C12.957 8.74 12.927 8.742 12.897 8.746H10.451C10.3742 8.74587 10.298 8.76091 10.227 8.79026C10.156 8.81962 10.0914 8.8627 10.0371 8.91705C9.98272 8.9714 9.93963 9.03594 9.91028 9.10698C9.88093 9.17801 9.86589 9.25414 9.86602 9.331V14.415C9.86602 14.738 10.128 15 10.451 15H13.278ZM12.986 11.148H11.035V9.915H12.987C13.0087 9.91519 13.0304 9.91419 13.052 9.912C13.2089 9.92986 13.3531 10.0069 13.4551 10.1274C13.5571 10.248 13.6093 10.4029 13.601 10.5606C13.5927 10.7183 13.5246 10.8669 13.4105 10.976C13.2964 11.0852 13.1449 11.1467 12.987 11.148H12.986ZM13.278 13.831H11.035V12.317H13.278C13.4721 12.327 13.6549 12.4111 13.7887 12.552C13.9225 12.6928 13.9971 12.8797 13.9971 13.074C13.9971 13.2683 13.9225 13.4552 13.7887 13.596C13.6549 13.7369 13.4721 13.821 13.278 13.831ZM16.552 15C16.6289 15.0001 16.705 14.9851 16.776 14.9557C16.8471 14.9264 16.9116 14.8833 16.966 14.829C17.0203 14.7746 17.0634 14.7101 17.0928 14.639C17.1221 14.568 17.1372 14.4919 17.137 14.415V13.18H18.649C19.2368 13.1792 19.8002 12.9454 20.2158 12.5298C20.6314 12.1142 20.8652 11.5507 20.866 10.963C20.8652 10.3753 20.6314 9.81182 20.2158 9.39622C19.8002 8.98063 19.2368 8.7468 18.649 8.746H16.552C16.4752 8.74587 16.3991 8.76092 16.3281 8.79028C16.2572 8.81965 16.1927 8.86275 16.1384 8.91711C16.0842 8.97147 16.0412 9.03602 16.0119 9.10705C15.9827 9.17808 15.9678 9.25419 15.968 9.331V14.415C15.968 14.738 16.229 15 16.552 15ZM18.649 12.011H17.137V9.915H18.649C18.9127 9.92201 19.1641 10.028 19.3532 10.2119C19.5423 10.3958 19.6552 10.6441 19.6696 10.9074C19.6839 11.1708 19.5987 11.4299 19.4307 11.6333C19.2627 11.8367 19.0244 11.9694 18.763 12.005L18.649 12.011ZM12.016 23.757C8.95102 23.757 5.92802 22.567 3.67602 20.315C-0.91398 15.725 -0.91398 8.258 3.67602 3.667C8.26602 -0.922997 15.733 -0.922997 20.324 3.667C24.914 8.257 24.914 15.724 20.324 20.315C20.1835 20.4556 19.9928 20.5345 19.794 20.5345C19.5952 20.5345 19.4046 20.4556 19.264 20.315C19.1235 20.1744 19.0445 19.9838 19.0445 19.785C19.0445 19.5862 19.1235 19.3956 19.264 19.255C23.269 15.249 23.269 8.732 19.264 4.728C15.257 0.722003 8.74002 0.722003 4.73602 4.728C0.730022 8.733 0.730022 15.249 4.73602 19.254C6.23221 20.7444 8.15038 21.7389 10.2307 22.1027C12.3109 22.4666 14.4528 22.1821 16.366 21.288C16.5442 21.2154 16.7435 21.214 16.9227 21.2841C17.102 21.3542 17.2474 21.4904 17.3292 21.6646C17.4109 21.8388 17.4226 22.0378 17.3619 22.2204C17.3012 22.403 17.1728 22.5554 17.003 22.646C15.442 23.3788 13.7385 23.7581 12.014 23.757H12.016Z" fill="#292830"/>
</svg>
