<svg width="24" height="24" viewBox="0 0 24 24" fill="none" xmlns="http://www.w3.org/2000/svg">
<path d="M7.806 15C7.96115 15 8.10995 14.9384 8.21966 14.8287C8.32936 14.719 8.391 14.5702 8.391 14.415C8.391 14.2599 8.32936 14.1111 8.21966 14.0013C8.10995 13.8916 7.96115 13.83 7.806 13.83H5V12.457H7.309C7.46388 12.457 7.61243 12.3955 7.72195 12.286C7.83147 12.1764 7.893 12.0279 7.893 11.873C7.893 11.7181 7.83147 11.5696 7.72195 11.4601C7.61243 11.3505 7.46388 11.289 7.309 11.289H5V9.915H7.806C7.96102 9.915 8.10969 9.85342 8.2193 9.74381C8.32892 9.63419 8.3905 9.48552 8.3905 9.3305C8.3905 9.17548 8.32892 9.02681 8.2193 8.9172C8.10969 8.80758 7.96102 8.746 7.806 8.746H4.416C4.33922 8.746 4.2632 8.76114 4.19228 8.79055C4.12136 8.81996 4.05694 8.86307 4.00269 8.91741C3.94845 8.97174 3.90545 9.03624 3.87616 9.10721C3.84687 9.17818 3.83187 9.25423 3.832 9.331V14.415C3.832 14.738 4.093 15 4.416 15H7.806ZM11.75 15.119C13.225 15.119 14.471 13.982 14.471 12.635V9.353C14.471 9.19798 14.4094 9.04931 14.2998 8.9397C14.1902 8.83008 14.0415 8.7685 13.8865 8.7685C13.7315 8.7685 13.5828 8.83008 13.4732 8.9397C13.3636 9.04931 13.302 9.19798 13.302 9.353V12.635C13.302 13.356 12.537 13.95 11.75 13.95C10.927 13.95 10.206 13.336 10.206 12.635V9.353C10.206 9.19785 10.1444 9.04905 10.0347 8.93934C9.92495 8.82964 9.77615 8.768 9.621 8.768C9.46585 8.768 9.31705 8.82964 9.20734 8.93934C9.09763 9.04905 9.036 9.19785 9.036 9.353V12.635C9.036 13.982 10.279 15.119 11.75 15.119ZM19.902 14.999C20.0113 14.9991 20.1185 14.9685 20.2113 14.9108C20.3041 14.853 20.3788 14.7703 20.4269 14.6722C20.4751 14.574 20.4947 14.4643 20.4836 14.3556C20.4724 14.2468 20.431 14.1434 20.364 14.057L19.306 12.69C19.7298 12.4873 20.0721 12.1466 20.2769 11.7238C20.4817 11.3011 20.5369 10.8213 20.4334 10.3631C20.3298 9.90487 20.0737 9.49542 19.707 9.20181C19.3403 8.90819 18.8848 8.74783 18.415 8.747H15.968C15.8912 8.74687 15.8152 8.76188 15.7442 8.79117C15.6732 8.82046 15.6087 8.86346 15.5544 8.9177C15.5001 8.97194 15.457 9.03637 15.4275 9.10728C15.3981 9.1782 15.383 9.25423 15.383 9.331V14.415C15.383 14.57 15.4446 14.7187 15.5542 14.8283C15.6638 14.9379 15.8125 14.9995 15.9675 14.9995C16.1225 14.9995 16.2712 14.9379 16.3808 14.8283C16.4904 14.7187 16.552 14.57 16.552 14.415V12.888H17.982L19.439 14.773C19.4936 14.8438 19.5638 14.9011 19.644 14.9405C19.7243 14.9798 19.8126 15.0002 19.902 15V14.999ZM18.415 11.719H16.552V9.915H18.415C18.6469 9.92592 18.8656 10.0257 19.0259 10.1937C19.1861 10.3616 19.2755 10.5849 19.2755 10.817C19.2755 11.0491 19.1861 11.2724 19.0259 11.4403C18.8656 11.6083 18.6469 11.7081 18.415 11.719ZM12.015 23.757C8.951 23.757 5.928 22.567 3.677 20.315C-0.913004 15.725 -0.913004 8.258 3.677 3.667C8.267 -0.922997 15.733 -0.922997 20.324 3.667C24.914 8.257 24.914 15.724 20.324 20.315C20.2544 20.3846 20.1718 20.4398 20.0808 20.4775C19.9899 20.5151 19.8924 20.5345 19.794 20.5345C19.6956 20.5345 19.5981 20.5151 19.5072 20.4775C19.4162 20.4398 19.3336 20.3846 19.264 20.315C19.1944 20.2454 19.1392 20.1628 19.1015 20.0718C19.0639 19.9809 19.0445 19.8834 19.0445 19.785C19.0445 19.6866 19.0639 19.5891 19.1015 19.4982C19.1392 19.4072 19.1944 19.3246 19.264 19.255C23.269 15.249 23.269 8.732 19.264 4.728C15.257 0.722003 8.74 0.722003 4.736 4.728C0.729996 8.733 0.729996 15.249 4.736 19.254C6.23219 20.7444 8.15036 21.7389 10.2306 22.1027C12.3109 22.4666 14.4528 22.1821 16.366 21.288C16.5442 21.2154 16.7435 21.214 16.9227 21.2841C17.1019 21.3542 17.2474 21.4904 17.3291 21.6646C17.4109 21.8388 17.4226 22.0378 17.3619 22.2204C17.3012 22.403 17.1727 22.5554 17.003 22.646C15.442 23.3788 13.7385 23.7581 12.014 23.757H12.015Z" fill="#292830"/>
</svg>
