<svg width="24" height="24" viewBox="0 0 24 24" fill="none" xmlns="http://www.w3.org/2000/svg">
<path d="M16.816 12.824L17.899 10.649L18.894 12.824H16.816ZM15.892 14.761L16.27 13.986H19.519L19.906 14.761C20.223 15.448 21.289 14.901 20.926 14.215L18.445 9.275C18.225 8.792 17.591 8.809 17.353 9.275L14.826 14.215C14.65 14.585 14.826 14.902 15.108 15.06C15.425 15.122 15.751 15.06 15.892 14.76V14.761ZM11.827 10.041C14.31 10.041 14.204 13.986 11.827 13.986H10.365V10.042H11.827V10.041ZM11.906 15.06C15.762 15.06 15.851 8.968 11.826 8.968H9.81201C9.52101 8.968 9.20401 9.197 9.20401 9.513V14.513C9.20401 14.902 9.52101 15.06 9.81201 15.06H11.907H11.906ZM5.62301 10.042C8.10601 10.042 8.00001 13.986 5.62301 13.986H4.16001V10.042H5.62201H5.62301ZM5.70201 15.06C9.55801 15.06 9.64701 8.968 5.62201 8.968H3.60801C3.31701 8.968 3.00001 9.197 3.00001 9.513V14.513C3.00001 14.902 3.31701 15.06 3.60801 15.06H5.70301H5.70201ZM12.016 23.766C8.952 23.766 5.92801 22.576 3.67601 20.324C-0.913995 15.734 -0.913995 8.266 3.67601 3.677C8.26601 -0.913003 15.734 -0.913003 20.324 3.677C24.914 8.266 24.914 15.734 20.324 20.324C20.1833 20.4647 19.9925 20.5437 19.7935 20.5437C19.5945 20.5437 19.4037 20.4647 19.263 20.324C19.1223 20.1833 19.0433 19.9925 19.0433 19.7935C19.0433 19.5945 19.1223 19.4037 19.263 19.263C23.268 15.259 23.268 8.742 19.263 4.737C15.258 0.731997 8.74201 0.731997 4.73701 4.737C0.732005 8.742 0.732005 15.259 4.73701 19.263C6.23293 20.7538 8.15106 21.7487 10.2314 22.1127C12.3118 22.4767 14.4537 22.1923 16.367 21.298C16.4561 21.2562 16.5526 21.2323 16.6509 21.2278C16.7492 21.2232 16.8475 21.2381 16.9401 21.2715C17.0326 21.3049 17.1177 21.3563 17.1905 21.4226C17.2632 21.4889 17.3222 21.5689 17.364 21.658C17.4058 21.7471 17.4297 21.8436 17.4342 21.9419C17.4388 22.0402 17.4239 22.1385 17.3905 22.2311C17.3571 22.3236 17.3057 22.4087 17.2394 22.4815C17.1731 22.5542 17.0931 22.6132 17.004 22.655C15.4432 23.3874 13.7401 23.7664 12.016 23.765V23.766Z" fill="#292830"/>
</svg>
