<svg width="24" height="24" viewBox="0 0 24 24" fill="none" xmlns="http://www.w3.org/2000/svg">
<path d="M17.557 16.1C19.007 16.1 20.187 14.92 20.187 13.47C20.1867 12.7724 19.9096 12.1034 19.4165 11.6099C18.9234 11.1164 18.2546 10.8388 17.557 10.838C16.8593 10.8388 16.1904 11.1164 15.6971 11.6098C15.2039 12.1033 14.9265 12.7723 14.926 13.47C14.926 14.92 16.106 16.1 17.556 16.1H17.557ZM22.217 18.391C22.0761 18.531 21.8856 18.6095 21.687 18.6095C21.4884 18.6095 21.2979 18.531 21.157 18.391L19.731 16.966C19.0803 17.3773 18.3268 17.5967 17.557 17.599C16.4619 17.5979 15.4119 17.1625 14.6375 16.3882C13.863 15.614 13.4273 14.5641 13.426 13.469C13.4273 12.3741 13.8629 11.3243 14.6371 10.5501C15.4114 9.77587 16.4611 9.34032 17.556 9.339C18.6509 9.34032 19.7007 9.77587 20.4749 10.5501C21.2491 11.3243 21.6847 12.3741 21.686 13.469C21.686 14.405 21.363 15.258 20.836 15.951L22.218 17.331C22.3585 17.4716 22.4373 17.6622 22.4373 17.861C22.4373 18.0598 22.3585 18.2504 22.218 18.391H22.217ZM5.693 14.177C5.49409 14.177 5.30333 14.256 5.16267 14.3967C5.02202 14.5373 4.943 14.7281 4.943 14.927C4.943 15.1259 5.02202 15.3167 5.16267 15.4573C5.30333 15.598 5.49409 15.677 5.693 15.677H10.083C10.2819 15.677 10.4727 15.598 10.6133 15.4573C10.754 15.3167 10.833 15.1259 10.833 14.927C10.833 14.7281 10.754 14.5373 10.6133 14.3967C10.4727 14.256 10.2819 14.177 10.083 14.177H5.693ZM11.833 10.692C11.833 10.4931 11.754 10.3023 11.6133 10.1617C11.4727 10.021 11.2819 9.942 11.083 9.942H5.693C5.49409 9.942 5.30333 10.021 5.16267 10.1617C5.02202 10.3023 4.943 10.4931 4.943 10.692C4.943 10.8909 5.02202 11.0817 5.16267 11.2223C5.30333 11.363 5.49409 11.442 5.693 11.442H11.083C11.2819 11.442 11.4727 11.363 11.6133 11.2223C11.754 11.0817 11.833 10.8909 11.833 10.692ZM13.833 6.457C13.833 6.25809 13.754 6.06732 13.6133 5.92667C13.4727 5.78602 13.2819 5.707 13.083 5.707H5.693C5.49409 5.707 5.30333 5.78602 5.16267 5.92667C5.02202 6.06732 4.943 6.25809 4.943 6.457C4.943 6.65591 5.02202 6.84668 5.16267 6.98733C5.30333 7.12798 5.49409 7.207 5.693 7.207H13.083C13.2819 7.207 13.4727 7.12798 13.6133 6.98733C13.754 6.84668 13.833 6.65591 13.833 6.457ZM20.297 20.407C20.2959 21.1466 20.0017 21.8557 19.4787 22.3787C18.9557 22.9017 18.2466 23.1959 17.507 23.197H4.868C4.12829 23.1962 3.41911 22.902 2.89605 22.379C2.373 21.8559 2.0788 21.1467 2.078 20.407V3.596C2.0788 2.85629 2.373 2.1471 2.89605 1.62405C3.41911 1.10099 4.12829 0.806794 4.868 0.806H17.506C18.2456 0.807058 18.9547 1.10134 19.4777 1.62434C20.0007 2.14734 20.2949 2.85637 20.296 3.596V5.114C20.296 5.31291 20.217 5.50368 20.0763 5.64433C19.9357 5.78498 19.7449 5.864 19.546 5.864C19.3471 5.864 19.1563 5.78498 19.0157 5.64433C18.875 5.50368 18.796 5.31291 18.796 5.114V3.595C18.796 2.885 18.216 2.305 17.506 2.305H4.868C4.157 2.305 3.578 2.885 3.578 3.595V20.408C3.578 21.118 4.157 21.698 4.868 21.698H17.506C18.216 21.698 18.796 21.118 18.796 20.408C18.796 20.2091 18.875 20.0183 19.0157 19.8777C19.1563 19.737 19.3471 19.658 19.546 19.658C19.7449 19.658 19.9357 19.737 20.0763 19.8777C20.217 20.0183 20.296 20.2091 20.296 20.408L20.297 20.407Z" fill="#292830"/>
</svg>
