<svg width="24" height="24" viewBox="0 0 24 24" fill="none" xmlns="http://www.w3.org/2000/svg">
<path d="M15.25 15.427C15.25 15.2281 15.171 15.0373 15.0303 14.8967C14.8897 14.756 14.6989 14.677 14.5 14.677H6.44399C6.24508 14.677 6.05431 14.756 5.91366 14.8967C5.77301 15.0373 5.69399 15.2281 5.69399 15.427C5.69399 15.6259 5.77301 15.8167 5.91366 15.9573C6.05431 16.098 6.24508 16.177 6.44399 16.177H14.5C14.6989 16.177 14.8897 16.098 15.0303 15.9573C15.171 15.8167 15.25 15.6259 15.25 15.427ZM18.25 11.193C18.25 10.9941 18.171 10.8033 18.0303 10.6627C17.8897 10.522 17.6989 10.443 17.5 10.443H6.44599C6.24708 10.443 6.05631 10.522 5.91566 10.6627C5.77501 10.8033 5.69599 10.9941 5.69599 11.193C5.69599 11.3919 5.77501 11.5827 5.91566 11.7233C6.05631 11.864 6.24708 11.943 6.44599 11.943H17.5C17.6989 11.943 17.8897 11.864 18.0303 11.7233C18.171 11.5827 18.25 11.3919 18.25 11.193ZM18.25 6.958C18.25 6.75909 18.171 6.56832 18.0303 6.42767C17.8897 6.28702 17.6989 6.208 17.5 6.208H6.44399C6.24508 6.208 6.05431 6.28702 5.91366 6.42767C5.77301 6.56832 5.69399 6.75909 5.69399 6.958C5.69399 7.15691 5.77301 7.34768 5.91366 7.48833C6.05431 7.62898 6.24508 7.708 6.44399 7.708H17.5C17.6989 7.708 17.8897 7.62898 18.0303 7.48833C18.171 7.34768 18.25 7.15691 18.25 6.958ZM19.151 22.904H18.01C17.8111 22.904 17.6203 22.825 17.4797 22.6843C17.339 22.5437 17.26 22.3529 17.26 22.154C17.26 21.9551 17.339 21.7643 17.4797 21.6237C17.6203 21.483 17.8111 21.404 18.01 21.404H19.152C19.864 21.404 20.442 20.824 20.442 20.114V3.886C20.442 3.175 19.864 2.596 19.152 2.596H4.79299C4.08099 2.596 3.50299 3.175 3.50299 3.886V20.114C3.50299 20.824 4.08199 21.404 4.79299 21.404H14.183C14.3819 21.404 14.5727 21.483 14.7133 21.6237C14.854 21.7643 14.933 21.9551 14.933 22.154C14.933 22.3529 14.854 22.5437 14.7133 22.6843C14.5727 22.825 14.3819 22.904 14.183 22.904H4.79299C4.0532 22.9035 3.34386 22.6094 2.82075 22.0862C2.29764 21.5631 2.00352 20.8538 2.00299 20.114V3.886C2.00352 3.14621 2.29764 2.43687 2.82075 1.91376C3.34386 1.39065 4.0532 1.09653 4.79299 1.096H19.15C19.8898 1.09653 20.5991 1.39065 21.1222 1.91376C21.6453 2.43687 21.9395 3.14621 21.94 3.886V20.114C21.9395 20.8538 21.6453 21.5631 21.1222 22.0862C20.5991 22.6094 19.8898 22.9035 19.15 22.904" fill="#292830"/>
</svg>
