<svg width="24" height="24" viewBox="0 0 24 24" fill="none" xmlns="http://www.w3.org/2000/svg">
<g clip-path="url(#clip0)">
<path fill-rule="evenodd" clip-rule="evenodd" d="M11.96 10.918C11.24 10.918 10.652 10.423 10.652 9.814C10.652 9.206 11.239 8.711 11.96 8.711C12.681 8.711 13.268 9.206 13.268 9.814C13.268 10.0528 13.3629 10.2819 13.5318 10.4507C13.7006 10.6196 13.9297 10.7145 14.1685 10.7145C14.4073 10.7145 14.6364 10.6196 14.8053 10.4507C14.9741 10.2819 15.069 10.0528 15.069 9.814C15.069 8.505 14.137 7.397 12.86 7.035V6.9C12.86 6.66131 12.7652 6.43239 12.5964 6.2636C12.4276 6.09482 12.1987 6 11.96 6C11.7213 6 11.4924 6.09482 11.3236 6.2636C11.1548 6.43239 11.06 6.66131 11.06 6.9V7.035C9.78301 7.397 8.85101 8.505 8.85101 9.815C8.85101 11.416 10.246 12.719 11.961 12.719C12.681 12.719 13.268 13.214 13.268 13.823C13.268 14.431 12.681 14.926 11.96 14.926C11.24 14.926 10.652 14.431 10.652 13.823C10.652 13.7048 10.6287 13.5878 10.5835 13.4786C10.5383 13.3694 10.472 13.2702 10.3884 13.1866C10.3048 13.103 10.2056 13.0367 10.0964 12.9915C9.98724 12.9463 9.8702 12.923 9.75201 12.923C9.63382 12.923 9.51679 12.9463 9.4076 12.9915C9.29841 13.0367 9.19919 13.103 9.11562 13.1866C9.03204 13.2702 8.96575 13.3694 8.92052 13.4786C8.87529 13.5878 8.85201 13.7048 8.85201 13.823C8.85201 15.133 9.78301 16.241 11.059 16.603V16.66C11.059 16.8988 11.1539 17.1279 11.3228 17.2967C11.4916 17.4656 11.7207 17.5605 11.9595 17.5605C12.1983 17.5605 12.4274 17.4656 12.5963 17.2967C12.7651 17.1279 12.86 16.8988 12.86 16.66V16.603C14.137 16.241 15.07 15.133 15.07 13.823C15.07 12.221 13.674 10.918 11.96 10.918Z" fill="#292830"/>
<path fill-rule="evenodd" clip-rule="evenodd" d="M15.623 0.773419C15.7194 0.801169 15.8093 0.847992 15.8874 0.911116C15.9654 0.97424 16.0299 1.05238 16.0772 1.14091C16.1245 1.22943 16.1535 1.32655 16.1626 1.4265C16.1716 1.52645 16.1605 1.6272 16.1299 1.72278C16.0993 1.81836 16.0499 1.90683 15.9845 1.98295C15.9191 2.05907 15.8391 2.12129 15.7492 2.16592C15.6593 2.21056 15.5614 2.2367 15.4612 2.24279C15.361 2.24889 15.2606 2.23482 15.166 2.20142C11.456 1.01542 7.459 1.97142 4.733 4.69642C0.728999 8.70042 0.728999 15.2164 4.733 19.2224C8.738 23.2274 15.255 23.2274 19.26 19.2224C20.3559 18.1162 21.1885 16.7771 21.6957 15.3049C22.203 13.8326 22.3719 12.265 22.19 10.7184C22.1782 10.6206 22.1857 10.5214 22.2123 10.4265C22.2388 10.3316 22.2837 10.2428 22.3446 10.1653C22.4054 10.0877 22.4809 10.0229 22.5668 9.97457C22.6526 9.92621 22.7472 9.89524 22.845 9.88342C22.9428 9.8716 23.042 9.87917 23.1369 9.90569C23.2319 9.93221 23.3206 9.97716 23.3982 10.038C23.4757 10.0988 23.5405 10.1743 23.5888 10.2602C23.6372 10.346 23.6682 10.4406 23.68 10.5384C23.736 11.0004 23.763 11.4634 23.763 11.9254C23.763 15.0314 22.526 18.0774 20.32 20.2824C15.73 24.8724 8.263 24.8724 3.673 20.2824C-0.917001 15.6924 -0.917001 8.22542 3.673 3.63542C6.796 0.511419 11.376 -0.585581 15.623 0.773419Z" fill="#292830"/>
<path fill-rule="evenodd" clip-rule="evenodd" d="M23.582 4.73142L20.326 2.45142C20.1761 2.34634 20.0002 2.28442 19.8175 2.27243C19.6348 2.26043 19.4524 2.29882 19.29 2.38341C19.1276 2.468 18.9916 2.59554 18.8967 2.75213C18.8019 2.90872 18.7518 3.08834 18.752 3.27142V7.82942C18.7518 8.01251 18.8019 8.19213 18.8967 8.34872C18.9916 8.50531 19.1276 8.63285 19.29 8.71744C19.4524 8.80202 19.6348 8.84041 19.8175 8.82842C20.0002 8.81643 20.1761 8.75451 20.326 8.64942L23.582 6.36942C23.7136 6.27721 23.8211 6.15462 23.8953 6.01206C23.9695 5.86949 24.0082 5.71114 24.0082 5.55042C24.0082 5.38971 23.9695 5.23136 23.8953 5.08879C23.8211 4.94623 23.7136 4.82364 23.582 4.73142Z" fill="#292830"/>
</g>
<defs>
<clipPath id="clip0">
<rect width="24" height="24" fill="white"/>
</clipPath>
</defs>
</svg>
