<svg width="24" height="24" viewBox="0 0 24 24" fill="none" xmlns="http://www.w3.org/2000/svg">
<path d="M12.76 0C17.264 0 21.43 2.626 23.375 6.689C23.4609 6.86842 23.4721 7.07463 23.406 7.26226C23.3399 7.44989 23.2019 7.60357 23.0225 7.6895C22.8431 7.77543 22.6369 7.78657 22.4492 7.72046C22.2616 7.65435 22.1079 7.51642 22.022 7.337C21.7888 6.85733 21.5179 6.39689 21.212 5.96C20.109 6.45025 18.9653 6.84341 17.794 7.135C17.788 7.137 17.784 7.142 17.777 7.144C17.77 7.146 17.763 7.144 17.755 7.145C16.3643 7.48772 14.9423 7.68743 13.511 7.741V15.506C14.978 15.562 16.416 15.766 17.817 16.117C17.823 16.118 17.829 16.116 17.835 16.118C17.841 16.119 17.845 16.124 17.852 16.126C19.05 16.428 20.22 16.837 21.359 17.353C21.614 16.962 21.848 16.554 22.049 16.125C22.1337 15.9449 22.2865 15.8059 22.4738 15.7385C22.6611 15.671 22.8674 15.6808 23.0475 15.7655C23.2276 15.8502 23.3666 16.003 23.434 16.1903C23.5015 16.3775 23.4917 16.5839 23.407 16.764C23.0781 17.4588 22.6808 18.119 22.221 18.735C22.204 18.759 22.189 18.787 22.169 18.808C19.973 21.726 16.489 23.521 12.761 23.521C8.92 23.521 5.514 21.662 3.367 18.805C3.28974 18.739 3.22708 18.6576 3.183 18.566C3.181 18.563 3.182 18.56 3.181 18.557C1.76257 16.5744 0.999947 14.1977 1 11.76C1 9.138 1.873 6.722 3.329 4.764C3.329 4.762 3.329 4.76 3.331 4.758C3.37504 4.66527 3.43807 4.58282 3.516 4.516C5.67 1.772 9.009 0 12.76 0ZM12.01 17.002C10.925 17.038 9.856 17.162 8.808 17.372C9.534 19.713 10.691 21.399 12.011 21.874L12.01 17.002ZM13.51 17.006V21.866C14.778 21.395 15.947 19.762 16.694 17.399C15.6454 17.1818 14.5809 17.0503 13.511 17.006H13.51ZM7.349 17.718C6.573 17.937 5.812 18.206 5.064 18.522C6.15992 19.7701 7.54205 20.734 9.092 21.331C8.381 20.376 7.788 19.148 7.349 17.718V17.718ZM18.165 17.758C17.728 19.172 17.145 20.368 16.461 21.298C17.9781 20.7147 19.3362 19.7818 20.425 18.575C19.6893 18.2562 18.9345 17.9833 18.165 17.758V17.758ZM6.525 12.51H2.538C2.66046 14.2137 3.20966 15.8592 4.135 17.295C5.05339 16.8847 6.00018 16.5411 6.968 16.267C6.718 15.103 6.568 13.838 6.525 12.51V12.51ZM8.493 7.342C8.22117 8.54714 8.0638 9.77526 8.023 11.01H9.781C9.97991 11.01 10.1707 11.089 10.3113 11.2297C10.452 11.3703 10.531 11.5611 10.531 11.76C10.531 11.9589 10.452 12.1497 10.3113 12.2903C10.1707 12.431 9.97991 12.51 9.781 12.51H8.024C8.066 13.709 8.208 14.857 8.433 15.917C9.61164 15.6768 10.8087 15.538 12.011 15.502V7.745C10.8291 7.70952 9.6523 7.57471 8.493 7.342V7.342ZM18.816 8.426C19.112 8.426 19.353 8.666 19.353 8.962V9.042C20.113 9.258 20.668 9.918 20.668 10.699C20.668 10.8413 20.6115 10.9777 20.5109 11.0784C20.4102 11.179 20.2738 11.2355 20.1315 11.2355C19.9892 11.2355 19.8528 11.179 19.7521 11.0784C19.6515 10.9777 19.595 10.8413 19.595 10.699C19.595 10.336 19.245 10.041 18.815 10.041C18.387 10.041 18.037 10.336 18.037 10.699C18.037 11.061 18.387 11.356 18.816 11.356C19.836 11.356 20.668 12.132 20.668 13.086C20.668 13.866 20.113 14.526 19.353 14.742V14.777C19.347 14.9153 19.2879 15.0459 19.1879 15.1417C19.088 15.2374 18.9549 15.2908 18.8165 15.2908C18.6781 15.2908 18.545 15.2374 18.4451 15.1417C18.3451 15.0459 18.286 14.9153 18.28 14.777V14.742C17.519 14.527 16.964 13.866 16.964 13.086C16.964 12.9437 17.0205 12.8073 17.1211 12.7066C17.2218 12.606 17.3582 12.5495 17.5005 12.5495C17.6428 12.5495 17.7793 12.606 17.8799 12.7066C17.9805 12.8073 18.037 12.9437 18.037 13.086C18.037 13.449 18.387 13.744 18.816 13.744C19.246 13.744 19.595 13.449 19.595 13.086C19.595 12.724 19.245 12.429 18.815 12.429C17.795 12.429 16.964 11.653 16.964 10.699C16.964 9.918 17.519 9.258 18.28 9.042V8.962C18.28 8.666 18.52 8.426 18.816 8.426ZM4.268 6.01C3.26104 7.49521 2.66424 9.22006 2.538 11.01H6.525C6.571 9.583 6.742 8.231 7.025 6.997C6.0841 6.73273 5.16284 6.40293 4.268 6.01V6.01ZM12.011 1.646C10.74 2.103 9.621 3.685 8.893 5.892C9.913 6.092 10.955 6.21 12.011 6.245V1.646ZM13.511 1.657V6.241C14.5527 6.19834 15.5893 6.07261 16.611 5.865C15.863 3.648 14.727 2.115 13.511 1.657V1.657ZM9.091 2.189C7.62577 2.75453 6.30948 3.64803 5.243 4.801C5.959 5.095 6.688 5.346 7.429 5.552C7.859 4.229 8.423 3.088 9.091 2.189V2.189ZM16.457 2.221C17.096 3.092 17.642 4.201 18.071 5.516C18.8055 5.30542 19.5267 5.05131 20.231 4.755C19.1761 3.64133 17.8871 2.77582 16.457 2.221V2.221Z" fill="#292830"/>
</svg>
