<svg width="24" height="24" viewBox="0 0 24 24" fill="none" xmlns="http://www.w3.org/2000/svg">
<path d="M11.873 0.199995C16.766 0.199995 20.746 4.18 20.746 9.073C20.746 13.756 17.097 17.594 12.495 17.915V19.366C13.2645 18.7102 14.243 18.3509 15.254 18.353H19.441C19.872 18.353 20.222 18.708 20.222 19.142C20.222 21.557 18.284 23.523 15.901 23.523H12.295L11.134 23.537H8.646C6.226 23.537 4.256 21.54 4.256 19.086C4.256 18.651 4.607 18.297 5.038 18.297H8.105C9.154 18.297 10.142 18.667 10.933 19.346V17.896C6.481 17.425 3 13.649 3 9.073C3 8.87408 3.07902 8.68332 3.21967 8.54267C3.36032 8.40201 3.55109 8.323 3.75 8.323C3.94891 8.323 4.13968 8.40201 4.28033 8.54267C4.42098 8.68332 4.5 8.87408 4.5 9.073C4.5 13.139 7.807 16.447 11.873 16.447C15.938 16.447 19.246 13.139 19.246 9.073C19.246 5.007 15.938 1.7 11.873 1.7C10.6383 1.69775 9.42295 2.00649 8.33903 2.59773C7.25511 3.18898 6.33755 4.04368 5.671 5.083C5.56319 5.25008 5.39342 5.3675 5.19904 5.40941C5.00466 5.45133 4.80159 5.41431 4.6345 5.3065C4.46741 5.19868 4.35 5.02892 4.30808 4.83453C4.26617 4.64015 4.30319 4.43708 4.411 4.27C5.21309 3.01968 6.3171 1.99146 7.6212 1.28016C8.92531 0.568861 10.3875 0.197387 11.873 0.199995ZM8.105 19.876H5.926C6.27 21.095 7.378 21.958 8.646 21.958H10.825C10.481 20.738 9.374 19.876 8.105 19.876ZM18.549 19.932H15.254C14.024 19.932 12.947 20.765 12.606 21.945H15.901C16.5007 21.9409 17.0829 21.7425 17.5603 21.3796C18.0378 21.0167 18.3847 20.5087 18.549 19.932ZM11.873 3.701C12.266 3.701 12.584 4.024 12.584 4.423V5.195C13.506 5.275 14.234 6.061 14.234 7.017C14.2347 7.11124 14.2167 7.20468 14.1812 7.29199C14.1458 7.3793 14.0934 7.45875 14.0272 7.52581C13.961 7.59287 13.8822 7.64621 13.7953 7.68279C13.7085 7.71937 13.6152 7.73847 13.521 7.739C13.331 7.73767 13.1493 7.661 13.0158 7.52581C12.8823 7.39063 12.8079 7.20798 12.809 7.018C12.8094 6.9677 12.7999 6.91782 12.781 6.8712C12.7621 6.82458 12.7342 6.78213 12.6989 6.74629C12.6637 6.71045 12.6217 6.68191 12.5753 6.66229C12.529 6.64268 12.4793 6.63239 12.429 6.632H11.316C11.2145 6.63305 11.1176 6.67425 11.0463 6.74658C10.9751 6.81891 10.9355 6.9165 10.936 7.018V7.936C10.936 8.016 10.986 8.086 11.061 8.111L13.124 8.791C13.4486 8.89866 13.7309 9.10632 13.9303 9.38421C14.1297 9.6621 14.236 9.99598 14.234 10.338V10.98C14.234 11.98 13.498 12.806 12.548 12.938V13.723C12.5493 13.9132 12.4751 14.0963 12.3416 14.2318C12.2081 14.3674 12.0263 14.4444 11.836 14.446C11.7418 14.4453 11.6486 14.4261 11.5618 14.3894C11.475 14.3527 11.3962 14.2993 11.3301 14.2321C11.264 14.165 11.2117 14.0854 11.1764 13.9981C11.141 13.9107 11.1232 13.8172 11.124 13.723V12.927C10.6699 12.8425 10.2598 12.6013 9.96526 12.2455C9.67069 11.8898 9.51029 11.4419 9.512 10.98C9.512 10.58 9.832 10.257 10.224 10.257C10.617 10.257 10.936 10.581 10.936 10.98C10.936 11.274 11.173 11.514 11.463 11.514H12.283C12.573 11.514 12.809 11.274 12.809 10.98V10.338C12.809 10.258 12.759 10.188 12.684 10.164L10.622 9.484C10.2976 9.37583 10.0156 9.16789 9.81642 8.88987C9.61725 8.61185 9.51105 8.27799 9.513 7.936V7.018C9.51047 6.56333 9.6782 6.12418 9.9832 5.78698C10.2882 5.44978 10.7084 5.23896 11.161 5.196V4.423C11.161 4.023 11.481 3.7 11.873 3.7V3.701Z" fill="#292830"/>
</svg>
