<svg width="24" height="24" viewBox="0 0 24 24" fill="none" xmlns="http://www.w3.org/2000/svg">
<path d="M12.031 11.393C11.311 11.393 10.723 10.898 10.723 10.289C10.723 9.681 11.31 9.186 12.031 9.186C12.752 9.186 13.339 9.681 13.339 10.289C13.339 10.5278 13.4339 10.7569 13.6028 10.9258C13.7716 11.0946 14.0007 11.1895 14.2395 11.1895C14.4783 11.1895 14.7074 11.0946 14.8762 10.9258C15.0451 10.7569 15.14 10.5278 15.14 10.289C15.14 8.98 14.208 7.872 12.932 7.51V7.375C12.932 7.13631 12.8372 6.90739 12.6684 6.73861C12.4996 6.56982 12.2707 6.475 12.032 6.475C11.7933 6.475 11.5644 6.56982 11.3956 6.73861C11.2268 6.90739 11.132 7.13631 11.132 7.375V7.51C9.854 7.872 8.922 8.98 8.922 10.29C8.922 11.891 10.317 13.194 12.032 13.194C12.752 13.194 13.339 13.689 13.339 14.298C13.339 14.906 12.752 15.401 12.031 15.401C11.311 15.401 10.723 14.906 10.723 14.298C10.723 14.0593 10.6282 13.8304 10.4594 13.6616C10.2906 13.4928 10.0617 13.398 9.823 13.398C9.5843 13.398 9.35539 13.4928 9.1866 13.6616C9.01782 13.8304 8.923 14.0593 8.923 14.298C8.923 15.608 9.854 16.716 11.131 17.078V17.135C11.131 17.3738 11.2259 17.6029 11.3948 17.7718C11.5636 17.9406 11.7927 18.0355 12.0315 18.0355C12.2703 18.0355 12.4994 17.9406 12.6683 17.7718C12.8371 17.6029 12.932 17.3738 12.932 17.135V17.078C14.208 16.716 15.14 15.608 15.14 14.298C15.14 12.696 13.745 11.393 12.031 11.393ZM20.427 3.771C15.895 -0.874997 8.428 -0.968997 3.78 3.562C-0.867 8.094 -0.96 15.562 3.571 20.208C5.26324 21.9388 7.44711 23.107 9.82611 23.5538C12.2051 24.0007 14.664 23.7047 16.869 22.706C17.05 22.6238 17.1909 22.473 17.2608 22.2869C17.3307 22.1008 17.3237 21.8945 17.2415 21.7135C17.1593 21.5325 17.0085 21.3916 16.8224 21.3217C16.6363 21.2518 16.43 21.2588 16.249 21.341C14.3247 22.211 12.1795 22.4685 10.1039 22.0788C8.02831 21.689 6.12265 20.6708 4.645 19.162C0.691 15.106 0.773 8.59 4.827 4.636C8.883 0.682003 15.398 0.764003 19.352 4.818C23.307 8.873 23.225 15.389 19.172 19.343C19.0977 19.4108 19.0378 19.4928 18.9958 19.5842C18.9539 19.6755 18.9307 19.7744 18.9278 19.8749C18.9248 19.9755 18.942 20.0755 18.9785 20.1693C19.015 20.263 19.07 20.3484 19.1401 20.4204C19.2103 20.4924 19.2942 20.5496 19.3869 20.5886C19.4796 20.6275 19.5792 20.6474 19.6798 20.6471C19.7803 20.6468 19.8798 20.6263 19.9723 20.5867C20.0647 20.5472 20.1483 20.4895 20.218 20.417C24.864 15.885 24.958 8.418 20.428 3.771" fill="#292830"/>
</svg>
