<svg width="24" height="24" viewBox="0 0 24 24" fill="none" xmlns="http://www.w3.org/2000/svg">
<g clip-path="url(#clip0)">
<path fill-rule="evenodd" clip-rule="evenodd" d="M12.033 10.9185C11.312 10.9185 10.725 10.4235 10.725 9.8145C10.725 9.2065 11.312 8.7115 12.033 8.7115C12.753 8.7115 13.341 9.2065 13.341 9.8145C13.341 10.0532 13.4358 10.2821 13.6046 10.4509C13.7734 10.6197 14.0023 10.7145 14.241 10.7145C14.4797 10.7145 14.7086 10.6197 14.8774 10.4509C15.0462 10.2821 15.141 10.0532 15.141 9.8145C15.141 8.5055 14.21 7.3975 12.933 7.0355V6.9005C12.933 6.66167 12.8381 6.43263 12.6693 6.26375C12.5004 6.09487 12.2713 6 12.0325 6C11.7937 6 11.5646 6.09487 11.3958 6.26375C11.2269 6.43263 11.132 6.66167 11.132 6.9005V7.0355C9.85601 7.3975 8.92401 8.5055 8.92401 9.8155C8.92401 11.4165 10.319 12.7195 12.033 12.7195C12.753 12.7195 13.341 13.2145 13.341 13.8235C13.341 14.4315 12.754 14.9265 12.033 14.9265C11.312 14.9265 10.725 14.4315 10.725 13.8235C10.725 13.5847 10.6301 13.3556 10.4613 13.1867C10.2924 13.0179 10.0633 12.923 9.82451 12.923C9.58568 12.923 9.35664 13.0179 9.18776 13.1867C9.01889 13.3556 8.92401 13.5847 8.92401 13.8235C8.92401 15.1335 9.85601 16.2415 11.132 16.6035V16.6605C11.132 16.8992 11.2268 17.1281 11.3956 17.2969C11.5644 17.4657 11.7933 17.5605 12.032 17.5605C12.2707 17.5605 12.4996 17.4657 12.6684 17.2969C12.8372 17.1281 12.932 16.8992 12.932 16.6605V16.6035C14.21 16.2415 15.142 15.1335 15.142 13.8235C15.142 12.2215 13.747 10.9185 12.032 10.9185" fill="#292830"/>
<path fill-rule="evenodd" clip-rule="evenodd" d="M8.14 23.419C8.04356 23.3912 7.95366 23.3444 7.87564 23.2813C7.79762 23.2182 7.73306 23.14 7.68579 23.0515C7.63852 22.963 7.6095 22.8659 7.60044 22.7659C7.59138 22.666 7.60248 22.5652 7.63307 22.4696C7.66366 22.3741 7.71312 22.2856 7.77852 22.2095C7.84393 22.1333 7.92394 22.0711 8.01383 22.0265C8.10371 21.9819 8.20164 21.9557 8.30182 21.9496C8.40199 21.9435 8.50237 21.9576 8.597 21.991C12.307 23.177 16.304 22.221 19.03 19.496C23.034 15.492 23.034 8.975 19.03 4.97C15.025 0.964998 8.508 0.964998 4.503 4.97C3.40689 6.07617 2.57417 7.41515 2.06674 8.88741C1.55931 10.3597 1.3902 11.9274 1.572 13.474C1.58537 13.5725 1.57902 13.6727 1.55333 13.7687C1.52763 13.8648 1.4831 13.9547 1.42232 14.0334C1.36154 14.1121 1.28573 14.1779 1.19929 14.227C1.11286 14.2761 1.01752 14.3075 0.918825 14.3194C0.820131 14.3314 0.72005 14.3236 0.624401 14.2965C0.528753 14.2694 0.439445 14.2235 0.361671 14.1616C0.283898 14.0997 0.21921 14.0229 0.17137 13.9358C0.123529 13.8486 0.0934913 13.7529 0.0830018 13.654C0.0274601 13.1938 -0.000256941 12.7306 1.79472e-06 12.267C1.79472e-06 9.161 1.237 6.115 3.443 3.91C8.032 -0.680001 15.5 -0.680001 20.09 3.91C24.68 8.499 24.68 15.967 20.09 20.557C16.967 23.681 12.387 24.778 8.14 23.419Z" fill="#292830"/>
<path fill-rule="evenodd" clip-rule="evenodd" d="M0.426206 19.146L3.68221 21.426C3.83212 21.5308 4.00791 21.5925 4.19044 21.6043C4.37298 21.6162 4.55526 21.5777 4.71746 21.4932C4.87967 21.4086 5.01557 21.2812 5.11038 21.1248C5.2052 20.9683 5.25529 20.7889 5.25521 20.606V16.048C5.25529 15.8651 5.2052 15.6856 5.11038 15.5292C5.01557 15.3728 4.87967 15.2454 4.71746 15.1608C4.55526 15.0762 4.37298 15.0378 4.19044 15.0496C4.00791 15.0615 3.83212 15.1232 3.68221 15.228L0.426206 17.509C0.29458 17.6012 0.187119 17.7238 0.112928 17.8664C0.0387365 18.0089 0 18.1673 0 18.328C0 18.4887 0.0387365 18.6471 0.112928 18.7896C0.187119 18.9322 0.29458 19.0548 0.426206 19.147V19.146Z" fill="#292830"/>
</g>
<defs>
<clipPath id="clip0">
<rect width="24" height="24" fill="white"/>
</clipPath>
</defs>
</svg>
