<svg width="24" height="24" viewBox="0 0 24 24" fill="none" xmlns="http://www.w3.org/2000/svg">
<g clip-path="url(#clip0)">
<path fill-rule="evenodd" clip-rule="evenodd" d="M11.96 11.393C11.24 11.393 10.652 10.898 10.652 10.289C10.652 9.681 11.239 9.186 11.96 9.186C12.681 9.186 13.268 9.681 13.268 10.289C13.268 10.5278 13.3629 10.7569 13.5317 10.9257C13.7006 11.0946 13.9297 11.1895 14.1685 11.1895C14.4073 11.1895 14.6364 11.0946 14.8052 10.9257C14.9741 10.7569 15.069 10.5278 15.069 10.289C15.069 8.98 14.137 7.872 12.86 7.51V7.375C12.86 7.1363 12.7652 6.90739 12.5964 6.7386C12.4276 6.56982 12.1987 6.475 11.96 6.475C11.7213 6.475 11.4924 6.56982 11.3236 6.7386C11.1548 6.90739 11.06 7.1363 11.06 7.375V7.51C9.783 7.872 8.851 8.98 8.851 10.29C8.851 11.891 10.246 13.194 11.961 13.194C12.681 13.194 13.268 13.689 13.268 14.298C13.268 14.906 12.681 15.401 11.96 15.401C11.24 15.401 10.652 14.906 10.652 14.298C10.652 14.1798 10.6287 14.0628 10.5835 13.9536C10.5383 13.8444 10.472 13.7452 10.3884 13.6616C10.3048 13.578 10.2056 13.5117 10.0964 13.4665C9.98722 13.4213 9.87019 13.398 9.752 13.398C9.63381 13.398 9.51678 13.4213 9.40758 13.4665C9.29839 13.5117 9.19917 13.578 9.1156 13.6616C9.03203 13.7452 8.96574 13.8444 8.92051 13.9536C8.87528 14.0628 8.852 14.1798 8.852 14.298C8.852 15.608 9.783 16.716 11.059 17.078V17.135C11.059 17.3738 11.1539 17.6029 11.3227 17.7717C11.4916 17.9406 11.7207 18.0355 11.9595 18.0355C12.1983 18.0355 12.4274 17.9406 12.5962 17.7717C12.7651 17.6029 12.86 17.3738 12.86 17.135V17.078C14.137 16.716 15.07 15.608 15.07 14.298C15.07 12.696 13.674 11.393 11.96 11.393Z" fill="#292830"/>
<path fill-rule="evenodd" clip-rule="evenodd" d="M15.623 1.269C15.7194 1.29675 15.8093 1.34357 15.8874 1.4067C15.9654 1.46982 16.0299 1.54796 16.0772 1.63649C16.1245 1.72502 16.1535 1.82213 16.1626 1.92208C16.1716 2.02203 16.1605 2.12278 16.1299 2.21836C16.0993 2.31394 16.0499 2.40241 15.9845 2.47853C15.9191 2.55465 15.8391 2.61687 15.7492 2.66151C15.6593 2.70614 15.5614 2.73228 15.4612 2.73837C15.361 2.74447 15.2606 2.7304 15.166 2.697C11.456 1.511 7.459 2.467 4.733 5.192C0.728999 9.196 0.728999 15.712 4.733 19.718C8.738 23.723 15.255 23.723 19.26 19.718C20.3559 18.6117 21.1885 17.2727 21.6957 15.8005C22.203 14.3282 22.3719 12.7605 22.19 11.214C22.1782 11.1162 22.1857 11.017 22.2123 10.9221C22.2388 10.8271 22.2837 10.7384 22.3446 10.6608C22.4054 10.5833 22.4809 10.5185 22.5668 10.4702C22.6526 10.4218 22.7472 10.3908 22.845 10.379C22.9428 10.3672 23.042 10.3747 23.1369 10.4013C23.2319 10.4278 23.3206 10.4727 23.3982 10.5336C23.4757 10.5944 23.5405 10.6699 23.5888 10.7558C23.6372 10.8416 23.6682 10.9362 23.68 11.034C23.736 11.496 23.763 11.959 23.763 12.421C23.763 15.527 22.526 18.573 20.32 20.778C15.73 25.368 8.263 25.368 3.673 20.778C-0.917001 16.188 -0.917001 8.721 3.673 4.131C6.796 1.007 11.376 -0.0899984 15.623 1.269Z" fill="#292830"/>
<path fill-rule="evenodd" clip-rule="evenodd" d="M23.582 5.427L20.326 3.147C20.1761 3.04191 20.0002 2.97999 19.8175 2.968C19.6348 2.95601 19.4523 2.9944 19.29 3.07899C19.1276 3.16357 18.9916 3.29111 18.8967 3.4477C18.8018 3.60429 18.7518 3.78392 18.752 3.967V8.525C18.7518 8.70808 18.8018 8.8877 18.8967 9.04429C18.9916 9.20088 19.1276 9.32842 19.29 9.41301C19.4523 9.4976 19.6348 9.53599 19.8175 9.52399C20.0002 9.512 20.1761 9.45009 20.326 9.345L23.582 7.065C23.7136 6.97278 23.8211 6.85019 23.8953 6.70763C23.9695 6.56506 24.0082 6.40671 24.0082 6.246C24.0082 6.08528 23.9695 5.92693 23.8953 5.78437C23.8211 5.6418 23.7136 5.51921 23.582 5.427Z" fill="#6DD400"/>
</g>
<defs>
<clipPath id="clip0">
<rect width="24" height="24" fill="white"/>
</clipPath>
</defs>
</svg>
