<svg width="24" height="24" viewBox="0 0 24 24" fill="none" xmlns="http://www.w3.org/2000/svg">
<g clip-path="url(#clip0)">
<path fill-rule="evenodd" clip-rule="evenodd" d="M12.033 11.393C11.312 11.393 10.725 10.898 10.725 10.289C10.725 9.681 11.312 9.186 12.033 9.186C12.753 9.186 13.341 9.681 13.341 10.289C13.341 10.5277 13.4358 10.7566 13.6046 10.9254C13.7734 11.0942 14.0023 11.189 14.241 11.189C14.4797 11.189 14.7086 11.0942 14.8774 10.9254C15.0462 10.7566 15.141 10.5277 15.141 10.289C15.141 8.98 14.21 7.872 12.933 7.51V7.375C12.933 7.13617 12.8381 6.90713 12.6692 6.73825C12.5004 6.56938 12.2713 6.4745 12.0325 6.4745C11.7937 6.4745 11.5646 6.56938 11.3957 6.73825C11.2269 6.90713 11.132 7.13617 11.132 7.375V7.51C9.856 7.872 8.924 8.98 8.924 10.29C8.924 11.891 10.319 13.194 12.033 13.194C12.753 13.194 13.341 13.689 13.341 14.298C13.341 14.906 12.754 15.401 12.033 15.401C11.312 15.401 10.725 14.906 10.725 14.298C10.725 14.0592 10.6301 13.8301 10.4612 13.6613C10.2924 13.4924 10.0633 13.3975 9.8245 13.3975C9.58567 13.3975 9.35662 13.4924 9.18775 13.6613C9.01887 13.8301 8.924 14.0592 8.924 14.298C8.924 15.608 9.856 16.716 11.132 17.078V17.135C11.132 17.3737 11.2268 17.6026 11.3956 17.7714C11.5644 17.9402 11.7933 18.035 12.032 18.035C12.2707 18.035 12.4996 17.9402 12.6684 17.7714C12.8372 17.6026 12.932 17.3737 12.932 17.135V17.078C14.21 16.716 15.142 15.608 15.142 14.298C15.142 12.696 13.747 11.393 12.032 11.393" fill="#292830"/>
<path fill-rule="evenodd" clip-rule="evenodd" d="M8.14 23.419C8.04356 23.3912 7.95366 23.3444 7.87564 23.2813C7.79762 23.2182 7.73306 23.14 7.68579 23.0515C7.63852 22.963 7.6095 22.8659 7.60044 22.7659C7.59138 22.666 7.60248 22.5652 7.63307 22.4696C7.66366 22.3741 7.71312 22.2856 7.77852 22.2095C7.84393 22.1333 7.92394 22.0711 8.01383 22.0265C8.10371 21.9819 8.20164 21.9557 8.30182 21.9496C8.40199 21.9435 8.50237 21.9576 8.597 21.991C12.307 23.177 16.304 22.221 19.03 19.496C23.034 15.492 23.034 8.975 19.03 4.97C15.025 0.964998 8.508 0.964998 4.503 4.97C3.40689 6.07617 2.57417 7.41515 2.06674 8.88741C1.55931 10.3597 1.3902 11.9274 1.572 13.474C1.58537 13.5725 1.57902 13.6727 1.55333 13.7687C1.52763 13.8648 1.4831 13.9547 1.42232 14.0334C1.36154 14.1121 1.28573 14.1779 1.19929 14.227C1.11286 14.2761 1.01752 14.3075 0.918825 14.3194C0.820131 14.3314 0.72005 14.3236 0.624401 14.2965C0.528753 14.2694 0.439445 14.2235 0.361671 14.1616C0.283898 14.0997 0.21921 14.0229 0.17137 13.9358C0.123529 13.8486 0.0934913 13.7529 0.0830018 13.654C0.0274601 13.1938 -0.000256941 12.7306 1.79472e-06 12.267C1.79472e-06 9.161 1.237 6.115 3.443 3.91C8.032 -0.680001 15.5 -0.680001 20.09 3.91C24.68 8.499 24.68 15.967 20.09 20.557C16.967 23.681 12.387 24.778 8.14 23.419Z" fill="#292830"/>
<path fill-rule="evenodd" clip-rule="evenodd" d="M0.426206 19.146L3.68221 21.426C3.83212 21.5308 4.00791 21.5925 4.19044 21.6043C4.37298 21.6162 4.55526 21.5777 4.71746 21.4932C4.87967 21.4086 5.01557 21.2812 5.11038 21.1248C5.2052 20.9684 5.25529 20.7889 5.25521 20.606V16.048C5.25529 15.8651 5.2052 15.6856 5.11038 15.5292C5.01557 15.3728 4.87967 15.2454 4.71746 15.1608C4.55526 15.0763 4.37298 15.0378 4.19044 15.0497C4.00791 15.0615 3.83212 15.1232 3.68221 15.228L0.426206 17.509C0.29458 17.6012 0.187119 17.7238 0.112928 17.8664C0.0387365 18.0089 0 18.1673 0 18.328C0 18.4887 0.0387365 18.6471 0.112928 18.7896C0.187119 18.9322 0.29458 19.0548 0.426206 19.147V19.146Z" fill="#E02020"/>
</g>
<defs>
<clipPath id="clip0">
<rect width="24" height="24" fill="white"/>
</clipPath>
</defs>
</svg>
