<svg width="24" height="24" viewBox="0 0 24 24" fill="none" xmlns="http://www.w3.org/2000/svg">
<path d="M12.032 11.393C11.312 11.393 10.725 10.898 10.725 10.289C10.725 9.681 11.311 9.186 12.032 9.186C12.753 9.186 13.34 9.681 13.34 10.289C13.34 10.4073 13.3633 10.5244 13.4085 10.6336C13.4538 10.7429 13.5201 10.8421 13.6037 10.9258C13.6874 11.0094 13.7866 11.0757 13.8959 11.121C14.0051 11.1662 14.1222 11.1895 14.2405 11.1895C14.3587 11.1895 14.4758 11.1662 14.5851 11.121C14.6944 11.0757 14.7936 11.0094 14.8772 10.9258C14.9609 10.8421 15.0272 10.7429 15.0724 10.6336C15.1177 10.5244 15.141 10.4073 15.141 10.289C15.141 8.98 14.209 7.872 12.933 7.51V7.375C12.933 7.13631 12.8382 6.90739 12.6694 6.73861C12.5006 6.56982 12.2717 6.475 12.033 6.475C11.7943 6.475 11.5654 6.56982 11.3966 6.73861C11.2278 6.90739 11.133 7.13631 11.133 7.375V7.51C9.85499 7.872 8.92399 8.98 8.92399 10.29C8.92399 11.891 10.318 13.194 12.032 13.194C12.753 13.194 13.34 13.689 13.34 14.298C13.34 14.906 12.753 15.401 12.032 15.401C11.312 15.401 10.725 14.906 10.725 14.298C10.725 14.1798 10.7017 14.0628 10.6565 13.9536C10.6113 13.8444 10.545 13.7452 10.4614 13.6616C10.3778 13.578 10.2786 13.5117 10.1694 13.4665C10.0602 13.4213 9.94318 13.398 9.82499 13.398C9.7068 13.398 9.58977 13.4213 9.48058 13.4665C9.37138 13.5117 9.27217 13.578 9.18859 13.6616C9.10502 13.7452 9.03873 13.8444 8.9935 13.9536C8.94827 14.0628 8.92499 14.1798 8.92499 14.298C8.92499 15.608 9.85499 16.716 11.132 17.078V17.135C11.132 17.3738 11.2269 17.6029 11.3957 17.7718C11.5646 17.9406 11.7937 18.0355 12.0325 18.0355C12.2713 18.0355 12.5004 17.9406 12.6692 17.7718C12.8381 17.6029 12.933 17.3738 12.933 17.135V17.078C14.209 16.716 15.141 15.608 15.141 14.298C15.141 12.696 13.746 11.393 12.032 11.393ZM22.223 18.498H19.99V16.266C19.99 16.0671 19.911 15.8763 19.7703 15.7357C19.6297 15.595 19.4389 15.516 19.24 15.516C19.0411 15.516 18.8503 15.595 18.7097 15.7357C18.569 15.8763 18.49 16.0671 18.49 16.266V18.498H16.258C16.0591 18.498 15.8683 18.577 15.7277 18.7177C15.587 18.8583 15.508 19.0491 15.508 19.248C15.508 19.4469 15.587 19.6377 15.7277 19.7783C15.8683 19.919 16.0591 19.998 16.258 19.998H18.49V22.231C18.49 22.4299 18.569 22.6207 18.7097 22.7613C18.8503 22.902 19.0411 22.981 19.24 22.981C19.4389 22.981 19.6297 22.902 19.7703 22.7613C19.911 22.6207 19.99 22.4299 19.99 22.231V19.998H22.223C22.4219 19.998 22.6127 19.919 22.7533 19.7783C22.894 19.6377 22.973 19.4469 22.973 19.248C22.973 19.0491 22.894 18.8583 22.7533 18.7177C22.6127 18.577 22.4219 18.498 22.223 18.498ZM23.186 15.616C23.156 15.7098 23.1078 15.7968 23.0442 15.872C22.9805 15.9472 22.9027 16.0092 22.8151 16.0543C22.7276 16.0994 22.632 16.1269 22.5338 16.1351C22.4356 16.1432 22.3368 16.132 22.243 16.102C22.1492 16.072 22.0622 16.0238 21.987 15.9602C21.9118 15.8965 21.8498 15.8187 21.8047 15.7312C21.7596 15.6436 21.7321 15.548 21.7239 15.4498C21.7158 15.3517 21.727 15.2528 21.757 15.159C22.944 11.449 21.988 7.452 19.263 4.726C15.257 0.722003 8.74099 0.722003 4.73699 4.726C0.73199 8.731 0.73199 15.248 4.73699 19.253C7.46999 21.985 11.604 22.957 15.27 21.726C15.4586 21.6626 15.6646 21.6767 15.8427 21.7653C16.0209 21.8538 16.1566 22.0094 16.22 22.198C16.2834 22.3866 16.2693 22.5926 16.1807 22.7708C16.0922 22.9489 15.9366 23.0846 15.748 23.148C14.5525 23.5485 13.2998 23.7521 12.039 23.751C8.95299 23.751 5.90699 22.544 3.67599 20.313C-0.91401 15.724 -0.91401 8.256 3.67599 3.666C8.26599 -0.923997 15.734 -0.923997 20.324 3.666C23.447 6.79 24.544 11.369 23.186 15.616Z" fill="#292830"/>
</svg>
