<svg width="24" height="24" viewBox="0 0 24 24" fill="none" xmlns="http://www.w3.org/2000/svg">
<path d="M22.4764 18.7995C22.8904 18.7995 23.2264 19.1355 23.2264 19.5495V23.0885C23.2264 23.5025 22.8904 23.8385 22.4764 23.8385H1.52338C1.10938 23.8385 0.773376 23.5025 0.773376 23.0885V19.5495C0.773376 19.1355 1.10938 18.7995 1.52338 18.7995C1.93738 18.7995 2.27338 19.1355 2.27338 19.5495V22.3384H21.7264V19.5495C21.7264 19.1355 22.0624 18.7995 22.4764 18.7995ZM14.7388 0.16095C15.7038 0.16095 16.4888 0.94695 16.4888 1.91098V3.72598C16.4888 4.13998 16.1528 4.47598 15.7388 4.47598C15.3248 4.47598 14.9888 4.13998 14.9888 3.72598V1.91098C14.9888 1.77401 14.8768 1.66095 14.7388 1.66095H9.2608C9.12378 1.66095 9.01081 1.77392 9.01081 1.91098V11.583C9.01081 11.997 8.67481 12.333 8.26081 12.333H5.00685L11.9998 18.936L18.9928 12.333H15.7389C15.3249 12.333 14.9889 11.997 14.9889 11.583V7.39297C14.9889 6.97897 15.3249 6.64297 15.7389 6.64297C16.1529 6.64297 16.4889 6.97897 16.4889 7.39297V10.833H20.8799C21.1869 10.833 21.4629 11.02 21.5769 11.3059C21.6899 11.5909 21.6179 11.917 21.395 12.1279L12.515 20.5129C12.371 20.65 12.185 20.7179 11.9999 20.7179C11.8149 20.7179 11.6289 20.65 11.4849 20.5129L2.60492 12.1279C2.38189 11.917 2.30989 11.5909 2.42394 11.3059C2.53691 11.02 2.81291 10.833 3.12092 10.833H7.51091V1.91098C7.51091 0.94695 8.29588 0.16095 9.26094 0.16095H14.7389H14.7388Z" fill="#292830"/>
</svg>
