<svg width="24" height="24" viewBox="0 0 24 24" fill="none" xmlns="http://www.w3.org/2000/svg">
<path d="M18.631 16.773C17.7626 16.9489 16.8876 17.09 16.008 17.196C16.198 15.716 16.304 14.233 16.332 12.749H22.231C22.1427 13.9455 21.8452 15.1173 21.352 16.211L18.631 16.773ZM14.162 19.328L13.636 22.121C12.5276 22.2997 11.3974 22.2963 10.29 22.111L9.766 19.328C9.737 19.176 9.718 19.023 9.691 18.87C10.4512 18.9245 11.2129 18.9535 11.975 18.957C12.73 18.957 13.484 18.922 14.237 18.872C14.211 19.024 14.191 19.176 14.162 19.328ZM3.658 17.964L5.065 18.252C6.08525 18.4588 7.11429 18.6197 8.149 18.734C8.197 19.024 8.238 19.315 8.293 19.606L8.688 21.706C7.20009 21.2026 5.84813 20.3633 4.737 19.253C4.3428 18.8535 3.98193 18.4224 3.658 17.964ZM8.692 2.28L8.282 4.47C8.239 4.703 8.208 4.938 8.168 5.171C7.12683 5.28493 6.09141 5.44644 5.065 5.655L3.722 5.93C4.028 5.512 4.359 5.106 4.737 4.728C5.84889 3.61789 7.20251 2.78005 8.692 2.28ZM13.633 1.864L14.172 4.746C14.19 4.841 14.202 4.938 14.219 5.033C12.7176 4.93417 11.2113 4.93484 9.71 5.035C9.727 4.939 9.739 4.842 9.757 4.746L10.294 1.876C11.399 1.69152 12.5267 1.68747 13.633 1.864ZM20.289 5.945L18.934 5.665C17.8843 5.44991 16.8251 5.28373 15.76 5.167C15.721 4.935 15.69 4.702 15.647 4.47L15.232 2.253C16.7514 2.74996 18.1324 3.59786 19.263 4.728C19.646 5.11 19.98 5.521 20.289 5.945ZM9.098 11.25C9.129 9.684 9.243 8.12 9.461 6.56C11.129 6.43 12.8 6.43 14.468 6.557C14.686 8.117 14.8 9.684 14.831 11.25H9.098ZM9.097 12.75H14.831C14.8041 14.2888 14.6873 15.8248 14.481 17.35C12.804 17.48 11.125 17.48 9.448 17.35C9.2409 15.8249 9.1237 14.2889 9.097 12.75ZM1.77 12.75H7.597C7.624 14.233 7.731 15.715 7.92 17.193C7.06363 17.0898 6.21164 16.9531 5.366 16.783L2.655 16.228C2.15796 15.1297 1.85838 13.9523 1.77 12.75ZM2.693 7.672L5.366 7.125C6.219 6.95 7.076 6.819 7.933 6.712C7.73723 8.21728 7.62539 9.73229 7.598 11.25H1.769C1.857 10.022 2.167 8.81 2.693 7.672ZM16.331 11.25C16.3032 9.73165 16.1913 8.216 15.996 6.71C16.876 6.818 17.755 6.953 18.631 7.134L21.314 7.688C21.8319 8.81041 22.1429 10.0171 22.232 11.25H16.331ZM20.324 3.667C15.734 -0.922997 8.266 -0.922997 3.676 3.667C-0.912997 8.257 -0.912997 15.725 3.676 20.315C5.88962 22.5222 8.88901 23.7602 12.015 23.757C13.7397 23.7584 15.4435 23.3794 17.005 22.647C17.1852 22.5624 17.3244 22.4097 17.392 22.2224C17.4597 22.0352 17.4501 21.8287 17.3655 21.6485C17.2809 21.4683 17.1282 21.3291 16.9409 21.2615C16.7537 21.1938 16.5472 21.2034 16.367 21.288C15.997 21.462 15.618 21.605 15.236 21.731L15.636 19.607C15.691 19.318 15.731 19.027 15.779 18.738C16.8377 18.6213 17.8905 18.4561 18.934 18.243L20.353 17.95C20.028 18.405 19.672 18.845 19.263 19.254C19.1223 19.3947 19.0433 19.5855 19.0433 19.7845C19.0433 19.9835 19.1223 20.1743 19.263 20.315C19.4037 20.4557 19.5945 20.5347 19.7935 20.5347C19.9925 20.5347 20.1833 20.4557 20.324 20.315C24.914 15.725 24.914 8.257 20.324 3.667Z" fill="#292830"/>
</svg>
