<svg width="24" height="24" viewBox="0 0 24 24" fill="none" xmlns="http://www.w3.org/2000/svg">
<path d="M18.908 3.035L18.672 3.271L20.794 5.391L21.029 5.157C21.169 5.01804 21.2801 4.85274 21.3559 4.67065C21.4317 4.48855 21.4708 4.29325 21.4708 4.096C21.4708 3.89875 21.4317 3.70345 21.3559 3.52135C21.2801 3.33926 21.169 3.17396 21.029 3.035C20.463 2.469 19.474 2.469 18.909 3.035H18.908ZM10.423 11.52L12.544 13.64L19.734 6.453L17.612 4.331L10.423 11.52ZM9.013 15.135L11.251 14.47L9.617 12.836L9.012 15.135H9.013ZM8.596 11.225L17.847 1.974C18.98 0.841001 20.957 0.841001 22.09 1.974C22.3698 2.25189 22.5916 2.58254 22.7427 2.9468C22.8938 3.31105 22.971 3.70167 22.97 4.096C22.9707 4.49 22.8934 4.88023 22.7423 5.24413C22.5913 5.60802 22.3695 5.93835 22.09 6.216L12.84 15.468C12.7512 15.5562 12.6419 15.6211 12.522 15.657L8.162 16.953C8.03446 16.9903 7.89932 16.9931 7.77034 16.9611C7.64136 16.9292 7.52315 16.8637 7.42773 16.7712C7.33231 16.6787 7.2631 16.5626 7.22714 16.4347C7.19118 16.3068 7.18975 16.1716 7.223 16.043L8.4 11.565C8.4338 11.4364 8.50109 11.3191 8.595 11.225H8.596ZM15.21 21.404H3.82C3.108 21.404 2.53 20.824 2.53 20.114V3.886C2.53 3.174 3.108 2.596 3.82 2.596H13.612C13.8109 2.596 14.0017 2.51698 14.1423 2.37633C14.283 2.23568 14.362 2.04491 14.362 1.846C14.362 1.64709 14.283 1.45632 14.1423 1.31567C14.0017 1.17502 13.8109 1.096 13.612 1.096H3.82C3.08029 1.09679 2.3711 1.391 1.84805 1.91405C1.32499 2.4371 1.03079 3.14629 1.03 3.886V20.114C1.03106 20.8536 1.32534 21.5627 1.84834 22.0857C2.37134 22.6087 3.08037 22.9029 3.82 22.904H15.21C15.4089 22.904 15.5997 22.825 15.7403 22.6843C15.881 22.5437 15.96 22.3529 15.96 22.154C15.96 21.9551 15.881 21.7643 15.7403 21.6237C15.5997 21.483 15.4089 21.404 15.21 21.404ZM22.97 10.16V20.114C22.9689 20.8536 22.6747 21.5627 22.1517 22.0857C21.6287 22.6087 20.9196 22.9029 20.18 22.904H19.035C18.8361 22.904 18.6453 22.825 18.5047 22.6843C18.364 22.5437 18.285 22.3529 18.285 22.154C18.285 21.9551 18.364 21.7643 18.5047 21.6237C18.6453 21.483 18.8361 21.404 19.035 21.404H20.179C20.89 21.404 21.469 20.824 21.469 20.114V10.16C21.469 9.96109 21.548 9.77032 21.6887 9.62967C21.8293 9.48902 22.0201 9.41 22.219 9.41C22.4179 9.41 22.6087 9.48902 22.7493 9.62967C22.89 9.77032 22.969 9.96109 22.969 10.16H22.97Z" fill="#292830"/>
</svg>
