<svg width="24" height="24" viewBox="0 0 24 24" fill="none" xmlns="http://www.w3.org/2000/svg">
<g clip-path="url(#clip0)">
<path d="M14.411 10.932C12.8533 11.487 11.1517 11.487 9.594 10.932L1.5 8.03999V4.79999C1.5 4.08899 2.079 3.50999 2.79 3.50999H21.214C21.926 3.50999 22.504 4.08899 22.504 4.79999V8.03999L14.411 10.93V10.932ZM21.214 2.01099H2.79C2.05054 2.01205 1.34166 2.3062 0.818693 2.82898C0.295725 3.35176 0.00132254 4.06054 0 4.79999L0 19.2C0.00105813 19.9396 0.295343 20.6487 0.818341 21.1717C1.34134 21.6947 2.05037 21.9889 2.79 21.99H16.181C16.3799 21.99 16.5707 21.911 16.7113 21.7703C16.852 21.6297 16.931 21.4389 16.931 21.24C16.931 21.0411 16.852 20.8503 16.7113 20.7097C16.5707 20.569 16.3799 20.49 16.181 20.49H2.79C2.079 20.49 1.5 19.91 1.5 19.2V9.63499L9.089 12.344C10.9732 13.0154 13.0315 13.0158 14.916 12.345L22.504 9.63499V19.2C22.504 19.91 21.926 20.49 21.214 20.49H20.071C19.8721 20.49 19.6813 20.569 19.5407 20.7097C19.4 20.8503 19.321 21.0411 19.321 21.24C19.321 21.4389 19.4 21.6297 19.5407 21.7703C19.6813 21.911 19.8721 21.99 20.071 21.99H21.214C21.9537 21.9892 22.6629 21.695 23.186 21.1719C23.709 20.6489 24.0032 19.9397 24.004 19.2V4.79999C24.0032 4.06028 23.709 3.3511 23.186 2.82804C22.6629 2.30499 21.9537 2.01079 21.214 2.00999V2.01099Z" fill="#292830"/>
</g>
<defs>
<clipPath id="clip0">
<rect width="24" height="24" fill="white"/>
</clipPath>
</defs>
</svg>
