<svg width="24" height="24" viewBox="0 0 24 24" fill="none" xmlns="http://www.w3.org/2000/svg">
<g clip-path="url(#clip0)">
<path d="M14.698 12.005C14.567 12.181 14.452 12.374 14.416 12.538L11.856 12.573C11.8001 12.4528 11.7373 12.336 11.668 12.223C11.5518 12.0434 11.427 11.8696 11.294 11.702L11.158 11.523C11.02 11.338 8.72401 8.21799 8.21001 7.51799C8.60689 7.55985 9.00214 7.61588 9.39501 7.68599C9.61401 7.72599 9.83101 7.76799 10.053 7.81499L10.205 7.82799C10.3964 7.82712 10.5806 7.75539 10.7222 7.62666C10.8638 7.49793 10.9526 7.32132 10.9717 7.13091C10.9907 6.9405 10.9385 6.7498 10.8252 6.59562C10.7118 6.44143 10.5454 6.33468 10.358 6.29599C9.50001 6.11999 8.36301 5.91799 7.19001 5.91799L7.04201 5.94399L5.93301 4.49399H20.277C19.6307 5.31517 19.0005 6.149 18.387 6.99499C17.829 7.12499 17.374 7.20499 16.837 7.20499C16.715 7.20499 16.59 7.19999 16.461 7.19199C15.785 7.14999 15.509 7.08499 14.593 6.86799L14.288 6.79599L14.116 6.77799C13.9415 6.77743 13.772 6.83652 13.6356 6.94545C13.4992 7.05438 13.4041 7.20663 13.366 7.37699C13.3198 7.57665 13.3544 7.7865 13.4623 7.96074C13.5702 8.13498 13.7426 8.25945 13.942 8.30699C15.093 8.57899 15.485 8.65399 16.402 8.71799C16.6616 8.73696 16.922 8.74097 17.182 8.72999L14.699 12.005H14.698ZM4.79001 6.03199C4.19537 6.03146 3.62521 5.79514 3.20455 5.37486C2.78389 4.95457 2.54707 4.38462 2.54601 3.78999C2.54628 3.19492 2.78278 2.62431 3.20356 2.20353C3.62433 1.78276 4.19495 1.54625 4.79001 1.54599C5.72701 1.54599 6.53001 2.12599 6.86301 2.94599H5.21001C4.75801 2.94599 4.35301 3.19799 4.15001 3.60599C3.95001 4.01399 3.99301 4.49099 4.26301 4.85399L5.10901 5.98999C5.00301 6.00599 4.90001 6.03199 4.79101 6.03199H4.79001ZM15.933 12.932L21.952 4.85399C22.224 4.49099 22.267 4.01299 22.065 3.60599C21.9682 3.40747 21.8174 3.24026 21.6299 3.12353C21.4425 3.00679 21.2259 2.94526 21.005 2.94599H8.47701C8.27169 2.03689 7.73818 1.2355 6.97867 0.695341C6.21917 0.155183 5.28707 -0.0857664 4.36094 0.0186508C3.43481 0.123068 2.57977 0.56551 1.9596 1.26122C1.33944 1.95693 0.997755 2.85699 1.00001 3.78899C0.999881 4.28673 1.09782 4.77963 1.28824 5.23951C1.47866 5.6994 1.75782 6.11725 2.10978 6.46921C2.46174 6.82118 2.8796 7.10034 3.33949 7.29076C3.79937 7.48118 4.29226 7.57912 4.79001 7.57899C5.25601 7.57899 5.69601 7.48499 6.10401 7.32699L10.282 12.933C10.499 13.224 10.619 13.584 10.619 13.947V18.433C10.619 18.578 10.603 18.726 10.574 18.87C10.428 19.565 9.85401 19.91 9.12601 20.348L8.74901 20.576C7.87401 21.143 7.35101 21.932 7.10401 23.056C7.07808 23.1689 7.07801 23.2861 7.10381 23.3991C7.12961 23.512 7.18062 23.6176 7.25301 23.708C7.32478 23.7992 7.41637 23.8729 7.52084 23.9235C7.62532 23.9741 7.73993 24.0003 7.85601 24H13.075C13.2803 24 13.4772 23.9184 13.6223 23.7733C13.7675 23.6281 13.849 23.4313 13.849 23.226C13.849 23.0207 13.7675 22.8238 13.6223 22.6787C13.4772 22.5335 13.2803 22.452 13.075 22.452H9.11501C9.30701 22.13 9.62501 21.9 9.74101 21.833C11.274 20.962 12.159 20.127 12.159 18.433L12.099 14.086L14.055 14.024V18.433C14.055 20.338 15.481 21.183 16.25 21.638C16.363 21.703 16.464 21.763 16.547 21.818C16.88 22.038 17.08 22.286 17.187 22.453H16.519C16.3139 22.453 16.1171 22.5345 15.9721 22.6795C15.827 22.8246 15.7455 23.0213 15.7455 23.2265C15.7455 23.4316 15.827 23.6284 15.9721 23.7734C16.1171 23.9185 16.3139 24 16.519 24H18.359C18.4747 23.9999 18.5889 23.9739 18.6932 23.9238C18.7975 23.8736 18.8892 23.8007 18.9615 23.7103C19.0338 23.62 19.0849 23.5145 19.1109 23.4018C19.137 23.2891 19.1373 23.1719 19.112 23.059C18.882 22.014 18.317 21.198 17.385 20.566L17.257 20.478C16.227 19.779 15.597 19.308 15.597 18.433V13.947C15.597 13.583 15.717 13.223 15.933 12.932Z" fill="#292830"/>
</g>
<defs>
<clipPath id="clip0">
<rect width="24" height="24" fill="white"/>
</clipPath>
</defs>
</svg>
