<svg width="24" height="24" viewBox="0 0 24 24" fill="none" xmlns="http://www.w3.org/2000/svg">
<path d="M12 0C18.627 0 24 5.373 24 12C24 18.627 18.627 24 12 24C5.373 24 0 18.627 0 12C0 5.373 5.373 0 12 0ZM12.014 15.076C11.641 15.076 11.337 15.193 11.102 15.428C10.867 15.663 10.75 15.967 10.75 16.34C10.75 16.703 10.87 17.004 11.11 17.244C11.35 17.484 11.651 17.604 12.014 17.604C12.1801 17.6093 12.3456 17.5801 12.4998 17.5181C12.654 17.4561 12.7937 17.3628 12.91 17.244C13.0264 17.1247 13.1176 16.9832 13.1781 16.8279C13.2386 16.6725 13.2671 16.5066 13.262 16.34C13.262 15.967 13.147 15.663 12.918 15.428C12.688 15.193 12.388 15.076 12.014 15.076ZM13.054 6.42H11.182C11.1567 6.41954 11.1316 6.42427 11.1082 6.4339C11.0848 6.44354 11.0636 6.45786 11.046 6.476C11.0219 6.49929 11.0047 6.52866 10.996 6.561L10.99 6.612L11.198 13.588C11.198 13.641 11.217 13.687 11.254 13.724C11.2773 13.7481 11.3067 13.7653 11.339 13.774L11.39 13.78H12.814C12.8393 13.7805 12.8644 13.7757 12.8878 13.7661C12.9112 13.7565 12.9324 13.7421 12.95 13.724C12.9741 13.7007 12.9913 13.6713 13 13.639L13.006 13.588L13.246 6.612C13.2465 6.58671 13.2417 6.56159 13.2321 6.5382C13.2225 6.5148 13.2081 6.49364 13.19 6.476C13.1667 6.45195 13.1373 6.43467 13.105 6.426L13.054 6.42Z" fill="#292830"/>
</svg>
