<svg width="24" height="24" viewBox="0 0 24 24" fill="none" xmlns="http://www.w3.org/2000/svg">
<path d="M16.372 17.024C16.4993 16.8815 16.5674 16.6958 16.5625 16.5047C16.5577 16.3137 16.4802 16.1317 16.3458 15.9958C16.2115 15.8599 16.0304 15.7804 15.8394 15.7734C15.6484 15.7663 15.462 15.8324 15.318 15.958C14.4464 16.8249 13.2724 17.3198 12.0432 17.3384C10.814 17.3571 9.62552 16.8981 8.728 16.058L8.605 15.942C8.45939 15.8061 8.26576 15.7336 8.06669 15.7404C7.86762 15.7473 7.67942 15.8329 7.5435 15.9785C7.40758 16.1241 7.33506 16.3177 7.3419 16.5168C7.34875 16.7159 7.4344 16.9041 7.58 17.04L7.705 17.156C8.88488 18.2617 10.448 18.8661 12.0648 18.8419C13.6816 18.8176 15.2258 18.1666 16.372 17.026V17.024ZM13.352 12.72V8.51C13.352 8.31109 13.273 8.12032 13.1323 7.97967C12.9917 7.83902 12.8009 7.76 12.602 7.76C12.4031 7.76 12.2123 7.83902 12.0717 7.97967C11.931 8.12032 11.852 8.31109 11.852 8.51V12.72C11.8515 12.799 11.8198 12.8747 11.7638 12.9305C11.7078 12.9863 11.632 13.0177 11.553 13.018H11.253C11.0541 13.018 10.8633 13.097 10.7227 13.2377C10.582 13.3783 10.503 13.5691 10.503 13.768C10.503 13.9669 10.582 14.1577 10.7227 14.2983C10.8633 14.439 11.0541 14.518 11.253 14.518H11.553C12.545 14.518 13.353 13.711 13.353 12.719L13.352 12.72ZM17.697 10.069V8.51C17.697 8.31109 17.618 8.12032 17.4773 7.97967C17.3367 7.83902 17.1459 7.76 16.947 7.76C16.7481 7.76 16.5573 7.83902 16.4167 7.97967C16.276 8.12032 16.197 8.31109 16.197 8.51V10.068C16.197 10.2669 16.276 10.4577 16.4167 10.5983C16.5573 10.739 16.7481 10.818 16.947 10.818C17.1459 10.818 17.3367 10.739 17.4773 10.5983C17.618 10.4577 17.697 10.2669 17.697 10.068V10.069ZM7.804 10.068V8.51C7.804 8.31109 7.72498 8.12032 7.58433 7.97967C7.44368 7.83902 7.25291 7.76 7.054 7.76C6.85509 7.76 6.66432 7.83902 6.52367 7.97967C6.38302 8.12032 6.304 8.31109 6.304 8.51V10.068C6.304 10.2669 6.38302 10.4577 6.52367 10.5983C6.66432 10.739 6.85509 10.818 7.054 10.818C7.25291 10.818 7.44368 10.739 7.58433 10.5983C7.72498 10.4577 7.804 10.2669 7.804 10.068ZM22.969 20.113V16.44C22.969 16.2411 22.89 16.0503 22.7493 15.9097C22.6087 15.769 22.4179 15.69 22.219 15.69C22.0201 15.69 21.8293 15.769 21.6887 15.9097C21.548 16.0503 21.469 16.2411 21.469 16.44V20.113C21.469 20.824 20.891 21.403 20.179 21.403H16.441C16.2421 21.403 16.0513 21.482 15.9107 21.6227C15.77 21.7633 15.691 21.9541 15.691 22.153C15.691 22.3519 15.77 22.5427 15.9107 22.6833C16.0513 22.824 16.2421 22.903 16.441 22.903H20.18C20.9197 22.9022 21.6289 22.608 22.1519 22.085C22.675 21.5619 22.9692 20.8527 22.97 20.113H22.969ZM22.97 7.559V3.885C22.9695 3.14521 22.6754 2.43587 22.1522 1.91276C21.6291 1.38965 20.9198 1.09553 20.18 1.095H16.44C16.2411 1.095 16.0503 1.17402 15.9097 1.31467C15.769 1.45532 15.69 1.64609 15.69 1.845C15.69 2.04391 15.769 2.23468 15.9097 2.37533C16.0503 2.51598 16.2411 2.595 16.44 2.595H20.18C20.892 2.595 21.47 3.173 21.47 3.885V7.56C21.47 7.75891 21.549 7.94968 21.6897 8.09033C21.8303 8.23098 22.0211 8.31 22.22 8.31C22.4189 8.31 22.6097 8.23098 22.7503 8.09033C22.891 7.94968 22.97 7.75891 22.97 7.56V7.559ZM8.31 22.153C8.31 21.9541 8.23098 21.7633 8.09033 21.6227C7.94968 21.482 7.75891 21.403 7.56 21.403H3.82C3.108 21.403 2.53 20.824 2.53 20.113V16.44C2.53 16.2411 2.45098 16.0503 2.31033 15.9097C2.16968 15.769 1.97891 15.69 1.78 15.69C1.58109 15.69 1.39032 15.769 1.24967 15.9097C1.10902 16.0503 1.03 16.2411 1.03 16.44V20.113C1.03079 20.8527 1.32499 21.5619 1.84805 22.085C2.3711 22.608 3.08029 22.9022 3.82 22.903H7.56C7.75891 22.903 7.94968 22.824 8.09033 22.6833C8.23098 22.5427 8.31 22.3519 8.31 22.153ZM1.78 8.31C1.58109 8.31 1.39032 8.23098 1.24967 8.09033C1.10902 7.94968 1.03 7.75891 1.03 7.56V3.885C1.03053 3.14521 1.32464 2.43587 1.84776 1.91276C2.37087 1.38965 3.08021 1.09553 3.82 1.095H7.56C7.75891 1.095 7.94968 1.17402 8.09033 1.31467C8.23098 1.45532 8.31 1.64609 8.31 1.845C8.31 2.04391 8.23098 2.23468 8.09033 2.37533C7.94968 2.51598 7.75891 2.595 7.56 2.595H3.82C3.47787 2.595 3.14975 2.73091 2.90783 2.97283C2.66591 3.21476 2.53 3.54287 2.53 3.885V7.56C2.53 7.75891 2.45098 7.94968 2.31033 8.09033C2.16968 8.23098 1.97891 8.31 1.78 8.31Z" fill="#292830"/>
</svg>
