<svg width="24" height="24" viewBox="0 0 24 24" fill="none" xmlns="http://www.w3.org/2000/svg">
<path d="M16.879 17.149C16.969 17.109 17.059 17.059 17.129 16.989C17.199 16.919 17.249 16.839 17.289 16.739C17.328 16.649 17.3481 16.552 17.3481 16.454C17.3481 16.356 17.328 16.259 17.289 16.169C17.2511 16.0797 17.1969 15.9983 17.129 15.929C17.0587 15.8576 16.9733 15.8029 16.879 15.769C16.7892 15.7294 16.6921 15.709 16.594 15.709C16.4959 15.709 16.3988 15.7294 16.309 15.769C16.219 15.799 16.129 15.859 16.059 15.929C15.999 15.999 15.939 16.079 15.899 16.169C15.867 16.2624 15.8502 16.3603 15.849 16.459C15.849 16.559 15.869 16.649 15.899 16.739C15.939 16.839 15.999 16.919 16.059 16.989C16.206 17.1259 16.3981 17.2042 16.599 17.209C16.689 17.209 16.789 17.189 16.879 17.149ZM14.935 16.457C14.935 16.2581 14.856 16.0673 14.7153 15.9267C14.5747 15.786 14.3839 15.707 14.185 15.707H3.69099C3.49208 15.707 3.30131 15.786 3.16066 15.9267C3.02001 16.0673 2.94099 16.2581 2.94099 16.457C2.94099 16.6559 3.02001 16.8467 3.16066 16.9873C3.30131 17.128 3.49208 17.207 3.69099 17.207H14.185C14.3839 17.207 14.5747 17.128 14.7153 16.9873C14.856 16.8467 14.935 16.6559 14.935 16.457ZM10.176 13.012C10.176 12.8131 10.097 12.6223 9.95632 12.4817C9.81567 12.341 9.6249 12.262 9.42599 12.262H3.69099C3.49208 12.262 3.30131 12.341 3.16066 12.4817C3.02001 12.6223 2.94099 12.8131 2.94099 13.012C2.94099 13.2109 3.02001 13.4017 3.16066 13.5423C3.30131 13.683 3.49208 13.762 3.69099 13.762H9.42599C9.6249 13.762 9.81567 13.683 9.95632 13.5423C10.097 13.4017 10.176 13.2109 10.176 13.012ZM7.41399 9.568C7.41399 9.36909 7.33497 9.17832 7.19432 9.03767C7.05367 8.89702 6.8629 8.818 6.66399 8.818H3.69099C3.49208 8.818 3.30131 8.89702 3.16066 9.03767C3.02001 9.17832 2.94099 9.36909 2.94099 9.568C2.94099 9.76691 3.02001 9.95768 3.16066 10.0983C3.30131 10.239 3.49208 10.318 3.69099 10.318H6.66399C6.8629 10.318 7.05367 10.239 7.19432 10.0983C7.33497 9.95768 7.41399 9.76691 7.41399 9.568ZM8.98299 23.855C9.11419 23.7954 9.22545 23.6994 9.30348 23.5782C9.38151 23.4571 9.423 23.3161 9.42299 23.172V21.314H19.295C20.0273 21.3132 20.7293 21.022 21.2471 20.5042C21.7649 19.9863 22.0562 19.2843 22.057 18.552V17.302C22.057 17.1031 21.978 16.9123 21.8373 16.7717C21.6967 16.631 21.5059 16.552 21.307 16.552C21.1081 16.552 20.9173 16.631 20.7767 16.7717C20.636 16.9123 20.557 17.1031 20.557 17.302V18.552C20.557 19.248 19.991 19.814 19.295 19.814H8.67299C8.47408 19.814 8.28331 19.893 8.14266 20.0337C8.00201 20.1743 7.92299 20.3651 7.92299 20.564V21.514L6.19899 20C6.06199 19.88 5.88608 19.8139 5.70399 19.814H2.83699C2.50254 19.8135 2.18196 19.6803 1.94556 19.4437C1.70916 19.2071 1.57625 18.8864 1.57599 18.552V7.412C1.57599 6.717 2.14199 6.151 2.83699 6.151H7.63999C7.8389 6.151 8.02967 6.07198 8.17032 5.93133C8.31097 5.79068 8.38999 5.59991 8.38999 5.401C8.38999 5.20209 8.31097 5.01132 8.17032 4.87067C8.02967 4.73002 7.8389 4.651 7.63999 4.651H2.83699C2.1054 4.65206 1.40404 4.94301 0.886541 5.46014C0.369039 5.97727 0.0775755 6.67841 0.0759888 7.41V18.55C0.0765177 19.2823 0.367514 19.9845 0.88513 20.5024C1.40275 21.0204 2.1047 21.3119 2.83699 21.313H5.42099L8.17799 23.733C8.28639 23.8284 8.42 23.8904 8.56279 23.9117C8.70559 23.933 8.85149 23.9126 8.98299 23.853V23.855ZM16.858 9.642C16.6745 9.642 16.4984 9.71491 16.3687 9.84468C16.2389 9.97446 16.166 10.1505 16.166 10.334C16.166 10.5175 16.2389 10.6935 16.3687 10.8233C16.4984 10.9531 16.6745 11.026 16.858 11.026C17.0415 11.026 17.2175 10.9531 17.3473 10.8233C17.4771 10.6935 17.55 10.5175 17.55 10.334C17.55 10.1505 17.4771 9.97446 17.3473 9.84468C17.2175 9.71491 17.0415 9.642 16.858 9.642ZM17.608 8.522C17.608 8.025 17.855 7.554 18.284 7.231C18.6548 6.95426 18.9363 6.57484 19.0936 6.13971C19.2509 5.70459 19.2771 5.23288 19.169 4.783C19.0695 4.35425 18.8518 3.96201 18.5405 3.65088C18.2292 3.33975 17.8368 3.12221 17.408 3.023C17.0575 2.94022 16.6928 2.93808 16.3413 3.01672C15.9898 3.09536 15.6608 3.25274 15.379 3.477C15.0994 3.69875 14.8736 3.98092 14.7186 4.30236C14.5636 4.62379 14.4834 4.97615 14.484 5.333C14.484 5.53191 14.563 5.72268 14.7037 5.86333C14.8443 6.00398 15.0351 6.083 15.234 6.083C15.4329 6.083 15.6237 6.00398 15.7643 5.86333C15.905 5.72268 15.984 5.53191 15.984 5.333C15.9838 5.19974 16.0141 5.0682 16.0726 4.94844C16.1311 4.82869 16.2161 4.72389 16.3213 4.64206C16.4265 4.56023 16.549 4.50354 16.6795 4.47632C16.8099 4.4491 16.9449 4.45207 17.074 4.485C17.382 4.555 17.636 4.81 17.707 5.117C17.7484 5.28458 17.7397 5.46064 17.6819 5.62332C17.6241 5.78599 17.5198 5.9281 17.382 6.032C16.572 6.642 16.108 7.549 16.108 8.522C16.108 8.72091 16.187 8.91168 16.3277 9.05233C16.4683 9.19298 16.6591 9.272 16.858 9.272C17.0569 9.272 17.2477 9.19298 17.3883 9.05233C17.529 8.91168 17.608 8.72091 17.608 8.522ZM18.895 12.386C19.02 12.386 19.145 12.416 19.257 12.479L20.559 13.197L20.583 11.607C20.5858 11.4116 20.6647 11.2251 20.803 11.087C21.8472 10.04 22.4336 8.62169 22.4336 7.143C22.4336 5.66431 21.8472 4.24597 20.803 3.199C19.756 2.15448 18.3374 1.56788 16.8585 1.56788C15.3796 1.56788 13.961 2.15448 12.914 3.199C12.3962 3.71667 11.9863 4.33189 11.7079 5.00904C11.4295 5.6862 11.2881 6.41185 11.292 7.144C11.292 8.642 11.868 10.043 12.914 11.088C13.6529 11.8205 14.5808 12.3334 15.5941 12.5695C16.6074 12.8056 17.6664 12.7555 18.653 12.425C18.731 12.3989 18.8127 12.3854 18.895 12.385V12.386ZM21.29 15.207C21.1631 15.207 21.0382 15.1751 20.927 15.114L18.813 13.947C16.361 14.647 13.663 13.96 11.853 12.149C11.1955 11.4925 10.6749 10.7121 10.3211 9.85297C9.96732 8.99385 9.78748 8.07309 9.79199 7.144C9.79199 5.244 10.524 3.468 11.853 2.139C14.613 -0.621 19.104 -0.621 21.863 2.139C24.549 4.825 24.621 9.151 22.079 11.924L22.04 14.469C22.0368 14.6658 21.9564 14.8535 21.8161 14.9916C21.6758 15.1297 21.4868 15.207 21.29 15.207Z" fill="#292830"/>
</svg>
