<svg width="24" height="24" viewBox="0 0 24 24" fill="none" xmlns="http://www.w3.org/2000/svg">
<path d="M16.322 10.274C17.158 11.109 17.272 12.413 16.687 13.458L16.724 13.495C16.8765 13.6475 16.9622 13.8543 16.9622 14.07C16.9622 14.2857 16.8765 14.4925 16.724 14.645C16.5715 14.7975 16.3647 14.8832 16.149 14.8832C15.9333 14.8832 15.7265 14.7975 15.574 14.645L15.537 14.608C14.491 15.191 13.189 15.078 12.353 14.242C12.2775 14.1665 12.2176 14.0769 12.1767 13.9782C12.1359 13.8795 12.1148 13.7738 12.1148 13.667C12.1148 13.5602 12.1359 13.4545 12.1767 13.3558C12.2176 13.2572 12.2775 13.1675 12.353 13.092C12.5055 12.9395 12.7123 12.8538 12.928 12.8538C13.0348 12.8538 13.1405 12.8749 13.2392 12.9157C13.3378 12.9566 13.4275 13.0165 13.503 13.092C13.891 13.482 14.583 13.422 15.043 12.962C15.503 12.502 15.561 11.812 15.173 11.424C14.784 11.034 14.093 11.094 13.634 11.554C12.539 12.649 10.817 12.706 9.79499 11.684C8.95899 10.849 8.84599 9.54601 9.42999 8.5L9.34399 8.415C9.19149 8.26251 9.10582 8.05567 9.10582 7.84C9.10582 7.62434 9.19149 7.4175 9.34399 7.265C9.49649 7.1125 9.70333 7.02683 9.91899 7.02683C10.1347 7.02683 10.3415 7.1125 10.494 7.265L10.579 7.351C11.625 6.766 12.929 6.88 13.764 7.715C13.9053 7.8697 13.9816 8.07293 13.9768 8.28241C13.9721 8.49189 13.8868 8.69148 13.7386 8.83965C13.5905 8.98781 13.3909 9.07313 13.1814 9.07786C12.9719 9.08258 12.7687 9.00634 12.614 8.865C12.225 8.476 11.535 8.535 11.075 8.995C10.615 9.455 10.556 10.145 10.945 10.535C11.333 10.922 12.023 10.864 12.485 10.403C13.578 9.309 15.3 9.251 16.322 10.273V10.274ZM10.092 23.619C9.95899 23.619 9.82499 23.61 9.68999 23.592C8.94099 23.487 8.20399 23.106 7.61499 22.517L1.48099 16.38C0.208995 15.11 0.0139947 13.235 1.04599 12.203L12.65 0.600005C12.7905 0.459312 12.9811 0.38018 13.18 0.380005H22.866C23.0649 0.380005 23.2557 0.459023 23.3963 0.599675C23.537 0.740327 23.616 0.931093 23.616 1.13V10.816C23.6158 11.0148 23.5367 11.2055 23.396 11.346L15.88 18.863C15.8113 18.9367 15.7285 18.9958 15.6365 19.0368C15.5445 19.0778 15.4452 19.0998 15.3445 19.1016C15.2438 19.1034 15.1438 19.0849 15.0504 19.0471C14.957 19.0094 14.8722 18.9533 14.801 18.882C14.7297 18.8108 14.6736 18.726 14.6359 18.6326C14.5982 18.5392 14.5796 18.4392 14.5814 18.3385C14.5832 18.2378 14.6052 18.1385 14.6462 18.0465C14.6872 17.9545 14.7463 17.8717 14.82 17.803L22.116 10.505V1.88H13.491L2.10699 13.266C1.66699 13.704 1.86699 14.646 2.54099 15.322L8.67599 21.456C9.35099 22.131 10.292 22.331 10.732 21.89L12.528 20.093C12.6694 19.9563 12.8588 19.8806 13.0554 19.8822C13.2521 19.8839 13.4402 19.9627 13.5794 20.1016C13.7185 20.2406 13.7975 20.4287 13.7993 20.6254C13.8011 20.822 13.7255 21.0115 13.589 21.153L11.792 22.951C11.358 23.385 10.753 23.619 10.092 23.619Z" fill="#292830"/>
</svg>
