<svg width="24" height="24" viewBox="0 0 24 24" fill="none" xmlns="http://www.w3.org/2000/svg">
<g clip-path="url(#clip0)">
<path d="M22.012 8.61C21.522 5.175 18.623 2.6 15.225 2.6H8.689C5.289 2.6 2.393 5.175 1.902 8.61H22.012ZM0.943001 10.232C0.692269 10.2307 0.452273 10.1301 0.27554 9.95222C0.0988073 9.77436 -0.000267433 9.53373 5.42197e-07 9.283C5.42197e-07 4.56 3.731 1 8.68 1H15.225C20.138 1 23.874 4.525 23.915 9.2C23.923 9.402 23.902 9.764 23.671 10.005C23.526 10.158 23.323 10.235 23.071 10.235L0.943001 10.233V10.232ZM2 14.59C1.444 14.59 0.992001 14.212 0.992001 13.745C0.992001 13.278 1.444 12.899 2 12.899H15.584C16.14 12.899 16.591 13.278 16.591 13.745C16.591 14.212 16.141 14.59 15.584 14.59H1.999H2ZM19.684 14.59C19.4648 14.5825 19.2571 14.4901 19.1047 14.3323C18.9523 14.1746 18.8671 13.9638 18.8671 13.7445C18.8671 13.5252 18.9523 13.3144 19.1047 13.1567C19.2571 12.9989 19.4648 12.9065 19.684 12.899H22.163C22.2765 12.8951 22.3896 12.9141 22.4956 12.9548C22.6016 12.9955 22.6983 13.0572 22.7799 13.1361C22.8616 13.215 22.9265 13.3095 22.9709 13.414C23.0152 13.5186 23.0381 13.631 23.0381 13.7445C23.0381 13.858 23.0152 13.9704 22.9709 14.075C22.9265 14.1795 22.8616 14.274 22.7799 14.3529C22.6983 14.4318 22.6016 14.4935 22.4956 14.5342C22.3896 14.5749 22.2765 14.5939 22.163 14.59H19.683H19.684ZM2.214 18.916C2.594 20.551 3.719 21.523 5.242 21.523H19.142C20.668 21.523 21.795 20.551 22.176 18.916H2.212H2.214ZM5.028 23.018C2.114 23.017 5.42197e-07 21.077 5.42197e-07 18.4C5.42197e-07 17.877 0.423001 17.453 0.943001 17.453H23.056C23.576 17.453 24 17.877 24 18.4C23.954 21.076 21.82 23.016 18.927 23.016H5.027L5.028 23.018Z" fill="#292830"/>
</g>
<defs>
<clipPath id="clip0">
<rect width="24" height="24" fill="white"/>
</clipPath>
</defs>
</svg>
