<svg width="24" height="24" viewBox="0 0 24 24" fill="none" xmlns="http://www.w3.org/2000/svg">
<path d="M19.395 13.199C19.253 14.543 17.258 14.145 16.482 13.616C16.16 13.35 15.886 13.436 15.64 13.682C15.47 13.937 15.46 14.352 15.771 14.609C17.077 15.687 20.559 15.631 20.625 13.228C20.692 10.711 16.576 11.6 16.831 10.048C17.031 9.06499 18.619 9.27299 19.32 9.71799C19.887 10.134 20.568 9.311 19.925 8.79099C18.619 7.78799 15.847 8.11899 15.63 9.95399C15.336 12.641 19.273 11.799 19.395 13.199ZM12.403 9.64199C13.037 9.64199 13.539 10.191 13.539 10.852C13.539 11.44 13.037 11.998 12.403 11.998H10.823V9.64199H12.403ZM9.57401 14.429C9.57227 14.5144 9.58764 14.5993 9.61921 14.6786C9.65079 14.758 9.69792 14.8302 9.75784 14.891C9.81777 14.9519 9.88926 15.0001 9.96812 15.0329C10.047 15.0657 10.1316 15.0824 10.217 15.082C10.558 15.082 10.823 14.845 10.823 14.429V13.179H12.403C13.633 13.179 14.739 12.348 14.739 10.853C14.739 9.27299 13.632 8.44999 12.403 8.44999H10.217C9.82 8.44999 9.57401 8.78999 9.57401 9.10299V14.429ZM7.854 9.76499C8.269 9.76499 8.516 9.42499 8.516 9.12199C8.516 8.78099 8.269 8.53499 7.853 8.53499H4.533C4.116 8.53499 3.861 8.78099 3.861 9.12199V14.495C3.861 14.825 4.117 15.082 4.533 15.082C4.863 15.082 5.1 14.826 5.1 14.495V12.509H7.512C7.853 12.509 8.194 12.253 8.194 11.941C8.194 11.61 7.854 11.269 7.513 11.269H5.1V9.76499H7.853H7.854ZM12.016 23.758C8.952 23.758 5.929 22.568 3.678 20.315C-0.911996 15.725 -0.911996 8.25799 3.678 3.66799C8.268 -0.922006 15.734 -0.922006 20.324 3.66799C24.914 8.25799 24.914 15.725 20.324 20.315C20.1834 20.4556 19.9928 20.5345 19.794 20.5345C19.5952 20.5345 19.4046 20.4556 19.264 20.315C19.1234 20.1744 19.0445 19.9838 19.0445 19.785C19.0445 19.5862 19.1234 19.3956 19.264 19.255C23.269 15.25 23.269 8.733 19.264 4.72799C15.259 0.722995 8.742 0.722995 4.737 4.72799C0.732004 8.733 0.732004 15.25 4.736 19.255C6.23247 20.7457 8.15106 21.7402 10.2317 22.1039C12.3124 22.4675 14.4546 22.1827 16.368 21.288C16.5462 21.2154 16.7455 21.214 16.9247 21.2841C17.1039 21.3542 17.2494 21.4904 17.3311 21.6646C17.4129 21.8388 17.4246 22.0378 17.3639 22.2204C17.3032 22.403 17.1747 22.5553 17.005 22.646C15.4437 23.3793 13.7399 23.7589 12.015 23.758H12.016Z" fill="#292830"/>
</svg>
