<svg width="24" height="24" viewBox="0 0 24 24" fill="none" xmlns="http://www.w3.org/2000/svg">
<path d="M2.65942 2.531C7.22442 2.9 10.8774 6.549 11.2524 11.127C6.68742 10.759 3.03442 7.11 2.65942 2.531ZM21.3724 2.533C21.0034 7.098 17.3544 10.751 12.7754 11.125C13.1444 6.56 16.7934 2.907 21.3724 2.533ZM22.7774 21.378C19.8214 19.191 16.3824 17.981 12.7904 17.826V12.618C18.4324 12.218 22.9034 7.511 22.9024 1.751C22.9024 1.337 22.5474 1 22.1334 1C17.5414 1 13.6124 3.862 12.0144 7.891C10.4174 3.862 6.48842 1 1.89642 1L1.87742 1.001C1.46342 1.001 1.12642 1.356 1.12642 1.77C1.12642 7.524 5.61542 12.237 11.2904 12.619V17.824C7.70142 17.969 4.26242 19.168 1.30542 21.341C0.972424 21.586 0.900424 22.055 1.14542 22.389C1.39142 22.723 1.86142 22.795 2.19442 22.55C5.09142 20.421 8.48742 19.296 12.0164 19.296C15.5654 19.296 18.9774 20.433 21.8844 22.584C22.0184 22.683 22.1754 22.731 22.3304 22.731C22.5594 22.731 22.7864 22.626 22.9334 22.427C23.1804 22.094 23.1104 21.624 22.7774 21.378Z" fill="#292830"/>
</svg>
