<svg width="24" height="24" viewBox="0 0 24 24" fill="none" xmlns="http://www.w3.org/2000/svg">
<path d="M9.727 8.04001H9.967V5.35401C9.967 4.95501 10.123 4.57901 10.405 4.29601L10.94 3.761L9.197 2.021H6.589L6.592 4.79201L9.727 8.04001ZM11.467 8.04001H12.536L12.533 5.35401L12 4.82101L11.466 5.35501V8.04001H11.467ZM14.033 8.04001H14.276L17.409 4.79101V2.017L14.8 2.02L13.06 3.761L13.593 4.29501C13.877 4.57901 14.032 4.95501 14.032 5.35501V8.04001H14.033ZM2.827 14.991H11.25V9.54101H2.825L2.827 14.991ZM12.75 16.491V21.979H21.175L21.173 16.491H18.773C18.5741 16.491 18.3833 16.412 18.2427 16.2713C18.102 16.1307 18.023 15.9399 18.023 15.741C18.023 15.5421 18.102 15.3513 18.2427 15.2107C18.3833 15.07 18.5741 14.991 18.773 14.991H21.173L21.172 9.54101H12.75V14.991H14.879C15.0779 14.991 15.2687 15.07 15.4093 15.2107C15.55 15.3513 15.629 15.5421 15.629 15.741C15.629 15.9399 15.55 16.1307 15.4093 16.2713C15.2687 16.412 15.0779 16.491 14.879 16.491H12.749H12.75ZM2.827 16.491V21.981L11.25 21.979V16.491H2.827ZM21.175 23.478H2.825C2.42804 23.4772 2.04759 23.3191 1.76699 23.0383C1.48639 22.7575 1.32853 22.377 1.328 21.98V9.537C1.328 8.711 2 8.04001 2.825 8.04001H7.642L5.51 5.83201C5.24043 5.55292 5.08983 5.18002 5.09 4.79201V2.017C5.09 1.191 5.762 0.520005 6.588 0.520005H9.198C9.598 0.520005 9.975 0.676005 10.258 0.960005L11.998 2.701L13.743 0.960005C13.8813 0.820412 14.046 0.709647 14.2274 0.63412C14.4089 0.558594 14.6035 0.519807 14.8 0.520005H17.41C18.236 0.520005 18.908 1.191 18.908 2.017V4.79201C18.908 5.182 18.758 5.55 18.488 5.83201L16.358 8.04001H21.174C22 8.04001 22.671 8.711 22.671 9.537V21.98C22.671 22.806 22 23.478 21.174 23.478H21.175Z" fill="#292830"/>
</svg>
