<svg width="24" height="24" viewBox="0 0 24 24" fill="none" xmlns="http://www.w3.org/2000/svg">
<path d="M22.4 19.294V16.584H6.00001V19.294C6.00001 19.46 6.10701 19.6 6.23401 19.6H7.27901C7.51942 19.064 7.90942 18.6087 8.40218 18.2889C8.89495 17.9691 9.46955 17.7983 10.057 17.797C11.294 17.797 12.356 18.54 12.835 19.6H16.057C16.2974 19.064 16.6874 18.6087 17.1802 18.2889C17.673 17.9691 18.2476 17.7983 18.835 17.797C20.071 17.797 21.133 18.54 21.612 19.6H22.15C22.286 19.6 22.4 19.46 22.4 19.294ZM20.386 20.848C20.386 19.993 19.69 19.298 18.835 19.298C17.979 19.298 17.283 19.993 17.283 20.848C17.3006 21.2477 17.4717 21.6252 17.7608 21.9018C18.0498 22.1784 18.4344 22.3328 18.8345 22.3328C19.2346 22.3328 19.6192 22.1784 19.9082 21.9018C20.1973 21.6252 20.3684 21.2477 20.386 20.848ZM11.608 20.848C11.608 19.993 10.912 19.298 10.057 19.298C9.20201 19.298 8.50601 19.993 8.50601 20.848C8.50601 21.704 9.20201 22.399 10.056 22.399C10.912 22.399 11.608 21.704 11.608 20.849V20.848ZM6.00001 8.744V15.084H22.4V13.348C22.4 12.38 22.162 11.424 21.71 10.583L20.654 8.60999C20.1888 7.72698 19.4318 7.03255 18.512 6.645C18.3827 7.57727 18.0217 8.46225 17.462 9.219C17.3411 9.37316 17.1647 9.47389 16.9705 9.49964C16.7762 9.5254 16.5796 9.47413 16.4227 9.35681C16.2658 9.23949 16.1611 9.06543 16.1308 8.87185C16.1006 8.67828 16.1473 8.48057 16.261 8.321C16.7929 7.59878 17.0789 6.72492 17.077 5.828C17.0509 5.72704 17.0468 5.62167 17.065 5.519C17.067 5.507 17.075 5.499 17.077 5.487C17.0089 4.5005 16.5945 3.56977 15.907 2.859C15.5215 2.46361 15.0614 2.14866 14.5533 1.93237C14.0452 1.71609 13.4992 1.60277 12.947 1.599H12.892C11.7861 1.59314 10.7231 2.02651 9.93655 2.8039C9.14998 3.58128 8.70415 4.63911 8.69701 5.745C8.68659 6.40572 8.8324 7.05956 9.12256 7.65324C9.41273 8.24693 9.83904 8.76367 10.3668 9.16137C10.8945 9.55907 11.5087 9.82647 12.1594 9.94179C12.81 10.0571 13.4787 10.0171 14.111 9.825C14.2054 9.7965 14.3044 9.78687 14.4025 9.79665C14.5006 9.80643 14.5958 9.83543 14.6826 9.882C14.7695 9.92857 14.8463 9.99179 14.9088 10.0681C14.9712 10.1443 15.018 10.2321 15.0465 10.3265C15.075 10.4208 15.0846 10.5199 15.0749 10.618C15.0651 10.716 15.0361 10.8112 14.9895 10.8981C14.9429 10.985 14.8797 11.0618 14.8034 11.1243C14.7272 11.1867 14.6394 11.2335 14.545 11.262C13.5451 11.566 12.4809 11.5888 11.4689 11.3279C10.4569 11.067 9.53629 10.5325 8.80801 9.783C7.95843 8.90419 7.41759 7.77301 7.26701 6.56C6.51301 6.947 6.00001 7.77999 6.00001 8.745V8.744ZM23.9 13.349V19.294C23.9 20.29 23.115 21.1 22.15 21.1H21.86C21.73 22.663 20.43 23.9 18.835 23.9C18.0714 23.8977 17.3365 23.6086 16.7761 23.09C16.2156 22.5714 15.8704 21.8611 15.809 21.1H13.083C12.952 22.663 11.653 23.9 10.057 23.9C8.46101 23.9 7.16201 22.663 7.03101 21.1H6.23401C5.27801 21.1 4.50001 20.29 4.50001 19.294V8.745C4.50001 6.928 5.66501 5.397 7.28001 4.961C7.46001 3.727 8.00901 2.591 8.91001 1.711C9.44665 1.18862 10.0812 0.777467 10.7773 0.501167C11.4734 0.224867 12.2172 0.0888703 12.966 0.100995C13.7153 0.107045 14.456 0.261447 15.1453 0.555289C15.8345 0.84913 16.4588 1.27659 16.982 1.813C17.861 2.71399 18.365 3.863 18.52 5.054C19.983 5.48399 21.223 6.496 21.977 7.904L23.033 9.876C23.6028 10.9449 23.9006 12.1377 23.9 13.349ZM12.893 3.941C13.33 3.941 13.685 4.241 13.685 4.61C13.685 4.75454 13.7424 4.89316 13.8446 4.99537C13.9468 5.09758 14.0855 5.155 14.23 5.155C14.3746 5.155 14.5132 5.09758 14.6154 4.99537C14.7176 4.89316 14.775 4.75454 14.775 4.61C14.775 3.817 14.211 3.145 13.439 2.927V2.845C13.439 2.70045 13.3816 2.56183 13.2794 2.45962C13.1772 2.35741 13.0386 2.3 12.894 2.3C12.7495 2.3 12.6108 2.35741 12.5086 2.45962C12.4064 2.56183 12.349 2.70045 12.349 2.845V2.927C11.575 3.145 11.011 3.817 11.011 4.61C11.011 5.58 11.856 6.368 12.893 6.368C13.33 6.368 13.685 6.66799 13.685 7.036C13.685 7.40499 13.33 7.705 12.893 7.705C12.457 7.705 12.101 7.40499 12.101 7.036C12.101 6.89145 12.0436 6.75283 11.9414 6.65062C11.8392 6.54841 11.7006 6.491 11.556 6.491C11.4115 6.491 11.2728 6.54841 11.1706 6.65062C11.0684 6.75283 11.011 6.89145 11.011 7.036C11.011 7.82899 11.575 8.501 12.348 8.72V8.75399C12.348 8.89854 12.4054 9.03716 12.5076 9.13937C12.6098 9.24158 12.7485 9.299 12.893 9.299C13.0376 9.299 13.1762 9.24158 13.2784 9.13937C13.3806 9.03716 13.438 8.89854 13.438 8.75399V8.72C14.211 8.5 14.776 7.82899 14.776 7.036C14.776 6.066 13.931 5.278 12.893 5.278C12.457 5.278 12.101 4.978 12.101 4.61C12.101 4.241 12.457 3.941 12.893 3.941ZM2.80501 17.797H1.88501C1.6861 17.797 1.49533 17.876 1.35468 18.0167C1.21403 18.1573 1.13501 18.3481 1.13501 18.547C1.13501 18.7459 1.21403 18.9367 1.35468 19.0773C1.49533 19.218 1.6861 19.297 1.88501 19.297H2.80501C3.00392 19.297 3.19469 19.218 3.33534 19.0773C3.47599 18.9367 3.55501 18.7459 3.55501 18.547C3.55501 18.3481 3.47599 18.1573 3.33534 18.0167C3.19469 17.876 3.00392 17.797 2.80501 17.797ZM2.80501 11.667H1.88501C1.6861 11.667 1.49533 11.746 1.35468 11.8867C1.21403 12.0273 1.13501 12.2181 1.13501 12.417C1.13501 12.6159 1.21403 12.8067 1.35468 12.9473C1.49533 13.088 1.6861 13.167 1.88501 13.167H2.80501C3.00392 13.167 3.19469 13.088 3.33534 12.9473C3.47599 12.8067 3.55501 12.6159 3.55501 12.417C3.55501 12.2181 3.47599 12.0273 3.33534 11.8867C3.19469 11.746 3.00392 11.667 2.80501 11.667ZM3.55501 15.482C3.55501 15.6809 3.47599 15.8717 3.33534 16.0123C3.19469 16.153 3.00392 16.232 2.80501 16.232H0.76001C0.561097 16.232 0.370332 16.153 0.22968 16.0123C0.0890274 15.8717 0.0100098 15.6809 0.0100098 15.482C0.0100098 15.2831 0.0890274 15.0923 0.22968 14.9517C0.370332 14.811 0.561097 14.732 0.76001 14.732H2.80401C3.00292 14.732 3.19369 14.811 3.33434 14.9517C3.47499 15.0923 3.55401 15.2831 3.55401 15.482" fill="#292830"/>
</svg>
