<svg width="24" height="24" viewBox="0 0 24 24" fill="none" xmlns="http://www.w3.org/2000/svg">
<path d="M23.7 14.744C23.6305 14.8138 23.5479 14.8692 23.4569 14.9069C23.366 14.9447 23.2685 14.9642 23.17 14.9642C23.0715 14.9642 22.974 14.9447 22.883 14.9069C22.7921 14.8692 22.7095 14.8138 22.64 14.744L20.409 12.514C19.1515 13.4675 17.7368 14.1935 16.229 14.659L17.441 17.257C17.4826 17.3463 17.5063 17.4429 17.5105 17.5414C17.5148 17.6398 17.4997 17.7381 17.466 17.8307C17.4323 17.9233 17.3807 18.0083 17.3141 18.0809C17.2475 18.1536 17.1673 18.2124 17.078 18.254C16.8976 18.3381 16.6913 18.3471 16.5043 18.279C16.3173 18.2109 16.1651 18.0714 16.081 17.891L14.746 15.028C13.894 15.19 12.98 15.285 11.996 15.285C11.013 15.285 10.098 15.19 9.24599 15.028L7.90999 17.891C7.86849 17.9803 7.80979 18.0605 7.73725 18.1271C7.66471 18.1937 7.57976 18.2453 7.48725 18.279C7.39474 18.3127 7.2965 18.3279 7.19813 18.3236C7.09976 18.3193 7.00321 18.2956 6.91399 18.254C6.82467 18.2124 6.74442 18.1536 6.67783 18.081C6.61124 18.0083 6.55961 17.9233 6.5259 17.8307C6.49219 17.7381 6.47705 17.6398 6.48136 17.5414C6.48566 17.4429 6.50932 17.3463 6.55099 17.257L7.76299 14.659C6.25507 14.1931 4.84037 13.4668 3.58299 12.513L1.35099 14.744C1.28184 14.8157 1.1991 14.8728 1.10762 14.9122C1.01614 14.9515 0.917731 14.9723 0.818148 14.9732C0.718564 14.9741 0.619796 14.9552 0.527606 14.9175C0.435417 14.8798 0.351652 14.8242 0.281199 14.7538C0.210747 14.6834 0.155018 14.5997 0.117264 14.5075C0.0795095 14.4154 0.0604865 14.3166 0.0613046 14.2171C0.0621227 14.1175 0.0827655 14.0191 0.122028 13.9275C0.161292 13.836 0.218388 13.7532 0.289988 13.684L2.42599 11.548C0.953988 10.168 0.231988 8.90801 0.166988 8.79101C0.0697859 8.61755 0.0454685 8.41259 0.0993853 8.22121C0.153302 8.02983 0.281036 7.86771 0.454488 7.77051C0.627939 7.6733 0.8329 7.64899 1.02428 7.7029C1.21566 7.75682 1.37779 7.88455 1.47499 8.058C1.60799 8.292 4.78899 13.785 11.995 13.785C19.235 13.785 22.484 8.117 22.515 8.059C22.6121 7.88529 22.7742 7.75725 22.9656 7.70305C23.1571 7.64885 23.3623 7.67294 23.536 7.77C23.7097 7.86707 23.8377 8.02918 23.8919 8.22065C23.9461 8.41213 23.9221 8.61729 23.825 8.79101C23.761 8.90701 23.038 10.168 21.565 11.548L23.701 13.683C23.7707 13.7527 23.826 13.8354 23.8637 13.9264C23.9014 14.0174 23.9208 14.115 23.9208 14.2135C23.9208 14.312 23.9014 14.4096 23.8637 14.5006C23.826 14.5917 23.7707 14.6744 23.701 14.744" fill="#292830"/>
</svg>
