<svg width="24" height="24" viewBox="0 0 24 24" fill="none" xmlns="http://www.w3.org/2000/svg">
<g clip-path="url(#clip0)">
<path d="M12.428 17.496V13.923C12.428 12.914 11.784 11.413 10.009 11.413H6.622C5.65 11.413 4.203 12.081 4.203 13.923V17.496C4.203 17.6949 4.28202 17.8857 4.42267 18.0263C4.56332 18.167 4.75409 18.246 4.953 18.246C5.15191 18.246 5.34268 18.167 5.48333 18.0263C5.62398 17.8857 5.703 17.6949 5.703 17.496V13.923C5.703 13.064 6.284 12.921 6.622 12.913H10.009C10.822 12.913 10.922 13.624 10.928 13.923V17.496C10.928 17.6949 11.007 17.8857 11.1477 18.0263C11.2883 18.167 11.4791 18.246 11.678 18.246C11.8769 18.246 12.0677 18.167 12.2083 18.0263C12.349 17.8857 12.428 17.6949 12.428 17.496ZM9.061 7.667C9.269 7.875 9.383 8.152 9.383 8.445C9.383 8.739 9.269 9.015 9.061 9.223C8.8516 9.42348 8.5729 9.53539 8.283 9.53539C7.9931 9.53539 7.7144 9.42348 7.505 9.223C7.35192 9.06893 7.24782 8.87302 7.20582 8.65992C7.16382 8.44683 7.18578 8.22607 7.26895 8.02542C7.35211 7.82478 7.49276 7.65322 7.6732 7.53232C7.85364 7.41143 8.06581 7.3466 8.283 7.346C8.565 7.346 8.846 7.453 9.061 7.667ZM10.121 10.284C10.3634 10.0431 10.5555 9.75657 10.6863 9.44089C10.8172 9.12521 10.884 8.78671 10.883 8.445C10.8819 7.93134 10.7287 7.4295 10.4428 7.00272C10.157 6.57595 9.7512 6.24333 9.27662 6.04679C8.80204 5.85024 8.27991 5.79856 7.776 5.89825C7.2721 5.99794 6.80898 6.24455 6.445 6.607C5.95813 7.09499 5.6847 7.75617 5.6847 8.4455C5.6847 9.13484 5.95813 9.79602 6.445 10.284C6.68582 10.5261 6.97227 10.718 7.28777 10.8486C7.60326 10.9792 7.94153 11.046 8.283 11.045C8.978 11.045 9.631 10.775 10.121 10.285V10.284ZM19.737 15.228C19.737 15.0291 19.658 14.8383 19.5173 14.6977C19.3767 14.557 19.1859 14.478 18.987 14.478H15.651C15.4521 14.478 15.2613 14.557 15.1207 14.6977C14.98 14.8383 14.901 15.0291 14.901 15.228C14.901 15.4269 14.98 15.6177 15.1207 15.7583C15.2613 15.899 15.4521 15.978 15.651 15.978H18.987C19.1859 15.978 19.3767 15.899 19.5173 15.7583C19.658 15.6177 19.737 15.4269 19.737 15.228ZM19.737 11.929C19.737 11.7301 19.658 11.5393 19.5173 11.3987C19.3767 11.258 19.1859 11.179 18.987 11.179H15.651C15.4521 11.179 15.2613 11.258 15.1207 11.3987C14.98 11.5393 14.901 11.7301 14.901 11.929C14.901 12.1279 14.98 12.3187 15.1207 12.4593C15.2613 12.6 15.4521 12.679 15.651 12.679H18.987C19.1859 12.679 19.3767 12.6 19.5173 12.4593C19.658 12.3187 19.737 12.1279 19.737 11.929ZM19.737 8.649C19.737 8.45009 19.658 8.25933 19.5173 8.11867C19.3767 7.97802 19.1859 7.899 18.987 7.899H15.651C15.4521 7.899 15.2613 7.97802 15.1207 8.11867C14.98 8.25933 14.901 8.45009 14.901 8.649C14.901 8.84792 14.98 9.03868 15.1207 9.17933C15.2613 9.31999 15.4521 9.399 15.651 9.399H18.987C19.1859 9.399 19.3767 9.31999 19.5173 9.17933C19.658 9.03868 19.737 8.84792 19.737 8.649ZM21.215 21.999H20.071C19.8721 21.999 19.6813 21.92 19.5407 21.7793C19.4 21.6387 19.321 21.4479 19.321 21.249C19.321 21.0501 19.4 20.8593 19.5407 20.7187C19.6813 20.578 19.8721 20.499 20.071 20.499H21.215C21.926 20.499 22.504 19.92 22.504 19.209V4.81C22.504 4.1 21.926 3.52 21.215 3.52H2.79C2.079 3.52 1.5 4.1 1.5 4.81V19.21C1.5 19.92 2.079 20.5 2.79 20.5H16.181C16.3799 20.5 16.5707 20.579 16.7113 20.7197C16.852 20.8603 16.931 21.0511 16.931 21.25C16.931 21.4489 16.852 21.6397 16.7113 21.7803C16.5707 21.921 16.3799 22 16.181 22H2.79C2.05037 21.9989 1.34134 21.7047 0.818341 21.1817C0.295343 20.6587 0.00105813 19.9496 0 19.21L0 4.81C0.00105813 4.07038 0.295343 3.36134 0.818341 2.83835C1.34134 2.31535 2.05037 2.02106 2.79 2.02H21.215C21.9545 2.02106 22.6635 2.31538 23.1863 2.83841C23.7091 3.36143 24.0032 4.07047 24.004 4.81V19.21C24.0032 19.9495 23.7091 20.6586 23.1863 21.1816C22.6635 21.7046 21.9545 21.9989 21.215 22" fill="#292830"/>
</g>
<defs>
<clipPath id="clip0">
<rect width="24" height="24" fill="white"/>
</clipPath>
</defs>
</svg>
