<svg width="24" height="24" viewBox="0 0 24 24" fill="none" xmlns="http://www.w3.org/2000/svg">
<path d="M15.72 23.785C15.3522 23.7845 14.9996 23.6382 14.7395 23.3782C14.4793 23.1183 14.3328 22.7658 14.332 22.398V14.536H9.66601V22.398C9.66601 23.163 9.04401 23.785 8.28001 23.785H2.77201C2.40424 23.7847 2.0516 23.6385 1.79155 23.3785C1.53149 23.1184 1.38527 22.7658 1.38501 22.398V9.436C1.38501 9.016 1.57101 8.624 1.89701 8.359L11.123 0.861997C11.3705 0.6606 11.6799 0.550644 11.999 0.550644C12.3181 0.550644 12.6275 0.6606 12.875 0.861997L22.103 8.359C22.429 8.624 22.615 9.017 22.615 9.436V15.216C22.615 15.4149 22.536 15.6057 22.3953 15.7463C22.2547 15.887 22.0639 15.966 21.865 15.966C21.6661 15.966 21.4753 15.887 21.3347 15.7463C21.194 15.6057 21.115 15.4149 21.115 15.216V9.436L12 2.084L2.84101 9.524L2.88301 22.285H8.16501V14.425C8.16527 14.0567 8.3117 13.7035 8.57213 13.4431C8.83256 13.1827 9.18571 13.0363 9.55401 13.036H14.444C15.209 13.036 15.831 13.658 15.831 14.424V22.285H21.115V19.273C21.115 19.0741 21.194 18.8833 21.3347 18.7427C21.4753 18.602 21.6661 18.523 21.865 18.523C22.0639 18.523 22.2547 18.602 22.3953 18.7427C22.536 18.8833 22.615 19.0741 22.615 19.273V22.398C22.6142 22.766 22.4676 23.1186 22.2072 23.3786C21.9468 23.6386 21.594 23.7847 21.226 23.785H15.72Z" fill="#292830"/>
</svg>
