<svg width="24" height="24" viewBox="0 0 24 24" fill="none" xmlns="http://www.w3.org/2000/svg">
<path fill-rule="evenodd" clip-rule="evenodd" d="M24 12C24 18.6274 18.6274 24 12 24C5.37258 24 0 18.6274 0 12C0 5.37258 5.37258 0 12 0C18.6274 0 24 5.37258 24 12ZM12.4828 8.61265C12.3295 8.67411 12.1652 8.70383 12 8.7C11.647 8.7 11.35 8.58 11.11 8.34C10.87 8.1 10.75 7.803 10.75 7.45C10.75 7.077 10.866 6.776 11.096 6.546C11.326 6.315 11.627 6.2 12 6.2C12.373 6.2 12.674 6.316 12.904 6.546C13.135 6.776 13.25 7.077 13.25 7.45C13.2538 7.6152 13.2241 7.77946 13.1627 7.93285C13.1012 8.08624 13.0093 8.22556 12.8924 8.34241C12.7756 8.45926 12.6362 8.55119 12.4828 8.61265ZM13.102 17.598C13.102 17.725 13.039 17.788 12.912 17.788H11.044C10.917 17.788 10.853 17.725 10.853 17.597V10.802C10.853 10.675 10.917 10.612 11.044 10.612H12.912C13.039 10.612 13.102 10.675 13.102 10.803V17.598Z" fill="#292830"/>
</svg>
