<svg width="24" height="24" viewBox="0 0 24 24" fill="none" xmlns="http://www.w3.org/2000/svg">
<path d="M20 5.5C19.9999 5.69705 19.9611 5.89215 19.8856 6.07418C19.8101 6.2562 19.6995 6.42158 19.5602 6.56087C19.4208 6.70016 19.2553 6.81063 19.0733 6.88597C18.8912 6.96132 18.696 7.00007 18.499 7C18.302 6.99993 18.1068 6.96106 17.9248 6.88559C17.7428 6.81012 17.5774 6.69954 17.4381 6.56016C17.2988 6.42078 17.1884 6.25533 17.113 6.07325C17.0377 5.89118 16.9989 5.69605 16.999 5.499C16.9991 5.10104 17.1573 4.71944 17.4388 4.43813C17.7203 4.15683 18.102 3.99887 18.5 3.999C18.898 3.99913 19.2796 4.15735 19.5609 4.43884C19.8422 4.72033 20.0001 5.10204 20 5.5ZM12 16.5C10.8069 16.4987 9.66311 16.0241 8.81948 15.1805C7.97585 14.3369 7.50132 13.1931 7.5 12C7.5 9.519 9.519 7.5 12 7.5C14.48 7.5 16.5 9.519 16.5 12C16.5 14.481 14.48 16.5 12 16.5ZM12 6C10.4087 6 8.88258 6.63214 7.75736 7.75736C6.63214 8.88258 6 10.4087 6 12C6 13.5913 6.63214 15.1174 7.75736 16.2426C8.88258 17.3679 10.4087 18 12 18C13.5913 18 15.1174 17.3679 16.2426 16.2426C17.3679 15.1174 18 13.5913 18 12C18 10.4087 17.3679 8.88258 16.2426 7.75736C15.1174 6.63214 13.5913 6 12 6ZM21.5 18C21.5 19.93 19.93 21.5 18 21.5H6C4.069 21.5 2.5 19.93 2.5 18V6C2.5 4.07 4.069 2.5 6 2.5H18C19.93 2.5 21.5 4.07 21.5 6V18ZM18 1H6C5.34339 1 4.69321 1.12933 4.08658 1.3806C3.47995 1.63188 2.92876 2.00017 2.46447 2.46447C1.52678 3.40215 1 4.67392 1 6V18C1 18.6566 1.12933 19.3068 1.3806 19.9134C1.63188 20.52 2.00017 21.0712 2.46447 21.5355C3.40215 22.4732 4.67392 23 6 23H18C18.6566 23 19.3068 22.8707 19.9134 22.6194C20.52 22.3681 21.0712 21.9998 21.5355 21.5355C21.9998 21.0712 22.3681 20.52 22.6194 19.9134C22.8707 19.3068 23 18.6566 23 18V6C23 5.34339 22.8707 4.69321 22.6194 4.08658C22.3681 3.47995 21.9998 2.92876 21.5355 2.46447C21.0712 2.00017 20.52 1.63188 19.9134 1.3806C19.3068 1.12933 18.6566 1 18 1Z" fill="#292830"/>
</svg>
