<svg width="24" height="24" viewBox="0 0 24 24" fill="none" xmlns="http://www.w3.org/2000/svg">
<path d="M16.266 15.392C16.274 15.5127 16.2571 15.6338 16.2164 15.7477C16.1757 15.8616 16.112 15.9659 16.0293 16.0541C15.9466 16.1424 15.8466 16.2127 15.7356 16.2608C15.6246 16.3088 15.5049 16.3335 15.3839 16.3334C15.263 16.3333 15.1433 16.3083 15.0324 16.26C14.9215 16.2117 14.8217 16.1411 14.7392 16.0527C14.6567 15.9642 14.5933 15.8598 14.5528 15.7458C14.5123 15.6318 14.4957 15.5107 14.504 15.39C14.5193 15.1666 14.6189 14.9574 14.7827 14.8047C14.9464 14.652 15.162 14.5671 15.3859 14.5674C15.6098 14.5676 15.8253 14.653 15.9887 14.806C16.1521 14.9591 16.2512 15.1686 16.266 15.392ZM17.766 15.392C17.7652 14.7605 17.514 14.1551 17.0675 13.7086C16.6209 13.262 16.0155 13.0108 15.384 13.01C14.7525 13.0108 14.1471 13.262 13.7006 13.7086C13.254 14.1551 13.0028 14.7605 13.002 15.392C13.0028 16.0235 13.254 16.6289 13.7006 17.0755C14.1471 17.522 14.7525 17.7732 15.384 17.774C16.0155 17.7732 16.6209 17.522 17.0675 17.0755C17.514 16.6289 17.7652 16.0235 17.766 15.392ZM9.499 8.62501C9.49874 8.85885 9.40573 9.08303 9.24038 9.24838C9.07503 9.41373 8.85084 9.50674 8.617 9.50701C8.38316 9.50674 8.15898 9.41373 7.99363 9.24838C7.82828 9.08303 7.73527 8.85885 7.73501 8.62501C7.73501 8.13901 8.131 7.74301 8.617 7.74301C9.103 7.74301 9.499 8.13901 9.499 8.62501ZM10.999 8.62501C10.9985 7.99342 10.7473 7.38786 10.3007 6.94126C9.85415 6.49466 9.24859 6.24354 8.617 6.24301C7.9855 6.2438 7.38009 6.49501 6.93355 6.94155C6.48701 7.38809 6.2358 7.9935 6.23501 8.62501C6.2358 9.25651 6.48701 9.86192 6.93355 10.3085C7.38009 10.755 7.9855 11.0062 8.617 11.007C9.24851 11.0062 9.85392 10.755 10.3005 10.3085C10.747 9.86192 10.9982 9.25651 10.999 8.62501ZM8.05901 17.01L17.002 8.06801C17.0736 7.99879 17.1307 7.916 17.17 7.82448C17.2092 7.73296 17.2299 7.63453 17.2307 7.53495C17.2315 7.43536 17.2125 7.33661 17.1747 7.24446C17.137 7.15231 17.0812 7.06859 17.0108 6.99821C16.9403 6.92782 16.8566 6.87217 16.7644 6.8345C16.6722 6.79684 16.5734 6.77791 16.4738 6.77882C16.3743 6.77973 16.2759 6.80047 16.1844 6.83982C16.0929 6.87917 16.0102 6.93634 15.941 7.00801L6.99901 15.949C6.86232 16.0904 6.78663 16.2798 6.78825 16.4765C6.78986 16.6731 6.86865 16.8613 7.00764 17.0004C7.14663 17.1395 7.33471 17.2185 7.53135 17.2203C7.728 17.2221 7.91749 17.1466 8.05901 17.01ZM12.016 23.766C8.88945 23.7696 5.88952 22.5311 3.67601 20.323C-0.913995 15.733 -0.913995 8.26601 3.67601 3.67601C8.26601 -0.913995 15.734 -0.913995 20.324 3.67601C24.914 8.26601 24.914 15.733 20.324 20.323C20.1834 20.4636 19.9928 20.5425 19.794 20.5425C19.5952 20.5425 19.4046 20.4636 19.264 20.323C19.1234 20.1824 19.0445 19.9918 19.0445 19.793C19.0445 19.5942 19.1234 19.4036 19.264 19.263C23.268 15.258 23.268 8.741 19.264 4.73601C15.259 0.731005 8.74201 0.731005 4.73701 4.73601C0.732005 8.741 0.732005 15.258 4.73701 19.263C6.23335 20.7532 8.15151 21.7475 10.2317 22.1113C12.3119 22.4751 14.4537 22.1909 16.367 21.297C16.4561 21.2551 16.5526 21.2312 16.6509 21.2266C16.7493 21.222 16.8476 21.2368 16.9402 21.2702C17.0328 21.3035 17.118 21.3548 17.1908 21.4211C17.2636 21.4874 17.3226 21.5674 17.3645 21.6565C17.4064 21.7456 17.4303 21.8421 17.4349 21.9404C17.4395 22.0388 17.4247 22.1371 17.3913 22.2297C17.358 22.3223 17.3067 22.4075 17.2404 22.4803C17.1741 22.5531 17.0941 22.6121 17.005 22.654C15.4437 23.3871 13.7399 23.7668 12.015 23.766" fill="#292830"/>
</svg>
