<svg width="24" height="24" viewBox="0 0 24 24" fill="none" xmlns="http://www.w3.org/2000/svg">
<path d="M20.323 3.66799C24.913 8.25799 24.913 15.725 20.323 20.315C20.2534 20.3846 20.1708 20.4398 20.0798 20.4775C19.9889 20.5151 19.8914 20.5345 19.793 20.5345C19.6946 20.5345 19.5971 20.5151 19.5062 20.4775C19.4152 20.4398 19.3326 20.3846 19.263 20.315C19.1934 20.2454 19.1382 20.1628 19.1005 20.0718C19.0628 19.9809 19.0435 19.8834 19.0435 19.785C19.0435 19.6866 19.0628 19.5891 19.1005 19.4982C19.1382 19.4072 19.1934 19.3246 19.263 19.255C23.268 15.25 23.268 8.733 19.263 4.72799C15.259 0.722995 8.742 0.722995 4.737 4.72799C0.731997 8.733 0.731997 15.25 4.736 19.255C6.23246 20.7457 8.15105 21.7402 10.2317 22.1039C12.3124 22.4675 14.4546 22.1827 16.368 21.288C16.5462 21.2154 16.7455 21.214 16.9247 21.2841C17.1039 21.3542 17.2494 21.4904 17.3311 21.6646C17.4129 21.8388 17.4246 22.0378 17.3639 22.2204C17.3032 22.403 17.1747 22.5553 17.005 22.646C15.4437 23.3793 13.7399 23.7589 12.015 23.758C8.951 23.758 5.928 22.568 3.677 20.315C-0.913003 15.725 -0.913003 8.25799 3.677 3.66799C8.267 -0.922006 15.733 -0.922006 20.323 3.66799ZM15.34 9.86999C15.949 9.86999 16.36 10.033 16.697 10.282C16.79 10.352 16.871 10.479 16.871 10.636C16.8709 10.6935 16.8594 10.7504 16.8371 10.8035C16.8149 10.8565 16.7824 10.9046 16.7415 10.9451C16.7006 10.9855 16.6521 11.0174 16.5988 11.0391C16.5455 11.0607 16.4885 11.0715 16.431 11.071C16.3352 11.0699 16.242 11.0396 16.164 10.984C15.914 10.798 15.654 10.694 15.334 10.694C14.65 10.694 14.157 11.262 14.157 11.958V11.97C14.157 12.666 14.638 13.246 15.334 13.246C15.711 13.246 15.961 13.13 16.216 12.927C16.2907 12.8638 16.3852 12.8287 16.483 12.828C16.709 12.828 16.9 13.014 16.9 13.24C16.9 13.38 16.83 13.49 16.75 13.56C16.384 13.878 15.955 14.07 15.305 14.07C14.11 14.07 13.223 13.147 13.223 11.982V11.97C13.223 10.816 14.093 9.86999 15.34 9.86999ZM19.667 9.86999C20.92 9.86999 21.819 10.804 21.819 11.958V11.97C21.819 13.124 20.908 14.07 19.655 14.07C18.402 14.07 17.503 13.136 17.503 11.982V11.97C17.503 10.816 18.414 9.86999 19.667 9.86999ZM4.4 9.90499C4.65 9.90499 4.847 10.102 4.847 10.352V12.596C4.847 13.078 4.707 13.437 4.464 13.681C4.214 13.931 3.849 14.058 3.408 14.058C2.944 14.058 2.591 13.901 2.335 13.704C2.28347 13.6629 2.24168 13.611 2.21264 13.5518C2.18359 13.4927 2.168 13.4279 2.167 13.362C2.16548 13.2813 2.18705 13.2019 2.22917 13.1331C2.27129 13.0643 2.3322 13.009 2.40473 12.9737C2.47725 12.9384 2.55836 12.9246 2.6385 12.9338C2.71863 12.9431 2.79444 12.9751 2.857 13.026C3.037 13.159 3.194 13.229 3.397 13.229C3.745 13.229 3.954 13.026 3.954 12.556V10.352C3.954 10.102 4.151 9.90499 4.4 9.90499ZM12.34 9.93999C12.567 9.93999 12.752 10.126 12.752 10.352C12.7517 10.4612 12.7082 10.5658 12.631 10.643C12.5538 10.7202 12.4492 10.7637 12.34 10.764H11.482V13.588C11.482 13.838 11.285 14.035 11.035 14.035C10.9762 14.0354 10.918 14.0241 10.8636 14.0018C10.8093 13.9794 10.7599 13.9465 10.7184 13.9049C10.6769 13.8633 10.6441 13.8139 10.6218 13.7594C10.5996 13.705 10.5885 13.6468 10.589 13.588V10.764H9.73C9.62098 10.7635 9.5166 10.7199 9.43961 10.6427C9.36261 10.5655 9.31926 10.461 9.319 10.352C9.319 10.126 9.504 9.93999 9.73 9.93999H12.34ZM8.454 9.93999C8.674 9.93999 8.854 10.12 8.854 10.34C8.854 10.56 8.674 10.735 8.454 10.735H6.644V11.558H8.194C8.414 11.558 8.594 11.738 8.594 11.958C8.594 12.178 8.414 12.353 8.194 12.353H6.644V13.205H8.484C8.704 13.205 8.884 13.385 8.884 13.605C8.884 13.826 8.704 14 8.484 14H6.204C6.14515 14.0005 6.08678 13.9893 6.03231 13.9671C5.97783 13.9448 5.92835 13.9119 5.88673 13.8703C5.84512 13.8286 5.81221 13.7792 5.78994 13.7247C5.76766 13.6702 5.75646 13.6118 5.757 13.553V10.387C5.757 10.137 5.955 9.93999 6.204 9.93999H8.454ZM19.654 10.694C18.935 10.694 18.436 11.262 18.436 11.958V11.97C18.436 12.666 18.946 13.246 19.666 13.246C20.385 13.246 20.884 12.678 20.884 11.982V11.97C20.884 11.274 20.374 10.694 19.654 10.694Z" fill="#292830"/>
</svg>
