<svg width="24" height="24" viewBox="0 0 24 24" fill="none" xmlns="http://www.w3.org/2000/svg">
<path d="M17.326 14.02C16.9324 13.5012 16.5961 12.9412 16.323 12.35H18.328C18.0552 12.9412 17.7193 13.5011 17.326 14.02ZM20.039 10.85H18.076V10.153C18.076 9.95408 17.997 9.76332 17.8563 9.62266C17.7157 9.48201 17.5249 9.40299 17.326 9.40299C17.1271 9.40299 16.9363 9.48201 16.7957 9.62266C16.655 9.76332 16.576 9.95408 16.576 10.153V10.85H14.61C14.4111 10.85 14.2203 10.929 14.0797 11.0697C13.939 11.2103 13.86 11.4011 13.86 11.6C13.86 11.7989 13.939 11.9897 14.0797 12.1303C14.2203 12.271 14.4111 12.35 14.61 12.35H14.703C14.894 12.902 15.347 13.96 16.317 15.18C15.907 15.59 15.429 16.01 14.868 16.42C14.7075 16.5377 14.6004 16.7144 14.5702 16.9111C14.5401 17.1079 14.5892 17.3085 14.707 17.469C14.8248 17.6294 15.0014 17.7366 15.1982 17.7667C15.3949 17.7969 15.5955 17.7477 15.756 17.63C16.3113 17.2236 16.8357 16.7767 17.325 16.293C17.775 16.738 18.29 17.189 18.894 17.631C19.0545 17.7486 19.2551 17.7977 19.4517 17.7674C19.6483 17.7371 19.8249 17.6299 19.9425 17.4695C20.0601 17.309 20.1092 17.1084 20.0789 16.9118C20.0486 16.7152 19.9415 16.5386 19.781 16.421C19.2664 16.0454 18.7816 15.6305 18.331 15.18C19.301 13.96 19.755 12.902 19.945 12.35H20.038C20.2369 12.35 20.4277 12.271 20.5683 12.1303C20.709 11.9897 20.788 11.7989 20.788 11.6C20.788 11.4011 20.709 11.2103 20.5683 11.0697C20.4277 10.929 20.2369 10.85 20.038 10.85H20.039ZM21.884 20.794C21.884 21.506 21.305 22.084 20.594 22.084H11.416C11.325 22.084 11.241 22.054 11.156 22.035L13.603 18.77C13.64 18.723 13.655 18.666 13.678 18.613C13.692 18.581 13.714 18.552 13.723 18.517C13.7517 18.4187 13.7592 18.3154 13.745 18.214V18.212L11.905 5.62699H20.595C21.305 5.62699 21.885 6.20599 21.885 6.91699V20.795L21.884 20.794ZM11.504 19.07L10.132 20.901L9.927 19.071H11.504V19.07ZM2.117 16.28V3.20599C2.117 2.49599 2.695 1.91599 3.407 1.91599H8.73201C9.368 1.91599 9.916 2.38999 10.009 3.01899L12.136 17.572H3.406C2.694 17.572 2.116 16.992 2.116 16.282L2.117 16.28ZM20.595 4.12699H11.687L11.493 2.80199C11.3931 2.14023 11.0599 1.53597 10.5536 1.09827C10.0473 0.660558 9.40126 0.418224 8.73201 0.414993H3.407C2.66721 0.415523 1.95787 0.709639 1.43476 1.23275C0.91165 1.75586 0.617534 2.4652 0.617004 3.20499V16.28C0.617799 17.0197 0.911999 17.7289 1.43505 18.2519C1.95811 18.775 2.66729 19.0692 3.407 19.07H8.417L8.64501 21.105C8.72059 21.787 9.0451 22.4171 9.5564 22.8747C10.0677 23.3323 10.7298 23.5852 11.416 23.585H20.594C21.3336 23.5839 22.0427 23.2896 22.5657 22.7667C23.0887 22.2437 23.3829 21.5346 23.384 20.795V6.91499C23.3829 6.17536 23.0887 5.46633 22.5657 4.94333C22.0427 4.42034 21.3336 4.12605 20.594 4.12499L20.595 4.12699ZM5.715 10.295L6.25 7.51699C6.295 7.29099 6.68 7.29099 6.723 7.51699L7.261 10.295H5.715ZM6.487 5.82199C5.654 5.82199 4.936 6.41599 4.779 7.23199L3.634 13.159C3.61527 13.2557 3.61577 13.3552 3.63549 13.4517C3.6552 13.5482 3.69374 13.6399 3.7489 13.7216C3.80406 13.8032 3.87477 13.8731 3.95697 13.9274C4.03918 13.9817 4.13128 14.0193 4.228 14.038C4.4233 14.0739 4.62486 14.0314 4.78915 13.9199C4.95343 13.8084 5.06725 13.6367 5.106 13.442L5.425 11.795H7.55L7.867 13.442C7.9104 13.6318 8.02581 13.7973 8.1889 13.9037C8.35199 14.01 8.55001 14.0489 8.7412 14.0121C8.93239 13.9752 9.10179 13.8656 9.21369 13.7062C9.32559 13.5469 9.37124 13.3503 9.341 13.158L8.195 7.23199C8.118 6.83536 7.90552 6.47783 7.59393 6.22061C7.28235 5.96339 6.89104 5.82247 6.487 5.82199Z" fill="#292830"/>
</svg>
