<svg width="24" height="24" viewBox="0 0 24 24" fill="none" xmlns="http://www.w3.org/2000/svg">
<path d="M21.643 16.388C21.5814 16.676 21.4226 16.9341 21.1931 17.1188C20.9636 17.3034 20.6775 17.4034 20.383 17.402H17.617C17.3232 17.4004 17.0385 17.2992 16.8095 17.1151C16.5805 16.931 16.4206 16.6747 16.356 16.388L16.108 15.255H21.892L21.642 16.388H21.643ZM21.721 13.755H16.273L18.98 6.81599L21.72 13.755H21.721ZM12 5.77199C11.7561 5.76404 11.5249 5.66157 11.3552 5.48625C11.1855 5.31092 11.0907 5.07649 11.0907 4.83249C11.0907 4.5885 11.1855 4.35406 11.3552 4.17874C11.5249 4.00342 11.7561 3.90095 12 3.89299C12.2439 3.90095 12.4751 4.00342 12.6448 4.17874C12.8145 4.35406 12.9093 4.5885 12.9093 4.83249C12.9093 5.07649 12.8145 5.31092 12.6448 5.48625C12.4751 5.66157 12.2439 5.76404 12 5.77199ZM7.643 16.388C7.58143 16.676 7.42255 16.9341 7.19308 17.1188C6.96361 17.3034 6.67755 17.4034 6.383 17.402H3.617C3.32315 17.4004 3.03851 17.2992 2.80951 17.1151C2.58051 16.931 2.42065 16.6747 2.356 16.388L2.108 15.255H7.892L7.642 16.388H7.643ZM4.98 6.81599L7.72 13.755H2.274L4.981 6.81599H4.98ZM23.554 14.414C23.549 14.371 23.544 14.33 23.532 14.289C23.526 14.269 23.529 14.249 23.521 14.23L20.011 5.34199H21.224C21.4229 5.34199 21.6137 5.26298 21.7543 5.12232C21.895 4.98167 21.974 4.79091 21.974 4.59199C21.974 4.39308 21.895 4.20232 21.7543 4.06166C21.6137 3.92101 21.4229 3.84199 21.224 3.84199H14.224C14.084 3.53142 13.8805 3.25361 13.6267 3.02643C13.3728 2.79926 13.0742 2.62777 12.75 2.52299V1.17799C12.75 0.979081 12.671 0.788316 12.5303 0.647664C12.3897 0.507011 12.1989 0.427994 12 0.427994C11.8011 0.427994 11.6103 0.507011 11.4697 0.647664C11.329 0.788316 11.25 0.979081 11.25 1.17799V2.52299C10.9257 2.62776 10.627 2.79924 10.3729 3.0264C10.1189 3.25357 9.91522 3.53139 9.775 3.84199H2.775C2.57609 3.84199 2.38532 3.92101 2.24467 4.06166C2.10402 4.20232 2.025 4.39308 2.025 4.59199C2.025 4.79091 2.10402 4.98167 2.24467 5.12232C2.38532 5.26298 2.57609 5.34199 2.775 5.34199H3.945L0.478003 14.233C0.471003 14.251 0.474003 14.271 0.468003 14.29C0.457118 14.3313 0.449759 14.3734 0.446003 14.416C0.43717 14.479 0.436834 14.5429 0.445003 14.606C0.448003 14.626 0.440003 14.646 0.444003 14.666L0.893003 16.709C1.03181 17.3291 1.37696 17.8837 1.87199 18.282C2.36701 18.6804 2.98259 18.899 3.618 18.902H6.384C7.684 18.902 8.83 17.98 9.109 16.709L9.557 14.666C9.561 14.645 9.554 14.625 9.557 14.605C9.56433 14.5415 9.56366 14.4773 9.555 14.414C9.55 14.371 9.545 14.33 9.533 14.289C9.527 14.269 9.53 14.249 9.522 14.23L6.012 5.34199H9.616C9.70735 5.75879 9.9064 6.14434 10.1933 6.46018C10.4802 6.77603 10.8449 7.01112 11.251 7.14199V22.073H7.028C6.82909 22.073 6.63832 22.152 6.49767 22.2927C6.35702 22.4333 6.278 22.6241 6.278 22.823C6.278 23.0219 6.35702 23.2127 6.49767 23.3533C6.63832 23.494 6.82909 23.573 7.028 23.573H16.97C17.1689 23.573 17.3597 23.494 17.5003 23.3533C17.641 23.2127 17.72 23.0219 17.72 22.823C17.72 22.6241 17.641 22.4333 17.5003 22.2927C17.3597 22.152 17.1689 22.073 16.97 22.073H12.749V7.14199C13.155 7.01115 13.5196 6.77605 13.8064 6.46019C14.0931 6.14432 14.2919 5.75876 14.383 5.34199H17.945L14.475 14.233C14.469 14.251 14.472 14.271 14.465 14.29C14.4545 14.3313 14.4474 14.3735 14.444 14.416C14.4352 14.479 14.4348 14.5429 14.443 14.606C14.446 14.626 14.438 14.646 14.442 14.666L14.891 16.709C15.0298 17.3291 15.375 17.8837 15.87 18.282C16.365 18.6804 16.9806 18.899 17.616 18.902H20.382C21.682 18.902 22.828 17.98 23.107 16.709L23.555 14.666C23.559 14.645 23.552 14.625 23.555 14.605C23.5623 14.5415 23.5617 14.4773 23.553 14.414H23.554Z" fill="#292830"/>
</svg>
