<svg width="24" height="24" viewBox="0 0 24 24" fill="none" xmlns="http://www.w3.org/2000/svg">
<g clip-path="url(#clip0)">
<path d="M19.976 5.904L5.90401 19.976C5.85901 20.02 5.83401 20.074 5.80401 20.126C5.34601 19.799 4.91001 19.436 4.50301 19.029C4.12584 18.6459 3.77912 18.234 3.46601 17.797C3.51901 17.765 3.57601 17.739 3.62101 17.695L17.694 3.622C17.74 3.576 17.766 3.519 17.798 3.467C18.226 3.779 18.643 4.117 19.03 4.503C19.439 4.912 19.795 5.353 20.12 5.807C20.071 5.838 20.018 5.861 19.977 5.903L19.976 5.904ZM4.50401 4.503C7.75401 1.253 12.656 0.641003 16.53 2.666L2.66501 16.529C0.641012 12.655 1.25401 7.753 4.50301 4.503H4.50401ZM20.09 3.443C15.5 -1.147 8.03301 -1.147 3.44201 3.443C-1.14799 8.033 -1.14799 15.5 3.44201 20.091C5.65604 22.2981 8.65581 23.5358 11.782 23.532C13.475 23.532 15.178 23.169 16.77 22.422C16.8616 22.3818 16.9442 22.3237 17.013 22.2511C17.0818 22.1784 17.1354 22.0928 17.1706 21.9992C17.2058 21.9055 17.2219 21.8058 17.218 21.7059C17.2141 21.6059 17.1902 21.5077 17.1478 21.4171C17.1054 21.3266 17.0452 21.2454 16.971 21.1784C16.8967 21.1114 16.8098 21.0599 16.7153 21.027C16.6208 20.9941 16.5207 20.9804 16.4209 20.9868C16.3211 20.9931 16.2235 21.0194 16.134 21.064C14.7144 21.7274 13.1621 22.0581 11.5954 22.0309C10.0286 22.0037 8.48874 21.6193 7.09301 20.907L20.909 7.091C22.878 10.951 22.255 15.804 19.029 19.029C18.8923 19.1704 18.8166 19.3598 18.8183 19.5565C18.8199 19.7531 18.8987 19.9413 19.0376 20.0804C19.1766 20.2195 19.3647 20.2985 19.5614 20.3003C19.758 20.3021 19.9475 20.2266 20.089 20.09C24.679 15.5 24.679 8.033 20.089 3.442" fill="#292830"/>
</g>
<defs>
<clipPath id="clip0">
<rect width="24" height="24" fill="white"/>
</clipPath>
</defs>
</svg>
