<svg width="24" height="24" viewBox="0 0 24 24" fill="none" xmlns="http://www.w3.org/2000/svg">
<g clip-path="url(#clip0)">
<path d="M8.693 1.58399C8.76448 1.52973 8.85176 1.50036 8.9415 1.50036C9.03124 1.50036 9.11852 1.52973 9.19 1.58399L9.344 1.70299C9.68984 1.96724 10.1153 2.10587 10.5505 2.09605C10.9856 2.08624 11.4044 1.92857 11.738 1.64899C11.8113 1.5871 11.9041 1.55314 12 1.55314C12.0959 1.55314 12.1887 1.5871 12.262 1.64899C12.5956 1.92857 13.0144 2.08624 13.4495 2.09605C13.8847 2.10587 14.3102 1.96724 14.656 1.70299L14.811 1.58299C14.8821 1.52834 14.9693 1.49871 15.059 1.49871C15.1487 1.49871 15.2359 1.52834 15.307 1.58299L15.642 1.84199L13.984 4.29199H9.7L8.318 1.87499L8.693 1.58499V1.58399ZM21.393 16.337V10.99C21.393 7.59299 18.93 4.78399 15.752 4.35599L17.279 2.09899C17.3862 1.94087 17.429 1.7478 17.3988 1.55918C17.3685 1.37055 17.2673 1.2006 17.116 1.08399L16.222 0.395995C15.8886 0.139428 15.4797 0.000312094 15.059 0.000312094C14.6383 0.000312094 14.2294 0.139428 13.896 0.395995L13.74 0.514995C13.6666 0.571953 13.5758 0.601859 13.4829 0.599673C13.39 0.597487 13.3007 0.563343 13.23 0.502995C12.8862 0.212038 12.4504 0.0523757 12 0.0523757C11.5496 0.0523757 11.1138 0.212038 10.77 0.502995C10.6992 0.563422 10.6097 0.597605 10.5166 0.59979C10.4236 0.601976 10.3326 0.572031 10.259 0.514995L10.105 0.394995C9.77136 0.138507 9.36233 -0.000549316 8.9415 -0.000549316C8.52067 -0.000549316 8.11163 0.138507 7.778 0.394995L6.884 1.08399C6.74065 1.19459 6.64214 1.35332 6.60667 1.53087C6.5712 1.70842 6.60115 1.8928 6.691 2.04999L8.028 4.38999C4.957 4.91699 2.606 7.672 2.606 10.99V16.736C2.606 18.125 2.07 19.432 1.546 20.528C1.36119 20.9154 1.28514 21.3457 1.326 21.773C1.435 22.956 2.476 23.883 3.696 23.883H15.83C16.0289 23.883 16.2197 23.804 16.3603 23.6633C16.501 23.5227 16.58 23.3319 16.58 23.133C16.58 22.9341 16.501 22.7433 16.3603 22.6027C16.2197 22.462 16.0289 22.383 15.83 22.383H3.697C3.252 22.383 2.857 22.048 2.82 21.635C2.8041 21.4772 2.83177 21.3181 2.9 21.175C3.496 19.928 4.106 18.425 4.106 16.735V10.99C4.106 8.125 6.341 5.79299 9.089 5.79299H14.911C17.659 5.79299 19.894 8.125 19.894 10.99V16.337C19.894 17.827 20.336 19.354 21.284 21.142C21.3872 21.341 21.4121 21.5715 21.354 21.788C21.27 22.132 20.932 22.383 20.552 22.383H18.912C18.7131 22.383 18.5223 22.462 18.3817 22.6027C18.241 22.7433 18.162 22.9341 18.162 23.133C18.162 23.3319 18.241 23.5227 18.3817 23.6633C18.5223 23.804 18.7131 23.883 18.912 23.883H20.552C21.631 23.883 22.56 23.168 22.811 22.146C22.9569 21.5714 22.8853 20.9631 22.61 20.438C21.78 18.876 21.394 17.572 21.394 16.337H21.393ZM12.01 19.56C11.8243 19.5597 11.6462 19.4858 11.515 19.3543C11.3837 19.2229 11.31 19.0447 11.31 18.859V18.707L11.165 18.61C9.948 18.266 9.1 17.202 9.1 16.022C9.11165 15.8441 9.19051 15.6774 9.3206 15.5555C9.45069 15.4337 9.62226 15.3659 9.8005 15.3659C9.97874 15.3659 10.1503 15.4337 10.2804 15.5555C10.4105 15.6774 10.4894 15.8441 10.501 16.022C10.501 16.741 11.177 17.326 12.009 17.326C12.841 17.326 13.518 16.741 13.518 16.022C13.518 15.303 12.841 14.718 12.009 14.718C10.405 14.718 9.1 13.505 9.1 12.014C9.1 10.834 9.948 9.77 11.163 9.427L11.309 9.38599V9.099C11.309 8.91321 11.3828 8.73504 11.5142 8.60367C11.6455 8.4723 11.8237 8.3985 12.0095 8.3985C12.1953 8.3985 12.3735 8.4723 12.5048 8.60367C12.6362 8.73504 12.71 8.91321 12.71 9.099V9.38599L12.856 9.427C14.071 9.771 14.918 10.834 14.918 12.014C14.9084 12.1932 14.8305 12.3619 14.7003 12.4853C14.57 12.6088 14.3974 12.6776 14.218 12.6776C14.0386 12.6776 13.866 12.6088 13.7357 12.4853C13.6055 12.3619 13.5276 12.1932 13.518 12.014C13.518 11.295 12.841 10.71 12.009 10.71C11.177 10.71 10.501 11.295 10.501 12.014C10.501 12.733 11.177 13.318 12.009 13.318C13.613 13.318 14.918 14.531 14.918 16.022C14.918 17.202 14.071 18.266 12.856 18.611L12.71 18.652V18.803C12.71 19.247 12.396 19.561 12.009 19.561" fill="#292830"/>
</g>
<defs>
<clipPath id="clip0">
<rect width="24" height="24" fill="white"/>
</clipPath>
</defs>
</svg>
