<svg width="24" height="24" viewBox="0 0 24 24" fill="none" xmlns="http://www.w3.org/2000/svg">
<path d="M14.375 9.15601C14.3742 9.78556 14.1237 10.3891 13.6784 10.8342C13.2332 11.2792 12.6295 11.5295 12 11.53C11.3706 11.5292 10.7672 11.2788 10.3222 10.8338C9.87716 10.3888 9.62678 9.78539 9.62599 9.15601C9.62678 8.52663 9.87716 7.92325 10.3222 7.47821C10.7672 7.03317 11.3706 6.7828 12 6.78201C12.6294 6.7828 13.2327 7.03317 13.6778 7.47821C14.1228 7.92325 14.3732 8.52663 14.374 9.15601H14.375ZM15.874 9.15601C15.8727 8.12896 15.4641 7.14436 14.7379 6.41814C14.0116 5.69191 13.027 5.28333 12 5.28201C10.9729 5.28333 9.98835 5.69191 9.26212 6.41814C8.53589 7.14436 8.12731 8.12896 8.12599 9.15601C8.12731 10.183 8.53589 11.1676 9.26212 11.8939C9.98835 12.6201 10.9729 13.0287 12 13.03C13.027 13.0287 14.0116 12.6201 14.7379 11.8939C15.4641 11.1676 15.8727 10.183 15.874 9.15601ZM12 23.884C11.47 23.884 10.97 23.65 10.63 23.241C8.26999 20.395 2.76999 13.344 2.76999 9.34601C2.76999 4.25601 6.90999 0.115005 12 0.115005C17.09 0.115005 21.232 4.25501 21.232 9.34501C21.232 11.008 20.304 13.342 18.472 16.284C18.3628 16.4439 18.196 16.5554 18.0065 16.5953C17.817 16.6352 17.6194 16.6003 17.455 16.498C17.2906 16.3956 17.1721 16.2338 17.1242 16.0461C17.0763 15.8585 17.1027 15.6596 17.198 15.491C19.293 12.128 19.732 10.293 19.732 9.34601C19.732 5.08301 16.264 1.61501 12.001 1.61501C7.73799 1.61501 4.26999 5.08301 4.26999 9.34501C4.26999 12.954 10.023 20.16 11.786 22.282C11.933 22.459 12.07 22.459 12.215 22.282C13.2114 21.0832 14.1702 19.8536 15.09 18.595C15.148 18.5154 15.2212 18.4481 15.3053 18.3967C15.3893 18.3454 15.4827 18.3112 15.58 18.296C15.6773 18.2807 15.7767 18.2848 15.8724 18.308C15.9682 18.3312 16.0584 18.373 16.138 18.431C16.2176 18.489 16.2849 18.5622 16.3363 18.6463C16.3876 18.7304 16.4218 18.8237 16.437 18.921C16.4523 19.0184 16.4482 19.1177 16.425 19.2135C16.4018 19.3092 16.36 19.3994 16.302 19.479C15.3637 20.763 14.3859 22.0176 13.37 23.241C13.03 23.65 12.53 23.884 12 23.884Z" fill="#292830"/>
</svg>
