<svg width="24" height="24" viewBox="0 0 24 24" fill="none" xmlns="http://www.w3.org/2000/svg">
<g clip-path="url(#clip0)">
<path d="M12 13.441C12.199 13.441 12.3899 13.5201 12.5307 13.6608C12.6714 13.8016 12.7505 13.9924 12.7505 14.1915C12.7505 14.3905 12.6714 14.5814 12.5307 14.7222C12.3899 14.8629 12.199 14.942 12 14.942C11.8011 14.942 11.6103 14.863 11.4697 14.7223C11.329 14.5817 11.25 14.3909 11.25 14.192C11.25 13.9931 11.329 13.8023 11.4697 13.6617C11.6103 13.521 11.8011 13.442 12 13.442V13.441ZM12 18.526C12.1989 18.526 12.3897 18.447 12.5303 18.3063C12.671 18.1657 12.75 17.9749 12.75 17.776V16.303C13.1874 16.1488 13.5664 15.863 13.835 15.4849C14.1035 15.1068 14.2485 14.6548 14.25 14.191C14.2495 13.5944 14.0122 13.0224 13.5904 12.6006C13.1686 12.1787 12.5966 11.9415 12 11.941C11.4034 11.9415 10.8314 12.1787 10.4096 12.6006C9.98774 13.0224 9.75052 13.5944 9.74999 14.191C9.74999 15.168 10.379 15.992 11.25 16.303V17.776C11.25 18.192 11.586 18.526 12 18.526ZM8.20199 5.30499C8.20331 4.2989 8.60356 3.3344 9.31498 2.62299C10.0264 1.91157 10.9909 1.51132 11.997 1.50999C13.0031 1.51132 13.9676 1.91157 14.679 2.62299C15.3904 3.3344 15.7907 4.2989 15.792 5.30499V6.98399H8.20199V5.30399V5.30499ZM19.2 6.98399H17.292V5.30399C17.2901 3.90033 16.7316 2.55471 15.739 1.56226C14.7464 0.569819 13.4006 0.011582 11.997 0.00999451C10.5931 0.0113183 9.24704 0.569608 8.25432 1.56233C7.2616 2.55504 6.70331 3.90108 6.70199 5.30499V6.98499H4.79999C4.07089 6.98579 3.37187 7.27577 2.85632 7.79133C2.34077 8.30688 2.05078 9.00589 2.04999 9.73499V21.255C2.05105 21.984 2.34112 22.6829 2.85661 23.1984C3.37211 23.7139 4.07097 24.0039 4.79999 24.005H14.19C14.3889 24.005 14.5797 23.926 14.7203 23.7853C14.861 23.6447 14.94 23.4539 14.94 23.255C14.94 23.0561 14.861 22.8653 14.7203 22.7247C14.5797 22.584 14.3889 22.505 14.19 22.505H4.79999C4.10999 22.505 3.54999 21.945 3.54999 21.255V9.73299C3.54999 9.04299 4.10999 8.48299 4.79999 8.48299H19.2C19.89 8.48299 20.45 9.04299 20.45 9.73299V21.253C20.45 21.943 19.89 22.503 19.2 22.503H18.017C17.8181 22.503 17.6273 22.582 17.4867 22.7227C17.346 22.8633 17.267 23.0541 17.267 23.253C17.267 23.4519 17.346 23.6427 17.4867 23.7833C17.6273 23.924 17.8181 24.003 18.017 24.003H19.2C19.929 24.0019 20.6279 23.7119 21.1434 23.1964C21.6589 22.6809 21.9489 21.982 21.95 21.253V9.73299C21.9492 9.00389 21.6592 8.30488 21.1437 7.78933C20.6281 7.27377 19.9291 6.98379 19.2 6.98299V6.98399Z" fill="#292830"/>
</g>
<defs>
<clipPath id="clip0">
<rect width="24" height="24" fill="white"/>
</clipPath>
</defs>
</svg>
