<svg width="24" height="24" viewBox="0 0 24 24" fill="none" xmlns="http://www.w3.org/2000/svg">
<path d="M15.826 6.125L17.325 3.528C17.4229 3.35583 17.4487 3.15193 17.3968 2.9608C17.3449 2.76967 17.2195 2.60682 17.048 2.50779C16.8765 2.40877 16.6728 2.3816 16.4813 2.43222C16.2898 2.48284 16.1262 2.60715 16.026 2.778L14.527 5.375C14.4291 5.54717 14.4033 5.75107 14.4552 5.9422C14.5071 6.13333 14.6325 6.29618 14.804 6.39521C14.9755 6.49423 15.1792 6.5214 15.3707 6.47078C15.5622 6.42016 15.7258 6.29586 15.826 6.125ZM9.261 6.399C9.43303 6.29946 9.55852 6.1357 9.6099 5.9437C9.66127 5.7517 9.63433 5.54715 9.535 5.375L8.036 2.778C7.93654 2.60574 7.77273 2.48005 7.5806 2.42857C7.38847 2.37709 7.18376 2.40404 7.0115 2.5035C6.83924 2.60296 6.71355 2.76677 6.66207 2.9589C6.61059 3.15103 6.63754 3.35574 6.737 3.528L8.236 6.125C8.33573 6.2971 8.49967 6.42261 8.69183 6.47398C8.884 6.52535 9.08869 6.49838 9.261 6.399ZM12.781 4.347V1.75C12.781 1.55109 12.702 1.36032 12.5613 1.21967C12.4207 1.07902 12.2299 1 12.031 1C11.8321 1 11.6413 1.07902 11.5007 1.21967C11.36 1.36032 11.281 1.55109 11.281 1.75V4.347C11.281 4.54591 11.36 4.73668 11.5007 4.87733C11.6413 5.01798 11.8321 5.097 12.031 5.097C12.2299 5.097 12.4207 5.01798 12.5613 4.87733C12.702 4.73668 12.781 4.54591 12.781 4.347ZM23.187 21.35V17.079C23.187 15.932 22.457 14.225 20.443 14.225H16.394C16.1951 14.225 16.0043 14.304 15.8637 14.4447C15.723 14.5853 15.644 14.7761 15.644 14.975C15.644 15.1739 15.723 15.3647 15.8637 15.5053C16.0043 15.646 16.1951 15.725 16.394 15.725H20.443C21.579 15.725 21.682 16.765 21.687 17.079V21.349C21.687 21.5479 21.766 21.7387 21.9067 21.8793C22.0473 22.02 22.2381 22.099 22.437 22.099C22.6359 22.099 22.8267 22.02 22.9673 21.8793C23.108 21.7387 23.187 21.5479 23.187 21.349V21.35ZM18.38 9.073C18.1393 9.07241 17.9021 9.13128 17.6896 9.24439C17.477 9.35749 17.2957 9.52133 17.1618 9.72134C17.0278 9.92136 16.9453 10.1514 16.9215 10.3909C16.8978 10.6305 16.9336 10.8722 17.0258 11.0946C17.1179 11.3171 17.2636 11.5133 17.4498 11.6658C17.636 11.8184 17.857 11.9227 18.0932 11.9693C18.3294 12.0159 18.5735 12.0035 18.8037 11.9332C19.0339 11.8628 19.2432 11.7367 19.413 11.566C19.6862 11.2916 19.8396 10.9202 19.8396 10.533C19.8396 10.1458 19.6862 9.77437 19.413 9.5C19.2774 9.36429 19.1164 9.2567 18.9391 9.18342C18.7618 9.11014 18.5718 9.07262 18.38 9.073ZM18.38 13.493C17.9911 13.4936 17.606 13.4174 17.2467 13.2688C16.8873 13.1202 16.5609 12.9021 16.286 12.627C15.7318 12.071 15.4206 11.318 15.4206 10.533C15.4206 9.74797 15.7318 8.99496 16.286 8.439C16.8418 7.88483 17.5946 7.57364 18.3795 7.57364C19.1644 7.57364 19.9172 7.88483 20.473 8.439C21.0277 8.99471 21.3393 9.74781 21.3393 10.533C21.3393 11.3182 21.0277 12.0713 20.473 12.627C20.1984 12.9021 19.8721 13.1202 19.5129 13.2688C19.1537 13.4174 18.7687 13.4936 18.38 13.493ZM16.8 22.779V18.509C16.8 17.361 16.069 15.654 14.055 15.654H10.008C8.904 15.654 7.263 16.414 7.263 18.509V22.779C7.263 22.8775 7.2824 22.975 7.32009 23.066C7.35778 23.157 7.41303 23.2397 7.48267 23.3093C7.55231 23.379 7.63499 23.4342 7.72599 23.4719C7.81698 23.5096 7.91451 23.529 8.013 23.529C8.11149 23.529 8.20902 23.5096 8.30001 23.4719C8.39101 23.4342 8.47369 23.379 8.54333 23.3093C8.61297 23.2397 8.66822 23.157 8.70591 23.066C8.7436 22.975 8.763 22.8775 8.763 22.779V18.509C8.763 17.275 9.722 17.159 10.008 17.154H14.055C15.191 17.154 15.295 18.194 15.3 18.509V22.779C15.3 22.9779 15.379 23.1687 15.5197 23.3093C15.6603 23.45 15.8511 23.529 16.05 23.529C16.2489 23.529 16.4397 23.45 16.5803 23.3093C16.721 23.1687 16.8 22.9779 16.8 22.779ZM11.992 10.5C11.7513 10.4994 11.5141 10.5583 11.3016 10.6714C11.089 10.7845 10.9077 10.9483 10.7738 11.1483C10.6398 11.3484 10.5573 11.5784 10.5335 11.8179C10.5098 12.0575 10.5456 12.2992 10.6378 12.5216C10.7299 12.7441 10.8756 12.9403 11.0618 13.0928C11.248 13.2454 11.469 13.3497 11.7052 13.3963C11.9414 13.4429 12.1855 13.4305 12.4157 13.3602C12.6459 13.2898 12.8552 13.1637 13.025 12.993C13.2285 12.7884 13.3669 12.5283 13.4227 12.2452C13.4786 11.9621 13.4495 11.6689 13.3391 11.4023C13.2286 11.1358 13.0418 10.9079 12.8021 10.7473C12.5624 10.5868 12.2805 10.5007 11.992 10.5ZM11.992 14.92C11.6031 14.9206 11.218 14.8444 10.8587 14.6958C10.4993 14.5472 10.1729 14.3291 9.898 14.054C9.34377 13.498 9.03255 12.745 9.03255 11.96C9.03255 11.175 9.34377 10.422 9.898 9.866C10.454 9.31177 11.207 9.00055 11.992 9.00055C12.777 9.00055 13.53 9.31177 14.086 9.866C14.6402 10.422 14.9514 11.175 14.9514 11.96C14.9514 12.745 14.6402 13.498 14.086 14.054C13.8111 14.3291 13.4847 14.5472 13.1253 14.6958C12.766 14.8444 12.3809 14.9206 11.992 14.92ZM2.5 21.35V17.079C2.5 15.846 3.458 15.729 3.744 15.725H7.792C7.99091 15.725 8.18168 15.646 8.32233 15.5053C8.46298 15.3647 8.542 15.1739 8.542 14.975C8.542 14.7761 8.46298 14.5853 8.32233 14.4447C8.18168 14.304 7.99091 14.225 7.792 14.225H3.744C2.64 14.225 1 14.984 1 17.079V21.349C1 21.5479 1.07902 21.7387 1.21967 21.8793C1.36032 22.02 1.55109 22.099 1.75 22.099C1.94891 22.099 2.13968 22.02 2.28033 21.8793C2.42098 21.7387 2.5 21.5479 2.5 21.349V21.35ZM5.729 9.073C5.355 9.073 4.981 9.215 4.696 9.5C4.45676 9.73881 4.30774 10.0532 4.27432 10.3896C4.2409 10.7259 4.32516 11.0635 4.51273 11.3447C4.7003 11.6259 4.97959 11.8334 5.30298 11.9318C5.62638 12.0301 5.97389 12.0133 6.28628 11.8842C6.59867 11.7551 6.85663 11.5216 7.01618 11.2236C7.17573 10.9256 7.22701 10.5815 7.16128 10.2499C7.09555 9.91833 6.91687 9.6198 6.6557 9.4052C6.39453 9.19059 6.06703 9.07319 5.729 9.073ZM5.729 13.493C5.3403 13.4935 4.95533 13.4173 4.59617 13.2687C4.237 13.12 3.91071 12.902 3.636 12.627C3.08128 12.0713 2.76973 11.3182 2.76973 10.533C2.76973 9.74781 3.08128 8.99471 3.636 8.439C4.19179 7.88483 4.94464 7.57364 5.7295 7.57364C6.51436 7.57364 7.26721 7.88483 7.823 8.439C8.37723 8.99496 8.68845 9.74797 8.68845 10.533C8.68845 11.318 8.37723 12.071 7.823 12.627C7.54814 12.9021 7.22168 13.1202 6.86234 13.2688C6.503 13.4174 6.11786 13.4936 5.729 13.493Z" fill="#292830"/>
</svg>
