<svg width="24" height="24" viewBox="0 0 24 24" fill="none" xmlns="http://www.w3.org/2000/svg">
<path fill-rule="evenodd" clip-rule="evenodd" d="M8.18199 4.91C8.64359 4.91081 9.09303 5.05799 9.46569 5.33036C9.83836 5.60274 10.115 5.98628 10.256 6.42583C10.3969 6.86539 10.3948 7.33831 10.25 7.7766C10.1051 8.21488 9.82506 8.59595 9.44999 8.865C9.67599 8.775 9.92199 8.726 10.18 8.726H13.514C12.5733 9.775 12.0539 11.135 12.056 12.544C12.056 14.292 12.839 15.857 14.073 16.908H10.181C9.65056 16.908 9.14185 16.6973 8.76678 16.3222C8.39171 15.9471 8.18099 15.4384 8.18099 14.908V10.726C8.18099 10.061 8 9.63308 8.5 9.26908C8.20159 9.39181 8.38468 9.28574 8.06245 9.26908C7.74022 9.25243 7.4257 9.16452 7.14154 9.01169C6.85737 8.85886 6.61064 8.64491 6.41911 8.38525C6.22757 8.1256 6.09601 7.82669 6.03389 7.51007C5.97177 7.19345 5.98065 6.867 6.05987 6.55422C6.1391 6.24144 6.28671 5.95012 6.49206 5.70125C6.69742 5.45238 6.95541 5.25215 7.24746 5.11499C7.5395 4.97782 7.85834 4.90713 8.18099 4.908L8.18199 4.91ZM13.091 2.727C13.6697 2.727 14.2247 2.95689 14.6339 3.36609C15.0431 3.7753 15.273 4.3303 15.273 4.909C15.273 5.4877 15.0431 6.0427 14.6339 6.45191C14.2247 6.86111 13.6697 7.091 13.091 7.091C12.5123 7.091 11.9573 6.86111 11.5481 6.45191C11.1389 6.0427 10.909 5.4877 10.909 4.909C10.909 4.3303 11.1389 3.7753 11.5481 3.36609C11.9573 2.95689 12.5123 2.727 13.091 2.727Z" fill="url(#paint0_linear)"/>
<path d="M18.269 6C19.0201 6 19.629 5.38932 19.629 4.636C19.629 3.88268 19.0201 3.272 18.269 3.272C17.5179 3.272 16.909 3.88268 16.909 4.636C16.909 5.38932 17.5179 6 18.269 6Z" fill="#FFC700"/>
<path d="M20.99 7.818C21.5423 7.818 21.99 7.37029 21.99 6.818C21.99 6.26572 21.5423 5.818 20.99 5.818C20.4377 5.818 19.99 6.26572 19.99 6.818C19.99 7.37029 20.4377 7.818 20.99 7.818Z" fill="#E11469"/>
<path fill-rule="evenodd" clip-rule="evenodd" d="M10.509 4.909C10.509 3.483 11.665 2.327 13.091 2.327C14.517 2.327 15.673 3.483 15.673 4.909C15.673 6.335 14.517 7.491 13.091 7.491C11.665 7.491 10.509 6.335 10.509 4.909ZM13.091 3.127C12.1068 3.127 11.309 3.92483 11.309 4.909C11.309 5.89317 12.1068 6.691 13.091 6.691C14.0752 6.691 14.873 5.89317 14.873 4.909C14.873 3.92483 14.0752 3.127 13.091 3.127Z" fill="#292830"/>
<path fill-rule="evenodd" clip-rule="evenodd" d="M10.5733 8.064C10.7094 7.72932 10.7748 7.36752 10.7621 7.00169C10.742 6.42146 10.527 5.86493 10.1517 5.42195C9.77638 4.97898 9.26274 4.67542 8.69369 4.56028C8.12465 4.44514 7.5334 4.52515 7.01542 4.78738C6.49744 5.04961 6.08295 5.47877 5.83888 6.00555C5.59481 6.53233 5.53541 7.126 5.67025 7.6907C5.8051 8.25541 6.12633 8.75818 6.58208 9.11785C6.9374 9.39826 7.35832 9.57893 7.80171 9.6449C7.79527 9.70284 7.79201 9.76066 7.79201 9.818V10.247H5.18201C4.10982 10.247 3.42801 11.1698 3.42801 11.999V16.489C3.42801 16.7099 3.6071 16.889 3.82801 16.889C4.04892 16.889 4.22801 16.7099 4.22801 16.489V11.999C4.22801 11.5442 4.6162 11.047 5.18201 11.047H7.79201V16.49C7.79201 16.7109 7.9711 16.89 8.19201 16.89C8.41292 16.89 8.59201 16.7109 8.59201 16.49V9.818C8.59201 9.49973 8.78174 9.16076 9.08824 8.9852C9.09104 8.98374 9.09383 8.98231 9.09663 8.9809C9.16156 8.94802 9.23017 8.92027 9.29941 8.897C9.37668 8.87565 9.4588 8.864 9.54501 8.864H13C13.2209 8.864 13.4 8.68492 13.4 8.464C13.4 8.24309 13.2209 8.064 13 8.064H10.5733ZM9.10714 8.11852C9.26662 8.06925 9.41759 8.03867 9.54222 8.01935C9.60616 8.00943 9.6648 8.00224 9.71614 7.99701C9.88819 7.70561 9.97437 7.37002 9.96257 7.02936C9.94872 6.62891 9.8003 6.24481 9.54128 5.93909C9.28227 5.63336 8.92778 5.42386 8.53504 5.34439C8.14231 5.26493 7.73425 5.32015 7.37676 5.50113C7.01927 5.68211 6.7332 5.9783 6.56476 6.34186C6.39631 6.70543 6.35531 7.11516 6.44837 7.50489C6.54144 7.89463 6.76314 8.24162 7.07769 8.48986C7.34546 8.70118 7.66721 8.83042 8.00418 8.86414L8.20885 8.69702C8.20886 8.69702 8.20885 8.69703 8.20885 8.69702L8.00418 8.86414C8.03492 8.82922 8.07054 8.79007 8.11041 8.74864C8.23141 8.62291 8.4043 8.46259 8.61291 8.33543C8.76073 8.23974 8.92613 8.1651 9.10714 8.11852Z" fill="#292830"/>
<path d="M17.784 17.455C20.4952 17.455 22.693 15.2572 22.693 12.546C22.693 9.83484 20.4952 7.637 17.784 7.637C15.0728 7.637 12.875 9.83484 12.875 12.546C12.875 15.2572 15.0728 17.455 17.784 17.455Z" fill="#FF9800"/>
<path d="M14.745 13.637C14.7513 13.6371 14.7576 13.6359 14.7634 13.6335C14.7693 13.6311 14.7746 13.6275 14.779 13.623C14.7838 13.6185 14.7876 13.6131 14.7902 13.6071C14.7928 13.6011 14.7941 13.5946 14.794 13.588L14.785 11.862C14.785 11.851 14.788 11.844 14.794 11.843C14.799 11.842 14.804 11.845 14.81 11.853L15.87 13.604C15.88 13.626 15.9 13.637 15.927 13.637H16.389C16.3955 13.6372 16.4019 13.6361 16.408 13.6337C16.414 13.6313 16.4194 13.6276 16.424 13.623C16.4286 13.6184 16.4323 13.613 16.4347 13.607C16.4371 13.6009 16.4382 13.5945 16.438 13.588V10.822C16.4381 10.8157 16.4369 10.8094 16.4345 10.8036C16.4321 10.7977 16.4285 10.7924 16.424 10.788C16.4195 10.7832 16.4141 10.7794 16.4081 10.7768C16.4021 10.7742 16.3956 10.7729 16.389 10.773H15.91C15.9036 10.7731 15.8973 10.7744 15.8915 10.777C15.8856 10.7796 15.8803 10.7833 15.876 10.788C15.8713 10.7923 15.8676 10.7976 15.865 10.8035C15.8624 10.8093 15.8611 10.8156 15.861 10.822L15.865 12.541C15.865 12.551 15.863 12.558 15.857 12.559C15.852 12.56 15.847 12.557 15.841 12.549L14.785 10.806C14.775 10.784 14.755 10.773 14.728 10.773H14.266C14.2594 10.7729 14.2529 10.7742 14.2469 10.7768C14.2409 10.7794 14.2355 10.7832 14.231 10.788C14.2265 10.7924 14.2229 10.7977 14.2205 10.8036C14.2181 10.8094 14.2169 10.8157 14.217 10.822V13.588C14.217 13.602 14.222 13.613 14.231 13.623C14.241 13.633 14.252 13.637 14.266 13.637H14.745V13.637ZM17.75 13.67C17.92 13.67 18.075 13.639 18.216 13.578C18.3517 13.5213 18.4712 13.432 18.564 13.318C18.575 13.302 18.58 13.291 18.58 13.285C18.58 13.275 18.574 13.262 18.56 13.248L18.265 12.958C18.255 12.947 18.245 12.942 18.237 12.942C18.223 12.942 18.211 12.95 18.2 12.966C18.1 13.106 17.961 13.176 17.787 13.179C17.569 13.179 17.424 13.102 17.353 12.949C17.3318 12.8966 17.3167 12.8419 17.308 12.786C17.303 12.772 17.308 12.766 17.325 12.766H18.589C18.621 12.766 18.639 12.749 18.642 12.716C18.6478 12.6001 18.6421 12.4838 18.625 12.369C18.6016 12.1293 18.4955 11.9051 18.325 11.735C18.16 11.577 17.941 11.497 17.668 11.497C17.4683 11.4922 17.2724 11.5526 17.11 11.669C16.9529 11.7836 16.8371 11.9461 16.78 12.132C16.74 12.246 16.72 12.378 16.72 12.528C16.72 12.749 16.748 12.928 16.805 13.064C16.875 13.255 16.992 13.404 17.155 13.51C17.317 13.617 17.515 13.67 17.75 13.67V13.67ZM18.032 12.39H17.325C17.311 12.39 17.305 12.382 17.305 12.369C17.3113 12.3247 17.3206 12.281 17.333 12.238C17.387 12.077 17.5 11.997 17.673 11.997C17.763 11.997 17.838 12.019 17.899 12.064C17.9623 12.111 18.0081 12.1779 18.029 12.254L18.049 12.369C18.054 12.382 18.049 12.389 18.032 12.389V12.39ZM19.765 13.637C19.795 13.637 19.815 13.623 19.823 13.597L20.101 12.5C20.104 12.492 20.108 12.487 20.113 12.487C20.119 12.487 20.123 12.492 20.125 12.5L20.44 13.596C20.449 13.623 20.468 13.637 20.498 13.637H20.993C21.02 13.637 21.038 13.623 21.046 13.597L21.643 11.592C21.646 11.575 21.643 11.562 21.637 11.552C21.63 11.543 21.619 11.538 21.602 11.538L21.112 11.53C21.082 11.53 21.062 11.544 21.054 11.571L20.735 12.811C20.732 12.819 20.728 12.823 20.723 12.823C20.717 12.823 20.713 12.819 20.71 12.811L20.387 11.571C20.379 11.544 20.36 11.531 20.33 11.531H19.9C19.87 11.531 19.851 11.544 19.843 11.571L19.536 12.807C19.534 12.815 19.53 12.819 19.524 12.819C19.519 12.819 19.514 12.815 19.512 12.807L19.217 11.571C19.209 11.544 19.19 11.531 19.16 11.531H18.665C18.635 11.531 18.62 11.544 18.62 11.571L18.624 11.587L19.214 13.597C19.221 13.623 19.24 13.637 19.27 13.637H19.765Z" fill="white"/>
<path d="M7.128 22.91C7.165 22.91 7.183 22.89 7.183 22.855V20.073C7.183 20.062 7.187 20.055 7.193 20.051C7.201 20.047 7.207 20.051 7.21 20.061L7.996 21.24C8.014 21.262 8.036 21.273 8.061 21.273H8.268C8.298 21.273 8.319 21.262 8.334 21.24L9.114 20.05C9.117 20.04 9.123 20.036 9.13 20.04C9.137 20.044 9.141 20.05 9.141 20.062V22.855C9.141 22.891 9.159 22.909 9.196 22.909H9.61C9.647 22.909 9.665 22.891 9.665 22.855V19.145C9.665 19.109 9.647 19.091 9.61 19.091H9.196C9.1832 19.091 9.17058 19.094 9.15913 19.0998C9.14768 19.1055 9.13771 19.1138 9.13 19.124L8.181 20.553C8.177 20.556 8.172 20.558 8.165 20.558C8.157 20.558 8.152 20.556 8.148 20.553L7.194 19.123C7.1868 19.1123 7.1769 19.1037 7.16531 19.0981C7.15372 19.0925 7.14084 19.09 7.128 19.091H6.714C6.677 19.091 6.659 19.109 6.659 19.145V22.855C6.659 22.891 6.677 22.909 6.714 22.909H7.128V22.91ZM11.787 22.953C12.194 22.953 12.517 22.84 12.755 22.615C12.993 22.389 13.112 22.067 13.112 21.649V20.956C13.112 20.92 13.094 20.902 13.057 20.902H11.83C11.794 20.902 11.776 20.92 11.776 20.956V21.295C11.776 21.331 11.794 21.349 11.83 21.349H12.567C12.581 21.349 12.588 21.356 12.588 21.371V21.791C12.588 22.009 12.518 22.181 12.378 22.306C12.238 22.432 12.048 22.495 11.808 22.495C11.561 22.495 11.361 22.424 11.208 22.282C11.1315 22.2094 11.0714 22.1212 11.0319 22.0234C10.9924 21.9255 10.9744 21.8204 10.979 21.715V20.285C10.979 20.049 11.053 19.86 11.2 19.718C11.347 19.576 11.543 19.505 11.787 19.505C12.027 19.505 12.22 19.574 12.367 19.71C12.515 19.846 12.588 20.024 12.588 20.242V20.291C12.588 20.327 12.607 20.345 12.643 20.345H13.057C13.094 20.345 13.112 20.327 13.112 20.291V20.231C13.112 20.005 13.057 19.803 12.946 19.623C12.835 19.443 12.679 19.302 12.479 19.2C12.279 19.098 12.049 19.047 11.787 19.047C11.525 19.047 11.293 19.099 11.091 19.203C10.889 19.306 10.733 19.453 10.622 19.642C10.512 19.831 10.456 20.051 10.456 20.302V21.698C10.456 21.945 10.511 22.165 10.622 22.355C10.732 22.546 10.889 22.694 11.092 22.797C11.292 22.901 11.525 22.953 11.787 22.953V22.953ZM14.372 22.909C14.408 22.909 14.427 22.891 14.427 22.855V20.073C14.427 20.062 14.43 20.055 14.437 20.051C14.445 20.047 14.45 20.051 14.454 20.061L15.239 21.24C15.257 21.262 15.279 21.273 15.305 21.273H15.512C15.542 21.273 15.562 21.262 15.577 21.24L16.357 20.05C16.361 20.04 16.367 20.036 16.374 20.04C16.381 20.044 16.384 20.05 16.384 20.062V22.855C16.384 22.891 16.403 22.909 16.439 22.909H16.854C16.89 22.909 16.908 22.891 16.908 22.855V19.145C16.908 19.109 16.89 19.091 16.854 19.091H16.439C16.4264 19.0912 16.4139 19.0943 16.4027 19.1C16.3914 19.1057 16.3816 19.1139 16.374 19.124L15.424 20.553C15.421 20.556 15.416 20.558 15.408 20.558C15.401 20.558 15.396 20.556 15.392 20.553L14.437 19.123C14.4299 19.1125 14.4201 19.104 14.4087 19.0984C14.3973 19.0928 14.3847 19.0902 14.372 19.091H13.957C13.921 19.091 13.903 19.109 13.903 19.145V22.855C13.903 22.891 13.921 22.909 13.957 22.909H14.372V22.909Z" fill="#292830"/>
<defs>
<linearGradient id="paint0_linear" x1="9.5316" y1="12.1028" x2="13.2212" y2="8.42278" gradientUnits="userSpaceOnUse">
<stop stop-color="#F2599A"/>
<stop offset="1" stop-color="#FFC600"/>
</linearGradient>
</defs>
</svg>
