<svg width="24" height="24" viewBox="0 0 24 24" fill="none" xmlns="http://www.w3.org/2000/svg">
<path d="M17.004 12C17.004 11.8011 16.925 11.6103 16.7843 11.4697C16.6437 11.329 16.4529 11.25 16.254 11.25H7.69C7.49109 11.25 7.30032 11.329 7.15967 11.4697C7.01901 11.6103 6.94 11.8011 6.94 12C6.94 12.1989 7.01901 12.3897 7.15967 12.5303C7.30032 12.671 7.49109 12.75 7.69 12.75H16.254C16.4529 12.75 16.6437 12.671 16.7843 12.5303C16.925 12.3897 17.004 12.1989 17.004 12ZM11.988 23.757C8.86194 23.7606 5.86243 22.5225 3.649 20.315C-0.941003 15.725 -0.941003 8.257 3.649 3.667C8.239 -0.922 15.706 -0.922 20.296 3.667C24.886 8.257 24.886 15.725 20.296 20.315C20.2268 20.3866 20.144 20.4437 20.0525 20.483C19.961 20.5222 19.8625 20.5429 19.7629 20.5437C19.6634 20.5445 19.5646 20.5255 19.4725 20.4877C19.3803 20.45 19.2966 20.3942 19.2262 20.3238C19.1558 20.2533 19.1002 20.1696 19.0625 20.0774C19.0248 19.9852 19.0059 19.8864 19.0068 19.7868C19.0077 19.6873 19.0285 19.5889 19.0678 19.4974C19.1072 19.4059 19.1643 19.3232 19.236 19.254C23.24 15.25 23.24 8.733 19.236 4.728C15.23 0.723001 8.713 0.723001 4.708 4.728C0.703997 8.733 0.703997 15.25 4.71 19.254C6.206 20.7447 8.12412 21.7395 10.2044 22.1035C12.2848 22.4675 14.4267 22.1832 16.34 21.289C16.5191 21.2104 16.7217 21.2049 16.9048 21.2735C17.0879 21.3422 17.237 21.4797 17.3202 21.6567C17.4034 21.8336 17.4142 22.0361 17.3502 22.2209C17.2863 22.4057 17.1528 22.5582 16.978 22.646C15.4169 23.3787 13.7135 23.7581 11.989 23.757" fill="#292830"/>
</svg>
