<svg width="24" height="24" viewBox="0 0 24 24" fill="none" xmlns="http://www.w3.org/2000/svg">
<path d="M6.616 2.58801H17.385V2.48501C17.385 2.01101 16.915 1.62501 16.341 1.62501H7.66C7.084 1.62501 6.616 2.01101 6.616 2.48501V2.58801ZM6.616 20.511V21.35C6.616 21.823 7.084 22.209 7.66 22.209H16.34C16.916 22.209 17.385 21.823 17.385 21.349V20.511H6.615H6.616ZM16.341 23.709H7.66C6.257 23.709 5.116 22.649 5.116 21.349V2.48601C5.116 1.18501 6.256 0.126007 7.66 0.126007H16.34C17.743 0.126007 18.885 1.18501 18.885 2.48601V13.386C18.885 13.5849 18.806 13.7757 18.6653 13.9163C18.5247 14.057 18.3339 14.136 18.135 14.136C17.9361 14.136 17.7453 14.057 17.6047 13.9163C17.464 13.7757 17.385 13.5849 17.385 13.386V4.08801H6.615V19.01H17.385V17.3C17.385 17.1011 17.464 16.9103 17.6047 16.7697C17.7453 16.629 17.9361 16.55 18.135 16.55C18.3339 16.55 18.5247 16.629 18.6653 16.7697C18.806 16.9103 18.885 17.1011 18.885 17.3V21.349C18.885 22.649 17.743 23.708 16.341 23.708V23.709Z" fill="#292830"/>
</svg>
