<svg width="24" height="24" viewBox="0 0 24 24" fill="none" xmlns="http://www.w3.org/2000/svg">
<g clip-path="url(#clip0)">
<path d="M22.042 22.303C22.042 22.5019 21.963 22.6927 21.8223 22.8333C21.6817 22.974 21.4909 23.053 21.292 23.053H13.153C12.9541 23.053 12.7633 22.974 12.6227 22.8333C12.482 22.6927 12.403 22.5019 12.403 22.303C12.403 22.1041 12.482 21.9133 12.6227 21.7727C12.7633 21.632 12.9541 21.553 13.153 21.553H21.292C21.4909 21.553 21.6817 21.632 21.8223 21.7727C21.963 21.9133 22.042 22.1041 22.042 22.303ZM22.042 19.074C22.0421 19.1725 22.0229 19.2701 21.9853 19.3611C21.9477 19.4521 21.8926 19.5349 21.823 19.6046C21.7535 19.6744 21.6709 19.7297 21.5799 19.7675C21.489 19.8053 21.3915 19.8249 21.293 19.825L13.154 19.835H13.153C12.9541 19.8351 12.7633 19.7563 12.6225 19.6157C12.4818 19.4751 12.4026 19.2844 12.4025 19.0855C12.4024 18.8866 12.4813 18.6958 12.6218 18.555C12.7624 18.4143 12.9531 18.3351 13.152 18.335L21.291 18.325H21.292C21.4909 18.325 21.6817 18.404 21.8223 18.5447C21.963 18.6853 22.042 18.8761 22.042 19.075V19.074ZM16.311 11.376H5.542C5.205 11.381 3.5 11.509 3.5 13.571V22.608C3.5 22.7065 3.4806 22.804 3.44291 22.895C3.40522 22.986 3.34997 23.0687 3.28033 23.1383C3.21069 23.208 3.12801 23.2632 3.03701 23.3009C2.94602 23.3386 2.84849 23.358 2.75 23.358C2.65151 23.358 2.55398 23.3386 2.46299 23.3009C2.37199 23.2632 2.28931 23.208 2.21967 23.1383C2.15003 23.0687 2.09478 22.986 2.05709 22.895C2.0194 22.804 2 22.7065 2 22.608V13.571C2 10.648 4.317 9.87601 5.542 9.87601H16.311C19.111 9.87601 19.852 12.293 19.852 13.571V15.104L21.291 15.102H21.292C21.3905 15.1019 21.488 15.1213 21.5791 15.1589C21.6701 15.1965 21.7528 15.2517 21.8225 15.3213C21.8922 15.3909 21.9475 15.4736 21.9852 15.5645C22.023 15.6555 22.0424 15.753 22.0425 15.8515C22.0426 15.95 22.0232 16.0475 21.9856 16.1386C21.948 16.2296 21.8928 16.3123 21.8232 16.382C21.7536 16.4517 21.6709 16.507 21.58 16.5447C21.489 16.5825 21.3915 16.6019 21.293 16.602L13.154 16.612H13.153C12.9541 16.6121 12.7633 16.5332 12.6225 16.3927C12.4818 16.2521 12.4026 16.0614 12.4025 15.8625C12.4024 15.6636 12.4813 15.4728 12.6218 15.332C12.7624 15.1913 12.9531 15.1121 13.152 15.112L18.352 15.106V13.571C18.348 13.207 18.231 11.376 16.311 11.376ZM8.182 2.40001C8.783 1.80001 9.572 1.50001 10.361 1.50001C10.9708 1.49917 11.5671 1.67936 12.0744 2.01773C12.5816 2.35611 12.9771 2.83745 13.2105 3.40077C13.444 3.96409 13.505 4.58403 13.3858 5.18205C13.2666 5.78006 12.9726 6.32925 12.541 6.76001C11.9622 7.33665 11.1785 7.66042 10.3615 7.66042C9.54449 7.66042 8.76078 7.33665 8.182 6.76001C7.89483 6.47439 7.66715 6.13465 7.51215 5.76045C7.35715 5.38626 7.27791 4.98503 7.279 4.58001C7.279 3.75601 7.6 2.98201 8.182 2.40001ZM10.361 9.16001C10.9627 9.16115 11.5587 9.04336 12.1147 8.81339C12.6708 8.58343 13.1759 8.24583 13.601 7.82001C14.0278 7.39548 14.3661 6.89054 14.5965 6.3344C14.8268 5.77826 14.9446 5.18196 14.943 4.58001C14.945 3.97799 14.8274 3.38158 14.597 2.82539C14.3666 2.2692 14.0281 1.7643 13.601 1.34001C12.7412 0.481672 11.5759 -0.000411987 10.361 -0.000411987C9.14608 -0.000411987 7.98081 0.481672 7.121 1.34001C6.69392 1.7643 6.35537 2.2692 6.125 2.82539C5.89462 3.38158 5.77701 3.97799 5.779 4.58001C5.779 5.80301 6.255 6.95401 7.121 7.82001C7.54619 8.24574 8.0513 8.58328 8.60732 8.81324C9.16333 9.0432 9.75931 9.16104 10.361 9.16001Z" fill="#292830"/>
</g>
<defs>
<clipPath id="clip0">
<rect width="24" height="24" fill="white"/>
</clipPath>
</defs>
</svg>
