<svg width="24" height="24" viewBox="0 0 24 24" fill="none" xmlns="http://www.w3.org/2000/svg">
<g clip-path="url(#clip0)">
<path d="M8.87299 8.837L10.849 4.524H3.63699L1.64999 8.837H8.87399H8.87299ZM22.353 8.837L20.4 4.575L13.153 4.528L15.126 8.837H22.351H22.353ZM3.88999 19.582C3.88999 19.638 3.91099 19.678 3.91999 19.687L11.277 19.665V7.096L10.142 9.572C9.91899 10.058 9.47999 10.359 8.99699 10.359H3.88999V19.582ZM3.84599 21.187C3.07399 21.187 2.44599 20.467 2.44599 19.582V10.36H1.03599C0.673991 10.36 0.343991 10.157 0.152991 9.815C0.0598293 9.64188 0.00776456 9.44964 0.000828179 9.25317C-0.0061082 9.05669 0.0322699 8.86126 0.112991 8.682L2.29599 3.913C2.55399 3.35 3.05799 3 3.61299 3H20.387C20.94 3 21.445 3.35 21.704 3.911L23.888 8.682C24.051 9.037 24.036 9.472 23.847 9.814C23.657 10.155 23.327 10.359 22.963 10.359H21.554V14.889C21.554 15.309 21.231 15.649 20.832 15.649C20.433 15.649 20.109 15.309 20.109 14.889V10.359H15.002C14.519 10.359 14.08 10.058 13.858 9.572L12.723 7.096V19.664H20.111C20.098 19.652 20.109 19.623 20.109 19.582V18.417C20.109 17.997 20.433 17.656 20.832 17.656C21.231 17.656 21.554 17.996 21.554 18.417V19.582C21.554 20.467 20.926 21.187 20.154 21.187H3.84599Z" fill="#292830"/>
</g>
<defs>
<clipPath id="clip0">
<rect width="24" height="24" fill="white"/>
</clipPath>
</defs>
</svg>
