<svg width="24" height="24" viewBox="0 0 24 24" fill="none" xmlns="http://www.w3.org/2000/svg">
<path d="M14.324 18.395C14.1251 18.395 13.9343 18.316 13.7937 18.1753C13.653 18.0347 13.574 17.8439 13.574 17.645V6.351C13.574 6.15209 13.653 5.96133 13.7937 5.82067C13.9343 5.68002 14.1251 5.601 14.324 5.601C14.5229 5.601 14.7137 5.68002 14.8543 5.82067C14.995 5.96133 15.074 6.15209 15.074 6.351V17.645C15.074 17.8439 14.995 18.0347 14.8543 18.1753C14.7137 18.316 14.5229 18.395 14.324 18.395ZM10.426 17.645V6.351C10.426 6.15209 10.347 5.96133 10.2063 5.82067C10.0657 5.68002 9.8749 5.601 9.67599 5.601C9.47708 5.601 9.28631 5.68002 9.14566 5.82067C9.00501 5.96133 8.92599 6.15209 8.92599 6.351V17.645C8.92599 17.8439 9.00501 18.0347 9.14566 18.1753C9.28631 18.316 9.47708 18.395 9.67599 18.395C9.8749 18.395 10.0657 18.316 10.2063 18.1753C10.347 18.0347 10.426 17.8439 10.426 17.645ZM12.015 23.755C8.88879 23.7583 5.88926 22.5199 3.67599 20.312C-0.91401 15.723 -0.91401 8.255 3.67599 3.665C8.26599 -0.924996 15.734 -0.924996 20.324 3.665C24.913 8.255 24.913 15.723 20.324 20.312C20.1826 20.4487 19.9932 20.5244 19.7965 20.5228C19.5999 20.5211 19.4117 20.4424 19.2726 20.3034C19.1335 20.1644 19.0545 19.9763 19.0527 19.7797C19.0509 19.583 19.1264 19.3935 19.263 19.252C23.268 15.247 23.268 8.73 19.263 4.726C15.258 0.721004 8.74099 0.721004 4.73699 4.726C0.73199 8.73 0.73199 15.247 4.73699 19.252C6.23303 20.7427 8.15121 21.7373 10.2316 22.1012C12.3119 22.465 14.4538 22.1804 16.367 21.286C16.5471 21.2014 16.7534 21.1918 16.9405 21.2593C17.1277 21.3268 17.2804 21.4659 17.365 21.646C17.4496 21.8261 17.4592 22.0324 17.3917 22.2196C17.3242 22.4067 17.1851 22.5594 17.005 22.644C15.4436 23.3768 13.7398 23.7561 12.015 23.755Z" fill="#292830"/>
</svg>
