<svg width="24" height="24" viewBox="0 0 24 24" fill="none" xmlns="http://www.w3.org/2000/svg">
<path d="M22.949 21.698V13.845C22.949 12.589 22.221 10.211 19.465 10.211H15C14.8011 10.211 14.6103 10.29 14.4697 10.4307C14.329 10.5713 14.25 10.7621 14.25 10.961C14.25 11.1599 14.329 11.3507 14.4697 11.4913C14.6103 11.632 14.8011 11.711 15 11.711H19.465C21.332 11.711 21.445 13.492 21.449 13.845V21.698C21.449 21.8969 21.528 22.0877 21.6687 22.2283C21.8093 22.369 22.0001 22.448 22.199 22.448C22.3979 22.448 22.5887 22.369 22.7293 22.2283C22.87 22.0877 22.949 21.8969 22.949 21.698ZM16.637 3.04999C16.029 3.04999 15.456 3.28799 15.025 3.71799C14.5976 4.1462 14.3576 4.72649 14.3576 5.33149C14.3576 5.9365 14.5976 6.51679 15.025 6.94499C15.4533 7.37154 16.0331 7.61102 16.6375 7.61102C17.2419 7.61102 17.8218 7.37154 18.25 6.94499C18.6774 6.51679 18.9174 5.9365 18.9174 5.33149C18.9174 4.72649 18.6774 4.1462 18.25 3.71799C18.0387 3.50557 17.7873 3.33722 17.5104 3.22272C17.2335 3.10822 16.9366 3.04985 16.637 3.05099V3.04999ZM16.637 9.10999C16.1408 9.11098 15.6493 9.01386 15.1907 8.82423C14.7321 8.63459 14.3156 8.35618 13.965 8.00499C13.2567 7.29537 12.8588 6.33366 12.8588 5.33099C12.8588 4.32832 13.2567 3.36662 13.965 2.65699C15.392 1.22999 17.883 1.22899 19.311 2.65699C20.0194 3.36662 20.4172 4.32832 20.4172 5.33099C20.4172 6.33366 20.0194 7.29537 19.311 8.00499C18.9601 8.35633 18.5432 8.63489 18.0843 8.82469C17.6254 9.01449 17.1336 9.11178 16.637 9.11099V9.10999ZM13.565 21.7V13.846C13.565 12.59 12.837 10.212 10.081 10.212H4.53301C3.56301 10.212 1.04901 10.865 1.04901 13.846V21.699C1.04901 21.8979 1.12803 22.0887 1.26868 22.2293C1.40933 22.37 1.6001 22.449 1.79901 22.449C1.99792 22.449 2.18869 22.37 2.32934 22.2293C2.46999 22.0887 2.54901 21.8979 2.54901 21.699V13.846C2.54901 11.842 4.20601 11.717 4.53301 11.712H10.081C11.948 11.712 12.061 13.493 12.065 13.846V21.699C12.065 21.8979 12.144 22.0887 12.2847 22.2293C12.4253 22.37 12.6161 22.449 12.815 22.449C13.0139 22.449 13.2047 22.37 13.3453 22.2293C13.486 22.0887 13.565 21.8979 13.565 21.699V21.7ZM7.25401 3.04999C6.67001 3.04999 6.08601 3.27399 5.64101 3.71699C5.21361 4.1452 4.97357 4.72549 4.97357 5.33049C4.97357 5.9355 5.21361 6.51579 5.64101 6.94399C6.53101 7.83199 7.97701 7.83199 8.86601 6.94399C9.75601 6.05399 9.75601 4.60599 8.86601 3.71699C8.65445 3.50518 8.40315 3.33722 8.12652 3.22276C7.84989 3.1083 7.55338 3.04959 7.25401 3.04999ZM7.25401 9.10799C6.75762 9.10934 6.26585 9.01259 5.80695 8.8233C5.34806 8.63402 4.9311 8.35592 4.58001 8.00499C3.87165 7.29537 3.47381 6.33366 3.47381 5.33099C3.47381 4.32832 3.87165 3.36662 4.58001 2.65699C5.28956 1.94925 6.25083 1.55179 7.25301 1.55179C8.25519 1.55179 9.21646 1.94925 9.92601 2.65699C10.6344 3.36662 11.0322 4.32832 11.0322 5.33099C11.0322 6.33366 10.6344 7.29537 9.92601 8.00499C9.57513 8.35598 9.15836 8.63419 8.69965 8.82365C8.24093 9.01311 7.74931 9.11008 7.25301 9.10899L7.25401 9.10799Z" fill="#292830"/>
</svg>
