<svg width="24" height="24" viewBox="0 0 24 24" fill="none" xmlns="http://www.w3.org/2000/svg">
<path d="M18.725 23.887C18.623 23.887 18.515 23.887 18.413 23.879C16.599 23.763 14.949 23.069 13.714 22.479C13.5384 22.3909 13.4043 22.2375 13.3406 22.0516C13.2769 21.8657 13.2887 21.6622 13.3735 21.485C13.4583 21.3077 13.6092 21.1708 13.7939 21.1037C13.9786 21.0365 14.1822 21.0445 14.361 21.126C15.474 21.659 16.952 22.283 18.512 22.383C18.584 22.387 18.653 22.386 18.725 22.387C19.401 22.387 19.876 22.187 20.311 21.722C20.663 21.306 21.062 20.914 21.437 20.556L21.557 20.44C21.733 20.269 21.901 20.106 22.065 19.93C22.0852 19.9062 22.1069 19.8838 22.13 19.863C22.417 19.555 22.38 19.428 22.113 19.163L18.984 16.033C18.744 15.773 18.656 15.737 18.359 16.033L16.419 17.975C15.772 18.621 14.927 18.767 14.127 18.365C14.095 18.3476 14.0633 18.3296 14.032 18.311C13.853 18.201 13.682 18.116 13.498 18.025C13.2361 17.8987 12.9808 17.7592 12.733 17.607C10.843 16.411 9.13501 14.859 7.51301 12.861C6.58601 11.686 5.98901 10.708 5.56301 9.67799C5.55501 9.65799 5.53101 9.58599 5.52401 9.56499C5.27701 8.78199 5.43501 8.09699 5.99401 7.53199C6.0185 7.50547 6.04455 7.48042 6.07201 7.45699C6.54301 7.03299 6.98601 6.58999 7.45201 6.11499L7.94501 5.61999C8.25501 5.30999 8.25501 5.23199 7.94501 4.92199L5.84801 2.81199C5.52522 2.47418 5.19378 2.14473 4.85401 1.82399C4.57901 1.55199 4.50501 1.49799 4.17001 1.81099L2.25201 3.72999C1.91817 4.05169 1.71634 4.48637 1.68601 4.94899C1.61001 5.87899 1.79201 6.87599 2.27701 8.17599C3.10401 10.41 4.36301 12.503 6.23801 14.763C7.7507 16.5757 9.51451 18.163 11.476 19.477C11.5591 19.5311 11.6307 19.6012 11.6866 19.6831C11.7424 19.7651 11.7815 19.8573 11.8015 19.9544C11.8215 20.0516 11.822 20.1517 11.803 20.2491C11.784 20.3464 11.7459 20.4391 11.6909 20.5216C11.6359 20.6041 11.5651 20.6749 11.4825 20.7299C11.3999 20.7848 11.3073 20.8229 11.2099 20.8418C11.1126 20.8607 11.0124 20.8601 10.9153 20.8401C10.8181 20.82 10.7259 20.7809 10.644 20.725C8.56241 19.3315 6.6908 17.6474 5.08601 15.724C3.09701 13.327 1.75801 11.094 0.871014 8.69799C0.306014 7.18299 0.0960136 5.98799 0.191014 4.82399C0.253047 4.00823 0.608679 3.24261 1.19201 2.66899L3.12701 0.733994C4.01401 -0.100006 5.07801 -0.0730061 5.88001 0.727994C6.23401 1.05799 6.57201 1.40299 6.92701 1.76799L9.00701 3.86099C9.90301 4.75699 9.90301 5.78499 9.00701 6.68099L8.84201 6.84699C8.73201 6.95899 8.62201 7.06999 8.51001 7.17699C8.04001 7.65899 7.58001 8.11999 7.07801 8.57099L7.06601 8.58099C6.88601 8.76299 6.88001 8.87399 6.95601 9.11499C7.32201 10.003 7.85601 10.87 8.68001 11.918C10.196 13.785 11.785 15.232 13.537 16.34C13.748 16.473 13.964 16.58 14.169 16.683C14.395 16.796 14.609 16.903 14.791 17.017C14.911 17.079 14.979 17.086 15.026 17.086C15.167 17.086 15.269 17.004 15.358 16.914L17.299 14.973C18.155 14.117 19.294 14.147 20.059 14.988L23.172 18.1C24.047 18.967 24.056 20.022 23.193 20.922C23.003 21.127 22.809 21.316 22.603 21.516L22.479 21.636C22.129 21.971 21.764 22.329 21.432 22.72C20.69 23.514 19.813 23.887 18.726 23.887" fill="#292830"/>
</svg>
