<svg width="24" height="24" viewBox="0 0 24 24" fill="none" xmlns="http://www.w3.org/2000/svg">
<path d="M16.503 2.41C17.4018 2.77159 18.237 3.27461 18.977 3.9L13.757 8.927V1.763C14.7 1.83647 15.6261 2.05434 16.503 2.409V2.41ZM13.527 11.232L20.59 4.43C20.6615 4.36072 20.7185 4.27794 20.7577 4.18646C20.7969 4.09498 20.8176 3.99662 20.8185 3.89709C20.8195 3.79756 20.8006 3.69883 20.7631 3.60663C20.7256 3.51444 20.6702 3.43061 20.6 3.36C19.5914 2.34875 18.3886 1.55209 17.064 1.018C15.7749 0.497263 14.3973 0.230703 13.007 0.233001C12.8081 0.233001 12.6173 0.312019 12.4767 0.452671C12.336 0.593323 12.257 0.784089 12.257 0.983001V10.693C12.2575 10.8399 12.3011 10.9833 12.3824 11.1057C12.4636 11.228 12.579 11.3239 12.7141 11.3813C12.8493 11.4388 12.9983 11.4554 13.1428 11.429C13.2873 11.4026 13.4209 11.3345 13.527 11.233V11.232ZM16.541 22.736C16.6327 22.6958 16.7154 22.6376 16.7842 22.5649C16.853 22.4921 16.9066 22.4064 16.9418 22.3126C16.977 22.2189 16.993 22.1191 16.989 22.019C16.9849 21.919 16.9609 21.8207 16.9183 21.7301C16.8757 21.6395 16.8154 21.5584 16.7409 21.4914C16.6664 21.4245 16.5793 21.3732 16.4847 21.3404C16.3901 21.3077 16.2899 21.2943 16.19 21.3009C16.09 21.3075 15.9925 21.3341 15.903 21.379C14.1819 22.1834 12.2551 22.4392 10.3838 22.1119C8.51237 21.7846 6.78686 20.8899 5.441 19.549C3.709 17.816 2.756 15.496 2.756 13.015C2.756 10.535 3.71 8.215 5.441 6.482C6.62034 5.30394 8.09877 4.47 9.717 4.07C9.90759 4.01996 10.0708 3.89693 10.1714 3.7275C10.272 3.55807 10.3019 3.35585 10.2546 3.16457C10.2073 2.97328 10.0866 2.80829 9.91868 2.70527C9.75071 2.60224 9.54895 2.56946 9.357 2.614C7.47426 3.07984 5.75422 4.05033 4.382 5.421C0.194 9.61 0.194 16.422 4.381 20.61C5.94461 22.1696 7.95024 23.2102 10.1256 23.5908C12.301 23.9713 14.5408 23.6732 16.541 22.737V22.736ZM19.038 20.83C18.8895 20.8304 18.7443 20.7866 18.6208 20.7042C18.4973 20.6219 18.401 20.5047 18.3442 20.3675C18.2874 20.2304 18.2727 20.0794 18.3018 19.9339C18.331 19.7883 18.4028 19.6547 18.508 19.55C19.9663 18.0896 20.8939 16.1831 21.1431 14.1344C21.3923 12.0856 20.9487 10.0124 19.883 8.245C19.7806 8.0742 19.7503 7.86973 19.7987 7.67657C19.8471 7.48341 19.9702 7.31737 20.141 7.215C20.3118 7.11263 20.5163 7.0823 20.7094 7.13068C20.9026 7.17907 21.0686 7.3022 21.171 7.473C22.4093 9.52707 22.9245 11.9365 22.6343 14.3174C22.3442 16.6983 21.2654 18.9135 19.57 20.61C19.5006 20.6799 19.418 20.7354 19.3271 20.7732C19.2361 20.8109 19.1385 20.8302 19.04 20.83" fill="#292830"/>
</svg>
