<svg width="24" height="24" viewBox="0 0 24 24" fill="none" xmlns="http://www.w3.org/2000/svg">
<path d="M13.402 11.297C12.815 11.297 12.338 10.894 12.338 10.399C12.338 9.90399 12.815 9.50099 13.402 9.50099C13.988 9.50099 14.466 9.90399 14.466 10.399C14.466 10.5934 14.5432 10.7798 14.6807 10.9173C14.8181 11.0548 15.0046 11.132 15.199 11.132C15.3934 11.132 15.5798 11.0548 15.7173 10.9173C15.8548 10.7798 15.932 10.5934 15.932 10.399C15.932 9.33399 15.174 8.43099 14.135 8.13599V8.02699C14.135 7.83259 14.0578 7.64615 13.9203 7.50868C13.7828 7.37122 13.5964 7.29399 13.402 7.29399C13.2076 7.29399 13.0211 7.37122 12.8837 7.50868C12.7462 7.64615 12.669 7.83259 12.669 8.02699V8.13699C11.63 8.43099 10.871 9.33399 10.871 10.399C10.871 11.703 12.006 12.763 13.402 12.763C13.988 12.763 14.466 13.166 14.466 13.661C14.466 14.156 13.988 14.561 13.402 14.561C12.815 14.561 12.338 14.156 12.338 13.661C12.338 13.4665 12.2607 13.2799 12.1232 13.1423C11.9856 13.0048 11.799 12.9275 11.6045 12.9275C11.41 12.9275 11.2234 13.0048 11.0858 13.1423C10.9483 13.2799 10.871 13.4665 10.871 13.661C10.871 14.727 11.631 15.631 12.669 15.924V15.971C12.669 16.1654 12.7462 16.3518 12.8837 16.4893C13.0211 16.6268 13.2076 16.704 13.402 16.704C13.5964 16.704 13.7828 16.6268 13.9203 16.4893C14.0578 16.3518 14.135 16.1654 14.135 15.971V15.924C15.173 15.63 15.932 14.727 15.932 13.661C15.932 12.358 14.797 11.297 13.402 11.297ZM19.822 3.72499C19.6231 3.72499 19.4323 3.80401 19.2917 3.94466C19.151 4.08532 19.072 4.27608 19.072 4.47499C19.072 4.67391 19.151 4.86467 19.2917 5.00532C19.4323 5.14598 19.6231 5.22499 19.822 5.22499C20.4955 5.22605 21.1411 5.49414 21.6172 5.97047C22.0934 6.44679 22.3612 7.09249 22.362 7.76599V15.996C22.3615 16.6697 22.0938 17.3156 21.6176 17.7922C21.1414 18.2687 20.4957 18.5369 19.822 18.538H19.359C19.1601 18.538 18.9693 18.617 18.8287 18.7577C18.688 18.8983 18.609 19.0891 18.609 19.288L18.549 21.788L15.983 21.728V19.288C15.983 19.0891 15.904 18.8983 15.7633 18.7577C15.6227 18.617 15.4319 18.538 15.233 18.538H11.198C10.9991 18.538 10.8083 18.617 10.6677 18.7577C10.527 18.8983 10.448 19.0891 10.448 19.288L10.389 21.788L7.82299 21.728V19.288C7.82299 19.0891 7.74398 18.8983 7.60332 18.7577C7.46267 18.617 7.27191 18.538 7.07299 18.538H6.60999C5.93632 18.5369 5.29058 18.2687 4.8144 17.7922C4.33823 17.3156 4.07052 16.6697 4.06999 15.996V14.991C4.06999 14.7921 3.99098 14.6013 3.85032 14.4607C3.70967 14.32 3.51891 14.241 3.31999 14.241H1.83999C1.78615 14.241 1.73452 14.2196 1.69645 14.1815C1.65838 14.1435 1.63699 14.0918 1.63699 14.038V9.72399C1.63699 9.61199 1.72799 9.52099 1.83999 9.52099H3.31999C3.51891 9.52099 3.70967 9.44198 3.85032 9.30132C3.99098 9.16067 4.06999 8.96991 4.06999 8.77099V7.76699C4.07052 7.09332 4.33823 6.44736 4.8144 5.97082C5.29058 5.49427 5.93632 5.22605 6.60999 5.22499C6.84299 5.22499 7.06999 5.12999 7.23499 4.96599L9.65999 2.54099V4.47499C9.65999 4.88899 9.99599 5.22499 10.41 5.22499H15.994C16.1929 5.22499 16.3837 5.14598 16.5243 5.00532C16.665 4.86467 16.744 4.67391 16.744 4.47499C16.744 4.27608 16.665 4.08532 16.5243 3.94466C16.3837 3.80401 16.1929 3.72499 15.994 3.72499H11.16V1.97999C11.16 1.46599 10.854 1.00699 10.38 0.809994C10.1483 0.713128 9.89306 0.687459 9.64674 0.736259C9.40043 0.785059 9.17423 0.906117 8.99699 1.08399L6.34699 3.73399C5.32355 3.80243 4.36427 4.25693 3.66311 5.0056C2.96196 5.75428 2.57126 6.74126 2.56999 7.76699V8.02099H1.83999C0.900993 8.02099 0.136993 8.78499 0.136993 9.72399V14.038C0.136993 14.978 0.900993 15.741 1.83999 15.741H2.56999V15.996C2.5711 17.0176 2.95862 18.0009 3.65475 18.7486C4.35088 19.4963 5.30408 19.953 6.32299 20.027V21.728C6.32299 22.588 7.02299 23.288 7.88099 23.288H10.389C10.8027 23.288 11.1995 23.1236 11.4921 22.8311C11.7846 22.5385 11.949 22.1417 11.949 21.728V20.038H14.483V21.728C14.483 22.588 15.183 23.288 16.041 23.288H18.549C19.409 23.288 20.109 22.588 20.109 21.728V20.028C21.1282 19.9542 22.0816 19.4975 22.7778 18.7495C23.4741 18.0016 23.8614 17.0178 23.862 15.996V7.76599C23.8604 6.69501 23.4343 5.66834 22.677 4.91104C21.9196 4.15373 20.893 3.72758 19.822 3.72599" fill="#292830"/>
</svg>
