<svg width="24" height="24" viewBox="0 0 24 24" fill="none" xmlns="http://www.w3.org/2000/svg">
<path d="M15.731 7.292C15.731 7.49092 15.652 7.68168 15.5113 7.82233C15.3707 7.96299 15.1799 8.042 14.981 8.042C14.7821 8.042 14.5913 7.96299 14.4507 7.82233C14.31 7.68168 14.231 7.49092 14.231 7.292C14.231 7.09309 14.31 6.90233 14.4507 6.76167C14.5913 6.62102 14.7821 6.542 14.981 6.542C15.1799 6.542 15.3707 6.62102 15.5113 6.76167C15.652 6.90233 15.731 7.09309 15.731 7.292ZM17.231 7.292C17.2305 6.69543 16.9933 6.12344 16.5714 5.7016C16.1496 5.27976 15.5776 5.04253 14.981 5.042C14.3844 5.04253 13.8124 5.27976 13.3906 5.7016C12.9688 6.12344 12.7315 6.69543 12.731 7.292C12.7315 7.88858 12.9688 8.46057 13.3906 8.88241C13.8124 9.30425 14.3844 9.54148 14.981 9.542C15.5776 9.54148 16.1496 9.30425 16.5714 8.88241C16.9933 8.46057 17.2305 7.88858 17.231 7.292ZM6.188 23.825H2.188C1.98909 23.825 1.79833 23.746 1.65767 23.6053C1.51702 23.4647 1.438 23.2739 1.438 23.075V20.075C1.438 19.903 1.496 19.737 1.604 19.604L8.711 10.809C8.03557 10.1314 7.40459 9.41091 6.822 8.65201C6.57274 8.32542 6.43798 7.92584 6.43852 7.515C6.43906 7.10416 6.57488 6.70493 6.825 6.379L11.046 0.900005C11.2973 0.574979 11.6487 0.34176 12.0458 0.236384C12.4429 0.131008 12.8636 0.159341 13.243 0.317005C16.7697 1.79308 19.8489 4.16594 22.175 7.2C22.4249 7.52628 22.5601 7.92588 22.5598 8.33684C22.5594 8.74781 22.4235 9.14717 22.173 9.473L17.952 14.951C17.7011 15.2766 17.3498 15.5102 16.9525 15.6156C16.5552 15.7211 16.1343 15.6924 15.755 15.534C14.7875 15.1289 13.8501 14.6554 12.95 14.117C12.7832 14.0131 12.6638 13.8478 12.6176 13.6567C12.5714 13.4656 12.6021 13.2641 12.703 13.0954C12.8039 12.9267 12.967 12.8044 13.1572 12.7547C13.3474 12.7051 13.5495 12.7321 13.72 12.83C14.555 13.33 15.434 13.773 16.332 14.149C16.4063 14.1808 16.4891 14.187 16.5674 14.1665C16.6456 14.1461 16.7148 14.1001 16.764 14.036L20.984 8.558C21.033 8.49402 21.0596 8.41574 21.0598 8.33517C21.0599 8.25461 21.0337 8.1762 20.985 8.11201C18.8182 5.28623 15.95 3.07642 12.665 1.702C12.5907 1.67072 12.5081 1.66493 12.4301 1.68556C12.3521 1.70618 12.2832 1.75205 12.234 1.816L8.014 7.294C7.96504 7.35799 7.93842 7.43627 7.93824 7.51684C7.93806 7.5974 7.96432 7.6758 8.013 7.74C8.6881 8.61907 9.43284 9.4424 10.24 10.202C10.3775 10.3316 10.461 10.5084 10.4738 10.697C10.4866 10.8855 10.4278 11.072 10.309 11.219L2.938 20.339V22.325H5.438V20.075C5.438 19.8761 5.51702 19.6853 5.65767 19.5447C5.79833 19.404 5.98909 19.325 6.188 19.325H8.438V17.075C8.438 16.8761 8.51702 16.6853 8.65767 16.5447C8.79833 16.404 8.98909 16.325 9.188 16.325H12.188C12.3869 16.325 12.5777 16.404 12.7183 16.5447C12.859 16.6853 12.938 16.8761 12.938 17.075C12.938 17.2739 12.859 17.4647 12.7183 17.6053C12.5777 17.746 12.3869 17.825 12.188 17.825H9.938V20.075C9.938 20.2739 9.85899 20.4647 9.71833 20.6053C9.57768 20.746 9.38692 20.825 9.188 20.825H6.938V23.075C6.938 23.2739 6.85899 23.4647 6.71833 23.6053C6.57768 23.746 6.38692 23.825 6.188 23.825Z" fill="#292830"/>
</svg>
