<svg width="24" height="24" viewBox="0 0 24 24" fill="none" xmlns="http://www.w3.org/2000/svg">
<path d="M6.941 23.786C6.67982 23.7867 6.42246 23.7234 6.19145 23.6015C5.96045 23.4796 5.76286 23.303 5.616 23.087C5.58416 23.041 5.55797 22.9913 5.538 22.939L4.272 19.726L1.065 18.465C1.01281 18.4448 0.963149 18.4186 0.917 18.387C0.722049 18.2546 0.558872 18.0807 0.439214 17.8777C0.319557 17.6747 0.246397 17.4477 0.225 17.213C0.202525 16.9783 0.232296 16.7415 0.312175 16.5197C0.392054 16.2979 0.52006 16.0965 0.687 15.93L1.352 15.265C1.802 14.815 2.584 14.839 2.9 14.871L5.123 15.101L9.328 10.421L2.777 6.22399C2.57507 6.09529 2.40475 5.92273 2.27871 5.71912C2.15267 5.51552 2.07416 5.28613 2.049 5.04799C2.02239 4.80987 2.04994 4.56881 2.1296 4.34283C2.20925 4.11685 2.33895 3.9118 2.509 3.74299L3.326 2.92599C3.776 2.47599 4.45 2.33599 5.041 2.56599L13.514 5.87899C15.1825 4.16923 16.9599 2.56922 18.835 1.08899L19.131 0.856994C20.518 -0.236006 22.145 0.204994 23.033 1.20599C23.921 2.20599 24.166 3.87299 22.916 5.12199C21.439 7.01425 19.8374 8.80589 18.122 10.485L21.437 18.962C21.5504 19.252 21.5768 19.5687 21.5131 19.8735C21.4493 20.1782 21.2981 20.4578 21.078 20.678L20.261 21.494C20.0919 21.6639 19.8866 21.7935 19.6605 21.8731C19.4344 21.9527 19.1933 21.9804 18.955 21.954C18.7168 21.9289 18.4874 21.8504 18.2838 21.7244C18.0802 21.5983 17.9076 21.428 17.779 21.226L13.581 14.676L12.636 15.525C12.563 15.5926 12.4773 15.645 12.3839 15.6791C12.2905 15.7133 12.1912 15.7285 12.0918 15.724C11.9925 15.7194 11.895 15.6951 11.8051 15.6525C11.7153 15.6099 11.6347 15.5498 11.5683 15.4758C11.5018 15.4018 11.4508 15.3153 11.4181 15.2214C11.3854 15.1274 11.3717 15.0279 11.3778 14.9286C11.3839 14.8294 11.4097 14.7323 11.4537 14.6431C11.4977 14.5539 11.559 14.4743 11.634 14.409L13.236 12.969C13.3169 12.8965 13.4126 12.8424 13.5165 12.8106C13.6204 12.7787 13.7299 12.7698 13.8376 12.7844C13.9452 12.7991 14.0484 12.8369 14.14 12.8954C14.2316 12.9538 14.3094 13.0315 14.368 13.123L19.042 20.417L19.2 20.434L20.017 19.617C20.0309 19.6032 20.0405 19.5856 20.0446 19.5664C20.0486 19.5472 20.0471 19.5273 20.04 19.509L16.544 10.568C16.4901 10.43 16.4782 10.2792 16.5099 10.1345C16.5416 9.98986 16.6154 9.85779 16.722 9.75499C18.5423 8.00114 20.2375 6.12187 21.795 4.13099C22.523 3.39399 22.303 2.64299 21.912 2.20099C21.519 1.76099 20.8 1.45299 20.058 2.03499L19.763 2.26699C17.8107 3.80852 15.9673 5.48318 14.246 7.27899C14.1429 7.38549 14.0107 7.45918 13.8659 7.49084C13.7211 7.52251 13.5701 7.51073 13.432 7.45699L4.496 3.96299C4.47745 3.9555 4.45709 3.95369 4.43751 3.95778C4.41792 3.96188 4.4 3.9717 4.386 3.98599L3.569 4.80299L3.586 4.96099L10.88 9.63499C10.9715 9.69361 11.0491 9.77139 11.1076 9.86298C11.1661 9.95456 11.2039 10.0578 11.2186 10.1654C11.2332 10.2731 11.2243 10.3826 11.1924 10.4865C11.1606 10.5904 11.1065 10.6861 11.034 10.767L5.984 16.389C5.90468 16.4766 5.80591 16.5444 5.69563 16.587C5.58535 16.6295 5.46663 16.6456 5.349 16.634L2.748 16.364C2.61858 16.3516 2.48808 16.3567 2.36 16.379L1.69 17.099L5.125 18.449C5.22098 18.4866 5.30811 18.5437 5.38092 18.6167C5.45372 18.6897 5.51061 18.7769 5.548 18.873L6.875 22.243L7.012 22.256L7.623 21.643C7.64472 21.5138 7.6501 21.3825 7.639 21.252L7.369 18.655C7.35671 18.5372 7.3725 18.4181 7.41508 18.3076C7.45767 18.197 7.52583 18.0981 7.614 18.019L8.976 16.795C9.1257 16.6745 9.3159 16.616 9.50745 16.6315C9.699 16.647 9.87733 16.7353 10.0057 16.8783C10.1341 17.0213 10.2028 17.2081 10.1976 17.4002C10.1925 17.5923 10.1139 17.7751 9.978 17.911L8.901 18.88L9.131 21.1C9.163 21.418 9.188 22.2 8.737 22.65L8.072 23.316C7.77 23.619 7.364 23.786 6.941 23.786Z" fill="#292830"/>
</svg>
