<svg width="24" height="24" viewBox="0 0 24 24" fill="none" xmlns="http://www.w3.org/2000/svg">
<path fill-rule="evenodd" clip-rule="evenodd" d="M20.606 1C21.926 1 22.993 2.094 23 3.443V17.651C23 19.001 21.925 20.094 20.606 20.094H18.546C18.524 20.109 18.509 20.124 18.486 20.132L9.023 23.616C8.76411 23.7106 8.49063 23.759 8.215 23.759C7.7169 23.7574 7.23152 23.6016 6.82558 23.3129C6.41964 23.0243 6.11307 22.617 5.948 22.147L1.145 8.786C0.928078 8.18046 0.954607 7.51437 1.219 6.928C1.34873 6.63863 1.53498 6.37811 1.76682 6.16173C1.99865 5.94535 2.27138 5.77749 2.569 5.668L6.333 4.282C6.42079 4.24847 6.51443 4.23295 6.60834 4.23638C6.70225 4.23981 6.79451 4.26211 6.87962 4.30196C6.96472 4.3418 7.04094 4.39838 7.10371 4.46831C7.16649 4.53824 7.21454 4.6201 7.245 4.709C7.30952 4.88832 7.30052 5.08588 7.21997 5.2586C7.13942 5.43131 6.99385 5.56518 6.815 5.631L3.05 7.018C2.93031 7.06252 2.82076 7.13059 2.72783 7.21819C2.63491 7.30579 2.5605 7.41114 2.509 7.528C2.39975 7.77112 2.389 8.04712 2.479 8.298L7.289 21.653C7.474 22.17 8.03 22.447 8.534 22.26L14.418 20.094H10.208C8.89 20.094 7.815 19 7.815 17.651V3.443C7.815 2.094 8.89 1 10.21 1H20.606ZM20.606 2.439H10.21C9.684 2.439 9.246 2.889 9.246 3.443V17.651C9.246 18.206 9.676 18.655 10.21 18.655H20.607C21.133 18.655 21.571 18.205 21.571 17.651V3.443C21.571 2.888 21.141 2.439 20.607 2.439H20.606ZM19.37 16.172C19.705 16.172 19.967 16.512 19.967 16.932C19.967 17.35 19.699 17.69 19.37 17.69H19.046C18.716 17.69 18.449 17.35 18.449 16.931C18.449 16.512 18.717 16.172 19.046 16.172H19.37ZM16.974 16.172C17.369 16.172 17.691 16.512 17.691 16.932C17.691 17.35 17.369 17.69 16.974 17.69H11.58C11.184 17.69 10.863 17.35 10.863 16.931C10.863 16.512 11.184 16.172 11.58 16.172H16.974ZM19.248 13.897C19.652 13.897 19.967 14.237 19.967 14.655C19.967 15.074 19.645 15.414 19.248 15.414H11.58C11.184 15.414 10.862 15.074 10.862 14.655C10.862 14.236 11.184 13.897 11.58 13.897H19.248ZM15.794 4.034C17.028 4.034 18.026 5.003 18.026 6.184C18.026 6.654 17.863 7.082 17.597 7.438C18.557 8.008 19.207 9.018 19.207 10.179V11.696C19.2033 11.8803 19.1268 12.0557 18.9941 12.1837C18.8614 12.3117 18.6834 12.3819 18.499 12.379C18.3143 12.3825 18.1358 12.3125 18.0027 12.1844C17.8695 12.0564 17.7927 11.8807 17.789 11.696V10.179C17.789 9.161 16.925 8.328 15.868 8.328H15.728C14.664 8.328 13.806 9.161 13.806 10.179V11.696C13.8023 11.8805 13.7256 12.056 13.5927 12.1841C13.4598 12.3121 13.2815 12.3822 13.097 12.379C12.9119 12.3815 12.7332 12.3114 12.5992 12.1837C12.4652 12.056 12.3865 11.881 12.38 11.696V10.179C12.38 9.011 13.03 8 13.991 7.438C13.7146 7.07867 13.5642 6.63834 13.563 6.185C13.563 4.995 14.568 4.035 15.794 4.035V4.034ZM15.794 5.402C15.351 5.402 14.989 5.75 14.989 6.178C14.989 6.605 15.351 6.954 15.794 6.954C16.237 6.954 16.6 6.604 16.6 6.178C16.6 5.75 16.237 5.402 15.794 5.402Z" fill="#292830"/>
</svg>
