<svg width="24" height="24" viewBox="0 0 24 24" fill="none" xmlns="http://www.w3.org/2000/svg">
<path d="M23.574 7.04599L22.426 8.19599C22.2851 8.33626 22.0943 8.41501 21.8955 8.41501C21.6967 8.41501 21.5059 8.33626 21.365 8.19599C21.2953 8.12634 21.24 8.04364 21.2023 7.95262C21.1646 7.86159 21.1452 7.76402 21.1452 7.66549C21.1452 7.56696 21.1646 7.46939 21.2023 7.37837C21.24 7.28734 21.2953 7.20464 21.365 7.13499L22.513 5.98599C22.5821 5.91433 22.6649 5.85715 22.7564 5.8178C22.8478 5.77845 22.9463 5.75772 23.0458 5.75681C23.1454 5.75589 23.2442 5.77482 23.3364 5.81249C23.4286 5.85016 23.5123 5.90581 23.5828 5.9762C23.6532 6.04658 23.709 6.13029 23.7467 6.22245C23.7845 6.3146 23.8035 6.41335 23.8027 6.51294C23.8019 6.61252 23.7812 6.71095 23.742 6.80247C23.7027 6.89399 23.6456 6.97677 23.574 7.04599ZM15.805 2.63599C15.7353 2.56643 15.6801 2.48381 15.6424 2.39287C15.6047 2.30193 15.5852 2.20444 15.5852 2.10599C15.5852 2.00754 15.6047 1.91006 15.6424 1.81912C15.6801 1.72817 15.7353 1.64556 15.805 1.57599L16.953 0.424993C17.0227 0.355326 17.1055 0.300077 17.1966 0.262399C17.2877 0.224721 17.3853 0.205352 17.4839 0.205399C17.5824 0.205445 17.68 0.224906 17.7711 0.262669C17.8621 0.300433 17.9448 0.355761 18.0145 0.425492C18.0842 0.495224 18.1394 0.577995 18.1771 0.669079C18.2148 0.760163 18.2341 0.857777 18.2341 0.956346C18.234 1.05492 18.2146 1.15251 18.1768 1.24356C18.1391 1.33461 18.0837 1.41733 18.014 1.48699L16.866 2.63499C16.7965 2.70493 16.7138 2.76043 16.6228 2.7983C16.5317 2.83617 16.4341 2.85567 16.3355 2.85567C16.2369 2.85567 16.1393 2.83617 16.0482 2.7983C15.9572 2.76043 15.8745 2.70493 15.805 2.63499V2.63599ZM19.28 4.72099C19.2103 4.65143 19.1551 4.56881 19.1174 4.47787C19.0797 4.38693 19.0602 4.28944 19.0602 4.19099C19.0602 4.09254 19.0797 3.99506 19.1174 3.90412C19.1551 3.81317 19.2103 3.73056 19.28 3.66099L21.582 1.35899C21.7234 1.22231 21.9128 1.14662 22.1094 1.14823C22.3061 1.14985 22.4942 1.22864 22.6334 1.36763C22.7725 1.50662 22.8515 1.69469 22.8533 1.89134C22.8551 2.08799 22.7796 2.27748 22.643 2.41899L20.341 4.72099C20.2715 4.79093 20.1888 4.84643 20.0978 4.8843C20.0067 4.92217 19.9091 4.94167 19.8105 4.94167C19.7119 4.94167 19.6143 4.92217 19.5232 4.8843C19.4322 4.84643 19.3495 4.79093 19.28 4.72099ZM21.549 13.91L21.384 14.076C21.2068 14.2449 20.9713 14.3391 20.7265 14.3391C20.4817 14.3391 20.2462 14.2449 20.069 14.076L9.926 3.93199C9.83892 3.84596 9.76979 3.7435 9.7226 3.63055C9.67542 3.5176 9.65112 3.3964 9.65112 3.27399C9.65112 3.15158 9.67542 3.03039 9.7226 2.91744C9.76979 2.80449 9.83892 2.70203 9.926 2.61599L10.091 2.45099C10.1774 2.36452 10.2799 2.29591 10.3928 2.24911C10.5058 2.2023 10.6268 2.17821 10.749 2.17821C10.8712 2.17821 10.9922 2.2023 11.1051 2.24911C11.2181 2.29591 11.3206 2.36452 11.407 2.45099L21.549 12.594C21.7233 12.7684 21.8213 13.0049 21.8213 13.2515C21.8213 13.4981 21.7233 13.7346 21.549 13.909V13.91ZM15.36 18.165C15.314 18.4118 15.207 18.6432 15.0487 18.8381C14.8905 19.033 14.6861 19.1852 14.454 19.281C14.174 19.4003 13.8647 19.4328 13.5661 19.3743C13.2675 19.3158 12.9933 19.169 12.779 18.953L12.232 18.406L15.173 17.086C15.366 17.406 15.435 17.784 15.36 18.165ZM6.026 22.014C5.85456 22.1782 5.62636 22.2698 5.389 22.2698C5.15163 22.2698 4.92343 22.1782 4.752 22.014L1.987 19.249C1.85983 19.1234 1.77302 18.9628 1.73766 18.7876C1.7023 18.6125 1.72001 18.4307 1.78852 18.2657C1.85703 18.1006 1.97323 17.9598 2.12224 17.8612C2.27125 17.7625 2.4463 17.7106 2.625 17.712C2.855 17.712 3.086 17.799 3.262 17.975L6.026 20.74C6.11016 20.8233 6.17686 20.9225 6.2222 21.0319C6.26753 21.1413 6.29058 21.2586 6.29 21.377C6.29058 21.4954 6.26753 21.6127 6.2222 21.7221C6.17686 21.8315 6.11016 21.9307 6.026 22.014ZM12.467 1.39099C12.0109 0.936177 11.3931 0.680771 10.749 0.680771C10.1049 0.680771 9.48708 0.936177 9.031 1.39099L8.865 1.55699C8.44037 1.984 8.18998 2.55384 8.16262 3.15541C8.13526 3.75699 8.33289 4.3472 8.717 4.81099L5.734 11.459C5.69058 11.5493 5.66567 11.6473 5.66076 11.7473C5.65585 11.8474 5.67103 11.9474 5.7054 12.0415C5.73977 12.1356 5.79264 12.2218 5.86088 12.2951C5.92913 12.3684 6.01137 12.4274 6.10275 12.4684C6.19413 12.5094 6.29281 12.5317 6.39294 12.5339C6.49308 12.5362 6.59266 12.5184 6.6858 12.4815C6.77894 12.4447 6.86375 12.3895 6.93523 12.3194C7.00672 12.2492 7.06342 12.1654 7.102 12.073L9.841 5.96899L18.032 14.161L6.667 19.259L4.742 17.334L5.594 15.436C5.63431 15.3461 5.65653 15.2492 5.65938 15.1507C5.66223 15.0522 5.64565 14.9541 5.61059 14.8621C5.57554 14.77 5.5227 14.6857 5.45508 14.6141C5.38746 14.5424 5.30639 14.4848 5.2165 14.4445C5.12661 14.4042 5.02966 14.382 4.93118 14.3791C4.83271 14.3763 4.73463 14.3928 4.64257 14.4279C4.5505 14.463 4.46623 14.5158 4.39459 14.5834C4.32294 14.651 4.26531 14.7321 4.225 14.822L3.524 16.386C3.08685 16.2103 2.60777 16.1668 2.14613 16.2609C1.6845 16.3549 1.2606 16.5823 0.926998 16.915C0.703272 17.137 0.525843 17.4013 0.404997 17.6924C0.28415 17.9836 0.222289 18.2958 0.222998 18.611C0.222998 19.253 0.472998 19.856 0.926998 20.309L3.691 23.074C3.9135 23.2976 4.17814 23.4749 4.4696 23.5955C4.76106 23.7162 5.07355 23.7779 5.389 23.777C5.70441 23.7777 6.01684 23.7159 6.30827 23.5952C6.5997 23.4746 6.86436 23.2974 7.087 23.074C7.42083 22.7411 7.649 22.3171 7.74293 21.8552C7.83685 21.3932 7.79235 20.9138 7.615 20.477L10.767 19.063L11.718 20.013C12.1432 20.4404 12.6868 20.7307 13.2785 20.8464C13.8703 20.962 14.4831 20.8978 15.038 20.662C15.4955 20.4692 15.8984 20.1667 16.2113 19.7813C16.5242 19.3958 16.7373 18.9393 16.832 18.452C16.9597 17.7788 16.8531 17.0822 16.53 16.478L19.19 15.284C19.6213 15.6439 20.1643 15.8426 20.726 15.846C21.348 15.846 21.971 15.609 22.445 15.135L22.61 14.97H22.611C23.0655 14.5135 23.3206 13.8955 23.3204 13.2513C23.3202 12.6071 23.0648 11.9892 22.61 11.533L12.467 1.38999V1.39099Z" fill="#292830"/>
</svg>
