<svg width="24" height="24" viewBox="0 0 24 24" fill="none" xmlns="http://www.w3.org/2000/svg">
<path d="M17.438 6.318C17.5043 6.318 17.5679 6.34434 17.6148 6.39122C17.6617 6.43811 17.688 6.5017 17.688 6.568V9.253C17.688 9.31931 17.6617 9.38289 17.6148 9.42978C17.5679 9.47666 17.5043 9.503 17.438 9.503H14.753C14.6868 9.50274 14.6233 9.47631 14.5765 9.42949C14.5297 9.38266 14.5033 9.31922 14.503 9.253V6.568C14.503 6.5017 14.5293 6.43811 14.5762 6.39122C14.6231 6.34434 14.6867 6.318 14.753 6.318H17.437H17.438ZM19.188 9.253V6.568C19.188 5.603 18.403 4.818 17.438 4.818H14.753C13.789 4.818 13.003 5.603 13.003 6.568V9.253C13.003 10.217 13.789 11.003 14.753 11.003H17.437C18.402 11.003 19.187 10.217 19.187 9.253H19.188ZM9.248 14.497C9.3143 14.497 9.37789 14.5233 9.42478 14.5702C9.47166 14.6171 9.498 14.6807 9.498 14.747V17.431C9.498 17.4973 9.47166 17.5609 9.42478 17.6078C9.37789 17.6547 9.3143 17.681 9.248 17.681H6.563C6.49669 17.681 6.43311 17.6547 6.38622 17.6078C6.33934 17.5609 6.313 17.4973 6.313 17.431V14.747C6.313 14.6807 6.33934 14.6171 6.38622 14.5702C6.43311 14.5233 6.49669 14.497 6.563 14.497H9.248ZM10.998 17.431V14.747C10.998 13.782 10.211 12.997 9.248 12.997H6.563C5.598 12.997 4.813 13.782 4.813 14.747V17.431C4.813 18.396 5.598 19.181 6.563 19.181H9.248C10.211 19.181 10.998 18.396 10.998 17.431ZM9.248 6.318C9.3143 6.318 9.37789 6.34434 9.42478 6.39122C9.47166 6.43811 9.498 6.5017 9.498 6.568V9.253C9.498 9.39 9.384 9.503 9.248 9.503H6.563C6.49669 9.503 6.43311 9.47666 6.38622 9.42978C6.33934 9.38289 6.313 9.31931 6.313 9.253V6.568C6.313 6.5017 6.33934 6.43811 6.38622 6.39122C6.43311 6.34434 6.49669 6.318 6.563 6.318H9.248ZM10.998 9.253V6.568C10.998 5.603 10.211 4.818 9.248 4.818H6.563C5.598 4.818 4.813 5.603 4.813 6.568V9.253C4.813 10.217 5.598 11.003 6.563 11.003H9.248C10.211 11.003 10.998 10.217 10.998 9.253ZM22.97 20.113V17.44C22.97 17.2411 22.891 17.0503 22.7503 16.9097C22.6097 16.769 22.4189 16.69 22.22 16.69C22.0211 16.69 21.8303 16.769 21.6897 16.9097C21.549 17.0503 21.47 17.2411 21.47 17.44V20.113C21.47 20.2824 21.4366 20.4502 21.3718 20.6067C21.307 20.7632 21.212 20.9054 21.0922 21.0252C20.9724 21.145 20.8302 21.24 20.6737 21.3048C20.5172 21.3696 20.3494 21.403 20.18 21.403H17.44C17.2411 21.403 17.0503 21.482 16.9097 21.6227C16.769 21.7633 16.69 21.9541 16.69 22.153C16.69 22.3519 16.769 22.5427 16.9097 22.6833C17.0503 22.824 17.2411 22.903 17.44 22.903H20.18C20.9198 22.9025 21.6291 22.6084 22.1522 22.0852C22.6754 21.5621 22.9695 20.8528 22.97 20.113ZM22.97 6.559V3.885C22.9692 3.14529 22.675 2.4361 22.1519 1.91305C21.6289 1.39 20.9197 1.0958 20.18 1.095H17.44C17.2411 1.095 17.0503 1.17402 16.9097 1.31467C16.769 1.45532 16.69 1.64609 16.69 1.845C16.69 2.04391 16.769 2.23468 16.9097 2.37533C17.0503 2.51598 17.2411 2.595 17.44 2.595H20.18C20.892 2.595 21.47 3.174 21.47 3.885V6.559C21.47 6.75791 21.549 6.94868 21.6897 7.08933C21.8303 7.22998 22.0211 7.309 22.22 7.309C22.4189 7.309 22.6097 7.22998 22.7503 7.08933C22.891 6.94868 22.97 6.75791 22.97 6.559ZM7.31 22.153C7.31 21.9541 7.23098 21.7633 7.09033 21.6227C6.94968 21.482 6.75891 21.403 6.56 21.403H3.82C3.47787 21.403 3.14975 21.2671 2.90783 21.0252C2.66591 20.7832 2.53 20.4551 2.53 20.113V17.44C2.53 17.2411 2.45098 17.0503 2.31033 16.9097C2.16968 16.769 1.97891 16.69 1.78 16.69C1.58109 16.69 1.39032 16.769 1.24967 16.9097C1.10902 17.0503 1.03 17.2411 1.03 17.44V20.113C1.03053 20.8528 1.32464 21.5621 1.84776 22.0852C2.37087 22.6084 3.08021 22.9025 3.82 22.903H6.56C6.75891 22.903 6.94968 22.824 7.09033 22.6833C7.23098 22.5427 7.31 22.3519 7.31 22.153ZM1.78 7.309C1.58109 7.309 1.39032 7.22998 1.24967 7.08933C1.10902 6.94868 1.03 6.75791 1.03 6.559V3.885C1.03079 3.14529 1.32499 2.4361 1.84805 1.91305C2.3711 1.39 3.08029 1.0958 3.82 1.095H6.56C6.75891 1.095 6.94968 1.17402 7.09033 1.31467C7.23098 1.45532 7.31 1.64609 7.31 1.845C7.31 2.04391 7.23098 2.23468 7.09033 2.37533C6.94968 2.51598 6.75891 2.595 6.56 2.595H3.82C3.108 2.595 2.53 3.174 2.53 3.885V6.559C2.53 6.75791 2.45098 6.94868 2.31033 7.08933C2.16968 7.22998 1.97891 7.309 1.78 7.309Z" fill="#292830"/>
</svg>
