<svg width="24" height="24" viewBox="0 0 24 24" fill="none" xmlns="http://www.w3.org/2000/svg">
<path d="M12 16.342C11.8416 16.342 11.6848 16.3732 11.5385 16.4338C11.3922 16.4944 11.2592 16.5832 11.1472 16.6952C11.0352 16.8072 10.9464 16.9402 10.8858 17.0865C10.8252 17.2328 10.794 17.3896 10.794 17.548C10.794 17.7064 10.8252 17.8632 10.8858 18.0095C10.9464 18.1558 11.0352 18.2888 11.1472 18.4008C11.2592 18.5128 11.3922 18.6016 11.5385 18.6622C11.6848 18.7228 11.8416 18.754 12 18.754C12.3198 18.754 12.6266 18.6269 12.8528 18.4008C13.0789 18.1746 13.206 17.8678 13.206 17.548C13.206 17.2281 13.0789 16.9214 12.8528 16.6952C12.6266 16.4691 12.3198 16.342 12 16.342ZM12.75 14.39C12.75 13.349 13.26 12.367 14.15 11.697C15.295 10.835 15.806 9.41999 15.482 8.00499C15.3328 7.35959 15.0054 6.76902 14.5371 6.30053C14.0688 5.83203 13.4783 5.50443 12.833 5.35499C12.304 5.23045 11.7537 5.22738 11.2234 5.34602C10.693 5.46466 10.1965 5.70193 9.77099 6.03999C9.34951 6.37423 9.00925 6.79963 8.77578 7.28424C8.54231 7.76886 8.42169 8.30008 8.42299 8.83799C8.42299 9.03691 8.50201 9.22767 8.64266 9.36832C8.78331 9.50898 8.97408 9.58799 9.17299 9.58799C9.3719 9.58799 9.56267 9.50898 9.70332 9.36832C9.84397 9.22767 9.92299 9.03691 9.92299 8.83799C9.92299 8.20199 10.208 7.60999 10.706 7.21299C10.9542 7.01341 11.2452 6.8739 11.5562 6.80538C11.8672 6.73686 12.1899 6.74118 12.499 6.81799C13.24 6.98699 13.851 7.59799 14.021 8.33799C14.21 9.16999 13.914 9.99699 13.248 10.498C11.978 11.455 11.25 12.874 11.25 14.39C11.25 14.5889 11.329 14.7797 11.4697 14.9203C11.6103 15.061 11.8011 15.14 12 15.14C12.1989 15.14 12.3897 15.061 12.5303 14.9203C12.671 14.7797 12.75 14.5889 12.75 14.39ZM12.016 23.758C8.88944 23.7616 5.8895 22.5231 3.67599 20.315C-0.91401 15.725 -0.91401 8.25799 3.67599 3.66799C8.26599 -0.922006 15.734 -0.922006 20.324 3.66799C24.914 8.25799 24.914 15.725 20.324 20.315C20.1826 20.4517 19.9932 20.5274 19.7965 20.5258C19.5999 20.5241 19.4117 20.4453 19.2726 20.3064C19.1335 20.1674 19.0545 19.9793 19.0527 19.7826C19.0509 19.586 19.1264 19.3965 19.263 19.255C23.268 15.25 23.268 8.733 19.263 4.72799C15.258 0.722995 8.74199 0.722995 4.73699 4.72799C0.73199 8.733 0.73199 15.25 4.73699 19.255C6.23318 20.7454 8.15135 21.7399 10.2316 22.1037C12.3119 22.4675 14.4538 22.1831 16.367 21.289C16.5461 21.2104 16.7487 21.2048 16.9318 21.2735C17.1149 21.3422 17.264 21.4797 17.3472 21.6566C17.4304 21.8336 17.4411 22.0361 17.3772 22.2209C17.3133 22.4057 17.1797 22.5582 17.005 22.646C15.444 23.379 13.7405 23.7587 12.016 23.758Z" fill="#292830"/>
</svg>
