<svg width="24" height="24" viewBox="0 0 24 24" fill="none" xmlns="http://www.w3.org/2000/svg">
<path fill-rule="evenodd" clip-rule="evenodd" d="M21.026 0.999997C20.8144 0.999997 20.6114 1.08407 20.4617 1.23373C20.3121 1.38338 20.228 1.58635 20.228 1.798V4.638L19.587 4.034C19.186 3.654 18.755 3.302 18.31 2.99C16.4615 1.69172 14.2569 0.996655 11.998 0.999997C10.381 0.999997 8.81801 1.347 7.35101 2.03C5.60281 2.84838 4.09999 4.1112 2.99271 5.69229C1.88542 7.27337 1.21244 9.11736 1.04101 11.04C0.87558 12.9633 1.218 14.8963 2.03403 16.6458C2.85005 18.3952 4.11108 19.8998 5.69101 21.009C7.52896 22.3081 9.72527 23.0039 11.976 23C12.621 23 13.271 22.943 13.91 22.83C16.4579 22.3842 18.7666 21.0534 20.4295 19.0723C22.0924 17.0911 23.0027 14.5866 23 12C23.0037 11.8929 22.9857 11.7861 22.9472 11.6861C22.9087 11.5861 22.8505 11.4949 22.7759 11.4178C22.7014 11.3408 22.6121 11.2796 22.5134 11.2379C22.4147 11.1961 22.3086 11.1746 22.2015 11.1748C22.0943 11.1749 21.9883 11.1966 21.8897 11.2386C21.7911 11.2806 21.7019 11.3421 21.6276 11.4193C21.5533 11.4965 21.4953 11.5879 21.457 11.688C21.4188 11.7881 21.4011 11.8949 21.405 12.002C21.4065 13.7222 20.9348 15.4097 20.0414 16.8798C19.1481 18.3499 17.8676 19.5459 16.34 20.337C14.9987 21.034 13.5096 21.3986 11.998 21.4C10.0688 21.403 8.18576 20.8103 6.60601 19.703C5.59285 18.9968 4.72977 18.0967 4.0667 17.0548C3.40363 16.0129 2.95372 14.8499 2.74301 13.633C2.52434 12.4174 2.549 11.1704 2.81558 9.9644C3.08216 8.75837 3.58534 7.61721 4.29601 6.607C5.16594 5.36843 6.32142 4.35764 7.66469 3.66016C9.00795 2.96268 10.4995 2.59904 12.013 2.6C13.946 2.6 15.808 3.187 17.393 4.296C18.0357 4.74497 18.6199 5.27238 19.132 5.866L19.673 6.493H15.531C15.3263 6.50325 15.1333 6.5918 14.992 6.74033C14.8508 6.88886 14.772 7.08601 14.772 7.291C14.772 7.49599 14.8508 7.69313 14.992 7.84166C15.1333 7.99019 15.3263 8.07874 15.531 8.089H21.026C21.466 8.089 21.823 7.731 21.823 7.291V1.798C21.823 1.58653 21.7391 1.3837 21.5896 1.23408C21.4402 1.08445 21.2375 1.00026 21.026 0.999997Z" fill="#292830"/>
</svg>
