<svg width="24" height="24" viewBox="0 0 24 24" fill="none" xmlns="http://www.w3.org/2000/svg">
<path d="M22.214 7.125V7.138L22.219 7.126C22.879 8.663 23.216 10.302 23.216 11.999C23.216 18.617 18.008 24 11.608 24C5.228 24 0.038 18.653 0 12.067V11.999C0 11.328 0.057 10.653 0.162 9.991L1.962 10.304C1.871 10.862 1.823 11.434 1.823 11.999C1.823 17.576 6.213 22.115 11.608 22.115C16.463 22.115 20.473 18.43 21.233 13.631H18.449L22.214 7.125ZM12.109 6C12.3477 6 12.5766 6.09482 12.7454 6.2636C12.9142 6.43239 13.009 6.66131 13.009 6.9V7.035C14.286 7.397 15.218 8.505 15.218 9.814C15.218 10.0528 15.1231 10.2819 14.9542 10.4507C14.7854 10.6196 14.5563 10.7145 14.3175 10.7145C14.0787 10.7145 13.8496 10.6196 13.6807 10.4507C13.5119 10.2819 13.417 10.0528 13.417 9.814C13.417 9.206 12.83 8.711 12.109 8.711C11.388 8.711 10.801 9.206 10.801 9.814C10.801 10.423 11.388 10.918 12.109 10.918C13.823 10.918 15.218 12.221 15.218 13.823C15.218 15.132 14.286 16.241 13.009 16.603V16.66C13.009 16.8988 12.9141 17.1279 12.7452 17.2967C12.5764 17.4656 12.3473 17.5605 12.1085 17.5605C11.8697 17.5605 11.6406 17.4656 11.4718 17.2967C11.3029 17.1279 11.208 16.8988 11.208 16.66V16.603C9.932 16.241 9 15.132 9 13.823C9 13.5842 9.09487 13.3551 9.26375 13.1863C9.43263 13.0174 9.66167 12.9225 9.9005 12.9225C10.1393 12.9225 10.3684 13.0174 10.5372 13.1863C10.7061 13.3551 10.801 13.5842 10.801 13.823C10.801 14.431 11.388 14.926 12.109 14.926C12.83 14.926 13.417 14.431 13.417 13.823C13.417 13.214 12.83 12.719 12.109 12.719C10.395 12.719 9 11.416 9 9.814C9 8.505 9.932 7.397 11.208 7.035V6.9C11.208 6.78173 11.2313 6.66461 11.2766 6.55535C11.3219 6.4461 11.3883 6.34684 11.472 6.26325C11.5556 6.17966 11.655 6.11339 11.7643 6.06822C11.8736 6.02305 11.9907 5.99987 12.109 6ZM1.515 6.07L3.099 7.003C2.81756 7.51545 2.57972 8.05067 2.388 8.603L0.672 7.97C0.898 7.312 1.182 6.671 1.515 6.07ZM20.422 4.188C20.862 4.716 21.259 5.289 21.6 5.887L20.03 6.846C19.742 6.343 19.41 5.862 19.04 5.417L20.422 4.188ZM4.079 2.866L5.264 4.298C4.8298 4.68232 4.42902 5.10284 4.066 5.555L2.662 4.351C3.089 3.821 3.562 3.321 4.079 2.866ZM17.314 1.548C17.898 1.889 18.459 2.287 18.979 2.728L17.82 4.183C17.3817 3.81126 16.912 3.47834 16.416 3.188L17.314 1.548ZM7.546 0.756L8.184 2.522C7.65058 2.72718 7.13681 2.98021 6.649 3.278L5.723 1.655C6.308 1.299 6.92 0.995 7.546 0.755V0.756ZM13.516 0.162C14.182 0.275 14.84 0.45 15.475 0.682L14.865 2.458C14.3311 2.26337 13.7809 2.11679 13.221 2.02L13.516 0.162ZM11.505 0L11.52 1.885C10.9508 1.88934 10.3832 1.9449 9.824 2.051L9.497 0.198C10.157 0.074 10.83 0.006 11.504 0H11.505Z" fill="#292830"/>
</svg>
