<svg width="24" height="24" viewBox="0 0 24 24" fill="none" xmlns="http://www.w3.org/2000/svg">
<path d="M24 12C24 18.075 19.05 23 12.942 23C10.55 23 8.27199 22.242 6.38599 20.859C6.30653 20.801 6.23934 20.7279 6.18829 20.6438C6.13724 20.5597 6.10335 20.4664 6.08857 20.3691C6.07379 20.2719 6.07841 20.1727 6.10217 20.0772C6.12593 19.9818 6.16835 19.892 6.22699 19.813C6.3458 19.6535 6.5228 19.5474 6.71946 19.5178C6.91612 19.4882 7.11651 19.5375 7.27699 19.655C8.91933 20.8608 10.9046 21.5091 12.942 21.505C18.219 21.505 22.497 17.249 22.497 12C22.497 6.75 18.219 2.495 12.942 2.495C7.95299 2.495 3.85699 6.299 3.42499 11.15L4.26899 10.63C4.37396 10.5649 4.50044 10.544 4.62076 10.5719C4.74108 10.5999 4.84544 10.6743 4.91099 10.779C4.9523 10.8453 4.97608 10.921 4.98011 10.999C4.98413 11.077 4.96826 11.1548 4.93399 11.225L3.02999 15.132C2.99287 15.2076 2.93601 15.2717 2.86542 15.3176C2.79484 15.3635 2.71316 15.3894 2.62903 15.3927C2.5449 15.396 2.46145 15.3765 2.38751 15.3362C2.31357 15.296 2.25189 15.2364 2.20899 15.164L0.0639935 11.508C0.0331177 11.4555 0.0129412 11.3973 0.00462612 11.337C-0.00368897 11.2766 2.16076e-05 11.2152 0.0155442 11.1562C0.0310667 11.0973 0.0580945 11.042 0.0950709 10.9936C0.132047 10.9452 0.178242 10.9045 0.230993 10.874C0.292038 10.8387 0.360258 10.8177 0.430561 10.8125C0.500863 10.8073 0.57143 10.8181 0.636993 10.844L1.90499 11.339C2.24799 5.572 7.05899 1 12.943 1C19.048 1 24 5.925 24 12ZM14.09 6.95V7.09C15.412 7.465 16.378 8.611 16.378 9.965C16.378 10.2124 16.2797 10.4498 16.1047 10.6247C15.9298 10.7997 15.6924 10.898 15.445 10.898C15.1975 10.898 14.9602 10.7997 14.7853 10.6247C14.6103 10.4498 14.512 10.2124 14.512 9.965C14.512 9.336 13.904 8.825 13.157 8.825C12.41 8.825 11.802 9.336 11.802 9.965C11.802 10.595 12.41 11.108 13.157 11.108C14.933 11.108 16.377 12.456 16.377 14.113C16.377 15.468 15.412 16.615 14.09 16.989V17.049C14.09 17.2963 13.9917 17.5335 13.8169 17.7084C13.642 17.8833 13.4048 17.9815 13.1575 17.9815C12.9102 17.9815 12.673 17.8833 12.4981 17.7084C12.3232 17.5335 12.225 17.2963 12.225 17.049V16.989C10.902 16.615 9.93599 15.467 9.93599 14.113C9.93599 13.8656 10.0343 13.6282 10.2093 13.4533C10.3842 13.2783 10.6215 13.18 10.869 13.18C11.1164 13.18 11.3538 13.2783 11.5287 13.4533C11.7037 13.6282 11.802 13.8656 11.802 14.113C11.802 14.743 12.41 15.254 13.157 15.254C13.904 15.254 14.512 14.742 14.512 14.114C14.512 13.484 13.904 12.971 13.157 12.971C11.382 12.971 9.93699 11.623 9.93699 9.965C9.93699 8.611 10.902 7.465 12.225 7.09V6.95C12.225 6.70269 12.3232 6.4655 12.4981 6.29062C12.673 6.11575 12.9102 6.0175 13.1575 6.0175C13.4048 6.0175 13.642 6.11575 13.8169 6.29062C13.9917 6.4655 14.09 6.70269 14.09 6.95Z" fill="#292830"/>
</svg>
