<svg width="24" height="24" viewBox="0 0 24 24" fill="none" xmlns="http://www.w3.org/2000/svg">
<g clip-path="url(#clip0)">
<path fill-rule="evenodd" clip-rule="evenodd" d="M23.753 15.656C23.7081 15.4274 23.6548 15.2006 23.593 14.976C23.5682 14.8794 23.5246 14.7887 23.4646 14.709C23.4046 14.6294 23.3295 14.5623 23.2435 14.5118C23.1576 14.4612 23.0625 14.4282 22.9637 14.4145C22.865 14.4008 22.7645 14.4067 22.668 14.432C22.4731 14.4832 22.3065 14.6097 22.2048 14.7838C22.1032 14.9578 22.0748 15.1651 22.126 15.36C22.2884 15.9864 22.3925 16.6264 22.437 17.272H12.391L8.787 12.856C8.65994 12.7021 8.4771 12.6047 8.27846 12.5852C8.07983 12.5657 7.88155 12.6257 7.727 12.752C7.57327 12.8801 7.47616 13.0635 7.4567 13.2627C7.43723 13.4618 7.49698 13.6606 7.623 13.816L10.445 17.272H1.523C1.7083 14.6826 2.84743 12.254 4.72 10.456C4.728 10.464 4.728 10.472 4.736 10.488L5.422 11.312C5.55116 11.4659 5.73604 11.5625 5.93618 11.5805C6.13633 11.5985 6.33545 11.5364 6.49 11.408C6.64284 11.2773 6.73846 11.0919 6.7564 10.8916C6.77434 10.6912 6.71318 10.4918 6.586 10.336L5.892 9.512C5.884 9.504 5.876 9.504 5.876 9.496C7.44603 8.3596 9.30189 7.68361 11.235 7.544V8.584C11.2313 8.68579 11.2482 8.78729 11.2846 8.88242C11.321 8.97755 11.3762 9.06437 11.4469 9.13769C11.5176 9.21101 11.6023 9.26933 11.6961 9.30917C11.7898 9.349 11.8906 9.36953 11.9925 9.36953C12.0944 9.36953 12.1952 9.349 12.2889 9.30917C12.3827 9.26933 12.4674 9.21101 12.5381 9.13769C12.6088 9.06437 12.664 8.97755 12.7004 8.88242C12.7368 8.78729 12.7537 8.68579 12.75 8.584V7.56C14.727 7.704 16.593 8.376 18.148 9.512L17.478 10.312C17.207 10.632 17.254 11.112 17.573 11.384C17.717 11.504 17.884 11.56 18.06 11.56C18.275 11.56 18.49 11.464 18.642 11.288L19.312 10.488C19.926 11.088 20.476 11.776 20.946 12.536C20.9969 12.6214 21.0643 12.6957 21.1444 12.7546C21.2244 12.8135 21.3155 12.8558 21.4122 12.8789C21.5088 12.902 21.6091 12.9055 21.7072 12.8892C21.8052 12.8729 21.899 12.8371 21.983 12.784C22.1536 12.6788 22.2755 12.5102 22.3218 12.3151C22.3681 12.1201 22.3351 11.9147 22.23 11.744C20.03 8.144 16.202 6 12 6C5.382 6 0 11.4 0 18.04C0 18.456 0.335 18.8 0.758 18.8H23.243C23.3426 18.7999 23.4412 18.7801 23.5332 18.7418C23.6252 18.7035 23.7087 18.6475 23.779 18.5769C23.8494 18.5063 23.9051 18.4226 23.943 18.3305C23.9809 18.2383 24.0003 18.1396 24 18.04C23.984 17.24 23.904 16.432 23.753 15.656Z" fill="#292830"/>
</g>
<defs>
<clipPath id="clip0">
<rect width="24" height="24" fill="white"/>
</clipPath>
</defs>
</svg>
