<svg width="24" height="24" viewBox="0 0 24 24" fill="none" xmlns="http://www.w3.org/2000/svg">
<path d="M9.811 5.78799C13.001 2.09399 17.983 0.344994 22.818 1.22299C22.9683 1.25033 23.1066 1.32277 23.2147 1.43066C23.3228 1.53856 23.3954 1.6768 23.423 1.82699C23.969 4.83999 23.533 7.86899 22.163 10.587C22.1186 10.675 22.0572 10.7533 21.9825 10.8176C21.9077 10.8819 21.8211 10.9308 21.7274 10.9616C21.6338 10.9924 21.535 11.0044 21.4367 10.997C21.3384 10.9896 21.2425 10.9629 21.1545 10.9185C21.0665 10.874 20.9882 10.8127 20.9239 10.738C20.8596 10.6632 20.8107 10.5765 20.7799 10.4829C20.7491 10.3893 20.7371 10.2905 20.7445 10.1922C20.7519 10.0939 20.7786 9.99798 20.823 9.90999C21.9636 7.65989 22.3849 5.11357 22.03 2.61599C17.881 2.04699 13.676 3.60799 10.947 6.76799C9.838 8.05599 6.59 13.255 6.359 13.712C6.33435 13.7634 6.3264 13.8212 6.33627 13.8773C6.34613 13.9335 6.37331 13.9851 6.414 14.025L10.117 17.726C10.33 17.938 10.493 18.101 10.612 18.239L10.62 18.231C10.704 18.316 10.83 18.335 10.935 18.285C13.4056 17.0742 15.713 15.5555 17.802 13.765C18.3461 13.2957 18.8499 12.7815 19.308 12.228C19.4374 12.0833 19.6178 11.9943 19.8113 11.9797C20.0049 11.965 20.1966 12.0259 20.3462 12.1496C20.4959 12.2732 20.5918 12.45 20.614 12.6429C20.6361 12.8357 20.5827 13.0297 20.465 13.184C19.952 13.8027 19.388 14.3774 18.779 14.902C18.679 14.988 18.572 15.065 18.47 15.15L18.59 15.495C18.8323 16.2025 18.8802 16.9621 18.7286 17.6944C18.5769 18.4268 18.2314 19.1049 17.728 19.658L14.444 23.27C14.2541 23.481 14.0051 23.6301 13.7295 23.6978C13.4538 23.7656 13.1641 23.7489 12.898 23.65C12.6312 23.5523 12.3999 23.3767 12.234 23.146C12.0682 22.9153 11.9755 22.64 11.968 22.356L11.878 19.483C11.783 19.531 11.691 19.586 11.595 19.633C11.2624 19.7951 10.8876 19.8494 10.5227 19.7885C10.1577 19.7275 9.82088 19.5543 9.559 19.293L9.52901 19.258L9.155 18.886L9.057 18.788L5.353 15.086C5.06415 14.7974 4.88358 14.418 4.84169 14.0119C4.79979 13.6057 4.89914 13.1975 5.123 12.856L2.38001 12.77C2.0961 12.7624 1.82104 12.6697 1.59048 12.5038C1.35992 12.338 1.18451 12.1067 1.087 11.84C0.988522 11.5736 0.972184 11.2838 1.0401 11.008C1.10802 10.7323 1.25707 10.4832 1.468 10.293L5.08 7.00999C5.63329 6.50695 6.31158 6.16183 7.04393 6.01071C7.77629 5.8596 8.53579 5.90805 9.243 6.15099L9.464 6.22599C9.591 6.05899 9.711 5.90599 9.811 5.78899V5.78799ZM7.076 20.842C7.14516 20.7703 7.22789 20.7132 7.31937 20.6738C7.41086 20.6345 7.50926 20.6137 7.60884 20.6128C7.70843 20.6119 7.8072 20.6308 7.89939 20.6685C7.99158 20.7062 8.07534 20.7618 8.14579 20.8322C8.21625 20.9026 8.27197 20.9863 8.30973 21.0784C8.34748 21.1706 8.36651 21.2694 8.36569 21.3689C8.36487 21.4685 8.34423 21.5669 8.30496 21.6585C8.2657 21.75 8.2086 21.8328 8.137 21.902L6.755 23.284C6.68564 23.354 6.60309 23.4096 6.51212 23.4475C6.42115 23.4855 6.32357 23.505 6.225 23.505C6.12644 23.505 6.02886 23.4855 5.93789 23.4475C5.84692 23.4096 5.76437 23.354 5.695 23.284C5.62534 23.2144 5.57007 23.1318 5.53237 23.0409C5.49466 22.9499 5.47525 22.8524 5.47525 22.754C5.47525 22.6555 5.49466 22.5581 5.53237 22.4671C5.57007 22.3762 5.62534 22.2936 5.695 22.224L7.076 20.842ZM5.621 17.962C5.68967 17.8883 5.77247 17.8292 5.86447 17.7882C5.95647 17.7472 6.05578 17.7252 6.15648 17.7234C6.25718 17.7216 6.35721 17.7402 6.4506 17.7779C6.54399 17.8156 6.62882 17.8717 6.70004 17.943C6.77126 18.0142 6.82741 18.099 6.86513 18.1924C6.90285 18.2858 6.92137 18.3858 6.9196 18.4865C6.91782 18.5872 6.89578 18.6865 6.85479 18.7785C6.81379 18.8705 6.75469 18.9533 6.68101 19.022L3.665 22.038C3.59563 22.1079 3.51305 22.1634 3.42207 22.2011C3.33109 22.2389 3.23351 22.2582 3.135 22.258C2.98655 22.2583 2.84134 22.2146 2.71781 22.1322C2.59429 22.0499 2.49802 21.9327 2.44122 21.7955C2.38443 21.6584 2.36968 21.5074 2.39884 21.3619C2.428 21.2163 2.49976 21.0827 2.605 20.978L5.621 17.962ZM17.207 16.167C15.9813 17.0965 14.6944 17.9424 13.355 18.699L13.462 22.122L16.619 18.648C16.9165 18.3167 17.1261 17.9161 17.2288 17.4829C17.3316 17.0496 17.324 16.5976 17.207 16.168V16.167ZM2.741 16.507C2.88428 16.3806 3.07034 16.3136 3.2613 16.3195C3.45226 16.3255 3.63377 16.404 3.76887 16.5391C3.90397 16.6742 3.98249 16.8557 3.98846 17.0467C3.99443 17.2377 3.9274 17.4237 3.801 17.567L2.42 18.95C2.35134 19.0237 2.26854 19.0828 2.17654 19.1238C2.08454 19.1648 1.98523 19.1868 1.88453 19.1886C1.78382 19.1904 1.6838 19.1718 1.59041 19.1341C1.49702 19.0964 1.41219 19.0403 1.34097 18.969C1.26975 18.8978 1.2136 18.813 1.17588 18.7196C1.13816 18.6262 1.11964 18.5262 1.12141 18.4255C1.12319 18.3248 1.14523 18.2255 1.18622 18.1335C1.22722 18.0415 1.28632 17.9587 1.36 17.89L2.741 16.507ZM8.533 7.52399C8.10832 7.41384 7.66297 7.41053 7.2367 7.51435C6.81042 7.61817 6.41648 7.8259 6.09 8.11899L2.616 11.277L6.02 11.383C6.83274 10.0806 7.67056 8.79402 8.533 7.52399ZM14.253 6.23799C15.408 5.08399 17.306 5.11099 18.406 6.20999C18.982 6.78699 19.284 7.51999 19.284 8.29999C19.284 9.07999 18.982 9.81299 18.433 10.362C18.161 10.6408 17.836 10.8623 17.477 11.0134C17.1181 11.1645 16.7325 11.2423 16.343 11.242C15.565 11.242 14.833 10.942 14.286 10.394L14.263 10.371C13.9893 10.1004 13.7722 9.77795 13.6244 9.42256C13.4766 9.06717 13.401 8.6859 13.402 8.30099C13.402 7.51899 13.704 6.78699 14.252 6.23799H14.253ZM16.343 6.85799C15.963 6.85799 15.608 7.00499 15.342 7.26999C14.761 7.84999 14.761 8.74999 15.314 9.30199L15.342 9.32899C15.872 9.86099 16.814 9.86099 17.345 9.32899C17.925 8.74899 17.925 7.84999 17.372 7.29899C17.2387 7.16016 17.0788 7.04964 16.9018 6.97404C16.7249 6.89843 16.5345 6.85931 16.342 6.85899L16.343 6.85799Z" fill="#292830"/>
</svg>
