<svg width="24" height="24" viewBox="0 0 24 24" fill="none" xmlns="http://www.w3.org/2000/svg">
<path d="M15.401 19.46C15.2021 19.46 15.0113 19.381 14.8707 19.2403C14.73 19.0997 14.651 18.9089 14.651 18.71V10.064C14.651 9.86508 14.73 9.67432 14.8707 9.53366C15.0113 9.39301 15.2021 9.31399 15.401 9.31399C15.5999 9.31399 15.7907 9.39301 15.9313 9.53366C16.072 9.67432 16.151 9.86508 16.151 10.064V18.71C16.151 18.9089 16.072 19.0997 15.9313 19.2403C15.7907 19.381 15.5999 19.46 15.401 19.46ZM8.596 9.31399C8.79491 9.31399 8.98568 9.39301 9.12633 9.53366C9.26698 9.67432 9.346 9.86508 9.346 10.064V18.71C9.346 18.9089 9.26698 19.0997 9.12633 19.2403C8.98568 19.381 8.79491 19.46 8.596 19.46C8.39709 19.46 8.20632 19.381 8.06567 19.2403C7.92502 19.0997 7.846 18.9089 7.846 18.71V10.064C7.846 9.86508 7.92502 9.67432 8.06567 9.53366C8.20632 9.39301 8.39709 9.31399 8.596 9.31399ZM11.999 9.31399C12.1979 9.31399 12.3887 9.39301 12.5293 9.53366C12.67 9.67432 12.749 9.86508 12.749 10.064V18.71C12.749 18.9089 12.67 19.0997 12.5293 19.2403C12.3887 19.381 12.1979 19.46 11.999 19.46C11.8001 19.46 11.6093 19.381 11.4687 19.2403C11.328 19.0997 11.249 18.9089 11.249 18.71V10.064C11.249 9.86508 11.328 9.67432 11.4687 9.53366C11.6093 9.39301 11.8001 9.31399 11.999 9.31399ZM20.899 5.34499C20.899 5.38355 20.8914 5.42174 20.8766 5.45735C20.8618 5.49296 20.8401 5.52531 20.8128 5.55253C20.7855 5.57975 20.7531 5.60131 20.7174 5.61598C20.6818 5.63064 20.6436 5.63812 20.605 5.63799H3.392C3.31437 5.63773 3.24 5.60678 3.18511 5.55188C3.13022 5.49699 3.09926 5.42262 3.099 5.34499V4.83999C3.099 4.67999 3.231 4.54699 3.392 4.54699H20.605C20.767 4.54699 20.898 4.67899 20.898 4.83999V5.34599L20.899 5.34499ZM9.889 2.01499C9.889 1.85199 10.02 1.72099 10.181 1.72099H13.816C13.978 1.72099 14.109 1.85199 14.109 2.01399V3.04599H9.89V2.01399L9.889 2.01499ZM20.605 3.04599H15.61V2.01399C15.61 1.02499 14.806 0.220993 13.817 0.220993H10.182C9.194 0.220993 8.389 1.02499 8.389 2.01399V3.04599H3.392C2.403 3.04599 1.599 3.85099 1.599 4.83899V5.34499C1.599 6.33499 2.403 7.13799 3.392 7.13799H3.685V20.9C3.68579 21.663 3.98927 22.3946 4.52882 22.9342C5.06838 23.4737 5.79995 23.7772 6.563 23.778H12.185C12.3839 23.778 12.5747 23.699 12.7153 23.5583C12.856 23.4177 12.935 23.2269 12.935 23.028C12.935 22.8291 12.856 22.6383 12.7153 22.4977C12.5747 22.357 12.3839 22.278 12.185 22.278H6.563C6.19769 22.2775 5.8475 22.1321 5.58919 21.8738C5.33088 21.6155 5.18553 21.2653 5.185 20.9V7.13799H18.812V20.9C18.8115 21.2651 18.6663 21.6152 18.4082 21.8734C18.1501 22.1317 17.8001 22.2772 17.435 22.278H16.242C16.0431 22.278 15.8523 22.357 15.7117 22.4977C15.571 22.6383 15.492 22.8291 15.492 23.028C15.492 23.2269 15.571 23.4177 15.7117 23.5583C15.8523 23.699 16.0431 23.778 16.242 23.778H17.435C18.1979 23.7769 18.9292 23.4733 19.4685 22.9338C20.0079 22.3943 20.3112 21.6629 20.312 20.9V7.13799H20.605C21.595 7.13799 22.398 6.33399 22.398 5.34499V4.83999C22.398 3.85199 21.594 3.04699 20.605 3.04699V3.04599Z" fill="#292830"/>
</svg>
