<svg width="24" height="24" viewBox="0 0 24 24" fill="none" xmlns="http://www.w3.org/2000/svg">
<path d="M23.338 22.67L17.894 17.225C18.296 16.807 18.677 16.366 19.008 15.876C19.1194 15.7112 19.1607 15.5088 19.123 15.3135C19.0852 15.1182 18.9713 14.9459 18.8065 14.8345C18.6417 14.7231 18.4393 14.6818 18.244 14.7196C18.0487 14.7573 17.8764 14.8712 17.765 15.036C16.9731 16.2108 15.9047 17.1731 14.6538 17.8383C13.4029 18.5035 12.0078 18.8512 10.591 18.851C5.822 18.851 1.942 14.97 1.942 10.201C1.942 5.431 5.822 1.55 10.591 1.55C15.361 1.55 19.242 5.431 19.242 10.201C19.242 10.921 19.153 11.636 18.979 12.325C18.9548 12.4205 18.9497 12.5198 18.9639 12.6172C18.9781 12.7147 19.0114 12.8084 19.0618 12.893C19.1637 13.0638 19.3292 13.1872 19.522 13.236C19.7148 13.2848 19.9191 13.255 20.09 13.1532C20.2608 13.0513 20.3842 12.8858 20.433 12.693C20.8114 11.195 20.8429 9.63041 20.5253 8.11835C20.2077 6.60629 19.5493 5.18663 18.6003 3.96744C17.6512 2.74825 16.4364 1.76168 15.0485 1.08282C13.6606 0.403968 12.1361 0.0507309 10.591 0.0500031C4.995 0.0500031 0.442001 4.604 0.442001 10.201C0.442001 15.797 4.995 20.351 10.591 20.351C12.869 20.351 15.032 19.575 16.786 18.219C16.801 18.238 16.808 18.26 16.825 18.277L22.277 23.731C22.4197 23.8614 22.6072 23.9318 22.8005 23.9274C22.9938 23.9231 23.178 23.8444 23.3147 23.7077C23.4514 23.571 23.5301 23.3868 23.5344 23.1935C23.5388 23.0002 23.4684 22.8127 23.338 22.67Z" fill="#292830"/>
</svg>
