<svg width="24" height="24" viewBox="0 0 24 24" fill="none" xmlns="http://www.w3.org/2000/svg">
<path d="M11.398 14.643C11.4974 14.6429 11.5958 14.6231 11.6875 14.5846C11.7792 14.5462 11.8623 14.4899 11.932 14.419L15.661 10.633C15.8005 10.4911 15.8779 10.2996 15.8762 10.1006C15.8745 9.90166 15.7939 9.7115 15.652 9.572C15.5101 9.43249 15.3186 9.35507 15.1196 9.35676C14.9207 9.35845 14.7305 9.43911 14.591 9.581L11.397 12.825L9.876 11.286C9.73377 11.1568 9.54743 11.087 9.35533 11.0911C9.16322 11.0951 8.97997 11.1726 8.84327 11.3076C8.70657 11.4426 8.62683 11.6249 8.62045 11.817C8.61408 12.009 8.68156 12.1962 8.809 12.34L10.864 14.42C10.9338 14.4907 11.0169 14.5469 11.1086 14.5852C11.2003 14.6234 11.2986 14.6431 11.398 14.643ZM12 23.868C11.8649 23.8681 11.7322 23.8319 11.616 23.763L7.823 21.51C6.27352 20.5838 4.99002 19.2724 4.09724 17.7034C3.20446 16.1345 2.73276 14.3612 2.728 12.556V3.601C2.72812 3.48339 2.75589 3.36747 2.80908 3.26257C2.86227 3.15768 2.93937 3.06677 3.03418 2.99718C3.12898 2.92759 3.23882 2.88126 3.35483 2.86195C3.47084 2.84263 3.58976 2.85087 3.702 2.886L3.855 2.934C5.215 3.35524 6.67259 3.34134 8.02431 2.89423C9.37603 2.44712 10.5544 1.58912 11.395 0.439997C11.677 0.0539974 12.324 0.0539974 12.605 0.439997C13.4452 1.59042 14.624 2.44935 15.9766 2.89655C17.3291 3.34375 18.7876 3.35684 20.148 2.934L20.298 2.887C20.4103 2.85191 20.5293 2.84369 20.6453 2.863C20.7614 2.88232 20.8712 2.92863 20.9661 2.9982C21.061 3.06777 21.1382 3.15866 21.1915 3.26354C21.2448 3.36842 21.2727 3.48435 21.273 3.602V12.556C21.273 12.909 21.255 13.259 21.22 13.606C21.2122 13.7056 21.1845 13.8026 21.1387 13.8914C21.0928 13.9802 21.0297 14.0589 20.953 14.1229C20.8763 14.187 20.7876 14.235 20.6921 14.2643C20.5966 14.2936 20.4962 14.3035 20.3968 14.2934C20.2974 14.2834 20.201 14.2536 20.1133 14.2057C20.0256 14.1579 19.9483 14.093 19.886 14.0149C19.8237 13.9368 19.7776 13.8471 19.7505 13.7509C19.7234 13.6548 19.7157 13.5541 19.728 13.455C19.758 13.157 19.773 12.858 19.773 12.556V4.576C18.3704 4.85933 16.9186 4.77678 15.5572 4.3363C14.1958 3.89581 12.9707 3.11222 12 2.061C11.0289 3.11165 9.80374 3.89477 8.44244 4.33505C7.08114 4.77533 5.62946 4.85796 4.227 4.575V12.555C4.23078 14.1006 4.6346 15.6188 5.39917 16.962C6.16373 18.3052 7.263 19.4276 8.59 20.22L12 22.246L15.41 20.219C16.9187 19.3254 18.1292 18.0053 18.889 16.425C18.9755 16.2457 19.1296 16.1081 19.3175 16.0425C19.5054 15.9768 19.7117 15.9885 19.891 16.075C20.0703 16.1615 20.2079 16.3156 20.2735 16.5035C20.3392 16.6914 20.3275 16.8977 20.241 17.077C19.3528 18.9226 17.9389 20.4646 16.177 21.509L12.384 23.763C12.268 23.8317 12.1358 23.868 12.001 23.868H12Z" fill="#292830"/>
</svg>
