<svg width="24" height="24" viewBox="0 0 24 24" fill="none" xmlns="http://www.w3.org/2000/svg">
<g clip-path="url(#clip0)">
<path d="M12.712 16.79C12.8117 16.7786 12.9081 16.7473 12.9955 16.698C13.0829 16.6487 13.1595 16.5823 13.2208 16.5028C13.282 16.4234 13.3268 16.3324 13.3522 16.2354C13.3777 16.1383 13.3835 16.0371 13.3692 15.9378C13.3548 15.8385 13.3207 15.743 13.2689 15.6571C13.217 15.5712 13.1484 15.4966 13.0672 15.4377C12.9859 15.3788 12.8937 15.3368 12.7959 15.3142C12.6982 15.2915 12.5969 15.2888 12.498 15.306C11.986 15.3785 11.4641 15.3314 10.9733 15.1685C10.4825 15.0056 10.0361 14.7313 9.669 14.367C9.04656 13.7431 8.697 12.8978 8.697 12.0165C8.697 11.1352 9.04656 10.2899 9.669 9.666C10.0978 9.23875 10.6357 8.93746 11.224 8.795C11.7792 8.66053 12.3595 8.66995 12.91 8.82236C13.4605 8.97478 13.963 9.26515 14.37 9.666C15.311 10.607 15.595 12.072 15.077 13.312C15.0002 13.4957 14.9995 13.7023 15.0751 13.8865C15.1507 14.0706 15.2963 14.2172 15.48 14.294C15.6637 14.3708 15.8703 14.3715 16.0545 14.2959C16.2386 14.2203 16.3852 14.0747 16.462 13.891C16.8355 13.0075 16.937 12.0326 16.7533 11.0911C16.5696 10.1496 16.1092 9.28434 15.431 8.606C14.8415 8.02401 14.1132 7.60204 13.3151 7.37998C12.517 7.15793 11.6754 7.14313 10.87 7.337C10.014 7.54476 9.23149 7.98374 8.608 8.606C7.70484 9.51145 7.19765 10.7381 7.19765 12.017C7.19765 13.2959 7.70484 14.5226 8.608 15.428C9.14032 15.9567 9.78793 16.3548 10.5 16.5911C11.2121 16.8274 11.9692 16.8955 12.712 16.79ZM11.159 22.54H12.88C12.967 21.8969 13.221 21.2878 13.6167 20.7734C14.0123 20.259 14.5358 19.8572 15.135 19.608C15.7403 19.3525 16.402 19.2606 17.054 19.3413C17.706 19.422 18.3253 19.6726 18.85 20.068L20.067 18.85C19.6739 18.3308 19.4235 17.7178 19.3407 17.0719C19.2579 16.4259 19.3456 15.7696 19.595 15.168C19.8417 14.5617 20.2438 14.0311 20.7608 13.6296C21.2778 13.2281 21.8915 12.9699 22.54 12.881V11.159C21.8967 11.0725 21.2874 10.8188 20.7728 10.4231C20.2583 10.0274 19.8567 9.50356 19.608 8.904C19.3526 8.29896 19.2606 7.63744 19.3411 6.98566C19.4217 6.33387 19.672 5.71466 20.067 5.19L18.85 3.972C18.331 4.36543 17.718 4.61611 17.072 4.69909C16.4261 4.78207 15.7696 4.69447 15.168 4.445C14.5615 4.19849 14.0306 3.79647 13.6289 3.27945C13.2272 2.76242 12.9689 2.14866 12.88 1.5H11.159C11.0723 2.14334 10.8183 2.75268 10.4224 3.26717C10.0265 3.78166 9.50263 4.1833 8.903 4.432C7.639 4.956 6.24 4.773 5.19 3.972L3.972 5.19C4.36624 5.70643 4.61782 6.31741 4.70154 6.9617C4.78525 7.60599 4.69817 8.26097 4.449 8.861C3.924 10.125 2.806 10.983 1.5 11.159V12.881C2.14309 12.9677 2.75219 13.2216 3.26649 13.6173C3.7808 14.013 4.18233 14.5366 4.431 15.136C4.68678 15.741 4.77892 16.4027 4.69818 17.0546C4.61744 17.7065 4.36666 18.3257 3.971 18.85L5.19 20.068C5.7092 19.6749 6.32222 19.4245 6.96815 19.3417C7.61408 19.2589 8.27044 19.3466 8.872 19.596C9.47823 19.8426 10.0088 20.2445 10.4103 20.7613C10.8118 21.2782 11.07 21.8916 11.159 22.54ZM12.974 24.04H11.066C10.352 24.04 9.756 23.506 9.679 22.796C9.63582 22.4022 9.48767 22.0272 9.25001 21.7102C9.01236 21.3932 8.69393 21.1459 8.328 20.994C7.95507 20.8343 7.54583 20.7788 7.14382 20.8332C6.74181 20.8876 6.36207 21.0499 6.045 21.303C5.78026 21.5173 5.44538 21.6258 5.10526 21.6073C4.76513 21.5888 4.44397 21.4447 4.204 21.203L2.837 19.836C2.337 19.336 2.295 18.545 2.737 17.995C2.98778 17.683 3.14992 17.3093 3.2064 16.913C3.26288 16.5168 3.21162 16.1126 3.058 15.743C2.90873 15.3702 2.66123 15.0449 2.34182 14.8015C2.02241 14.5582 1.64302 14.406 1.244 14.361C0.901983 14.3242 0.585674 14.1622 0.355994 13.9061C0.126315 13.65 -0.000490373 13.318 1.42519e-06 12.974V11.066C1.42519e-06 10.353 0.534001 9.756 1.243 9.679C1.63692 9.63654 2.01212 9.48877 2.32921 9.25122C2.64629 9.01367 2.89355 8.69511 3.045 8.329C3.373 7.54 3.251 6.686 2.744 6.055C2.52855 5.78725 2.41969 5.44931 2.43833 5.10615C2.45698 4.76299 2.60181 4.43883 2.845 4.196L4.195 2.846C4.43783 2.60282 4.76199 2.45798 5.10515 2.43933C5.44831 2.42069 5.78625 2.52956 6.054 2.745C6.36325 2.99345 6.73368 3.15408 7.1264 3.21003C7.51912 3.26598 7.91967 3.2152 8.286 3.063C9.074 2.737 9.592 2.045 9.679 1.242C9.71558 0.900429 9.87734 0.584499 10.1331 0.355151C10.3889 0.125803 10.7205 -0.000713993 11.064 3.03112e-06H12.974C13.688 3.03112e-06 14.284 0.535003 14.36 1.244C14.4027 1.63785 14.5505 2.01296 14.788 2.33001C15.0256 2.64706 15.344 2.89437 15.71 3.046C16.0835 3.20569 16.4933 3.26118 16.8958 3.2066C17.2983 3.15201 17.6785 2.98939 17.996 2.736C18.2606 2.52224 18.5951 2.41416 18.9347 2.43263C19.2744 2.45109 19.5951 2.59481 19.835 2.836L21.204 4.205C21.703 4.704 21.745 5.495 21.303 6.044C21.052 6.35623 20.8896 6.73026 20.833 7.12686C20.7763 7.52345 20.8275 7.92798 20.981 8.298C21.1306 8.67073 21.3784 8.996 21.6979 9.23931C22.0175 9.48263 22.3969 9.63491 22.796 9.68C23.1379 9.71612 23.4544 9.87768 23.6841 10.1335C23.9139 10.3893 24.0407 10.7212 24.04 11.065V12.975C24.0406 13.319 23.9137 13.651 23.6837 13.9068C23.4538 14.1627 23.1371 14.3241 22.795 14.36C22.4014 14.4032 22.0267 14.5512 21.7099 14.7887C21.3931 15.0262 21.1458 15.3443 20.994 15.71C20.8341 16.0834 20.7784 16.4931 20.8328 16.8957C20.8872 17.2982 21.0497 17.6785 21.303 17.996C21.745 18.545 21.703 19.336 21.204 19.835L19.835 21.204C19.336 21.704 18.545 21.744 17.995 21.304C17.6831 21.0528 17.3093 20.8903 16.9128 20.8334C16.5164 20.7766 16.1119 20.8276 15.742 20.981C15.3693 21.1304 15.044 21.3779 14.8007 21.6973C14.5573 22.0167 14.4051 22.396 14.36 22.795C14.3235 23.137 14.1617 23.4534 13.9058 23.6833C13.6499 23.9132 13.318 24.0402 12.974 24.04Z" fill="#292830"/>
</g>
<defs>
<clipPath id="clip0">
<rect width="24" height="24" fill="white"/>
</clipPath>
</defs>
</svg>
