<svg width="24" height="24" viewBox="0 0 24 24" fill="none" xmlns="http://www.w3.org/2000/svg">
<path d="M21.618 21.655C21.5368 21.7458 21.4371 21.8182 21.3258 21.8675C21.2144 21.9168 21.0938 21.9419 20.972 21.941H10.384L8.42601 2.057H19.186C19.636 2.057 20.008 2.395 20.052 2.842L21.839 20.985C21.8518 21.1059 21.8389 21.2281 21.8009 21.3436C21.763 21.4591 21.701 21.5653 21.619 21.655H21.618ZM6.19801 18.952V2.057H6.91901L8.78501 21.005L6.19701 18.952H6.19801ZM3.37201 21.942L5.44901 20.273L7.55201 21.941H3.37201V21.942ZM3.94701 2.843C3.96707 2.64956 4.05219 2.46866 4.18843 2.32987C4.32467 2.19109 4.50397 2.10264 4.69701 2.079V18.955L2.16101 20.99V20.985L3.94601 2.843H3.94701ZM21.545 2.696C21.4894 2.1095 21.2166 1.56494 20.7802 1.16921C20.3437 0.773471 19.7751 0.555121 19.186 0.557004H4.81401C4.22467 0.555349 3.65597 0.773883 3.21939 1.16976C2.78281 1.56564 2.50985 2.11032 2.45401 2.697L0.667008 20.838C0.635189 21.1672 0.672381 21.4995 0.776207 21.8136C0.880034 22.1276 1.04821 22.4166 1.27001 22.662C1.49267 22.9067 1.76393 23.1023 2.06646 23.2363C2.369 23.3702 2.69614 23.4396 3.02701 23.44H20.972C21.64 23.44 22.282 23.156 22.729 22.662C23.179 22.167 23.397 21.502 23.332 20.838L21.545 2.696Z" fill="#292830"/>
<path fill-rule="evenodd" clip-rule="evenodd" d="M17.426 4.09199C17.3279 4.0997 17.2323 4.12666 17.1446 4.17135C17.0569 4.21603 16.9789 4.27756 16.915 4.35241C16.8511 4.42727 16.8026 4.51398 16.7722 4.60759C16.7418 4.70121 16.7302 4.79989 16.738 4.89799C16.79 5.57699 16.758 7.52399 15.981 8.36299C15.738 8.62499 15.447 8.74699 15.063 8.74699C13.043 8.74699 12.751 4.83399 12.748 4.79499C12.7435 4.69634 12.7192 4.59961 12.6767 4.51048C12.6342 4.42135 12.5742 4.34163 12.5004 4.27602C12.4266 4.21042 12.3404 4.16025 12.2469 4.12847C12.1534 4.09669 12.0545 4.08395 11.956 4.09099C11.7579 4.1026 11.5724 4.19226 11.4403 4.34034C11.3082 4.48841 11.2401 4.68283 11.251 4.88099C11.263 5.10099 11.599 10.247 15.063 10.247C15.861 10.247 16.56 9.94699 17.084 9.37899C18.441 7.90899 18.258 5.09499 18.234 4.77899C18.199 4.36599 17.829 4.04599 17.426 4.09199Z" fill="#292830"/>
</svg>
