<svg width="24" height="24" viewBox="0 0 24 24" fill="none" xmlns="http://www.w3.org/2000/svg">
<g clip-path="url(#clip0)">
<path d="M18.747 22.014C18.4204 22.0135 18.1074 21.8835 17.8764 21.6526C17.6455 21.4216 17.5155 21.1086 17.515 20.782C17.515 20.132 18.025 19.611 18.667 19.567H18.827C19.467 19.611 19.979 20.131 19.979 20.782C19.979 21.462 19.425 22.014 18.747 22.014ZM9.524 20.782C9.51118 21.1002 9.37577 21.401 9.14613 21.6216C8.91649 21.8422 8.61042 21.9654 8.292 21.9654C7.97358 21.9654 7.66751 21.8422 7.43787 21.6216C7.20823 21.401 7.07282 21.1002 7.06 20.782C7.06 20.132 7.57 19.611 8.211 19.567H8.371C8.68145 19.5855 8.97326 19.7213 9.18734 19.9469C9.40142 20.1725 9.52176 20.471 9.524 20.782ZM6.126 16.582L20.666 16.572C20.8426 16.5714 21.0138 16.5106 21.1511 16.3994C21.2884 16.2883 21.3836 16.1336 21.421 15.961L23.979 5.039C24.0065 4.92385 24.0082 4.80402 23.9838 4.68815C23.9594 4.57229 23.9096 4.46328 23.838 4.369C23.767 4.27537 23.6752 4.19952 23.5699 4.14746C23.4645 4.09539 23.3485 4.06853 23.231 4.069L20.888 4.061C20.7812 4.05702 20.6746 4.07459 20.5747 4.11268C20.4749 4.15076 20.3837 4.20858 20.3066 4.28268C20.2295 4.35677 20.1682 4.44563 20.1262 4.54395C20.0843 4.64228 20.0625 4.74804 20.0623 4.85495C20.0621 4.96185 20.0835 5.0677 20.1251 5.16618C20.1667 5.26465 20.2277 5.35375 20.3044 5.42813C20.3812 5.50252 20.4722 5.56068 20.5719 5.59914C20.6717 5.63761 20.7782 5.65558 20.885 5.652H22.228L19.983 14.988L7.154 14.924L4.983 5.652H16.983C17.423 5.652 17.779 5.296 17.779 4.857V4.843C17.779 4.63214 17.6954 4.42987 17.5466 4.28049C17.3978 4.13111 17.1959 4.04679 16.985 4.046L4.597 4.003L4.007 1.557C3.994 1.507 3.97 1.466 3.944 1.417L3.864 1.298C3.80608 1.22485 3.73688 1.16139 3.659 1.11C3.59461 1.0777 3.52687 1.05255 3.457 1.035L3.29 1H0.780001C0.571 1.00264 0.371562 1.08799 0.225366 1.23738C0.0791701 1.38676 -0.0018676 1.58799 1.09801e-06 1.797C1.09801e-06 2.236 0.350001 2.593 0.780001 2.593L2.687 2.657L5.607 15.082L5.533 15.105C4.597 15.389 3.945 16.286 3.945 17.287C3.945 18.418 4.745 19.354 5.79 19.53C5.59063 19.9174 5.48545 20.3463 5.483 20.782C5.483 21.5269 5.7789 22.2412 6.30559 22.7679C6.83229 23.2946 7.54664 23.5905 8.2915 23.5905C9.03636 23.5905 9.75071 23.2946 10.2774 22.7679C10.8041 22.2412 11.1 21.5269 11.1 20.782C11.1 20.345 10.99 19.936 10.812 19.567H16.227C16.0399 19.9449 15.9415 20.3604 15.939 20.782C15.939 21.5267 16.2348 22.241 16.7614 22.7676C17.288 23.2942 18.0023 23.59 18.747 23.59C19.4917 23.59 20.206 23.2942 20.7326 22.7676C21.2592 22.241 21.555 21.5267 21.555 20.782C21.5537 20.0832 21.291 19.4103 20.8185 18.8954C20.3461 18.3806 19.6981 18.0612 19.002 18C18.9224 17.9876 18.8424 17.9789 18.762 17.974H6.125C5.768 17.974 5.477 17.661 5.477 17.277C5.477 16.894 5.768 16.582 6.125 16.582" fill="#292830"/>
</g>
<defs>
<clipPath id="clip0">
<rect width="24" height="24" fill="white"/>
</clipPath>
</defs>
</svg>
