<svg width="24" height="24" viewBox="0 0 24 24" fill="none" xmlns="http://www.w3.org/2000/svg">
<path d="M11.935 5C16.96 5 21.188 8.702 23.26 10.908C24.073 11.775 24.07 13.133 23.255 14.001C22.593 14.7055 21.8898 15.37 21.149 15.991C20.9958 16.1111 20.8019 16.1669 20.6083 16.1466C20.4147 16.1263 20.2366 16.0316 20.1116 15.8824C19.9865 15.7332 19.9244 15.5413 19.9383 15.3472C19.9522 15.153 20.041 14.9719 20.186 14.842C20.8804 14.2579 21.5402 13.6338 22.162 12.973C22.2942 12.8326 22.3682 12.6472 22.3689 12.4543C22.3696 12.2614 22.2971 12.0754 22.166 11.934C20.631 10.3 16.562 6.5 11.935 6.5C7.30499 6.5 3.23699 10.301 1.70299 11.936C1.57382 12.0766 1.50215 12.2606 1.50215 12.4515C1.50215 12.6424 1.57382 12.8264 1.70299 12.967C3.23699 14.602 7.30499 18.404 11.935 18.404C13.643 18.404 15.437 17.889 17.267 16.874C17.3532 16.8222 17.449 16.7883 17.5486 16.7743C17.6482 16.7602 17.7496 16.7664 17.8467 16.7924C17.9439 16.8183 18.0349 16.8636 18.1142 16.9254C18.1935 16.9872 18.2596 17.0644 18.3085 17.1522C18.3574 17.2401 18.3881 17.337 18.3989 17.437C18.4096 17.537 18.4001 17.6381 18.3709 17.7344C18.3418 17.8306 18.2936 17.92 18.2292 17.9973C18.1647 18.0745 18.0854 18.138 17.996 18.184C15.94 19.326 13.901 19.904 11.935 19.904C6.90699 19.904 2.67999 16.202 0.608987 13.995C0.217847 13.5764 0.000274658 13.0249 0.000274658 12.452C0.000274658 11.8791 0.217847 11.3276 0.608987 10.909C2.67999 8.702 6.90699 5 11.935 5ZM11.935 7.817C13.1639 7.81832 14.342 8.30708 15.211 9.17602C16.0799 10.045 16.5687 11.2231 16.57 12.452C16.5687 13.6809 16.0799 14.859 15.211 15.728C14.342 16.5969 13.1639 17.0857 11.935 17.087C10.7061 17.0857 9.52795 16.5969 8.65901 15.728C7.79006 14.859 7.30131 13.6809 7.29999 12.452C7.30131 11.2231 7.79006 10.045 8.65901 9.17602C9.52795 8.30708 10.7061 7.81832 11.935 7.817ZM11.935 9.317C11.1038 9.31779 10.3068 9.64834 9.71908 10.2361C9.13133 10.8239 8.80078 11.6208 8.79999 12.452C8.80105 13.2831 9.13168 14.0799 9.71938 14.6676C10.3071 15.2553 11.1039 15.5859 11.935 15.587C12.7661 15.5859 13.5629 15.2553 14.1506 14.6676C14.7383 14.0799 15.0689 13.2831 15.07 12.452C15.0692 11.6208 14.7386 10.8239 14.1509 10.2361C13.5631 9.64834 12.7662 9.31779 11.935 9.317Z" fill="#292830"/>
</svg>
