<svg width="24" height="24" viewBox="0 0 24 24" fill="none" xmlns="http://www.w3.org/2000/svg">
<path d="M16.624 12.109C16.649 10.671 15.503 9.485 14.065 9.459C12.627 9.433 11.441 10.58 11.415 12.018C11.39 13.456 12.536 14.642 13.974 14.668C15.412 14.694 16.598 13.547 16.624 12.109ZM12.249 12.033C12.266 11.058 13.075 10.276 14.05 10.293C15.025 10.31 15.807 11.119 15.79 12.094C15.773 13.069 14.964 13.851 13.989 13.834C13.014 13.817 12.234 13.009 12.249 12.033ZM8.503 18.993L8.538 16.981C9.649 17.139 11.06 17.164 12.822 17.194C18.18 17.288 22.519 13.332 22.539 12.213C22.559 11.094 18.4 6.988 13.002 6.896C11.24 6.865 9.829 6.838 8.712 6.952L8.749 4.807L5.208 4.742L5.19 5.785L7.691 5.829L7.668 7.125C5.932 7.556 5.185 8.666 5.059 11.388L2.384 11.341L2.366 12.384L5.041 12.431C5.073 15.134 5.783 16.27 7.499 16.77L7.476 18.078L4.975 18.034L4.957 19.077L8.498 19.136L8.502 18.993H8.503ZM20.824 11.378C21.189 11.762 21.377 12.04 21.46 12.192C21.372 12.341 21.173 12.614 20.79 12.986C20.558 13.213 20.216 13.514 19.758 13.849L19.839 13.789C19.783 13.261 19.76 12.718 19.77 12.164C19.78 11.607 19.822 11.063 19.896 10.534C20.306 10.862 20.613 11.156 20.824 11.378ZM19.063 14.318C19.223 14.244 19.372 14.167 19.512 14.093C19.37 14.168 19.222 14.245 19.063 14.318ZM19.476 14.047C19.568 14.032 19.657 14.019 19.741 14C19.658 14.019 19.567 14.033 19.476 14.047ZM19.64 13.964C19.698 13.949 19.765 13.948 19.821 13.935C19.765 13.947 19.709 13.96 19.64 13.964ZM7.187 15.528C6.789 15.31 6.543 15.014 6.369 14.534C6.189 14.039 6.093 13.352 6.081 12.446L8.614 12.49L8.632 11.447L6.099 11.403C6.143 10.495 6.261 9.81 6.457 9.32C6.645 8.849 6.893 8.56 7.292 8.358C8.284 7.852 10.203 7.887 12.858 7.932L12.982 7.934C14.063 7.953 15.165 8.152 16.25 8.526C17.192 8.85 18.102 9.298 18.957 9.854C19.053 9.918 19.148 9.98 19.238 10.043L19.138 9.975C19.018 10.661 18.947 11.391 18.935 12.146C18.922 12.9 18.967 13.627 19.062 14.314C18.995 14.356 18.928 14.397 18.859 14.437C17.983 14.964 17.057 15.378 16.106 15.671C15.011 16.007 13.912 16.168 12.84 16.149C10.137 16.106 8.184 16.072 7.187 15.529V15.528ZM19.912 10.579C19.856 10.564 19.799 10.549 19.732 10.544C19.788 10.559 19.855 10.564 19.912 10.579ZM19.811 10.468C19.728 10.45 19.642 10.428 19.55 10.413C19.643 10.428 19.728 10.449 19.811 10.468ZM19.657 10.365C19.591 10.361 19.522 10.355 19.456 10.351C19.535 10.347 19.602 10.351 19.657 10.365ZM19.538 10.26C19.429 10.209 19.313 10.159 19.188 10.114C19.312 10.159 19.428 10.209 19.538 10.26Z" fill="#292830"/>
</svg>
