<svg width="24" height="24" viewBox="0 0 24 24" fill="none" xmlns="http://www.w3.org/2000/svg">
<path d="M10.581 16.009L17.461 9.046C17.5906 8.90245 17.6598 8.71443 17.6542 8.52112C17.6486 8.32781 17.5687 8.1441 17.4311 8.00825C17.2934 7.87241 17.1087 7.7949 16.9153 7.79187C16.7219 7.78885 16.5348 7.86053 16.393 7.992L10.049 14.415L7.606 11.942C7.46357 11.8146 7.27793 11.7463 7.08689 11.7509C6.89584 11.7556 6.71377 11.8329 6.57775 11.9672C6.44173 12.1014 6.362 12.2824 6.3548 12.4734C6.3476 12.6644 6.41347 12.8509 6.539 12.995L9.515 16.009C9.58462 16.0798 9.66765 16.1361 9.75924 16.1745C9.85084 16.2129 9.94917 16.2327 10.0485 16.2327C10.1478 16.2327 10.2462 16.2129 10.3377 16.1745C10.4293 16.1361 10.5124 16.0798 10.582 16.009H10.581ZM12.015 23.757C8.952 23.757 5.928 22.567 3.677 20.315C-0.913003 15.725 -0.913003 8.258 3.677 3.667C8.267 -0.922997 15.733 -0.922997 20.324 3.667C24.914 8.257 24.914 15.725 20.324 20.315C20.1834 20.4556 19.9928 20.5345 19.794 20.5345C19.5952 20.5345 19.4046 20.4556 19.264 20.315C19.1234 20.1744 19.0445 19.9838 19.0445 19.785C19.0445 19.5862 19.1234 19.3956 19.264 19.255C23.269 15.249 23.269 8.733 19.264 4.728C15.256 0.723002 8.739 0.723002 4.735 4.728C0.729997 8.733 0.729997 15.249 4.736 19.255C6.23192 20.7458 8.15005 21.7407 10.2304 22.1047C12.3108 22.4687 14.4527 22.1843 16.366 21.29C16.5442 21.2174 16.7435 21.216 16.9227 21.2861C17.1019 21.3562 17.2474 21.4924 17.3291 21.6666C17.4109 21.8408 17.4226 22.0398 17.3619 22.2224C17.3012 22.405 17.1727 22.5574 17.003 22.648C15.4419 23.3804 13.7384 23.7594 12.014 23.758" fill="#292830"/>
</svg>
