<svg width="24" height="24" viewBox="0 0 24 24" fill="none" xmlns="http://www.w3.org/2000/svg">
<path d="M14.012 14.33C14.092 13.834 14.151 13.312 14.19 12.808C14.2288 12.2906 14.2478 11.7719 14.247 11.253C14.247 11.105 14.232 10.957 14.201 10.812C14.1446 10.5294 14.0324 10.2608 13.871 10.022C13.6687 9.723 13.3963 9.47809 13.0775 9.30869C12.7587 9.1393 12.4033 9.05057 12.0423 9.05028C11.6813 9.04998 11.3257 9.13812 11.0067 9.307C10.6876 9.47587 10.4148 9.72033 10.212 10.019C9.96558 10.3834 9.83392 10.8132 9.834 11.253C9.834 11.4479 9.91144 11.6349 10.0493 11.7727C10.1871 11.9106 10.3741 11.988 10.569 11.988C10.7639 11.988 10.9509 11.9106 11.0887 11.7727C11.2266 11.6349 11.304 11.4479 11.304 11.253C11.3061 11.1563 11.3258 11.0607 11.362 10.971C11.4383 10.7939 11.5797 10.6528 11.757 10.577C11.7994 10.5587 11.8437 10.545 11.889 10.536C11.9958 10.5144 12.106 10.5166 12.2119 10.5424C12.3177 10.5683 12.4165 10.6173 12.5012 10.6858C12.586 10.7543 12.6545 10.8406 12.702 10.9387C12.7495 11.0367 12.7748 11.1441 12.776 11.253C12.7775 12.2073 12.7036 13.1603 12.555 14.103C12.4119 15.0211 12.1993 15.9271 11.919 16.813C11.7817 17.2505 11.6266 17.6822 11.454 18.107C11.117 18.9518 10.7151 19.7692 10.252 20.552C10.02 20.946 9.782 21.322 9.526 21.692L8.893 22.604C8.8301 22.6829 8.78406 22.7738 8.75774 22.8712C8.73142 22.9686 8.72537 23.0704 8.73998 23.1702C8.75458 23.27 8.78953 23.3658 8.84265 23.4516C8.89577 23.5373 8.96593 23.6113 9.04879 23.6688C9.13166 23.7264 9.22545 23.7663 9.32437 23.7861C9.42329 23.806 9.52523 23.8053 9.62387 23.7841C9.72251 23.7629 9.81576 23.7217 9.89783 23.6631C9.9799 23.6044 10.0491 23.5295 10.101 23.443L10.736 22.53C11.012 22.128 11.276 21.713 11.521 21.297C11.766 20.881 12.004 20.437 12.216 20.006C12.8756 18.6715 13.3795 17.2656 13.718 15.816C13.834 15.326 13.932 14.826 14.012 14.33ZM14.615 18.696C14.526 18.734 14.4455 18.7893 14.378 18.8586C14.3105 18.928 14.2575 19.01 14.222 19.1L14.108 19.382C13.7645 20.2139 13.3687 21.0231 12.923 21.805C12.8334 21.974 12.8131 22.1712 12.8664 22.3549C12.9197 22.5386 13.0424 22.6943 13.2086 22.7891C13.3747 22.8839 13.5712 22.9102 13.7565 22.8626C13.9417 22.815 14.1012 22.6971 14.201 22.534C14.438 22.118 14.662 21.694 14.875 21.262C15.088 20.831 15.285 20.39 15.468 19.946L15.591 19.643C15.6615 19.4613 15.6577 19.2593 15.5804 19.0804C15.5031 18.9015 15.3586 18.7602 15.178 18.687C14.9965 18.6154 14.7941 18.6186 14.615 18.696ZM10.367 16.816C10.517 16.384 10.653 15.934 10.769 15.486C10.884 15.039 10.945 14.795 11.026 14.324C11.0588 14.1315 11.0137 13.9338 10.9007 13.7745C10.7877 13.6152 10.616 13.5073 10.4235 13.4745C10.231 13.4418 10.0333 13.4868 9.87397 13.5998C9.71466 13.7128 9.60675 13.8845 9.574 14.077C9.516 14.427 9.439 14.776 9.344 15.119C9.02995 16.3393 8.56574 17.516 7.962 18.622C7.56442 19.3491 7.11036 20.044 6.604 20.7C6.54491 20.7763 6.50142 20.8635 6.47602 20.9566C6.45062 21.0497 6.44381 21.1469 6.45597 21.2426C6.46814 21.3384 6.49904 21.4308 6.54692 21.5146C6.59479 21.5984 6.6587 21.6719 6.735 21.731C6.8113 21.7901 6.89849 21.8336 6.99159 21.859C7.0847 21.8844 7.18189 21.8912 7.27763 21.879C7.37337 21.8669 7.46577 21.836 7.54957 21.7881C7.63336 21.7402 7.70691 21.6763 7.766 21.6C8.32125 20.8832 8.81881 20.1235 9.254 19.328C9.69166 18.5222 10.0639 17.6825 10.367 16.817V16.816ZM18.661 11.254C18.6579 12.8706 18.4981 14.4832 18.184 16.069C18.106 16.459 18.018 16.843 17.92 17.225C17.6335 18.3615 17.2642 19.4755 16.815 20.558C16.7717 20.6481 16.7473 20.7461 16.7431 20.8459C16.739 20.9458 16.7552 21.0454 16.7908 21.1388C16.8264 21.2322 16.8806 21.3174 16.9502 21.3891C17.0198 21.4608 17.1033 21.5176 17.1956 21.556C17.2878 21.5945 17.387 21.6137 17.4869 21.6125C17.5868 21.6114 17.6855 21.5899 17.7769 21.5494C17.8682 21.5089 17.9504 21.4502 18.0183 21.3769C18.0862 21.3036 18.1385 21.2172 18.172 21.123C18.332 20.743 18.481 20.359 18.621 19.969C18.7604 19.5793 18.8911 19.1865 19.013 18.791C19.135 18.395 19.248 17.994 19.35 17.588C19.454 17.184 19.546 16.775 19.628 16.362C19.797 15.5289 19.9238 14.6879 20.008 13.842C20.051 13.417 20.083 12.988 20.106 12.557C20.129 12.125 20.131 11.691 20.131 11.254C20.131 11.0591 20.0536 10.8721 19.9157 10.7343C19.7779 10.5964 19.5909 10.519 19.396 10.519C19.2011 10.519 19.0141 10.5964 18.8763 10.7343C18.7384 10.8721 18.661 11.0591 18.661 11.254ZM5.636 17.184C5.54314 17.2103 5.45638 17.2546 5.3807 17.3145C5.30502 17.3744 5.24191 17.4487 5.195 17.533C5.06327 17.7683 4.91941 17.9966 4.764 18.217C4.573 18.502 4.37 18.777 4.156 19.045C4.04497 19.1986 3.99739 19.3891 4.02315 19.5769C4.0489 19.7647 4.14602 19.9353 4.29431 20.0534C4.44261 20.1714 4.63068 20.2278 4.81946 20.2108C5.00823 20.1938 5.1832 20.1047 5.308 19.962C5.545 19.664 5.772 19.355 6.006 19.006C6.175 18.762 6.334 18.51 6.478 18.25C6.54902 18.1231 6.58079 17.9779 6.56928 17.833C6.55777 17.688 6.50351 17.5497 6.41336 17.4355C6.32321 17.3214 6.20123 17.2366 6.06285 17.1918C5.92447 17.147 5.77592 17.1443 5.636 17.184ZM4.876 14.67C4.966 14.4 5.044 14.127 5.11 13.852C5.177 13.575 5.235 13.292 5.282 13.004C5.37372 12.4252 5.4202 11.8401 5.421 11.254C5.41398 11.0636 5.33342 10.8834 5.19625 10.7512C5.05909 10.619 4.876 10.5451 4.6855 10.5451C4.495 10.5451 4.31192 10.619 4.17475 10.7512C4.03758 10.8834 3.95702 11.0636 3.95 11.254C3.95151 11.7625 3.91104 12.2702 3.829 12.772C3.789 13.018 3.74 13.262 3.682 13.507C3.56393 13.9821 3.41153 14.448 3.226 14.901C3.133 15.126 3.031 15.341 2.921 15.563C2.70163 15.9925 2.45095 16.4053 2.171 16.798C2.09429 16.9032 2.04683 17.0269 2.03343 17.1564C2.02004 17.2859 2.04119 17.4166 2.09474 17.5353C2.14829 17.654 2.23232 17.7564 2.33828 17.832C2.44425 17.9077 2.56836 17.9539 2.698 17.966C2.82785 17.9775 2.95844 17.9545 3.07648 17.8991C3.19452 17.8438 3.29579 17.7582 3.37 17.651C3.69175 17.1993 3.97954 16.7243 4.231 16.23C4.48518 15.727 4.70113 15.2055 4.877 14.67H4.876ZM17.189 11.254C17.189 10.904 17.154 10.558 17.083 10.217C16.9491 9.55855 16.6861 8.93317 16.309 8.37701C16.0747 8.03107 15.7993 7.71477 15.489 7.43501C15.4186 7.36393 15.3344 7.30796 15.2417 7.27051C15.1489 7.23306 15.0495 7.21491 14.9494 7.21718C14.8494 7.21945 14.7509 7.24208 14.6599 7.2837C14.569 7.32533 14.4874 7.38506 14.4203 7.45925C14.3532 7.53344 14.3019 7.62054 14.2696 7.71522C14.2373 7.8099 14.2246 7.91017 14.2323 8.00992C14.2401 8.10966 14.2681 8.20679 14.3146 8.29535C14.3611 8.38391 14.4252 8.46205 14.503 8.52501C14.549 8.56801 14.595 8.61101 14.64 8.65701C14.9816 8.99777 15.2526 9.40255 15.4376 9.84817C15.6226 10.2938 15.7178 10.7715 15.718 11.254C15.7174 12.201 15.6553 13.147 15.532 14.086C15.4348 14.817 15.299 15.5424 15.125 16.259C15.1021 16.3529 15.0981 16.4504 15.1132 16.5459C15.1283 16.6414 15.1621 16.7329 15.2128 16.8152C15.2635 16.8975 15.33 16.969 15.4085 17.0254C15.487 17.0818 15.5758 17.1222 15.67 17.144C15.8595 17.1894 16.0593 17.1578 16.2254 17.0559C16.3916 16.9541 16.5105 16.7905 16.556 16.601C16.7398 15.8345 16.8847 15.0592 16.99 14.278C17.056 13.782 17.105 13.284 17.139 12.78C17.172 12.274 17.189 11.76 17.189 11.254ZM18.338 2.19401C18.1775 2.08915 17.9824 2.05097 17.7942 2.08756C17.606 2.12415 17.4395 2.23265 17.33 2.39001C17.2208 2.54695 17.1772 2.7403 17.2084 2.92893C17.2396 3.11755 17.3431 3.28656 17.497 3.40001C18.7653 4.27962 19.8012 5.45375 20.516 6.8217C21.2308 8.18964 21.6031 9.71057 21.601 11.254C21.6017 11.6628 21.5923 12.0716 21.573 12.48C21.562 12.685 21.553 12.886 21.538 13.087C21.523 13.287 21.508 13.49 21.49 13.69C21.4546 14.0897 21.4093 14.4885 21.354 14.886C21.3018 15.2808 21.2398 15.6743 21.168 16.066C21.1492 16.172 21.1538 16.2809 21.1815 16.385C21.2092 16.4891 21.2594 16.5858 21.3285 16.6684C21.3976 16.751 21.4839 16.8175 21.5814 16.8633C21.679 16.909 21.7853 16.9328 21.893 16.933C22.0655 16.9331 22.2325 16.8724 22.3647 16.7615C22.497 16.6507 22.5859 16.4969 22.616 16.327C22.653 16.122 22.689 15.916 22.721 15.707C22.751 15.497 22.783 15.293 22.812 15.082C22.842 14.872 22.866 14.664 22.892 14.454C22.914 14.244 22.934 14.032 22.955 13.821C23.0344 12.9677 23.0734 12.111 23.072 11.254C23.0738 10.5075 23.0001 9.76269 22.852 9.03101C22.2763 6.25891 20.6611 3.81244 18.338 2.19401ZM10.035 6.51001C9.72922 6.63912 9.43682 6.79788 9.162 6.98401C8.6126 7.35278 8.14016 7.82487 7.771 8.37401C7.19562 9.22372 6.88901 10.2268 6.891 11.253C6.89066 11.9777 6.82776 12.7011 6.703 13.415C6.641 13.767 6.567 14.11 6.476 14.453L6.398 14.733C6.3663 14.8426 6.36057 14.958 6.38126 15.0702C6.40196 15.1824 6.44852 15.2882 6.51723 15.3792C6.58595 15.4703 6.67494 15.544 6.77714 15.5947C6.87934 15.6453 6.99194 15.6715 7.106 15.671C7.26577 15.6705 7.42106 15.6182 7.54855 15.5219C7.67604 15.4256 7.76884 15.2906 7.813 15.137L7.898 14.827C8.001 14.441 8.086 14.051 8.152 13.667C8.29083 12.8695 8.36108 12.0615 8.362 11.252C8.35975 10.7604 8.45775 10.2735 8.65 9.82101C8.883 9.27222 9.24551 8.78805 9.7065 8.40996C10.1675 8.03187 10.7132 7.77111 11.297 7.65001C11.5415 7.59987 11.7904 7.57507 12.04 7.57601C12.2304 7.56899 12.4106 7.48842 12.5428 7.35126C12.675 7.21409 12.7489 7.03101 12.7489 6.84051C12.7489 6.65 12.675 6.46692 12.5428 6.32976C12.4106 6.19259 12.2304 6.11203 12.04 6.10501C11.692 6.10459 11.3449 6.13943 11.004 6.20901C10.6717 6.27614 10.3471 6.37665 10.035 6.50901V6.51001ZM5.209 4.56001C5.33433 4.41882 5.4006 4.23486 5.39413 4.04618C5.38765 3.85751 5.30892 3.67853 5.17421 3.54626C5.03951 3.41399 4.85912 3.33854 4.67035 3.33552C4.48159 3.33249 4.29888 3.40212 4.16 3.53001C2.13551 5.59034 1.00293 8.36449 1.007 11.253C1.00335 11.3519 1.01968 11.4505 1.055 11.5429C1.09032 11.6353 1.14391 11.7196 1.21257 11.7909C1.28122 11.8621 1.36354 11.9188 1.45459 11.9575C1.54564 11.9962 1.64356 12.0161 1.7425 12.0161C1.84144 12.0161 1.93936 11.9962 2.03041 11.9575C2.12146 11.9188 2.20378 11.8621 2.27243 11.7909C2.34109 11.7196 2.39468 11.6353 2.43 11.5429C2.46532 11.4505 2.48165 11.3519 2.478 11.253C2.47474 8.75026 3.45521 6.34648 5.208 4.56001H5.209ZM17.527 7.55201L17.629 7.69901C17.777 7.89701 17.897 8.11401 17.989 8.34401C18.0381 8.46431 18.1184 8.56939 18.2215 8.64848C18.3246 8.72757 18.4468 8.77783 18.5758 8.79411C18.7047 8.8104 18.8356 8.79211 18.9551 8.74113C19.0747 8.69016 19.1785 8.60832 19.256 8.50401C19.3339 8.40035 19.3829 8.27795 19.3982 8.14922C19.4135 8.02049 19.3944 7.89001 19.343 7.77101C19.2151 7.45041 19.0471 7.14733 18.843 6.86901L18.747 6.72701C18.4562 6.29742 18.1254 5.8963 17.759 5.52901C16.8112 4.58162 15.6431 3.88431 14.3594 3.49964C13.0757 3.11497 11.7166 3.05496 10.404 3.32501C9.36877 3.53623 8.38557 3.95018 7.511 4.54301C6.64966 5.12453 5.90792 5.86593 5.326 6.72701C5.04308 7.13622 4.80315 7.57354 4.61 8.03201C4.54157 8.21025 4.54508 8.40812 4.6198 8.58382C4.69451 8.75953 4.83459 8.89932 5.01044 8.97369C5.18629 9.04805 5.38416 9.05117 5.56227 8.98238C5.74038 8.91359 5.88479 8.77827 5.965 8.60501C6.121 8.23501 6.315 7.88001 6.545 7.55001C7.5173 6.11625 9.01042 5.1182 10.707 4.76801C11.5878 4.59001 12.4952 4.59001 13.376 4.76801C15.0698 5.11905 16.5594 6.1181 17.527 7.55201ZM7.123 3.05201C8.0462 2.49558 9.05779 2.10123 10.114 1.88601C11.6645 1.5705 13.2689 1.64055 14.786 2.09001C14.9097 2.12652 15.0408 2.12999 15.1662 2.10006C15.2917 2.07014 15.4071 2.00786 15.5009 1.91945C15.5948 1.83103 15.6639 1.71956 15.7013 1.59614C15.7387 1.47272 15.743 1.34165 15.714 1.21601C15.6841 1.09027 15.6218 0.974581 15.5331 0.880517C15.4445 0.786452 15.3327 0.71731 15.209 0.680007C13.4589 0.160401 11.6078 0.0793522 9.819 0.444007C9.109 0.588007 8.415 0.804007 7.747 1.08701C7.27 1.28901 6.807 1.52401 6.364 1.79001C6.22518 1.87242 6.11735 1.99825 6.05717 2.14806C5.997 2.29787 5.98782 2.46333 6.03106 2.61887C6.0743 2.77442 6.16755 2.9114 6.29641 3.00867C6.42526 3.10593 6.58256 3.15806 6.744 3.15701C6.87749 3.15683 7.00845 3.12055 7.123 3.05201Z" fill="#292830"/>
</svg>
