<svg width="24" height="24" viewBox="0 0 24 24" fill="none" xmlns="http://www.w3.org/2000/svg">
<path d="M21.84 16.725C21.84 16.925 21.74 17.125 21.64 17.225L14.94 23.625C14.64 23.925 14.24 23.925 13.94 23.625L7.23999 17.225C7.03999 17.025 6.93999 16.725 7.03999 16.425C7.03999 16.225 7.33999 16.025 7.63999 16.025L11.24 15.925V7.125C11.24 6.925 11.34 6.725 11.44 6.625C11.54 6.525 11.74 6.425 11.94 6.425H14.34L9.53999 1.825L4.63999 6.425H7.03999C7.43999 6.425 7.83999 6.725 7.83999 7.225V13.625C7.83999 14.025 7.53999 14.325 7.03999 14.325C6.53999 14.325 6.33999 14.025 6.33999 13.525V7.925H2.73999C2.43999 7.925 2.13999 7.725 2.03999 7.425C1.93999 7.125 2.03999 6.825 2.23999 6.625L8.93999 0.225C9.23999 -0.075 9.63999 -0.075 9.93999 0.225L16.64 6.625C16.84 6.825 16.94 7.125 16.84 7.425C16.74 7.725 16.44 7.925 16.14 7.925L12.64 7.825V16.625C12.64 17.025 12.34 17.325 11.94 17.425H9.43999L14.34 22.025L19.14 17.425H16.74C16.34 17.425 15.94 17.125 15.94 16.625V10.225C15.94 9.825 16.24 9.425 16.74 9.425C17.14 9.425 17.54 9.725 17.54 10.225V16.025H21.04C21.34 16.025 21.64 16.225 21.74 16.525C21.74 16.625 21.84 16.725 21.84 16.725Z" fill="#292830"/>
</svg>
