<svg width="24" height="24" viewBox="0 0 24 24" fill="none" xmlns="http://www.w3.org/2000/svg">
<path d="M7.19799 21.88C7.09649 21.8801 6.99603 21.8596 6.9027 21.8197C6.80936 21.7798 6.72509 21.7214 6.65499 21.648L0.25699 14.93C0.124316 14.7906 0.0503235 14.6055 0.0503235 14.413C0.0503235 14.2205 0.124316 14.0354 0.25699 13.896L6.65499 7.18001C6.75758 7.0721 6.89007 6.99731 7.03547 6.96524C7.18086 6.93317 7.33253 6.94528 7.47099 7.00001C7.75499 7.11001 7.94399 7.38201 7.94799 7.68701L8.00099 11.257H16.863C16.9623 11.257 17.0607 11.2767 17.1523 11.315C17.244 11.3534 17.3271 11.4095 17.3969 11.4802C17.4667 11.5509 17.5217 11.6348 17.5588 11.7269C17.5959 11.8191 17.6143 11.9177 17.613 12.017L17.577 14.397L22.162 9.58501L17.549 4.74301V7.17701C17.549 7.37593 17.47 7.56669 17.3293 7.70734C17.1887 7.848 16.9979 7.92701 16.799 7.92701H10.4C10.2011 7.92701 10.0103 7.848 9.86966 7.70734C9.72901 7.56669 9.64999 7.37593 9.64999 7.17701C9.64999 6.9781 9.72901 6.78733 9.86966 6.64668C10.0103 6.50603 10.2011 6.42701 10.4 6.42701H16.05V2.86701C16.051 2.71768 16.0964 2.57203 16.1806 2.44867C16.2647 2.32531 16.3838 2.22983 16.5224 2.17445C16.6611 2.11906 16.8132 2.10627 16.9591 2.13773C17.1051 2.16918 17.2384 2.24343 17.342 2.35101L23.74 9.06801C23.8727 9.20744 23.9467 9.39255 23.9467 9.58501C23.9467 9.77748 23.8727 9.96258 23.74 10.102L17.342 16.819C17.2379 16.9283 17.1032 17.0037 16.9555 17.0352C16.8079 17.0668 16.6541 17.053 16.5144 16.9957C16.3747 16.9385 16.2556 16.8404 16.1725 16.7143C16.0895 16.5882 16.0464 16.44 16.049 16.289L16.102 12.757H7.26199C7.0648 12.757 6.87553 12.6794 6.73516 12.5409C6.5948 12.4024 6.51462 12.2142 6.51199 12.017L6.47499 9.54401L1.83599 14.414L6.44799 19.256V16.822C6.44799 16.6231 6.52701 16.4323 6.66766 16.2917C6.80831 16.151 6.99908 16.072 7.19799 16.072H13.598C13.7969 16.072 13.9877 16.151 14.1283 16.2917C14.269 16.4323 14.348 16.6231 14.348 16.822C14.348 17.0209 14.269 17.2117 14.1283 17.3523C13.9877 17.493 13.7969 17.572 13.598 17.572H7.94799V21.131C7.94812 21.2295 7.92881 21.3271 7.89117 21.4182C7.85352 21.5092 7.79828 21.592 7.72861 21.6616C7.65894 21.7313 7.57621 21.7865 7.48516 21.8242C7.39411 21.8618 7.29652 21.8811 7.19799 21.881" fill="#292830"/>
</svg>
