<svg width="24" height="24" viewBox="0 0 24 24" fill="none" xmlns="http://www.w3.org/2000/svg">
<path fill-rule="evenodd" clip-rule="evenodd" d="M3.77802 8.37C3.77802 8.198 3.84801 8.028 3.97801 7.903L9.75802 2.4C9.8778 2.28574 10.037 2.222 10.2025 2.222C10.3681 2.222 10.5272 2.28574 10.647 2.4L16.424 7.903C16.614 8.084 16.676 8.362 16.58 8.605C16.5336 8.72446 16.4525 8.82732 16.3472 8.90037C16.2419 8.97342 16.1172 9.01334 15.989 9.015L12.918 9.061V16.684C12.9182 16.7696 12.9012 16.8544 12.8683 16.9335C12.8353 17.0125 12.7869 17.0842 12.7259 17.1443C12.665 17.2044 12.5926 17.2518 12.5132 17.2837C12.4337 17.3156 12.3486 17.3313 12.263 17.33L10.217 17.299L14.357 21.243L18.521 17.275H16.428C16.3431 17.2751 16.2591 17.2585 16.1806 17.2261C16.1022 17.1937 16.0309 17.1461 15.9709 17.0861C15.9109 17.0261 15.8633 16.9548 15.8309 16.8764C15.7985 16.7979 15.7819 16.7139 15.782 16.629V11.125C15.782 10.9539 15.85 10.7899 15.9709 10.6689C16.0919 10.548 16.256 10.48 16.427 10.48C16.5981 10.48 16.7621 10.548 16.8831 10.6689C17.0041 10.7899 17.072 10.9539 17.072 11.125V15.985H20.134C20.2627 15.9855 20.3883 16.0244 20.4947 16.0967C20.6012 16.169 20.6836 16.2715 20.7314 16.391C20.7792 16.5105 20.7902 16.6415 20.7631 16.7673C20.7359 16.8931 20.6718 17.0079 20.579 17.097L14.8 22.6C14.6802 22.7146 14.5208 22.7785 14.355 22.7785C14.1892 22.7785 14.0298 22.7146 13.91 22.6L8.13302 17.097C8.03814 17.0078 7.97254 16.8919 7.94488 16.7646C7.91722 16.6374 7.9288 16.5047 7.97808 16.3842C8.02736 16.2636 8.11203 16.1608 8.22093 16.0894C8.32982 16.018 8.45781 15.9812 8.58802 15.984L11.627 16.03V8.426C11.627 8.073 11.91 7.786 12.262 7.78L14.391 7.749L10.201 3.759L6.03601 7.725H8.13002C8.48602 7.725 8.77501 8.015 8.77501 8.371V13.875C8.77501 14.0461 8.70706 14.2101 8.5861 14.3311C8.46514 14.452 8.30108 14.52 8.13002 14.52C7.95895 14.52 7.79489 14.452 7.67393 14.3311C7.55297 14.2101 7.48502 14.0461 7.48502 13.875V9.015H4.42301C4.33836 9.01513 4.25451 8.99857 4.17626 8.96627C4.09801 8.93396 4.0269 8.88655 3.96699 8.82673C3.90708 8.76692 3.85956 8.69588 3.82713 8.61768C3.79471 8.53948 3.77802 8.45566 3.77802 8.371" fill="#292830"/>
<path fill-rule="evenodd" clip-rule="evenodd" d="M2.36999 19.82L5.62699 22.099C5.7769 22.2038 5.95269 22.2655 6.13523 22.2773C6.31776 22.2892 6.50005 22.2507 6.66225 22.1662C6.82445 22.0816 6.96036 21.9542 7.05517 21.7978C7.14998 21.6414 7.20007 21.4619 7.19999 21.279V16.721C7.20007 16.5381 7.14998 16.3586 7.05517 16.2022C6.96036 16.0458 6.82445 15.9184 6.66225 15.8338C6.50005 15.7493 6.31776 15.7108 6.13523 15.7227C5.95269 15.7345 5.7769 15.7962 5.62699 15.901L2.36999 18.181C2.23837 18.2732 2.13091 18.3958 2.05671 18.5384C1.98252 18.6809 1.94379 18.8393 1.94379 19C1.94379 19.1607 1.98252 19.3191 2.05671 19.4616C2.13091 19.6042 2.23837 19.7268 2.36999 19.819V19.82Z" fill="#E02020"/>
</svg>
