<svg width="24" height="24" viewBox="0 0 24 24" fill="none" xmlns="http://www.w3.org/2000/svg">
<g clip-path="url(#clip0)">
<path d="M19.094 10.779C19.094 10.5801 19.015 10.3893 18.8743 10.2487C18.7337 10.108 18.5429 10.029 18.344 10.029H7.714L10.621 7.521C10.7718 7.39105 10.8648 7.20652 10.8795 7.00801C10.8942 6.8095 10.8295 6.61328 10.6995 6.4625C10.5695 6.31173 10.385 6.21875 10.1865 6.20403C9.98801 6.18931 9.79178 6.25405 9.641 6.384L5.206 10.211C5.09008 10.311 5.00751 10.444 4.9694 10.5923C4.93128 10.7405 4.93945 10.8969 4.99279 11.0404C5.04613 11.1838 5.1421 11.3076 5.2678 11.3949C5.39351 11.4823 5.54293 11.529 5.696 11.529H18.344C18.5429 11.529 18.7337 11.45 18.8743 11.3093C19.015 11.1687 19.094 10.9779 19.094 10.779ZM14.4 17.655L18.834 13.83C18.9503 13.7301 19.0332 13.597 19.0716 13.4486C19.1099 13.3001 19.1018 13.1435 19.0485 12.9998C18.9951 12.8561 18.8989 12.7322 18.773 12.6448C18.647 12.5574 18.4973 12.5107 18.344 12.511H5.696C5.49709 12.511 5.30633 12.59 5.16567 12.7307C5.02502 12.8713 4.946 13.0621 4.946 13.261C4.946 13.4599 5.02502 13.6507 5.16567 13.7913C5.30633 13.932 5.49709 14.011 5.696 14.011H16.326L13.419 16.518C13.3038 16.6184 13.2219 16.7515 13.1842 16.8995C13.1465 17.0476 13.1548 17.2037 13.208 17.3469C13.2613 17.4901 13.3568 17.6137 13.4821 17.7013C13.6073 17.7889 13.7562 17.8362 13.909 17.837C14.083 17.837 14.258 17.777 14.4 17.655ZM11.159 22.54H12.881C12.9673 21.8966 13.221 21.2872 13.6167 20.7727C14.0124 20.2581 14.5363 19.8565 15.136 19.608C16.395 19.089 17.796 19.268 18.85 20.068L20.068 18.85C19.6745 18.331 19.4238 17.718 19.341 17.0719C19.2582 16.4259 19.3461 15.7695 19.596 15.168C19.8421 14.5614 20.2438 14.0306 20.7608 13.629C21.2777 13.2274 21.8914 12.9694 22.54 12.881V11.159C21.8967 11.0729 21.2874 10.8192 20.773 10.4235C20.2585 10.0277 19.8572 9.50372 19.609 8.904C19.3531 8.29889 19.2608 7.63712 19.3414 6.98508C19.4219 6.33304 19.6725 5.71364 20.068 5.189L18.851 3.972C18.3316 4.36506 17.7185 4.6155 17.0724 4.69847C16.4264 4.78144 15.7699 4.69406 15.168 4.445C14.5616 4.19832 14.0308 3.79625 13.6292 3.27926C13.2275 2.76227 12.9691 2.14859 12.88 1.5H11.159C11.0724 2.14338 10.8184 2.75276 10.4225 3.26726C10.0267 3.78177 9.5027 4.18339 8.903 4.432C7.638 4.956 6.24 4.773 5.19 3.971L3.972 5.19C4.36596 5.70657 4.61737 6.31753 4.70108 6.96176C4.78479 7.60599 4.69787 8.26091 4.449 8.861C3.925 10.125 2.807 10.983 1.5 11.159V12.881C2.14316 12.9675 2.75235 13.2213 3.26669 13.617C3.78102 14.0127 4.1825 14.5365 4.43101 15.136C4.68694 15.7408 4.77925 16.4022 4.69869 17.054C4.61812 17.7057 4.3675 18.3248 3.972 18.849L5.19 20.068C5.70911 19.6748 6.32203 19.4241 6.96792 19.341C7.61382 19.2579 8.27023 19.3451 8.872 19.594C9.47844 19.8408 10.0091 20.2431 10.4106 20.7603C10.8121 21.2775 11.0702 21.8913 11.159 22.54ZM12.974 24.04H11.066C10.7222 24.0405 10.3903 23.9139 10.1342 23.6844C9.87817 23.4549 9.71603 23.1388 9.679 22.797C9.63637 22.4028 9.48845 22.0272 9.25075 21.7098C9.01305 21.3924 8.69433 21.1448 8.328 20.993C7.95498 20.8343 7.54602 20.7793 7.14434 20.8339C6.74265 20.8885 6.36317 21.0506 6.046 21.303C5.78041 21.5156 5.44585 21.623 5.10612 21.6048C4.7664 21.5865 4.44528 21.4439 4.204 21.204L2.837 19.836C2.59587 19.5957 2.45223 19.2746 2.43376 18.9347C2.4153 18.5948 2.52332 18.26 2.737 17.995C2.98774 17.6828 3.14993 17.309 3.20658 16.9126C3.26323 16.5162 3.21226 16.1119 3.05901 15.742C2.90937 15.3693 2.66164 15.044 2.3421 14.8007C2.02255 14.5574 1.6431 14.4051 1.244 14.36C0.901898 14.3239 0.585343 14.1622 0.35556 13.9061C0.125777 13.6501 -0.000907933 13.318 4.89889e-06 12.974V11.065C4.89889e-06 10.353 0.534005 9.758 1.242 9.679C1.63614 9.63646 2.01158 9.48869 2.32897 9.25117C2.64637 9.01366 2.89403 8.69514 3.04601 8.329C3.373 7.54 3.251 6.684 2.744 6.054C2.52819 5.78615 2.41919 5.44789 2.43803 5.10443C2.45686 4.76097 2.6022 4.43665 2.846 4.194L4.195 2.845C4.43789 2.60154 4.76225 2.45653 5.10564 2.43788C5.44903 2.41924 5.78719 2.52827 6.055 2.744C6.36411 2.99271 6.73449 3.15358 7.12724 3.20971C7.51999 3.26584 7.92061 3.21517 8.287 3.063C9.075 2.737 9.59301 2.046 9.68001 1.242C9.71635 0.900514 9.87791 0.584595 10.1335 0.355228C10.3891 0.125862 10.7206 -0.000689503 11.064 2.8257e-06H12.975C13.688 2.8257e-06 14.283 0.535003 14.361 1.244C14.4036 1.63763 14.5513 2.01255 14.7886 2.32944C15.026 2.64632 15.3442 2.89349 15.71 3.045C16.493 3.372 17.36 3.248 17.996 2.736C18.2605 2.52261 18.5946 2.41465 18.934 2.43293C19.2734 2.45121 19.5939 2.59443 19.834 2.835L21.204 4.205C21.702 4.705 21.744 5.496 21.303 6.044C21.052 6.35623 20.8896 6.73026 20.833 7.12686C20.7763 7.52345 20.8275 7.92798 20.981 8.298C21.1305 8.67086 21.3783 8.99615 21.6981 9.23919C22.018 9.48222 22.3977 9.63389 22.797 9.678C23.506 9.758 24.04 10.353 24.04 11.065V12.974C24.04 13.686 23.506 14.282 22.799 14.36C22.4044 14.4023 22.0285 14.5501 21.7107 14.7878C21.3929 15.0255 21.145 15.3444 20.993 15.711C20.8334 16.0844 20.7781 16.4941 20.8329 16.8965C20.8876 17.2988 21.0504 17.6788 21.304 17.996C21.745 18.546 21.703 19.336 21.204 19.835L19.835 21.204C19.335 21.704 18.545 21.747 17.996 21.303C17.6836 21.0523 17.3096 20.8901 16.9131 20.8335C16.5166 20.7768 16.1121 20.8278 15.742 20.981C15.3692 21.1301 15.0439 21.3776 14.8007 21.6971C14.5575 22.0165 14.4056 22.396 14.361 22.795C14.3242 23.1371 14.1622 23.4535 13.9062 23.6834C13.6501 23.9132 13.3181 24.0402 12.974 24.04Z" fill="#292830"/>
</g>
<defs>
<clipPath id="clip0">
<rect width="24" height="24" fill="white"/>
</clipPath>
</defs>
</svg>
