<svg width="24" height="24" viewBox="0 0 24 24" fill="none" xmlns="http://www.w3.org/2000/svg">
<path fill-rule="evenodd" clip-rule="evenodd" d="M3.778 8.37C3.778 8.198 3.848 8.028 3.978 7.903L9.758 2.4C9.87778 2.28574 10.037 2.222 10.2025 2.222C10.368 2.222 10.5272 2.28574 10.647 2.4L16.424 7.903C16.614 8.084 16.676 8.362 16.58 8.605C16.5336 8.72446 16.4525 8.82732 16.3472 8.90037C16.2419 8.97342 16.1172 9.01334 15.989 9.015L12.918 9.061V16.684C12.9181 16.7696 12.9012 16.8544 12.8683 16.9335C12.8353 17.0125 12.7869 17.0842 12.7259 17.1443C12.6649 17.2044 12.5926 17.2518 12.5131 17.2837C12.4337 17.3156 12.3486 17.3313 12.263 17.33L10.217 17.299L14.357 21.243L18.521 17.275H16.428C16.3431 17.2751 16.2591 17.2585 16.1806 17.2261C16.1022 17.1937 16.0309 17.1461 15.9709 17.0861C15.9109 17.0261 15.8633 16.9548 15.8309 16.8764C15.7985 16.7979 15.7819 16.7139 15.782 16.629V11.125C15.782 10.9539 15.85 10.7899 15.9709 10.6689C16.0919 10.548 16.2559 10.48 16.427 10.48C16.5981 10.48 16.7621 10.548 16.8831 10.6689C17.004 10.7899 17.072 10.9539 17.072 11.125V15.985H20.134C20.2627 15.9855 20.3883 16.0244 20.4947 16.0967C20.6012 16.169 20.6836 16.2715 20.7314 16.391C20.7792 16.5105 20.7902 16.6415 20.7631 16.7673C20.7359 16.8931 20.6718 17.0079 20.579 17.097L14.8 22.6C14.6802 22.7146 14.5208 22.7785 14.355 22.7785C14.1892 22.7785 14.0298 22.7146 13.91 22.6L8.133 17.097C8.03813 17.0078 7.97253 16.8919 7.94487 16.7646C7.91721 16.6374 7.92878 16.5047 7.97806 16.3842C8.02735 16.2636 8.11202 16.1608 8.22091 16.0894C8.3298 16.018 8.4578 15.9812 8.588 15.984L11.627 16.03V8.426C11.627 8.073 11.91 7.786 12.262 7.78L14.391 7.749L10.201 3.759L6.036 7.725H8.13C8.486 7.725 8.775 8.015 8.775 8.371V13.875C8.775 14.0461 8.70704 14.2101 8.58608 14.3311C8.46512 14.452 8.30106 14.52 8.13 14.52C7.95894 14.52 7.79488 14.452 7.67392 14.3311C7.55296 14.2101 7.485 14.0461 7.485 13.875V9.015H4.423C4.33834 9.01513 4.25449 8.99857 4.17624 8.96627C4.098 8.93396 4.02688 8.88655 3.96698 8.82673C3.90707 8.76692 3.85954 8.69588 3.82712 8.61768C3.79469 8.53948 3.778 8.45566 3.778 8.371" fill="#292830"/>
<path fill-rule="evenodd" clip-rule="evenodd" d="M22.03 5.18L18.773 2.901C18.6231 2.79618 18.4473 2.7345 18.2648 2.72265C18.0822 2.7108 17.8999 2.74925 17.7377 2.83381C17.5755 2.91836 17.4396 3.04579 17.3448 3.20221C17.25 3.35864 17.1999 3.53808 17.2 3.721V8.279C17.1999 8.46191 17.25 8.64135 17.3448 8.79778C17.4396 8.95421 17.5755 9.08163 17.7377 9.16619C17.8999 9.25074 18.0822 9.28919 18.2648 9.27734C18.4473 9.26549 18.6231 9.20381 18.773 9.099L22.03 6.819C22.1616 6.72678 22.2691 6.60419 22.3433 6.46163C22.4175 6.31906 22.4562 6.16071 22.4562 6C22.4562 5.83928 22.4175 5.68093 22.3433 5.53836C22.2691 5.3958 22.1616 5.27321 22.03 5.181V5.18Z" fill="#6DD400"/>
</svg>
