<svg width="24" height="24" viewBox="0 0 24 24" fill="none" xmlns="http://www.w3.org/2000/svg">
<g clip-path="url(#clip0)">
<path d="M5.249 16.36C4.465 16.36 3.829 17.014 3.829 17.818C3.829 18.62 4.465 19.273 5.249 19.273C5.43661 19.2724 5.62219 19.2342 5.7948 19.1607C5.9674 19.0872 6.12354 18.9798 6.254 18.845C6.524 18.571 6.671 18.206 6.67 17.818C6.67 17.014 6.032 16.36 5.249 16.36ZM18.477 16.36C17.695 16.36 17.057 17.014 17.057 17.818C17.057 18.62 17.695 19.273 18.477 19.273C18.857 19.271 19.215 19.119 19.483 18.845C19.7514 18.5709 19.9003 18.2016 19.897 17.818C19.897 17.014 19.261 16.36 18.477 16.36ZM18.477 20.835C17.194 20.835 16.066 19.998 15.671 18.752L8 18.794C7.752 19.73 6.98 20.473 5.993 20.738C5.74985 20.8021 5.49946 20.8347 5.248 20.835C3.964 20.835 2.838 19.998 2.442 18.752L2.362 18.794C1.062 18.794 0 17.697 0 16.349V12.913C0 11.823 0.717 10.862 1.744 10.573L5.224 9.601L7.287 5.218C7.861 4.442 8.717 4 9.642 4H13.002C13.907 4.016 14.005 4.559 14.005 4.792C14.005 5.025 13.917 5.434 13.331 5.548L9.641 5.553C9.42563 5.55319 9.21325 5.60343 9.02062 5.69975C8.82799 5.79606 8.66038 5.93582 8.531 6.108L6.322 10.695C6.22095 10.8516 6.06746 10.9672 5.889 11.021L2.149 12.065C1.96719 12.1192 1.80792 12.231 1.69519 12.3836C1.58246 12.5362 1.52238 12.7213 1.524 12.911V16.35C1.524 16.843 1.899 17.244 2.358 17.244C2.48283 16.5653 2.84064 15.9514 3.36971 15.5083C3.89878 15.0653 4.56591 14.8208 5.256 14.817C6.686 14.817 7.906 15.859 8.156 17.294L15.632 17.244C15.801 15.99 16.862 14.979 18.152 14.834C18.263 14.823 18.374 14.817 18.483 14.817C19.915 14.817 21.134 15.859 21.383 17.294L21.636 17.244C22.066 17.244 22.431 16.886 22.468 16.426L22.466 12.719C22.4683 12.5521 22.4231 12.3879 22.3356 12.2458C22.2481 12.1036 22.122 11.9892 21.972 11.916L19.965 10.98C19.8263 10.9136 19.7101 10.8079 19.631 10.676L17.876 6.166C17.649 5.797 17.198 5.553 16.731 5.553H16.079C15.661 5.433 15.449 5.175 15.449 4.799C15.449 4.381 15.705 4.095 16.151 4.014L16.72 4C17.739 4 18.664 4.521 19.195 5.392L20.848 9.7L22.616 10.506C23.0336 10.7043 23.3858 11.018 23.631 11.4099C23.8762 11.8018 24.0043 12.2557 24 12.718V16.348C24 17.697 22.94 18.794 21.636 18.794H21.23C20.98 19.73 20.21 20.473 19.223 20.738C18.9792 20.8022 18.7281 20.8348 18.476 20.835" fill="#292830"/>
</g>
<defs>
<clipPath id="clip0">
<rect width="24" height="24" fill="white"/>
</clipPath>
</defs>
</svg>
