<svg width="24" height="24" viewBox="0 0 24 24" fill="none" xmlns="http://www.w3.org/2000/svg">
<g clip-path="url(#clip0)">
<path fill-rule="evenodd" clip-rule="evenodd" d="M21.214 2C21.581 2.00118 21.9443 2.07464 22.2829 2.2162C22.6216 2.35775 22.929 2.56462 23.1877 2.825C23.4464 3.08537 23.6513 3.39415 23.7907 3.73371C23.9301 4.07327 24.0012 4.43695 24 4.804V19.212C23.9992 19.9508 23.7055 20.6592 23.1832 21.1818C22.661 21.7045 21.9528 21.9987 21.214 22H20.074C19.9751 22.0007 19.877 21.9817 19.7854 21.9441C19.6939 21.9066 19.6107 21.8512 19.5408 21.7812C19.4708 21.7113 19.4154 21.6281 19.3779 21.5366C19.3403 21.445 19.3213 21.3469 19.322 21.248C19.322 20.828 19.662 20.495 20.074 20.495H21.214C21.926 20.495 22.504 19.917 22.504 19.204V8.234H1.496V19.188C1.49587 19.3575 1.52914 19.5253 1.59391 19.682C1.65868 19.8386 1.75368 19.9809 1.87348 20.1008C1.99328 20.2207 2.13553 20.3158 2.29211 20.3807C2.44868 20.4456 2.61651 20.479 2.786 20.479H16.18C16.6 20.479 16.932 20.812 16.932 21.232C16.932 21.652 16.592 21.984 16.18 21.984H2.786C2.04717 21.9827 1.339 21.6885 0.816755 21.1658C0.294508 20.6432 0.000792976 19.9348 0 19.196L0 4.788C0.000792976 4.04917 0.294508 3.34079 0.816755 2.81817C1.339 2.29555 2.04717 2.00132 2.786 2H21.214ZM9.158 10.912C9.26724 10.8444 9.39199 10.806 9.52033 10.8004C9.64866 10.7948 9.77628 10.8222 9.891 10.88L15.586 13.724C15.841 13.851 16 14.114 16 14.4C16 14.687 15.84 14.95 15.586 15.077L9.89 17.92C9.78685 17.9735 9.67219 18.0009 9.556 18C9.41536 18.0001 9.27737 17.9617 9.157 17.889C9.04765 17.8203 8.95748 17.725 8.89488 17.6121C8.83228 17.4991 8.79929 17.3721 8.799 17.243V11.557C8.799 11.295 8.934 11.047 9.157 10.912H9.158ZM10.313 12.776V16.026L13.563 14.4L10.313 12.776ZM14.889 3.505H12.269C12.245 3.537 12.237 3.568 12.206 3.6L9.07 6.737H11.674C11.69 6.721 11.698 6.697 11.714 6.681L14.888 3.505H14.889ZM19.607 3.497H16.987C16.963 3.529 16.955 3.56 16.923 3.592L13.79 6.73H16.394C16.402 6.714 16.41 6.69 16.434 6.674L19.608 3.498L19.607 3.497ZM10.179 3.497H7.56C7.537 3.537 7.52 3.568 7.497 3.592L4.362 6.73H6.966C6.982 6.714 6.989 6.69 7.006 6.674L10.179 3.498V3.497ZM5.469 3.497H2.787C2.61751 3.497 2.44968 3.5304 2.29311 3.59529C2.13653 3.66018 1.99428 3.75529 1.87448 3.87519C1.75468 3.99508 1.65968 4.13741 1.59491 4.29403C1.53014 4.45066 1.49687 4.61851 1.497 4.788V6.728H2.257C2.273 6.713 2.281 6.689 2.297 6.673L5.47 3.497H5.469ZM21.633 3.584L21.625 3.592L18.491 6.729H22.504V4.789C22.504 4.226 22.14 3.759 21.634 3.584H21.633Z" fill="#292830"/>
</g>
<defs>
<clipPath id="clip0">
<rect width="24" height="24" fill="white"/>
</clipPath>
</defs>
</svg>
