<svg width="24" height="24" viewBox="0 0 24 24" fill="none" xmlns="http://www.w3.org/2000/svg">
<path d="M22.703 18.639C22.9019 18.639 23.0927 18.718 23.2333 18.8587C23.374 18.9993 23.453 19.1901 23.453 19.389V22.928C23.453 23.1269 23.374 23.3177 23.2333 23.4583C23.0927 23.599 22.9019 23.678 22.703 23.678H1.75C1.55109 23.678 1.36032 23.599 1.21967 23.4583C1.07902 23.3177 1 23.1269 1 22.928V19.389C1 19.1901 1.07902 18.9993 1.21967 18.8587C1.36032 18.718 1.55109 18.639 1.75 18.639C1.94891 18.639 2.13968 18.718 2.28033 18.8587C2.42098 18.9993 2.5 19.1901 2.5 19.389V22.178H21.953V19.389C21.953 19.1901 22.032 18.9993 22.1727 18.8587C22.3133 18.718 22.5041 18.639 22.703 18.639ZM12.226 0C12.411 0 12.598 0.069 12.741 0.205L21.622 8.591C21.7317 8.69403 21.8079 8.82772 21.8405 8.97465C21.8731 9.12159 21.8607 9.27494 21.8049 9.41472C21.7491 9.5545 21.6525 9.67423 21.5276 9.7583C21.4028 9.84236 21.2555 9.88686 21.105 9.886H16.716V18.808C16.716 19.772 15.931 20.558 14.966 20.558H9.487C8.522 20.558 7.737 19.772 7.737 18.808V16.993C7.737 16.7941 7.81602 16.6033 7.95667 16.4627C8.09732 16.322 8.28809 16.243 8.487 16.243C8.68591 16.243 8.87668 16.322 9.01733 16.4627C9.15798 16.6033 9.237 16.7941 9.237 16.993V18.808C9.237 18.945 9.349 19.058 9.487 19.058H14.966C15.102 19.058 15.216 18.945 15.216 18.808V9.136C15.216 8.93709 15.295 8.74632 15.4357 8.60567C15.5763 8.46502 15.7671 8.386 15.966 8.386H19.22L12.226 1.783L5.233 8.386H8.487C8.68591 8.386 8.87668 8.46502 9.01733 8.60567C9.15798 8.74632 9.237 8.93709 9.237 9.136V13.326C9.237 13.5249 9.15798 13.7157 9.01733 13.8563C8.87668 13.997 8.68591 14.076 8.487 14.076C8.28809 14.076 8.09732 13.997 7.95667 13.8563C7.81602 13.7157 7.737 13.5249 7.737 13.326V9.886H3.347C3.19643 9.88697 3.04908 9.84248 2.9242 9.75834C2.79933 9.6742 2.70276 9.55434 2.64712 9.41443C2.59148 9.27451 2.57936 9.12106 2.61234 8.97415C2.64533 8.82724 2.72189 8.6937 2.832 8.591L11.712 0.205C11.8508 0.0734725 12.0348 0.000114142 12.226 0" fill="#292830"/>
</svg>
