<svg width="24" height="24" viewBox="0 0 24 24" fill="none" xmlns="http://www.w3.org/2000/svg">
<path d="M21.292 5.518L19.806 2.93C19.6235 2.60924 19.3792 2.32783 19.0873 2.10205C18.7954 1.87628 18.4616 1.71062 18.1053 1.61465C17.7489 1.51868 17.3771 1.49431 17.0113 1.54295C16.6454 1.59159 16.2929 1.71226 15.974 1.898L15.35 2.265C14.9592 1.66703 14.3541 1.24152 13.6592 1.07598C12.9643 0.910435 12.2324 1.01745 11.614 1.375L4.729 5.375H3.436C2.872 5.375 2.419 4.948 2.411 4.418C2.411 3.887 2.871 3.461 3.436 3.461H6.608C6.79527 3.45916 6.97428 3.38361 7.10624 3.25072C7.2382 3.11782 7.31248 2.93828 7.313 2.751C7.313 2.361 6.994 2.041 6.608 2.041H3.436C2.092 2.041 1 3.11 1 4.418V19.825C1 21.156 2.151 22.24 3.57 22.24H14.637C14.8246 22.2392 15.0042 22.164 15.1364 22.0309C15.2686 21.8977 15.3425 21.7176 15.342 21.53C15.342 21.141 15.022 20.82 14.637 20.82H3.57C2.931 20.82 2.411 20.371 2.411 19.826V6.557C2.73248 6.70481 3.08217 6.78123 3.436 6.781H20.423C21.061 6.781 21.581 7.23 21.581 7.775V11.207H18.603C17.259 11.207 16.167 12.396 16.167 13.861C16.167 15.326 17.259 16.515 18.603 16.515H21.581V19.812C21.581 20.357 21.061 20.806 20.423 20.806H18.253C18.0657 20.8078 17.8867 20.8834 17.7548 21.0163C17.6228 21.1492 17.5485 21.3287 17.548 21.516C17.548 21.905 17.86 22.226 18.254 22.226H20.43C21.849 22.226 23 21.142 23 19.812V7.775C23 6.736 22.28 5.855 21.292 5.518ZM17.734 2.983C18.098 3.08 18.395 3.313 18.581 3.641L19.576 5.368H17.147L16.063 3.477L16.672 3.125C16.999 2.931 17.377 2.886 17.734 2.983ZM12.319 2.595C12.478 2.5025 12.6538 2.44243 12.8361 2.41825C13.0185 2.39408 13.2038 2.4063 13.3814 2.45418C13.559 2.50207 13.7254 2.58469 13.8708 2.69726C14.0163 2.80982 14.1381 2.95011 14.229 3.11L15.521 5.368H7.544L12.319 2.595ZM21.559 15.102H18.61C18.046 15.102 17.585 14.549 17.585 13.868C17.585 13.188 18.045 12.635 18.61 12.635H21.56V15.102H21.559Z" fill="#292830"/>
</svg>
