<svg width="24" height="24" viewBox="0 0 24 24" fill="none" xmlns="http://www.w3.org/2000/svg">
<g clip-path="url(#clip0)">
<path d="M6.652 11.712C7.045 11.712 7.362 12.037 7.362 12.438C7.362 12.838 7.045 13.163 6.652 13.163H5.418L5.668 14.304H8.866C9.259 14.304 9.577 14.629 9.577 15.03C9.577 15.43 9.259 15.756 8.867 15.756H6.645L7.408 22.456H17.353L18.116 15.756H15.925C15.7347 15.7536 15.553 15.6759 15.4199 15.5398C15.2868 15.4037 15.2131 15.2203 15.215 15.03C15.215 14.63 15.533 14.304 15.925 14.304H19.094L19.344 13.164H9.404C9.21366 13.1616 9.03202 13.0839 8.89892 12.9478C8.76583 12.8117 8.69213 12.6283 8.694 12.438C8.694 12.037 9.012 11.712 9.404 11.712H20.232C20.448 11.712 20.652 11.812 20.786 11.984C20.853 12.0694 20.9003 12.1685 20.9245 12.2743C20.9487 12.3801 20.9492 12.49 20.926 12.596L20.356 15.189C20.3223 15.3483 20.2353 15.4913 20.1092 15.5944C19.9832 15.6975 19.8258 15.7545 19.663 15.756H19.55L18.682 23.276C18.6618 23.449 18.5791 23.6087 18.4495 23.7251C18.3198 23.8414 18.1522 23.9065 17.978 23.908H6.785C6.61054 23.9065 6.44264 23.8413 6.31282 23.7248C6.18301 23.6082 6.10022 23.4483 6.08 23.275L5.213 15.755H5.098C4.93533 15.7536 4.77801 15.6967 4.65202 15.5938C4.52603 15.4909 4.43889 15.3481 4.405 15.189L3.837 12.596C3.81377 12.49 3.81418 12.3803 3.8382 12.2745C3.86223 12.1687 3.90928 12.0695 3.976 11.984C4.04198 11.8997 4.12618 11.8314 4.2223 11.7843C4.31842 11.7372 4.42396 11.7125 4.531 11.712H6.652ZM12.571 13.9C12.88 13.9 13.131 14.169 13.131 14.503V14.593C13.5291 14.715 13.8775 14.9616 14.125 15.2964C14.3726 15.6312 14.5061 16.0366 14.506 16.453C14.506 16.786 14.254 17.057 13.945 17.057C13.635 17.057 13.385 16.787 13.385 16.454C13.385 16.047 13.019 15.715 12.571 15.715C12.122 15.715 11.757 16.047 11.757 16.454C11.757 16.862 12.122 17.194 12.571 17.194C13.035 17.1986 13.4821 17.3688 13.8317 17.6739C14.1813 17.979 14.4105 18.3989 14.4779 18.858C14.5453 19.3171 14.4466 19.7851 14.1995 20.1779C13.9523 20.5706 13.5731 20.8621 13.13 21V21.038C13.13 21.371 12.879 21.642 12.57 21.642C12.26 21.642 12.009 21.371 12.009 21.038V21C11.6107 20.8777 11.2621 20.6308 11.0146 20.2956C10.767 19.9605 10.6336 19.5547 10.634 19.138C10.634 18.806 10.885 18.535 11.194 18.535C11.504 18.535 11.756 18.805 11.756 19.138C11.756 19.545 12.121 19.877 12.57 19.877C13.018 19.877 13.384 19.545 13.384 19.138C13.384 18.73 13.018 18.398 12.57 18.398C12.0556 18.3964 11.5629 18.1908 11.2 17.8264C10.837 17.4619 10.6335 16.9683 10.634 16.454C10.634 15.577 11.214 14.834 12.009 14.593V14.503C12.009 14.169 12.26 13.9 12.569 13.9H12.571ZM2.468 0.98399C5.855 -0.29401 8.363 -0.32801 9.921 0.88699C11.549 2.15499 11.554 4.32899 11.494 5.14299C12.1443 5.89051 12.6471 6.75439 12.976 7.68899C13.216 7.34199 13.512 6.97999 13.875 6.62499C13.9 5.87099 14.128 4.12799 15.615 3.04999C17.212 1.89199 19.684 1.91199 22.962 3.10799C23.269 3.21899 23.462 3.51399 23.437 3.83099C23.429 3.94099 23.204 6.53799 21.127 8.18999C20.034 9.05899 18.655 9.49699 17.015 9.49699C16.614 9.49699 16.196 9.47099 15.763 9.41799C15.6687 9.40767 15.5773 9.37881 15.4942 9.33307C15.411 9.28732 15.3378 9.2256 15.2786 9.15144C15.2194 9.07728 15.1754 8.99215 15.1492 8.90094C15.1231 8.80974 15.1152 8.71426 15.126 8.61999C15.1545 8.42997 15.2563 8.25867 15.4096 8.14279C15.5628 8.0269 15.7554 7.97564 15.946 7.99999C17.726 8.21599 19.151 7.90999 20.186 7.09199C21.284 6.22399 21.717 4.95699 21.88 4.24899C19.422 3.43899 17.567 3.41899 16.493 4.19599C16.059 4.50999 15.795 4.93299 15.625 5.34899C16.558 4.83599 17.711 4.41399 19.167 4.19599C19.3573 4.16496 19.5521 4.21025 19.7092 4.32202C19.8663 4.4338 19.973 4.60304 20.006 4.79299C20.0197 4.88688 20.0146 4.98256 19.9911 5.07448C19.9676 5.16641 19.9261 5.25276 19.869 5.32854C19.8119 5.40433 19.7403 5.46804 19.6585 5.51601C19.5766 5.56397 19.486 5.59524 19.392 5.60799C14.232 6.38099 13.458 9.98499 13.427 10.138C13.392 10.3033 13.3011 10.4514 13.1696 10.5575C13.038 10.6635 12.8739 10.7209 12.705 10.72L12.661 10.718C12.4858 10.7102 12.3194 10.6389 12.1928 10.5175C12.0662 10.396 11.9881 10.2327 11.973 10.058C11.581 4.75799 6.469 3.56999 6.251 3.52199C6.15832 3.50286 6.07035 3.46555 5.99218 3.41221C5.91401 3.35888 5.84719 3.29057 5.79558 3.21125C5.74397 3.13193 5.7086 3.04317 5.6915 2.95009C5.67441 2.85701 5.67594 2.76147 5.696 2.66899C5.71961 2.57376 5.762 2.4842 5.82068 2.40557C5.87936 2.32694 5.95315 2.26082 6.03772 2.21108C6.1223 2.16134 6.21595 2.12899 6.31319 2.11593C6.41043 2.10286 6.5093 2.10934 6.604 2.13499L6.687 2.15699C7.097 2.26699 8.516 2.69799 9.95 3.73199C9.834 3.11599 9.577 2.44799 8.999 1.99899C7.961 1.19499 6.073 1.24099 3.519 2.12899C3.711 3.25299 4.652 5.95799 9.236 6.00399C9.641 6.00799 9.966 6.33199 9.963 6.72699C9.95828 6.91788 9.87844 7.0992 9.74082 7.23157C9.60321 7.36394 9.41893 7.43668 9.228 7.43399C2.296 7.36299 2.012 2.06399 2 1.67199V1.64899C2.0015 1.50379 2.04704 1.36247 2.13061 1.24373C2.21418 1.12498 2.33183 1.03441 2.468 0.98399Z" fill="#292830"/>
</g>
<defs>
<clipPath id="clip0">
<rect width="24" height="24" fill="white"/>
</clipPath>
</defs>
</svg>
