<svg width="24" height="24" viewBox="0 0 24 24" fill="none" xmlns="http://www.w3.org/2000/svg">
<path d="M17.179 4.756C17.218 4.84596 17.2381 4.94296 17.2381 5.041C17.2381 5.13904 17.218 5.23604 17.179 5.326C17.139 5.426 17.089 5.506 17.019 5.576C16.8745 5.7107 16.6864 5.78881 16.489 5.796C16.2881 5.79121 16.096 5.71294 15.949 5.576C15.8821 5.50217 15.828 5.41767 15.789 5.326C15.757 5.23605 15.7402 5.14145 15.739 5.046C15.739 4.946 15.759 4.846 15.789 4.756C15.829 4.666 15.889 4.586 15.949 4.516C16.019 4.446 16.109 4.386 16.199 4.356C16.379 4.276 16.589 4.276 16.769 4.356C16.859 4.386 16.949 4.446 17.019 4.516C17.089 4.586 17.139 4.666 17.179 4.756ZM19.978 4.756C20.017 4.84596 20.0371 4.94296 20.0371 5.041C20.0371 5.13904 20.017 5.23604 19.978 5.326C19.938 5.426 19.888 5.506 19.818 5.576C19.6735 5.7107 19.4854 5.78881 19.288 5.796C19.0871 5.79121 18.895 5.71294 18.748 5.576C18.6811 5.50217 18.627 5.41767 18.588 5.326C18.556 5.23605 18.5392 5.14145 18.538 5.046C18.538 4.946 18.558 4.846 18.588 4.756C18.628 4.666 18.688 4.586 18.748 4.516C18.818 4.446 18.908 4.386 18.998 4.356C19.178 4.276 19.388 4.276 19.568 4.356C19.658 4.386 19.748 4.446 19.818 4.516C19.888 4.586 19.938 4.666 19.978 4.756ZM14.328 5.046C14.328 5.24491 14.249 5.43568 14.1083 5.57633C13.9677 5.71698 13.7769 5.796 13.578 5.796H4.712C4.51309 5.796 4.32232 5.71698 4.18167 5.57633C4.04102 5.43568 3.962 5.24491 3.962 5.046C3.962 4.84709 4.04102 4.65632 4.18167 4.51567C4.32232 4.37502 4.51309 4.296 4.712 4.296H13.58C13.7789 4.296 13.9697 4.37502 14.1103 4.51567C14.251 4.65632 14.33 4.84709 14.33 5.046H14.328ZM21.395 7.305H2.53V3.885C2.53 3.175 3.108 2.595 3.82 2.595H20.18C20.89 2.595 21.47 3.175 21.47 3.885V7.32C21.444 7.318 21.42 7.305 21.394 7.305H21.395ZM20.18 1.095H3.82C3.08029 1.0958 2.3711 1.39 1.84805 1.91305C1.32499 2.4361 1.03079 3.14529 1.03 3.885V20.114C1.03079 20.8537 1.32499 21.5629 1.84805 22.086C2.3711 22.609 3.08029 22.9032 3.82 22.904H15.21C15.4089 22.904 15.5997 22.825 15.7403 22.6843C15.881 22.5437 15.96 22.3529 15.96 22.154C15.96 21.9551 15.881 21.7643 15.7403 21.6237C15.5997 21.483 15.4089 21.404 15.21 21.404H3.82C3.109 21.404 2.53 20.824 2.53 20.114V8.804H21.394C21.421 8.804 21.444 8.793 21.47 8.79V20.114C21.47 20.824 20.89 21.404 20.18 21.404H19.037C18.8381 21.404 18.6473 21.483 18.5067 21.6237C18.366 21.7643 18.287 21.9551 18.287 22.154C18.287 22.3529 18.366 22.5437 18.5067 22.6843C18.6473 22.825 18.8381 22.904 19.037 22.904H20.18C20.9197 22.9032 21.6289 22.609 22.1519 22.086C22.675 21.5629 22.9692 20.8537 22.97 20.114V3.886C22.9692 3.14629 22.675 2.4371 22.1519 1.91405C21.6289 1.391 20.9197 1.0968 20.18 1.096" fill="#292830"/>
</svg>
