<svg width="24" height="24" viewBox="0 0 24 24" fill="none" xmlns="http://www.w3.org/2000/svg">
<path fill-rule="evenodd" clip-rule="evenodd" d="M0.41 5C0 5 0 5.41 0 5.41V9.373C0 9.783 0.41 9.783 0.41 9.783H4.373C4.783 9.783 4.783 9.373 4.783 9.373V5.41C4.783 5 4.373 5 4.373 5H0.41ZM9.94 5.01C9.94 5.01 9.53 5.01 9.24 5.298L0.29 14.232C0.29 14.232 0 14.522 0 14.93V18.895C0 18.895 0 19.304 0.41 19.304H4.373C4.373 19.304 4.783 19.304 5.072 19.014L14.024 10.082C14.024 10.082 14.313 9.793 14.313 9.384V5.419C14.313 5.419 14.313 5.009 13.903 5.009H9.94V5.01Z" fill="#292830"/>
<path fill-rule="evenodd" clip-rule="evenodd" d="M19.485 5.01C19.485 5.01 19.076 5.01 18.787 5.298L9.82 14.241C9.82 14.241 9.53 14.53 9.53 14.939V18.903C9.53 18.903 9.53 19.313 9.94 19.313H13.904C13.904 19.313 14.313 19.313 14.603 19.023L23.569 10.081C23.569 10.081 23.859 9.792 23.859 9.383V5.419C23.859 5.419 23.859 5.009 23.449 5.009H19.485V5.01Z" fill="#292830"/>
</svg>
