<svg width="24" height="24" viewBox="0 0 24 24" fill="none" xmlns="http://www.w3.org/2000/svg">
<path d="M14.123 21.486C14.3495 21.4383 14.5856 21.4826 14.7795 21.6089C14.9734 21.7353 15.1092 21.9335 15.157 22.16L15.173 22.269C15.1902 22.4807 15.1297 22.6915 15.0026 22.8618C14.8756 23.0321 14.6909 23.1502 14.483 23.194C14.176 23.259 13.861 23.311 13.549 23.349C13.3192 23.3773 13.0876 23.3131 12.9051 23.1705C12.7226 23.028 12.6042 22.8188 12.576 22.589C12.5478 22.3592 12.612 22.1276 12.7545 21.9451C12.897 21.7626 13.1062 21.6443 13.336 21.616C13.599 21.584 13.864 21.54 14.123 21.486ZM8.295 21.846C8.36323 21.6249 8.51648 21.4399 8.72106 21.3317C8.92564 21.2235 9.16481 21.2009 9.386 21.269C9.639 21.347 9.899 21.415 10.158 21.472L10.263 21.502C10.4723 21.5761 10.6456 21.7271 10.7475 21.9244C10.8494 22.1217 10.8722 22.3504 10.8115 22.564C10.7507 22.7775 10.6108 22.9599 10.4203 23.074C10.2298 23.1881 10.003 23.2253 9.786 23.178C9.47774 23.1106 9.17247 23.0302 8.871 22.937C8.64981 22.8686 8.46486 22.7151 8.35684 22.5103C8.24882 22.3055 8.22658 22.0662 8.295 21.845V21.846ZM17.741 19.868C17.9277 19.7312 18.1611 19.6741 18.3899 19.7094C18.6187 19.7447 18.8241 19.8693 18.961 20.056L19.025 20.156C19.1255 20.3416 19.1553 20.5573 19.109 20.7633C19.0627 20.9692 18.9433 21.1513 18.773 21.276C18.52 21.462 18.255 21.639 17.987 21.803C17.8892 21.8628 17.7805 21.9027 17.6673 21.9204C17.554 21.9382 17.4384 21.9335 17.3269 21.9065C17.2155 21.8796 17.1105 21.831 17.0178 21.7635C16.9252 21.696 16.8468 21.6108 16.787 21.513C16.7273 21.4152 16.6874 21.3065 16.6696 21.1933C16.6518 21.08 16.6565 20.9644 16.6835 20.8529C16.7104 20.7415 16.759 20.6365 16.8265 20.5438C16.8941 20.4512 16.9792 20.3728 17.077 20.313C17.304 20.175 17.527 20.025 17.741 19.868ZM4.7 19.402C4.85332 19.2286 5.06924 19.1232 5.30027 19.1089C5.5313 19.0947 5.75853 19.1728 5.932 19.326C6.131 19.502 6.34 19.671 6.552 19.829L6.642 19.907C6.79833 20.0623 6.89017 20.2709 6.8991 20.491C6.90802 20.7112 6.83338 20.9266 6.69014 21.094C6.5469 21.2614 6.34565 21.3685 6.12677 21.3937C5.9079 21.4189 5.68757 21.3604 5.51 21.23C5.25713 21.0417 5.01225 20.8428 4.776 20.634C4.60259 20.4807 4.49718 20.2648 4.48292 20.0337C4.46867 19.8027 4.54675 19.5755 4.7 19.402ZM20.378 16.907C20.4345 16.8073 20.5102 16.7196 20.6006 16.6491C20.691 16.5786 20.7944 16.5266 20.9049 16.496C21.0154 16.4655 21.1308 16.457 21.2446 16.4711C21.3584 16.4851 21.4683 16.5215 21.568 16.578L21.66 16.638C22.008 16.898 22.116 17.381 21.896 17.768C21.741 18.041 21.573 18.311 21.395 18.571C21.3301 18.6656 21.2473 18.7464 21.1511 18.8089C21.055 18.8715 20.9475 18.9144 20.8348 18.9354C20.7221 18.9564 20.6063 18.955 20.4941 18.9312C20.382 18.9075 20.2756 18.8619 20.181 18.797C20.0865 18.7321 20.0056 18.6493 19.9431 18.5532C19.8805 18.457 19.8376 18.3495 19.8166 18.2368C19.7956 18.1241 19.797 18.0083 19.8208 17.8961C19.8445 17.784 19.8901 17.6776 19.955 17.583C20.105 17.365 20.247 17.137 20.378 16.907ZM2.422 15.699C2.63298 15.6037 2.87319 15.5961 3.08979 15.6778C3.3064 15.7596 3.48165 15.924 3.577 16.135C3.686 16.377 3.807 16.617 3.936 16.849L3.983 16.948C4.0642 17.1535 4.06446 17.3821 3.98373 17.5878C3.90301 17.7935 3.7473 17.9609 3.54801 18.0563C3.34872 18.1517 3.12068 18.1679 2.90986 18.1018C2.69904 18.0357 2.52113 17.8921 2.412 17.7C2.258 17.425 2.115 17.14 1.985 16.854C1.93783 16.7495 1.91171 16.6367 1.90814 16.5221C1.90458 16.4074 1.92363 16.2932 1.96421 16.186C2.00479 16.0787 2.06611 15.9805 2.14466 15.8969C2.22321 15.8134 2.31745 15.7461 2.422 15.699ZM22.4 12.332L22.51 12.335L22.618 12.352C22.8257 12.3977 23.0096 12.5175 23.1351 12.6891C23.2607 12.8607 23.3193 13.0723 23.3 13.284C23.272 13.597 23.23 13.913 23.175 14.222C23.1346 14.4501 23.0052 14.6528 22.8153 14.7855C22.6254 14.9181 22.3906 14.97 22.1625 14.9295C21.9344 14.8891 21.7317 14.7597 21.5991 14.5698C21.4664 14.3799 21.4146 14.1451 21.455 13.917C21.502 13.657 21.537 13.39 21.561 13.126C21.5714 13.0118 21.6042 12.9008 21.6576 12.7993C21.7109 12.6978 21.7837 12.6078 21.8719 12.5344C21.96 12.4611 22.0617 12.4058 22.1712 12.3717C22.2807 12.3377 22.3958 12.3256 22.51 12.336L22.4 12.332ZM1.873 11.387C2.355 11.387 2.746 11.778 2.746 12.26C2.746 12.527 2.757 12.795 2.779 13.059L2.781 13.169C2.77129 13.3906 2.6776 13.6002 2.51896 13.7552C2.36032 13.9102 2.14863 13.999 1.92688 14.0036C1.70513 14.0082 1.48995 13.9282 1.32504 13.7799C1.16013 13.6315 1.05786 13.426 1.039 13.205C1.01288 12.8907 0.999865 12.5754 1 12.26C1 11.778 1.39 11.387 1.873 11.387ZM12.085 1.00001C15.075 1.00001 17.887 2.16501 20.001 4.27901C21.3685 5.64534 22.3589 7.34238 22.876 9.20501L22.898 9.31301C22.9285 9.53217 22.8747 9.75475 22.7474 9.93575C22.6201 10.1167 22.4289 10.2426 22.2123 10.288C21.9957 10.3333 21.77 10.2948 21.5808 10.18C21.3915 10.0653 21.2529 9.88301 21.193 9.67001C20.7567 8.09818 19.9209 6.66606 18.767 5.51301C17.8915 4.63286 16.8501 3.93512 15.7032 3.46016C14.5562 2.9852 13.3264 2.74247 12.085 2.74601C10.8438 2.7426 9.61415 2.9854 8.46736 3.46035C7.32057 3.93531 6.27937 4.63298 5.404 5.51301L4.985 5.93201H7.852C8.08354 5.93201 8.30559 6.02399 8.46931 6.18771C8.63302 6.35143 8.725 6.57348 8.725 6.80501C8.725 7.03654 8.63302 7.2586 8.46931 7.42231C8.30559 7.58603 8.08354 7.67801 7.852 7.67801H4.722C4.03301 7.6714 3.37482 7.39158 2.892 6.90001C2.40854 6.41186 2.13661 5.75305 2.135 5.06601V1.87301C2.135 1.64148 2.22698 1.41943 2.3907 1.25571C2.55442 1.09199 2.77647 1.00001 3.008 1.00001C3.23953 1.00001 3.46159 1.09199 3.62531 1.25571C3.78902 1.41943 3.881 1.64148 3.881 1.87301V4.56801L4.169 4.27901C5.20613 3.23621 6.43979 2.40946 7.79857 1.84662C9.15735 1.28378 10.6143 0.996025 12.085 1.00001Z" fill="#292830"/>
</svg>
