<svg width="24" height="24" viewBox="0 0 24 24" fill="none" xmlns="http://www.w3.org/2000/svg">
<g clip-path="url(#clip0)">
<path d="M12.034 13.358C11.398 13.358 10.88 12.921 10.88 12.384C10.88 11.848 11.398 11.411 12.034 11.411C12.671 11.411 13.188 11.848 13.188 12.384C13.188 12.5948 13.2718 12.797 13.4208 12.9461C13.5699 13.0952 13.7722 13.179 13.983 13.179C14.1938 13.179 14.3961 13.0952 14.5451 12.9461C14.6942 12.797 14.778 12.5948 14.778 12.384C14.778 11.229 13.955 10.251 12.829 9.93099V9.81299C12.8217 9.60715 12.7348 9.41218 12.5866 9.26915C12.4384 9.12612 12.2405 9.04618 12.0345 9.04618C11.8285 9.04618 11.6306 9.12612 11.4824 9.26915C11.3342 9.41218 11.2473 9.60715 11.24 9.81299V9.93099C10.113 10.251 9.291 11.229 9.291 12.384C9.291 13.798 10.521 14.948 12.034 14.948C12.671 14.948 13.188 15.385 13.188 15.921C13.188 16.459 12.671 16.896 12.034 16.896C11.398 16.896 10.88 16.459 10.88 15.921C10.8727 15.7152 10.7858 15.5202 10.6376 15.3772C10.4894 15.2341 10.2915 15.1542 10.0855 15.1542C9.87953 15.1542 9.68161 15.2341 9.53341 15.3772C9.38521 15.5202 9.2983 15.7152 9.291 15.921C9.291 17.077 10.113 18.056 11.24 18.375V18.426C11.24 18.6367 11.3237 18.8388 11.4727 18.9878C11.6217 19.1368 11.8238 19.2205 12.0345 19.2205C12.2452 19.2205 12.4473 19.1368 12.5963 18.9878C12.7453 18.8388 12.829 18.6367 12.829 18.426V18.376C13.955 18.056 14.778 17.077 14.778 15.921C14.778 14.508 13.547 13.358 12.034 13.358ZM17.489 21.898H6.515C6.4487 21.898 6.38511 21.8717 6.33822 21.8248C6.29134 21.7779 6.265 21.7143 6.265 21.648V6.34099H17.739V21.646C17.739 21.783 17.626 21.896 17.489 21.896V21.898ZM21.214 0.60299H20.071C19.8721 0.60299 19.6813 0.682007 19.5407 0.82266C19.4 0.963312 19.321 1.15408 19.321 1.35299C19.321 1.5519 19.4 1.74267 19.5407 1.88332C19.6813 2.02397 19.8721 2.10299 20.071 2.10299H21.214C21.925 2.10299 22.504 2.68099 22.504 3.39299V7.79099C22.504 8.50299 21.925 9.08099 21.214 9.08099H19.239V6.34199H19.928C20.1269 6.34199 20.3177 6.26297 20.4583 6.12232C20.599 5.98167 20.678 5.7909 20.678 5.59199C20.678 5.39308 20.599 5.20231 20.4583 5.06166C20.3177 4.92101 20.1269 4.84199 19.928 4.84199H4.076C3.87709 4.84199 3.68632 4.92101 3.54567 5.06166C3.40502 5.20231 3.326 5.39308 3.326 5.59199C3.326 5.7909 3.40502 5.98167 3.54567 6.12232C3.68632 6.26297 3.87709 6.34199 4.076 6.34199H4.765V9.08199H2.79C2.44787 9.08199 2.11975 8.94608 1.87783 8.70416C1.63591 8.46223 1.5 8.13412 1.5 7.79199V3.39199C1.5 2.67999 2.078 2.10199 2.79 2.10199H16.245C16.4439 2.10199 16.6347 2.02297 16.7753 1.88232C16.916 1.74167 16.995 1.5509 16.995 1.35199C16.995 1.15308 16.916 0.962312 16.7753 0.82166C16.6347 0.681007 16.4439 0.60199 16.245 0.60199H2.79C2.05004 0.60252 1.34054 0.896773 0.817404 1.4201C0.294264 1.94343 0.000264841 2.65302 0 3.39299L0 7.79099C0.000529747 8.53078 0.294645 9.24012 0.817757 9.76323C1.34087 10.2863 2.05021 10.5805 2.79 10.581H4.765V21.647C4.765 22.611 5.55 23.397 6.515 23.397H17.489C18.453 23.397 19.239 22.611 19.239 21.647V10.581H21.214C21.9537 10.5802 22.6629 10.286 23.186 9.76294C23.709 9.23989 24.0032 8.5307 24.004 7.79099V3.39299C24.0032 2.65328 23.709 1.94409 23.186 1.42104C22.6629 0.897984 21.9537 0.603784 21.214 0.60299Z" fill="#292830"/>
</g>
<defs>
<clipPath id="clip0">
<rect width="24" height="24" fill="white"/>
</clipPath>
</defs>
</svg>
